<svg width="601" height="118" viewBox="0 0 601 118" fill="none" xmlns="http://www.w3.org/2000/svg">
<path d="M52.7998 58.7C52.7998 61.9 55.2998 64.4 58.4998 64.4C61.6998 64.4 64.1998 61.9 64.1998 58.7C64.1998 55.5 61.6998 53 58.4998 53C55.2998 53.1 52.7998 55.6 52.7998 58.7ZM100.6 53.1C97.3998 53.1 94.8998 55.6 94.8998 58.8C94.8998 62 97.3998 64.5 100.6 64.5C103.8 64.5 106.3 62 106.3 58.8C106.3 55.6 103.8 53.1 100.6 53.1ZM100.6 95.9C97.3998 95.9 94.8998 98.4 94.8998 101.6C94.8998 104.8 97.3998 107.3 100.6 107.3C103.8 107.3 106.3 104.8 106.3 101.6C106.3 98.4 103.8 95.9 100.6 95.9Z" fill="#F3BB2D"/>
<path d="M112.7 6.00018C107 -1.09982 96.8 -1.3998 90.8 4.2002L90.1 4.90021L88.7 6.00018C83 10.6002 74.5 10.2002 69.2 4.90021V4.50018C67.4 2.70018 65 1.30019 62.5 0.600189C62.1 0.600189 61.4 0.200195 61.1 0.200195H55.4C55 0.200195 54.7 0.200189 54.3 0.600189H53.6C53.2 0.600189 52.9 1.00018 52.5 1.00018C52.5 1.00018 52.1 1.00021 52.1 1.40021C51.7 1.40021 51.4 1.8002 51 1.8002C51 1.8002 50.6 1.8002 50.6 2.2002C50.2 2.6002 49.9 2.60021 49.5 2.90021C49.5 2.90021 49.1 2.9002 49.1 3.3002C48.7 3.7002 48.4 3.70018 48 4.00018L47.6 4.40021L46.9 5.10019L45.5 6.2002C39.8 10.8002 31.3 10.4002 26.4 5.10019C26.4 5.10019 26 5.1002 26 4.7002L25.3 4.00018C23.2 2.20018 20.7 0.800183 17.9 0.500183H11.5C11.5 0.900183 11.1 0.900195 10.8 1.2002H10.7C8.9 1.9002 7.2 2.60018 5.7 4.00018L5.3 4.40021L4.2 5.50018C2.8 6.90018 2.1 8.70019 1.4 10.1002C1.4 10.5002 1 10.8002 1 11.2002C1 11.6002 0.6 11.9002 0.6 12.6002C0.2 15.1002 0.2 17.6002 1 20.0002C1 20.4002 1.4 20.7002 1.4 21.1002V21.5002C1.4 21.9002 1.8 22.2002 1.8 22.6002C2.2 23.0002 2.2 23.3002 2.5 24.0002C3.2 24.4002 3.9 25.1002 4.3 25.4002L5 26.1002L5.7 26.8002C11 32.1002 11 41.3002 5.3 47.0002C4.6 47.7002 3.5 48.8002 3.2 49.5002C2.8 49.9002 2.8 50.2002 2.5 50.9002V51.3002C2.1 51.7002 2.1 52.0002 1.8 52.4002V52.8002C1.8 53.2002 1.4 53.5002 1.4 53.9002V54.3002C1.4 54.7002 1.4 55.0002 1 55.4002V60.7002C1 61.1002 1 61.4002 1.4 61.8002V62.2002C2.1 64.7002 3.5 67.2002 5.6 69.3002C11.3 75.0002 11.3 84.2002 5.6 89.8002L5.2 90.2002L4.5 90.9002V91.3002C4.1 91.7002 3.8 92.0002 3.8 92.4002C3.8 92.4002 3.8 92.8002 3.4 92.8002C3 93.2002 3 93.5002 2.7 93.9002L2.3 94.3002C2.3 94.7002 1.9 94.7002 1.9 95.0002C1.9 95.3002 1.5 95.4002 1.5 95.7002C1.5 96.1002 1.5 96.1002 1.1 96.4002C0.4 97.8002 0 99.6002 0 101V103.8C0.4 104.9 0.4 105.9 1.1 106.6C1.1 107 1.5 107.3 1.5 107.3C1.5 107.3 1.5 107.7 1.9 107.7C1.9 108.1 2.3 108.4 2.3 108.8C2.3 108.8 2.3 109.2 2.7 109.2C3.1 109.9 3.4 110.3 3.8 110.6C3.8 110.6 3.8 111 4.2 111C4.2 111 4.2 111.4 4.6 111.4C4.6 111.8 5 111.8 5 111.8L5.4 112.2C5.8 112.6 6.1 112.6 6.1 112.9L6.5 113.3C6.5 113.3 6.9 113.3 6.9 113.7C7.3 114.1 7.6 114.4 8 114.4C8 114.4 8.4 114.4 8.4 114.8C8.8 115.2 9.1 115.2 9.5 115.5H9.7C10.1 115.9 10.4 115.9 11.1 115.9C11.5 115.9 12.2 116.3 12.5 116.3H12.9C13.3 116.3 13.6 116.3 14 116.7H17.2C18.3 116.7 19 116.3 20 116.3H20.4C20.8 116.3 21.1 115.9 21.5 115.9H21.7C22.1 115.9 22.4 115.5 22.8 115.5H23.2C23.9 115.1 25 114.4 25.7 114.1L26.8 113L27.2 112.6C32.9 106.6 42.1 106.6 47.7 112.6C54.1 119.3 64.7 119 70.7 111.5C74.9 106.2 74.9 98.4002 70.7 92.7002C65 85.6002 54.8 85.3002 48.8 90.9002L48.1 91.6002L46.7 92.7002C41 97.3002 32.5 96.9002 27.2 91.6002L26.5 90.9002L25.4 89.5002C20.8 83.8002 21.2 75.3002 26.5 70.0002C29.7 67.2002 31.1 63.3002 31.1 59.4002V58.3002C31.1 54.8002 29.7 51.2002 26.9 48.7002C26.9 48.3002 26.5 48.3002 26.5 48.0002L25.4 46.6002C20.8 40.9002 21.2 32.4002 26.5 27.1002L26.9 26.7002L27.3 26.3002C33 20.3002 42.2 20.3002 47.8 26.3002L48.2 26.7002L48.6 27.1002L49.3 27.8002C49.7 27.8002 49.7 28.2002 50 28.2002C50.3 28.2002 50.4 28.6002 50.7 28.6002C51 28.6002 51.1 29.0002 51.4 29.0002C51.7 29.0002 51.8 29.4002 52.1 29.4002C52.4 29.4002 52.5 29.8002 52.8 29.8002C53.1 29.8002 53.2 30.2002 53.5 30.2002C53.8 30.2002 53.9 30.2002 54.2 30.6002C54.6 30.6002 54.6 30.6002 54.9 31.0002H60.9C61.3 31.0002 61.6 31.0002 62 30.6002H62.7C63.1 30.6002 63.4 30.2002 63.8 30.2002H64.2C64.6 30.2002 64.9 29.8002 65.6 29.5002C67 28.8002 68.4 27.7002 69.5 26.7002L69.9 26.3002C75.6 20.3002 84.8 20.3002 90.4 26.3002C96.4 33.4002 107.4 33.0002 113.1 25.6002C116.9 19.1002 116.9 11.3002 112.7 6.00018Z" fill="#F3BB2D"/>
<path d="M193.4 49.9C191.3 47.8 189.5 46.4 187 45.3C184.9 44.2 182.4 43.5 179.2 43.5C176.4 43.5 173.5 44.2 171.4 45.3C169.3 46.4 167.5 47.8 166.1 49.9C164.7 51.7 163.6 53.8 162.9 56.3C162.2 58.8 161.8 61.3 161.8 63.7C161.8 66.1 162.2 68.7 163.2 71.1C163.9 73.6 165.3 75.3 166.7 77.1C168.1 78.9 170.2 80.3 172.4 81.3C174.5 82.4 177 82.7 179.8 82.7C183 82.7 185.5 82 187.6 80.9C189.7 79.8 191.8 78.4 193.6 76.3L201 84.1C198.2 87.3 195 89.4 191.4 90.8C187.9 92.2 184 92.9 179.7 92.9C175.5 92.9 171.2 92.2 167.7 90.8C164.2 89.4 161 87.3 158.5 84.8C156 82.3 153.9 79.1 152.5 75.6C151.1 72.1 150.4 67.8 150.4 63.6C150.4 59.4 151.1 55.1 152.5 51.6C153.9 48.1 156 44.9 158.5 42C161 39.5 164.2 37.4 167.7 36C171.2 34.6 175.5 33.9 179.7 33.9C183.9 33.9 187.8 34.6 191.4 36C195.3 37.4 198.5 39.9 201.3 42.7L193.4 49.9ZM217.4 63C217.4 65.8 217.8 68.7 218.8 70.8C219.5 73.3 220.9 75.4 222.3 77.2C223.7 79 225.8 80.4 228 81.1C230.1 82.2 233 82.5 235.8 82.5C238.6 82.5 241.1 82.1 243.6 81.1C245.7 80 247.8 78.6 249.3 77.2C250.7 75.4 252.1 73.3 252.8 70.8C253.5 68.3 254.2 65.8 254.2 63C254.2 60.2 253.8 57.3 252.8 55.2C252.1 52.7 250.7 50.6 249.3 48.8C247.9 47 245.8 45.6 243.6 44.9C241.5 43.8 238.6 43.5 235.8 43.5C233 43.5 230.5 43.9 228 44.9C225.9 46 223.8 47.4 222.3 48.8C220.9 50.6 219.5 52.7 218.8 55.2C218.1 57.7 217.4 60.2 217.4 63ZM206.1 63C206.1 58.8 206.8 54.9 208.2 51.3C209.6 47.8 211.7 44.6 214.6 41.7C217.4 38.9 220.3 36.7 224.2 35.3C227.7 33.9 231.6 32.8 235.9 32.8C240.2 32.8 244 33.5 247.6 35.3C251.1 36.7 254.3 38.8 257.2 41.7C260 44.5 261.8 47.7 263.6 51.3C265 54.8 265.7 58.7 265.7 63C265.7 67.2 265 71.1 263.6 74.7C262.2 78.2 260.1 81.4 257.2 84.3C254.4 87.1 251.5 88.9 247.6 90.7C244.1 92.1 240.2 93.2 235.9 93.2C231.7 93.2 227.8 92.5 224.2 90.7C220.7 89.3 217.5 87.2 214.6 84.3C211.8 81.5 210 78.6 208.2 74.7C207.2 71.1 206.1 67.2 206.1 63ZM276.6 91.7H287.2V35.1H276.6V91.7ZM274.1 14.5C274.1 12.4 274.8 10.6 276.2 8.80002C277.6 7.40002 279.4 6.30002 281.5 6.30002C283.6 6.30002 285.4 7.00002 286.8 8.80002C288.2 10.2 288.9 12.3 288.9 14.5C288.9 16.7 288.2 18.4 286.8 20.2C285.4 21.6 283.6 22.7 281.5 22.7C279.4 22.7 277.6 22 276.2 20.2C274.8 18.7 274.1 16.6 274.1 14.5ZM302 35H312.7V43.8H313.1C314.5 40.6 316.6 38.1 320.2 36.4C323.4 34.6 327.3 33.6 331.9 33.6C334.7 33.6 337.2 34 339.7 35C342.2 35.7 344.3 37.1 346.1 38.9C347.9 40.7 349.3 42.8 350.7 45.6C351.8 48.4 352.5 51.6 352.5 55.5V92H341.7V58.4C341.7 55.9 341.3 53.4 340.6 51.7C339.9 49.9 338.8 48.2 337.8 47.1C336.7 46 335.3 45 333.6 44.6C332.2 44.2 330.4 43.9 328.6 43.9C326.5 43.9 324.4 44.3 322.6 45C320.8 45.7 319.1 46.8 317.6 48.5C316.2 49.9 315.1 52 314.4 54.5C313.7 57 313.3 59.8 313.3 63V92.4H302.7V35.1M391.6 82.8C394.4 82.8 396.9 82.4 399.4 81.4C401.9 80.3 403.6 78.9 405.4 77.2C406.8 75.4 408.2 73.3 408.9 70.8C409.6 68.3 410.3 65.8 410.3 62.7C410.3 59.9 409.9 57 408.9 54.6C408.2 52.1 406.8 50 405.4 48.2C403.6 46.4 401.9 45 399.4 44C396.9 42.9 394.4 42.6 391.6 42.6C388.8 42.6 386.3 43 383.8 44C381.3 45.1 379.6 46.5 377.8 48.2C376.4 50 375 52.1 374.3 54.6C373.6 57.1 372.9 59.6 372.9 62.7C372.9 65.5 373.3 68.4 374.3 70.8C375 73.3 376.4 75.4 377.8 77.2C379.2 79 381.3 80.4 383.8 81.4C385.9 82.1 388.8 82.8 391.6 82.8ZM421 91.3H410.4V83.2H410C407.9 86.4 405 88.5 401.5 90.3C398 92.1 394.1 92.8 390.2 92.8C386 92.8 381.7 92.1 378.2 90.7C374.7 89.3 371.5 87.2 369 84.3C366.5 81.5 364.4 78.3 363.3 74.7C361.9 71.2 361.2 67.3 361.2 63C361.2 58.7 361.9 54.9 363.3 51C364.7 47.5 366.5 44.3 369 41.4C371.5 38.6 374.7 36.4 378.2 35C381.7 33.6 385.6 32.9 390.2 32.9C394.1 32.9 398 33.6 401.5 35.4C405 37.2 407.9 39.6 409.6 42.5H410V0H420.6V91.3H421ZM475.1 58.4C475.1 55.9 474.7 53.8 474 51.7C473.3 49.6 472.2 47.8 470.8 46.4C469.4 45 467.6 43.9 465.8 42.9C463.7 42.2 461.6 41.5 458.7 41.5C456.2 41.5 453.7 41.9 451.6 42.9C449.5 44 447.7 45 445.9 46.8C444.5 48.2 443.1 50 442.4 52.1C441.7 54.2 441 56 441 57.8H475L475.1 58.4ZM441.2 67.2C441.2 69.7 441.9 71.8 443 73.9C444.1 76 445.5 77.8 447.2 79.2C449 80.6 451.1 81.7 453.2 82.4C455.7 83.1 457.8 83.5 460.3 83.5C463.5 83.5 466.7 82.8 469.1 81C471.6 79.6 473.7 77.5 475.8 75L483.9 81.4C477.9 89.2 469.4 93.1 458.8 93.1C454.2 93.1 450.3 92.4 446.8 91C443.3 89.6 440.1 87.5 437.6 84.6C435.1 81.8 433 78.9 431.9 75C430.5 71.5 429.8 67.6 429.8 63.3C429.8 59.1 430.5 55.2 431.9 51.6C433.3 48.1 435.4 44.9 437.9 42C440.4 39.2 443.6 37.4 447.1 35.6C450.6 34.2 454.5 33.5 458.8 33.5C463.8 33.5 468 34.2 471.5 36C475 37.8 477.9 39.9 480 42.7C482.1 45.5 483.9 48.7 485 52.3C486.1 55.8 486.4 59.4 486.4 63.3V67.2H441.2V67.2ZM528.2 49.2C526.8 47.8 525.4 46.4 523.6 45.3C521.8 44.2 519.4 43.5 516.9 43.5C514.4 43.5 512.3 44.2 510.2 45.3C508.4 46.4 507.4 47.8 507.4 49.9C507.4 51.7 508.1 53.1 509.2 53.8C510.3 54.9 511.7 55.6 513.1 56.3C514.5 57 516.3 57.4 517.7 57.7C519.5 58.1 520.9 58.4 521.9 58.4C524 59.1 526.5 59.5 528.3 60.5C530.4 61.2 532.2 62.3 533.6 63.7C535 65.1 536.1 66.5 537.1 68.3C537.8 70.1 538.5 72.2 538.5 75C538.5 78.2 537.8 81 536.4 83.1C535 85.2 533.2 87.3 531.1 88.8C529 90.3 526.5 91.3 523.7 92C520.9 92.7 518 93.1 515.6 93.1C511 93.1 506.8 92.4 503.2 91C499.7 89.6 496.5 87.1 493.6 83.2L501.7 76.5C503.5 78.3 505.2 79.7 507.4 81.1C509.6 82.5 512 83.2 515.2 83.2C516.6 83.2 518 83.2 519.4 82.8C520.8 82.4 521.9 82.1 522.9 81.4C524 80.7 524.7 80 525.4 79.3C526.1 78.2 526.5 77.2 526.5 76.1C526.5 74.7 526.1 73.3 525.1 72.2C524 71.1 523 70.4 521.6 69.7C520.2 69 518.8 68.6 517.4 68.3L513.2 67.2C511.1 66.5 508.6 66.1 506.8 65.4C504.7 64.7 502.9 63.6 501.5 62.6C500.1 61.5 498.7 59.8 497.6 58C496.5 56.2 496.2 53.8 496.2 51.3C496.2 48.5 496.9 45.6 498 43.5C499.1 41.4 500.8 39.6 503 38.2C505.1 36.8 507.2 35.7 509.7 35C512.2 34.3 515 33.9 517.5 33.9C521.4 33.9 524.9 34.6 528.5 36C532 37.4 534.9 39.9 537 43.1L528.2 49.2ZM548.8 1.40002H559.4V58.7L583.5 34.6H598L572.2 60.1L600.5 90.5H585.3L559.5 61.5V90.5H548.9V1.40002" fill="white"/>
</svg>
