<svg width="645" height="221" viewBox="0 0 645 221" fill="none" xmlns="http://www.w3.org/2000/svg">
<path d="M639.988 127.215C639.835 122.34 638.259 117.616 635.454 113.625C632.649 109.634 628.738 106.551 624.203 104.756C619.668 102.96 614.707 102.53 609.93 103.519C605.154 104.509 600.771 106.873 597.322 110.322C593.873 113.771 591.509 118.154 590.519 122.93C589.53 127.707 589.96 132.668 591.756 137.203C593.551 141.738 596.634 145.649 600.625 148.454C604.616 151.259 609.34 152.835 614.215 152.988C617.629 153.095 621.028 152.502 624.203 151.244C627.379 149.987 630.263 148.093 632.678 145.678C635.093 143.263 636.987 140.379 638.244 137.203C639.502 134.028 640.095 130.629 639.988 127.215V127.215ZM614.997 144.297C608.093 144.297 602.493 138.436 602.493 131.194C602.493 127.196 605.364 121.788 611.106 114.971C611.75 114.16 612.812 112.959 614.292 111.369C614.383 111.274 614.491 111.199 614.612 111.147C614.732 111.095 614.862 111.069 614.993 111.069C615.123 111.069 615.253 111.095 615.373 111.147C615.494 111.199 615.602 111.274 615.693 111.369C617.054 112.856 618.049 113.986 618.696 114.749C624.567 121.663 627.499 127.135 627.493 131.165C627.493 138.426 621.902 144.297 614.997 144.297Z" fill="white"/>
<path d="M7.68014 147C3.82673 147 1.42165 142.825 3.35498 139.491L78.755 9.49141C79.6494 7.94925 81.2974 7 83.0801 7H101.2C103.961 7 106.2 9.23857 106.2 12V23.8C106.2 26.5614 103.961 28.8 101.2 28.8H91.5559C89.0862 28.8 88.0758 25.6273 90.0906 24.1991V24.1991C92.3019 22.6316 95.0984 25.1629 93.7583 27.5189L27.2379 144.472C26.349 146.035 24.6896 147 22.8917 147H7.68014ZM42.5999 114.6C39.7616 114.6 37.4925 112.24 37.6038 109.404L38.0116 99.0041C38.1168 96.3209 40.3226 94.2 43.0078 94.2H101.2C103.961 94.2 106.2 96.4386 106.2 99.2V109.6C106.2 112.361 103.961 114.6 101.2 114.6H42.5999ZM121.354 70.1533C121.379 67.4102 123.61 65.2 126.353 65.2H186C188.761 65.2 191 67.4386 191 70.2V81.6C191 84.3614 188.761 86.6 186 86.6H126.247C123.467 86.6 121.221 84.3328 121.247 81.5533L121.354 70.1533ZM123.4 120.2C123.4 122.961 125.639 125.2 128.4 125.2H197.4C200.161 125.2 202.4 127.439 202.4 130.2V142C202.4 144.761 200.161 147 197.4 147H102.4C99.6386 147 97.4 144.761 97.4 142V12C97.4 9.23857 99.6386 7 102.4 7H194.6C197.361 7 199.6 9.23857 199.6 12V23.8C199.6 26.5614 197.361 28.8 194.6 28.8H128.4C125.639 28.8 123.4 31.0386 123.4 33.8V120.2Z" fill="white"/>
<path d="M296.895 149C285.962 149 275.895 147.267 266.695 143.8C257.629 140.2 249.695 135.2 242.895 128.8C236.095 122.267 230.829 114.6 227.095 105.8C223.362 97 221.495 87.4 221.495 77C221.495 66.6 223.362 57 227.095 48.2C230.829 39.4 236.095 31.8 242.895 25.4C249.829 18.8667 257.895 13.8667 267.095 10.4C276.295 6.8 286.362 5 297.295 5C309.162 5 319.829 6.93333 329.295 10.8C337.361 14.0486 344.344 18.5677 350.245 24.3573C352.141 26.2175 352.007 29.2524 350.105 31.1073L340.63 40.3512C338.671 42.2628 335.554 42.2232 333.47 40.448C329.031 36.6662 324.306 33.7835 319.295 31.8C313.029 29.1333 306.095 27.8 298.495 27.8C291.162 27.8 284.362 29 278.095 31.4C271.829 33.8 266.429 37.2 261.895 41.6C257.362 46 253.829 51.2 251.295 57.2C248.895 63.2 247.695 69.8 247.695 77C247.695 84.0667 248.895 90.6 251.295 96.6C253.829 102.6 257.362 107.867 261.895 112.4C266.429 116.8 271.762 120.2 277.895 122.6C284.029 125 290.829 126.2 298.295 126.2C305.229 126.2 311.895 125.133 318.295 123C323.302 121.263 328.113 118.664 332.729 115.205C335.054 113.462 338.397 113.768 340.16 116.079L351.695 131.2C344.362 137.067 335.829 141.533 326.095 144.6C316.495 147.533 306.762 149 296.895 149ZM331.411 128.396C328.937 128.055 327.095 125.94 327.095 123.444V80.4C327.095 77.6386 329.334 75.4 332.095 75.4H346.695C349.457 75.4 351.695 77.6386 351.695 80.4V131.2L331.411 128.396Z" fill="white"/>
<path d="M390.987 147C388.226 147 385.987 144.761 385.987 142V12C385.987 9.23857 388.226 7 390.987 7H406.987C409.749 7 411.987 9.23857 411.987 12V142C411.987 144.761 409.749 147 406.987 147H390.987Z" fill="white"/>
<path d="M454.855 147C452.093 147 449.855 144.761 449.855 142V12C449.855 9.23857 452.093 7 454.855 7H507.455C519.855 7 530.455 9 539.255 13C548.188 17 555.055 22.7333 559.855 30.2C564.655 37.6667 567.055 46.5333 567.055 56.8C567.055 67.0667 564.655 75.9333 559.855 83.4C555.055 90.7333 548.188 96.4 539.255 100.4C530.455 104.267 519.855 106.2 507.455 106.2H472.428C469.39 106.2 467.854 102.538 469.985 100.371V100.371C472.135 98.1843 475.855 99.7066 475.855 102.773V142C475.855 144.761 473.616 147 470.855 147H454.855ZM544.065 147C542.429 147 540.897 146.2 539.962 144.859L511.531 104.059C509.221 100.744 511.593 96.2 515.633 96.2H531.253C532.884 96.2 534.412 96.9952 535.348 98.3305L563.94 139.131C566.262 142.444 563.892 147 559.845 147H544.065ZM475.855 88.31C475.855 91.4938 471.956 93.0329 469.781 90.7079V90.7079C467.683 88.4652 469.274 84.8 472.345 84.8H506.255C517.721 84.8 526.321 82.3333 532.055 77.4C537.921 72.4667 540.855 65.6 540.855 56.8C540.855 47.8667 537.921 41 532.055 36.2C526.321 31.4 517.721 29 506.255 29H472.292C469.201 29 467.576 25.3346 469.652 23.0446V23.0446C471.84 20.6295 475.855 22.1778 475.855 25.4371V88.31Z" fill="white"/>
<path d="M304.52 205L309.56 179.8H318.344C321.128 179.8 323.288 180.412 324.824 181.636C326.36 182.836 327.128 184.54 327.128 186.748C327.128 188.908 326.66 190.732 325.724 192.22C324.788 193.708 323.444 194.836 321.692 195.604C319.964 196.372 317.912 196.756 315.536 196.756H307.184L308.192 195.892L306.356 205H304.52ZM308.156 196L307.508 195.1H315.536C318.632 195.1 321.02 194.416 322.7 193.048C324.404 191.656 325.256 189.604 325.256 186.892C325.256 185.14 324.644 183.796 323.42 182.86C322.22 181.924 320.492 181.456 318.236 181.456H310.28L311.252 180.52L308.156 196ZM337.213 205.144C335.533 205.144 334.069 204.832 332.821 204.208C331.573 203.56 330.601 202.648 329.905 201.472C329.233 200.296 328.897 198.916 328.897 197.332C328.897 195.172 329.353 193.252 330.265 191.572C331.201 189.868 332.473 188.524 334.081 187.54C335.713 186.556 337.573 186.064 339.661 186.064C341.365 186.064 342.829 186.388 344.053 187.036C345.301 187.66 346.261 188.56 346.933 189.736C347.629 190.888 347.977 192.268 347.977 193.876C347.977 196.036 347.509 197.968 346.573 199.672C345.661 201.352 344.389 202.684 342.757 203.668C341.149 204.652 339.301 205.144 337.213 205.144ZM337.357 203.524C339.061 203.524 340.573 203.116 341.893 202.3C343.213 201.484 344.257 200.356 345.025 198.916C345.793 197.452 346.177 195.808 346.177 193.984C346.177 191.968 345.589 190.42 344.413 189.34C343.261 188.236 341.629 187.684 339.517 187.684C337.837 187.684 336.325 188.104 334.981 188.944C333.661 189.76 332.617 190.888 331.849 192.328C331.081 193.768 330.697 195.4 330.697 197.224C330.697 199.216 331.273 200.764 332.425 201.868C333.601 202.972 335.245 203.524 337.357 203.524ZM354.906 205L351.162 186.208H352.818L356.274 203.992H355.518L365.634 186.208H367.182L370.782 203.992H369.99L379.998 186.208H381.762L371.142 205H369.414L365.85 187.936H366.426L356.634 205H354.906ZM389.743 205.144C387.991 205.144 386.467 204.832 385.171 204.208C383.875 203.56 382.879 202.648 382.183 201.472C381.511 200.296 381.175 198.892 381.175 197.26C381.175 195.124 381.619 193.216 382.507 191.536C383.419 189.856 384.643 188.524 386.179 187.54C387.739 186.556 389.491 186.064 391.435 186.064C393.091 186.064 394.507 186.376 395.683 187C396.859 187.624 397.771 188.524 398.419 189.7C399.091 190.852 399.427 192.256 399.427 193.912C399.427 194.272 399.403 194.632 399.355 194.992C399.307 195.352 399.259 195.688 399.211 196H382.543L382.795 194.596H398.347L397.627 195.208C397.891 193.552 397.783 192.172 397.303 191.068C396.823 189.94 396.067 189.088 395.035 188.512C394.027 187.912 392.815 187.612 391.399 187.612C389.767 187.612 388.303 188.032 387.007 188.872C385.735 189.688 384.739 190.816 384.019 192.256C383.299 193.672 382.939 195.316 382.939 197.188C382.939 199.228 383.527 200.8 384.703 201.904C385.879 202.984 387.607 203.524 389.887 203.524C391.231 203.524 392.455 203.308 393.559 202.876C394.687 202.42 395.611 201.796 396.331 201.004L397.159 202.264C396.343 203.152 395.275 203.86 393.955 204.388C392.659 204.892 391.255 205.144 389.743 205.144ZM402.978 205L406.722 186.208H408.486L407.334 191.86L407.118 191.212C407.934 189.508 409.038 188.224 410.43 187.36C411.822 186.496 413.574 186.064 415.686 186.064L415.362 187.828C415.266 187.828 415.17 187.828 415.074 187.828C414.978 187.804 414.882 187.792 414.786 187.792C412.674 187.792 410.922 188.428 409.53 189.7C408.162 190.948 407.226 192.832 406.722 195.352L404.778 205H402.978ZM424.934 205.144C423.182 205.144 421.658 204.832 420.362 204.208C419.066 203.56 418.07 202.648 417.374 201.472C416.702 200.296 416.366 198.892 416.366 197.26C416.366 195.124 416.81 193.216 417.698 191.536C418.61 189.856 419.834 188.524 421.37 187.54C422.93 186.556 424.682 186.064 426.626 186.064C428.282 186.064 429.698 186.376 430.874 187C432.05 187.624 432.962 188.524 433.61 189.7C434.282 190.852 434.618 192.256 434.618 193.912C434.618 194.272 434.594 194.632 434.546 194.992C434.498 195.352 434.45 195.688 434.402 196H417.734L417.986 194.596H433.538L432.818 195.208C433.082 193.552 432.974 192.172 432.494 191.068C432.014 189.94 431.258 189.088 430.226 188.512C429.218 187.912 428.006 187.612 426.59 187.612C424.958 187.612 423.494 188.032 422.198 188.872C420.926 189.688 419.93 190.816 419.21 192.256C418.49 193.672 418.13 195.316 418.13 197.188C418.13 199.228 418.718 200.8 419.894 201.904C421.07 202.984 422.798 203.524 425.078 203.524C426.422 203.524 427.646 203.308 428.75 202.876C429.878 202.42 430.802 201.796 431.522 201.004L432.35 202.264C431.534 203.152 430.466 203.86 429.146 204.388C427.85 204.892 426.446 205.144 424.934 205.144ZM445.982 205.144C444.374 205.144 442.958 204.832 441.734 204.208C440.51 203.584 439.562 202.684 438.89 201.508C438.218 200.332 437.882 198.94 437.882 197.332C437.882 195.7 438.134 194.2 438.638 192.832C439.166 191.464 439.91 190.276 440.87 189.268C441.83 188.26 442.958 187.48 444.254 186.928C445.55 186.352 446.966 186.064 448.502 186.064C450.158 186.064 451.562 186.364 452.714 186.964C453.866 187.54 454.742 188.392 455.342 189.52C455.966 190.624 456.278 191.968 456.278 193.552C456.278 195.232 456.038 196.78 455.558 198.196C455.078 199.612 454.382 200.836 453.47 201.868C452.558 202.9 451.466 203.704 450.194 204.28C448.946 204.856 447.542 205.144 445.982 205.144ZM446.342 203.524C448.046 203.524 449.558 203.116 450.878 202.3C452.198 201.484 453.242 200.356 454.01 198.916C454.778 197.452 455.162 195.808 455.162 193.984C455.162 191.968 454.574 190.42 453.398 189.34C452.246 188.236 450.614 187.684 448.502 187.684C446.822 187.684 445.31 188.104 443.966 188.944C442.646 189.76 441.602 190.888 440.834 192.328C440.066 193.768 439.682 195.4 439.682 197.224C439.682 199.216 440.258 200.764 441.41 201.868C442.586 202.972 444.23 203.524 446.342 203.524ZM453.182 205L454.334 199.132L455.342 195.856L455.63 192.4L458.438 178.288H460.238L454.91 205H453.182ZM471.709 205L477.037 178.288H478.837L476.101 192.112L475.021 195.352L474.733 198.628L473.473 205H471.709ZM481.861 205.144C480.229 205.144 478.825 204.856 477.649 204.28C476.497 203.68 475.621 202.828 475.021 201.724C474.421 200.596 474.109 199.24 474.085 197.656C474.085 195.976 474.325 194.428 474.805 193.012C475.285 191.596 475.981 190.372 476.893 189.34C477.805 188.308 478.885 187.504 480.133 186.928C481.405 186.352 482.821 186.064 484.381 186.064C486.013 186.064 487.429 186.376 488.629 187C489.853 187.624 490.801 188.524 491.473 189.7C492.169 190.876 492.517 192.268 492.517 193.876C492.517 195.508 492.253 197.008 491.725 198.376C491.197 199.744 490.453 200.932 489.493 201.94C488.557 202.948 487.441 203.74 486.145 204.316C484.849 204.868 483.421 205.144 481.861 205.144ZM481.897 203.524C483.601 203.524 485.113 203.116 486.433 202.3C487.753 201.484 488.785 200.356 489.529 198.916C490.297 197.452 490.681 195.808 490.681 193.984C490.681 191.968 490.093 190.42 488.917 189.34C487.765 188.236 486.133 187.684 484.021 187.684C482.341 187.684 480.829 188.092 479.485 188.908C478.165 189.724 477.121 190.852 476.353 192.292C475.585 193.732 475.201 195.376 475.201 197.224C475.201 199.216 475.789 200.764 476.965 201.868C478.141 202.972 479.785 203.524 481.897 203.524ZM493.926 212.128C493.086 212.128 492.282 211.984 491.514 211.696C490.746 211.408 490.134 211 489.678 210.472L490.722 209.14C491.13 209.62 491.622 209.968 492.198 210.184C492.75 210.424 493.386 210.544 494.106 210.544C494.946 210.544 495.714 210.316 496.41 209.86C497.13 209.404 497.898 208.552 498.714 207.304L500.694 204.316L500.982 203.992L512.466 186.208H514.338L500.298 207.772C499.578 208.876 498.882 209.74 498.21 210.364C497.562 211.012 496.89 211.468 496.194 211.732C495.522 211.996 494.766 212.128 493.926 212.128ZM500.442 205.468L495.546 186.208H497.382L501.81 203.884L500.442 205.468ZM548.076 179.8H549.912L544.872 205H543.036L548.076 179.8ZM526.188 205H524.352L529.392 179.8H531.228L526.188 205ZM545.664 193.012H528.348L528.672 191.392H545.988L545.664 193.012ZM551.512 212.128C550.672 212.128 549.868 211.984 549.1 211.696C548.332 211.408 547.72 211 547.264 210.472L548.308 209.14C548.716 209.62 549.208 209.968 549.784 210.184C550.336 210.424 550.972 210.544 551.692 210.544C552.532 210.544 553.3 210.316 553.996 209.86C554.716 209.404 555.484 208.552 556.3 207.304L558.28 204.316L558.568 203.992L570.052 186.208H571.924L557.884 207.772C557.164 208.876 556.468 209.74 555.796 210.364C555.148 211.012 554.476 211.468 553.78 211.732C553.108 211.996 552.352 212.128 551.512 212.128ZM558.028 205.468L553.132 186.208H554.968L559.396 203.884L558.028 205.468ZM579.365 205.144C577.757 205.144 576.341 204.832 575.117 204.208C573.893 203.584 572.945 202.684 572.273 201.508C571.601 200.332 571.265 198.94 571.265 197.332C571.265 195.7 571.517 194.2 572.021 192.832C572.549 191.464 573.293 190.276 574.253 189.268C575.213 188.26 576.341 187.48 577.637 186.928C578.933 186.352 580.349 186.064 581.885 186.064C583.541 186.064 584.945 186.364 586.097 186.964C587.249 187.54 588.125 188.392 588.725 189.52C589.349 190.624 589.661 191.968 589.661 193.552C589.661 195.232 589.421 196.78 588.941 198.196C588.461 199.612 587.765 200.836 586.853 201.868C585.941 202.9 584.849 203.704 583.577 204.28C582.329 204.856 580.925 205.144 579.365 205.144ZM579.725 203.524C581.429 203.524 582.941 203.116 584.261 202.3C585.581 201.484 586.625 200.356 587.393 198.916C588.161 197.452 588.545 195.808 588.545 193.984C588.545 191.968 587.957 190.42 586.781 189.34C585.629 188.236 583.997 187.684 581.885 187.684C580.205 187.684 578.693 188.104 577.349 188.944C576.029 189.76 574.985 190.888 574.217 192.328C573.449 193.768 573.065 195.4 573.065 197.224C573.065 199.216 573.641 200.764 574.793 201.868C575.969 202.972 577.613 203.524 579.725 203.524ZM586.565 205L587.717 199.132L588.725 195.856L589.013 192.4L591.821 178.288H593.621L588.293 205H586.565ZM595.846 205L599.59 186.208H601.354L600.202 191.86L599.986 191.212C600.802 189.508 601.906 188.224 603.298 187.36C604.69 186.496 606.442 186.064 608.554 186.064L608.23 187.828C608.134 187.828 608.038 187.828 607.942 187.828C607.846 187.804 607.75 187.792 607.654 187.792C605.542 187.792 603.79 188.428 602.398 189.7C601.03 190.948 600.094 192.832 599.59 195.352L597.646 205H595.846ZM617.549 205.144C615.869 205.144 614.405 204.832 613.157 204.208C611.909 203.56 610.937 202.648 610.241 201.472C609.569 200.296 609.233 198.916 609.233 197.332C609.233 195.172 609.689 193.252 610.601 191.572C611.537 189.868 612.809 188.524 614.417 187.54C616.049 186.556 617.909 186.064 619.997 186.064C621.701 186.064 623.165 186.388 624.389 187.036C625.637 187.66 626.597 188.56 627.269 189.736C627.965 190.888 628.313 192.268 628.313 193.876C628.313 196.036 627.845 197.968 626.909 199.672C625.997 201.352 624.725 202.684 623.093 203.668C621.485 204.652 619.637 205.144 617.549 205.144ZM617.693 203.524C619.397 203.524 620.909 203.116 622.229 202.3C623.549 201.484 624.593 200.356 625.361 198.916C626.129 197.452 626.513 195.808 626.513 193.984C626.513 191.968 625.925 190.42 624.749 189.34C623.597 188.236 621.965 187.684 619.853 187.684C618.173 187.684 616.661 188.104 615.317 188.944C613.997 189.76 612.953 190.888 612.185 192.328C611.417 193.768 611.033 195.4 611.033 197.224C611.033 199.216 611.609 200.764 612.761 201.868C613.937 202.972 615.581 203.524 617.693 203.524Z" fill="white"/>
</svg>
