<svg width="1476" height="221" viewBox="0 0 1476 221" fill="none" xmlns="http://www.w3.org/2000/svg">
<path d="M1445.99 127.215C1445.83 122.34 1444.26 117.616 1441.45 113.625C1438.65 109.634 1434.74 106.551 1430.2 104.756C1425.67 102.96 1420.71 102.53 1415.93 103.519C1411.15 104.509 1406.77 106.873 1403.32 110.322C1399.87 113.771 1397.51 118.154 1396.52 122.93C1395.53 127.707 1395.96 132.668 1397.76 137.203C1399.55 141.738 1402.63 145.649 1406.63 148.454C1410.62 151.259 1415.34 152.835 1420.22 152.988C1423.63 153.095 1427.03 152.502 1430.2 151.244C1433.38 149.987 1436.26 148.093 1438.68 145.678C1441.09 143.263 1442.99 140.379 1444.24 137.203C1445.5 134.028 1446.09 130.629 1445.99 127.215V127.215ZM1421 144.297C1414.09 144.297 1408.49 138.436 1408.49 131.194C1408.49 127.196 1411.36 121.788 1417.11 114.971C1417.75 114.16 1418.81 112.959 1420.29 111.369C1420.38 111.274 1420.49 111.199 1420.61 111.147C1420.73 111.095 1420.86 111.069 1420.99 111.069C1421.12 111.069 1421.25 111.095 1421.37 111.147C1421.49 111.199 1421.6 111.274 1421.69 111.369C1423.05 112.856 1424.05 113.986 1424.7 114.749C1430.57 121.663 1433.5 127.135 1433.49 131.165C1433.49 138.426 1427.9 144.297 1421 144.297Z" fill="white"/>
<path d="M117.201 12C117.201 9.23857 119.439 7 122.201 7H138.201C140.962 7 143.201 9.23857 143.201 12V142C143.201 144.761 140.962 147 138.201 147H122.201C119.439 147 117.201 144.761 117.201 142V12ZM44.8008 142C44.8008 144.761 42.5622 147 39.8008 147H23.8008C21.0394 147 18.8008 144.761 18.8008 142V12C18.8008 9.23857 21.0394 7 23.8008 7H39.8008C42.5622 7 44.8008 9.23857 44.8008 12V142ZM119.201 82C119.201 84.7614 116.962 87 114.201 87H47.6008C44.8394 87 42.6008 84.7614 42.6008 82V69.8C42.6008 67.0386 44.8394 64.8 47.6008 64.8H114.201C116.962 64.8 119.201 67.0386 119.201 69.8V82Z" fill="white"/>
<path d="M220.115 147C217.353 147 215.115 144.761 215.115 142V97.7044C215.115 96.504 216.786 96.2104 217.195 97.339V97.339C217.637 98.5575 215.94 99.3683 215.269 98.2591L164.7 14.5862C162.686 11.2539 165.085 7 168.979 7H185.09C186.843 7 188.468 7.91813 189.373 9.41975L232.698 81.333C234.464 84.264 232.353 88 228.931 88V88C225.502 88 223.393 84.25 225.173 81.3194L268.854 9.40428C269.761 7.91145 271.381 7 273.128 7H287.051C290.944 7 293.344 11.2539 291.33 14.5862L240.964 97.9224C240.305 99.0127 238.638 98.2051 239.085 97.0122V97.0122C239.495 95.9196 241.115 96.2133 241.115 97.3802V142C241.115 144.761 238.876 147 236.115 147H220.115Z" fill="white"/>
<path d="M316.184 147C313.422 147 311.184 144.761 311.184 142V12C311.184 9.23857 313.422 7 316.184 7H372.384C387.584 7 400.917 9.93333 412.384 15.8C423.85 21.6667 432.784 29.8 439.184 40.2C445.584 50.6 448.784 62.8667 448.784 77C448.784 91 445.584 103.267 439.184 113.8C432.784 124.2 423.85 132.333 412.384 138.2C400.917 144.067 387.584 147 372.384 147H316.184ZM337.184 120C337.184 122.761 339.422 125 342.184 125H371.184C381.717 125 390.784 123 398.384 119C406.117 115 412.05 109.4 416.184 102.2C420.45 95 422.584 86.6 422.584 77C422.584 67.2667 420.45 58.8667 416.184 51.8C412.05 44.6 406.117 39 398.384 35C390.784 31 381.717 29 371.184 29H342.184C339.422 29 337.184 31.2386 337.184 34V120Z" fill="white"/>
<path d="M481.418 147C478.657 147 476.418 144.761 476.418 142V12C476.418 9.23857 478.657 7 481.418 7H534.018C546.418 7 557.018 9 565.818 13C574.751 17 581.618 22.7333 586.418 30.2C591.218 37.6667 593.618 46.5333 593.618 56.8C593.618 67.0667 591.218 75.9333 586.418 83.4C581.618 90.7333 574.751 96.4 565.818 100.4C557.018 104.267 546.418 106.2 534.018 106.2H498.991C495.953 106.2 494.418 102.538 496.548 100.371V100.371C498.698 98.1843 502.418 99.7066 502.418 102.773V142C502.418 144.761 500.179 147 497.418 147H481.418ZM570.628 147C568.993 147 567.461 146.2 566.526 144.859L538.094 104.059C535.784 100.744 538.156 96.2 542.196 96.2H557.816C559.447 96.2 560.975 96.9952 561.911 98.3305L590.503 139.131C592.825 142.444 590.455 147 586.408 147H570.628ZM502.418 88.31C502.418 91.4938 498.52 93.0329 496.345 90.7079V90.7079C494.247 88.4652 495.837 84.8 498.908 84.8H532.818C544.285 84.8 552.885 82.3333 558.618 77.4C564.485 72.4667 567.418 65.6 567.418 56.8C567.418 47.8667 564.485 41 558.618 36.2C552.885 31.4 544.285 29 532.818 29H498.855C495.765 29 494.14 25.3346 496.215 23.0446V23.0446C498.404 20.6295 502.418 22.1778 502.418 25.4371V88.31Z" fill="white"/>
<path d="M688.307 149C677.374 149 667.307 147.2 658.107 143.6C648.907 140 640.907 135 634.107 128.6C627.307 122.067 622.04 114.467 618.307 105.8C614.574 97 612.707 87.4 612.707 77C612.707 66.6 614.574 57.0667 618.307 48.4C622.04 39.6 627.307 32 634.107 25.6C640.907 19.0667 648.907 14 658.107 10.4C667.307 6.8 677.307 5 688.107 5C699.04 5 709.04 6.8 718.107 10.4C727.307 14 735.307 19.0667 742.107 25.6C748.907 32 754.174 39.6 757.907 48.4C761.64 57.0667 763.507 66.6 763.507 77C763.507 87.4 761.64 97 757.907 105.8C754.174 114.6 748.907 122.2 742.107 128.6C735.307 135 727.307 140 718.107 143.6C709.04 147.2 699.107 149 688.307 149ZM688.107 126.2C695.174 126.2 701.707 125 707.707 122.6C713.707 120.2 718.907 116.8 723.307 112.4C727.707 107.867 731.107 102.667 733.507 96.8C736.04 90.8 737.307 84.2 737.307 77C737.307 69.8 736.04 63.2667 733.507 57.4C731.107 51.4 727.707 46.2 723.307 41.8C718.907 37.2667 713.707 33.8 707.707 31.4C701.707 29 695.174 27.8 688.107 27.8C681.04 27.8 674.507 29 668.507 31.4C662.64 33.8 657.44 37.2667 652.907 41.8C648.507 46.2 645.04 51.4 642.507 57.4C640.107 63.2667 638.907 69.8 638.907 77C638.907 84.0667 640.107 90.6 642.507 96.6C645.04 102.6 648.507 107.867 652.907 112.4C657.307 116.8 662.507 120.2 668.507 122.6C674.507 125 681.04 126.2 688.107 126.2Z" fill="white"/>
<path d="M834.466 149C823.533 149 813.066 147.467 803.066 144.4C794.667 141.712 787.726 138.413 782.243 134.503C780.428 133.208 779.891 130.797 780.799 128.761L785.655 117.861C786.981 114.886 790.758 113.952 793.523 115.673C798.037 118.482 803.218 120.925 809.066 123C817.333 125.933 825.8 127.4 834.466 127.4C841.8 127.4 847.733 126.6 852.266 125C856.8 123.4 860.133 121.267 862.266 118.6C864.4 115.8 865.466 112.667 865.466 109.2C865.466 104.933 863.933 101.533 860.866 99C857.8 96.3333 853.8 94.2667 848.866 92.8C844.066 91.2 838.666 89.7333 832.666 88.4C826.8 87.0667 820.866 85.5333 814.866 83.8C809 81.9333 803.6 79.6 798.666 76.8C793.866 73.8667 789.933 70 786.866 65.2C783.8 60.4 782.266 54.2667 782.266 46.8C782.266 39.2 784.266 32.2667 788.266 26C792.4 19.6 798.6 14.5333 806.866 10.8C815.266 6.93333 825.866 5 838.666 5C847.066 5 855.4 6.06667 863.666 8.20001C870.399 9.93735 876.423 12.2937 881.741 15.2691C883.829 16.4376 884.617 19.0006 883.717 21.2179L879.256 32.2053C878.104 35.0428 874.699 36.1744 871.962 34.8022C867.303 32.4674 862.538 30.6667 857.666 29.4C851 27.5333 844.6 26.6 838.466 26.6C831.266 26.6 825.4 27.4667 820.866 29.2C816.466 30.9333 813.2 33.2 811.066 36C809.066 38.8 808.066 42 808.066 45.6C808.066 49.8667 809.533 53.3333 812.466 56C815.533 58.5333 819.466 60.5333 824.266 62C829.2 63.4667 834.666 64.9333 840.666 66.4C846.666 67.7333 852.6 69.2667 858.466 71C864.466 72.7333 869.866 75 874.666 77.8C879.6 80.6 883.533 84.4 886.466 89.2C889.533 94 891.066 100.067 891.066 107.4C891.066 114.867 889 121.8 884.866 128.2C880.866 134.467 874.666 139.533 866.266 143.4C857.866 147.133 847.266 149 834.466 149Z" fill="white"/>
<path d="M953.458 147C951.303 147 949.39 145.619 948.712 143.573L905.626 13.573C904.554 10.3369 906.963 7 910.372 7H926.822C928.985 7 930.902 8.39039 931.574 10.4459L969.778 127.27C970.799 130.392 968.472 133.6 965.188 133.6V133.6C961.88 133.6 959.552 130.35 960.615 127.218L1000.3 10.392C1000.98 8.36403 1002.89 7 1005.03 7H1021.83C1023.99 7 1025.9 8.38375 1026.58 10.4324L1065.21 127.442C1066.22 130.475 1063.96 133.6 1060.76 133.6V133.6C1057.56 133.6 1055.3 130.46 1056.32 127.423L1095.5 10.4121C1096.19 8.37386 1098.1 7 1100.25 7H1114.52C1117.93 7 1120.34 10.3369 1119.27 13.573L1076.18 143.573C1075.51 145.619 1073.59 147 1071.44 147H1051.05C1048.9 147 1046.99 145.625 1046.31 143.586L1010.39 36.2055C1009.83 34.5309 1011.07 32.8 1012.84 32.8V32.8C1014.61 32.8 1015.86 34.5403 1015.29 36.2171L978.8 143.608C978.111 145.636 976.207 147 974.066 147H953.458Z" fill="white"/>
<path d="M1126.07 147C1122.44 147 1120.02 143.257 1121.51 139.948L1180.01 9.94817C1180.82 8.15392 1182.6 7 1184.57 7H1203.71C1205.67 7 1207.46 8.15143 1208.27 9.94276L1266.95 139.943C1268.44 143.252 1266.02 147 1262.39 147H1246.23C1244.23 147 1242.43 145.81 1241.64 143.973L1190.79 25.5815C1189.82 23.3188 1191.48 20.8 1193.94 20.8V20.8C1196.4 20.8 1198.06 23.3151 1197.09 25.5773L1146.43 143.967C1145.65 145.807 1143.84 147 1141.84 147H1126.07ZM1154.34 114.6C1150.91 114.6 1148.5 111.223 1149.61 107.977L1153.18 97.5772C1153.87 95.5569 1155.77 94.2 1157.91 94.2H1226.37C1228.5 94.2 1230.4 95.5569 1231.1 97.5772L1234.66 107.977C1235.78 111.223 1233.37 114.6 1229.93 114.6H1154.34Z" fill="white"/>
<path d="M1292.94 147C1290.18 147 1287.94 144.761 1287.94 142V12C1287.94 9.23857 1290.18 7 1292.94 7H1345.54C1357.94 7 1368.54 9 1377.34 13C1386.27 17 1393.14 22.7333 1397.94 30.2C1402.74 37.6667 1405.14 46.5333 1405.14 56.8C1405.14 67.0667 1402.74 75.9333 1397.94 83.4C1393.14 90.8667 1386.27 96.6 1377.34 100.6C1368.54 104.6 1357.94 106.6 1345.54 106.6H1310.46C1307.4 106.6 1305.83 102.935 1307.93 100.717V100.717C1310.1 98.438 1313.94 99.9719 1313.94 103.117V142C1313.94 144.761 1311.7 147 1308.94 147H1292.94ZM1313.94 88.1367C1313.94 91.3585 1309.98 92.9024 1307.8 90.5321V90.5321C1305.72 88.2655 1307.32 84.6 1310.4 84.6H1344.34C1355.81 84.6 1364.41 82.2 1370.14 77.4C1376.01 72.4667 1378.94 65.6 1378.94 56.8C1378.94 47.8667 1376.01 41 1370.14 36.2C1364.41 31.4 1355.81 29 1344.34 29H1310.38C1307.29 29 1305.66 25.3346 1307.74 23.0446V23.0446C1309.93 20.6295 1313.94 22.1778 1313.94 25.4371V88.1367Z" fill="white"/>
<path d="M1105.52 205L1110.56 179.8H1119.34C1122.13 179.8 1124.29 180.412 1125.82 181.636C1127.36 182.836 1128.13 184.54 1128.13 186.748C1128.13 188.908 1127.66 190.732 1126.72 192.22C1125.79 193.708 1124.44 194.836 1122.69 195.604C1120.96 196.372 1118.91 196.756 1116.54 196.756H1108.18L1109.19 195.892L1107.36 205H1105.52ZM1109.16 196L1108.51 195.1H1116.54C1119.63 195.1 1122.02 194.416 1123.7 193.048C1125.4 191.656 1126.26 189.604 1126.26 186.892C1126.26 185.14 1125.64 183.796 1124.42 182.86C1123.22 181.924 1121.49 181.456 1119.24 181.456H1111.28L1112.25 180.52L1109.16 196ZM1138.21 205.144C1136.53 205.144 1135.07 204.832 1133.82 204.208C1132.57 203.56 1131.6 202.648 1130.91 201.472C1130.23 200.296 1129.9 198.916 1129.9 197.332C1129.9 195.172 1130.35 193.252 1131.27 191.572C1132.2 189.868 1133.47 188.524 1135.08 187.54C1136.71 186.556 1138.57 186.064 1140.66 186.064C1142.37 186.064 1143.83 186.388 1145.05 187.036C1146.3 187.66 1147.26 188.56 1147.93 189.736C1148.63 190.888 1148.98 192.268 1148.98 193.876C1148.98 196.036 1148.51 197.968 1147.57 199.672C1146.66 201.352 1145.39 202.684 1143.76 203.668C1142.15 204.652 1140.3 205.144 1138.21 205.144ZM1138.36 203.524C1140.06 203.524 1141.57 203.116 1142.89 202.3C1144.21 201.484 1145.26 200.356 1146.03 198.916C1146.79 197.452 1147.18 195.808 1147.18 193.984C1147.18 191.968 1146.59 190.42 1145.41 189.34C1144.26 188.236 1142.63 187.684 1140.52 187.684C1138.84 187.684 1137.33 188.104 1135.98 188.944C1134.66 189.76 1133.62 190.888 1132.85 192.328C1132.08 193.768 1131.7 195.4 1131.7 197.224C1131.7 199.216 1132.27 200.764 1133.43 201.868C1134.6 202.972 1136.25 203.524 1138.36 203.524ZM1155.91 205L1152.16 186.208H1153.82L1157.27 203.992H1156.52L1166.63 186.208H1168.18L1171.78 203.992H1170.99L1181 186.208H1182.76L1172.14 205H1170.41L1166.85 187.936H1167.43L1157.63 205H1155.91ZM1190.74 205.144C1188.99 205.144 1187.47 204.832 1186.17 204.208C1184.87 203.56 1183.88 202.648 1183.18 201.472C1182.51 200.296 1182.17 198.892 1182.17 197.26C1182.17 195.124 1182.62 193.216 1183.51 191.536C1184.42 189.856 1185.64 188.524 1187.18 187.54C1188.74 186.556 1190.49 186.064 1192.43 186.064C1194.09 186.064 1195.51 186.376 1196.68 187C1197.86 187.624 1198.77 188.524 1199.42 189.7C1200.09 190.852 1200.43 192.256 1200.43 193.912C1200.43 194.272 1200.4 194.632 1200.35 194.992C1200.31 195.352 1200.26 195.688 1200.21 196H1183.54L1183.79 194.596H1199.35L1198.63 195.208C1198.89 193.552 1198.78 192.172 1198.3 191.068C1197.82 189.94 1197.07 189.088 1196.03 188.512C1195.03 187.912 1193.81 187.612 1192.4 187.612C1190.77 187.612 1189.3 188.032 1188.01 188.872C1186.73 189.688 1185.74 190.816 1185.02 192.256C1184.3 193.672 1183.94 195.316 1183.94 197.188C1183.94 199.228 1184.53 200.8 1185.7 201.904C1186.88 202.984 1188.61 203.524 1190.89 203.524C1192.23 203.524 1193.45 203.308 1194.56 202.876C1195.69 202.42 1196.61 201.796 1197.33 201.004L1198.16 202.264C1197.34 203.152 1196.27 203.86 1194.95 204.388C1193.66 204.892 1192.25 205.144 1190.74 205.144ZM1203.98 205L1207.72 186.208H1209.49L1208.33 191.86L1208.12 191.212C1208.93 189.508 1210.04 188.224 1211.43 187.36C1212.82 186.496 1214.57 186.064 1216.69 186.064L1216.36 187.828C1216.27 187.828 1216.17 187.828 1216.07 187.828C1215.98 187.804 1215.88 187.792 1215.79 187.792C1213.67 187.792 1211.92 188.428 1210.53 189.7C1209.16 190.948 1208.23 192.832 1207.72 195.352L1205.78 205H1203.98ZM1225.93 205.144C1224.18 205.144 1222.66 204.832 1221.36 204.208C1220.07 203.56 1219.07 202.648 1218.37 201.472C1217.7 200.296 1217.37 198.892 1217.37 197.26C1217.37 195.124 1217.81 193.216 1218.7 191.536C1219.61 189.856 1220.83 188.524 1222.37 187.54C1223.93 186.556 1225.68 186.064 1227.63 186.064C1229.28 186.064 1230.7 186.376 1231.87 187C1233.05 187.624 1233.96 188.524 1234.61 189.7C1235.28 190.852 1235.62 192.256 1235.62 193.912C1235.62 194.272 1235.59 194.632 1235.55 194.992C1235.5 195.352 1235.45 195.688 1235.4 196H1218.73L1218.99 194.596H1234.54L1233.82 195.208C1234.08 193.552 1233.97 192.172 1233.49 191.068C1233.01 189.94 1232.26 189.088 1231.23 188.512C1230.22 187.912 1229.01 187.612 1227.59 187.612C1225.96 187.612 1224.49 188.032 1223.2 188.872C1221.93 189.688 1220.93 190.816 1220.21 192.256C1219.49 193.672 1219.13 195.316 1219.13 197.188C1219.13 199.228 1219.72 200.8 1220.89 201.904C1222.07 202.984 1223.8 203.524 1226.08 203.524C1227.42 203.524 1228.65 203.308 1229.75 202.876C1230.88 202.42 1231.8 201.796 1232.52 201.004L1233.35 202.264C1232.53 203.152 1231.47 203.86 1230.15 204.388C1228.85 204.892 1227.45 205.144 1225.93 205.144ZM1246.98 205.144C1245.37 205.144 1243.96 204.832 1242.73 204.208C1241.51 203.584 1240.56 202.684 1239.89 201.508C1239.22 200.332 1238.88 198.94 1238.88 197.332C1238.88 195.7 1239.13 194.2 1239.64 192.832C1240.17 191.464 1240.91 190.276 1241.87 189.268C1242.83 188.26 1243.96 187.48 1245.25 186.928C1246.55 186.352 1247.97 186.064 1249.5 186.064C1251.16 186.064 1252.56 186.364 1253.71 186.964C1254.87 187.54 1255.74 188.392 1256.34 189.52C1256.97 190.624 1257.28 191.968 1257.28 193.552C1257.28 195.232 1257.04 196.78 1256.56 198.196C1256.08 199.612 1255.38 200.836 1254.47 201.868C1253.56 202.9 1252.47 203.704 1251.19 204.28C1249.95 204.856 1248.54 205.144 1246.98 205.144ZM1247.34 203.524C1249.05 203.524 1250.56 203.116 1251.88 202.3C1253.2 201.484 1254.24 200.356 1255.01 198.916C1255.78 197.452 1256.16 195.808 1256.16 193.984C1256.16 191.968 1255.57 190.42 1254.4 189.34C1253.25 188.236 1251.61 187.684 1249.5 187.684C1247.82 187.684 1246.31 188.104 1244.97 188.944C1243.65 189.76 1242.6 190.888 1241.83 192.328C1241.07 193.768 1240.68 195.4 1240.68 197.224C1240.68 199.216 1241.26 200.764 1242.41 201.868C1243.59 202.972 1245.23 203.524 1247.34 203.524ZM1254.18 205L1255.33 199.132L1256.34 195.856L1256.63 192.4L1259.44 178.288H1261.24L1255.91 205H1254.18ZM1272.71 205L1278.04 178.288H1279.84L1277.1 192.112L1276.02 195.352L1275.73 198.628L1274.47 205H1272.71ZM1282.86 205.144C1281.23 205.144 1279.82 204.856 1278.65 204.28C1277.5 203.68 1276.62 202.828 1276.02 201.724C1275.42 200.596 1275.11 199.24 1275.08 197.656C1275.08 195.976 1275.32 194.428 1275.8 193.012C1276.28 191.596 1276.98 190.372 1277.89 189.34C1278.8 188.308 1279.88 187.504 1281.13 186.928C1282.4 186.352 1283.82 186.064 1285.38 186.064C1287.01 186.064 1288.43 186.376 1289.63 187C1290.85 187.624 1291.8 188.524 1292.47 189.7C1293.17 190.876 1293.52 192.268 1293.52 193.876C1293.52 195.508 1293.25 197.008 1292.72 198.376C1292.2 199.744 1291.45 200.932 1290.49 201.94C1289.56 202.948 1288.44 203.74 1287.14 204.316C1285.85 204.868 1284.42 205.144 1282.86 205.144ZM1282.9 203.524C1284.6 203.524 1286.11 203.116 1287.43 202.3C1288.75 201.484 1289.78 200.356 1290.53 198.916C1291.3 197.452 1291.68 195.808 1291.68 193.984C1291.68 191.968 1291.09 190.42 1289.92 189.34C1288.76 188.236 1287.13 187.684 1285.02 187.684C1283.34 187.684 1281.83 188.092 1280.48 188.908C1279.16 189.724 1278.12 190.852 1277.35 192.292C1276.58 193.732 1276.2 195.376 1276.2 197.224C1276.2 199.216 1276.79 200.764 1277.96 201.868C1279.14 202.972 1280.78 203.524 1282.9 203.524ZM1294.93 212.128C1294.09 212.128 1293.28 211.984 1292.51 211.696C1291.75 211.408 1291.13 211 1290.68 210.472L1291.72 209.14C1292.13 209.62 1292.62 209.968 1293.2 210.184C1293.75 210.424 1294.39 210.544 1295.11 210.544C1295.95 210.544 1296.71 210.316 1297.41 209.86C1298.13 209.404 1298.9 208.552 1299.71 207.304L1301.69 204.316L1301.98 203.992L1313.47 186.208H1315.34L1301.3 207.772C1300.58 208.876 1299.88 209.74 1299.21 210.364C1298.56 211.012 1297.89 211.468 1297.19 211.732C1296.52 211.996 1295.77 212.128 1294.93 212.128ZM1301.44 205.468L1296.55 186.208H1298.38L1302.81 203.884L1301.44 205.468ZM1349.08 179.8H1350.91L1345.87 205H1344.04L1349.08 179.8ZM1327.19 205H1325.35L1330.39 179.8H1332.23L1327.19 205ZM1346.66 193.012H1329.35L1329.67 191.392H1346.99L1346.66 193.012ZM1352.51 212.128C1351.67 212.128 1350.87 211.984 1350.1 211.696C1349.33 211.408 1348.72 211 1348.26 210.472L1349.31 209.14C1349.72 209.62 1350.21 209.968 1350.78 210.184C1351.34 210.424 1351.97 210.544 1352.69 210.544C1353.53 210.544 1354.3 210.316 1355 209.86C1355.72 209.404 1356.48 208.552 1357.3 207.304L1359.28 204.316L1359.57 203.992L1371.05 186.208H1372.92L1358.88 207.772C1358.16 208.876 1357.47 209.74 1356.8 210.364C1356.15 211.012 1355.48 211.468 1354.78 211.732C1354.11 211.996 1353.35 212.128 1352.51 212.128ZM1359.03 205.468L1354.13 186.208H1355.97L1360.4 203.884L1359.03 205.468ZM1380.36 205.144C1378.76 205.144 1377.34 204.832 1376.12 204.208C1374.89 203.584 1373.94 202.684 1373.27 201.508C1372.6 200.332 1372.26 198.94 1372.26 197.332C1372.26 195.7 1372.52 194.2 1373.02 192.832C1373.55 191.464 1374.29 190.276 1375.25 189.268C1376.21 188.26 1377.34 187.48 1378.64 186.928C1379.93 186.352 1381.35 186.064 1382.88 186.064C1384.54 186.064 1385.94 186.364 1387.1 186.964C1388.25 187.54 1389.12 188.392 1389.72 189.52C1390.35 190.624 1390.66 191.968 1390.66 193.552C1390.66 195.232 1390.42 196.78 1389.94 198.196C1389.46 199.612 1388.76 200.836 1387.85 201.868C1386.94 202.9 1385.85 203.704 1384.58 204.28C1383.33 204.856 1381.92 205.144 1380.36 205.144ZM1380.72 203.524C1382.43 203.524 1383.94 203.116 1385.26 202.3C1386.58 201.484 1387.62 200.356 1388.39 198.916C1389.16 197.452 1389.54 195.808 1389.54 193.984C1389.54 191.968 1388.96 190.42 1387.78 189.34C1386.63 188.236 1385 187.684 1382.88 187.684C1381.2 187.684 1379.69 188.104 1378.35 188.944C1377.03 189.76 1375.98 190.888 1375.22 192.328C1374.45 193.768 1374.06 195.4 1374.06 197.224C1374.06 199.216 1374.64 200.764 1375.79 201.868C1376.97 202.972 1378.61 203.524 1380.72 203.524ZM1387.56 205L1388.72 199.132L1389.72 195.856L1390.01 192.4L1392.82 178.288H1394.62L1389.29 205H1387.56ZM1396.85 205L1400.59 186.208H1402.35L1401.2 191.86L1400.99 191.212C1401.8 189.508 1402.91 188.224 1404.3 187.36C1405.69 186.496 1407.44 186.064 1409.55 186.064L1409.23 187.828C1409.13 187.828 1409.04 187.828 1408.94 187.828C1408.85 187.804 1408.75 187.792 1408.65 187.792C1406.54 187.792 1404.79 188.428 1403.4 189.7C1402.03 190.948 1401.09 192.832 1400.59 195.352L1398.65 205H1396.85ZM1418.55 205.144C1416.87 205.144 1415.41 204.832 1414.16 204.208C1412.91 203.56 1411.94 202.648 1411.24 201.472C1410.57 200.296 1410.23 198.916 1410.23 197.332C1410.23 195.172 1410.69 193.252 1411.6 191.572C1412.54 189.868 1413.81 188.524 1415.42 187.54C1417.05 186.556 1418.91 186.064 1421 186.064C1422.7 186.064 1424.17 186.388 1425.39 187.036C1426.64 187.66 1427.6 188.56 1428.27 189.736C1428.97 190.888 1429.31 192.268 1429.31 193.876C1429.31 196.036 1428.85 197.968 1427.91 199.672C1427 201.352 1425.73 202.684 1424.09 203.668C1422.49 204.652 1420.64 205.144 1418.55 205.144ZM1418.69 203.524C1420.4 203.524 1421.91 203.116 1423.23 202.3C1424.55 201.484 1425.59 200.356 1426.36 198.916C1427.13 197.452 1427.51 195.808 1427.51 193.984C1427.51 191.968 1426.93 190.42 1425.75 189.34C1424.6 188.236 1422.97 187.684 1420.85 187.684C1419.17 187.684 1417.66 188.104 1416.32 188.944C1415 189.76 1413.95 190.888 1413.19 192.328C1412.42 193.768 1412.03 195.4 1412.03 197.224C1412.03 199.216 1412.61 200.764 1413.76 201.868C1414.94 202.972 1416.58 203.524 1418.69 203.524Z" fill="white"/>
</svg>
