<svg width="128" height="128" viewBox="0 0 128 128" fill="none" xmlns="http://www.w3.org/2000/svg">
<path d="M39.1414 53.7869L63.999 28.9299L88.8694 53.7997L103.333 39.3357L63.999 0L24.678 39.3229L39.1414 53.7869ZM0 63.998L14.4644 49.5336L28.9279 63.9971L14.4636 78.4614L0 63.998ZM39.1414 74.2131L63.999 99.0701L88.8687 74.201L103.34 88.6573L103.333 88.665L63.999 128L24.6767 88.6784L24.6563 88.6579L39.1414 74.2131ZM99.0725 64.006L113.537 49.5416L128 64.0051L113.536 78.4695L99.0725 64.006Z" fill="white"/>
<path d="M78.6693 63.9925H78.6757L63.9986 49.3154L53.1519 60.1622H53.1513L51.9052 61.4089L49.3349 63.9797L49.3145 63.9996L49.3349 64.0207L63.9986 78.685L78.6757 64.0079L78.6828 63.9996L78.6693 63.9925" fill="white"/>
</svg>
