<svg width="1451" height="1707" viewBox="0 0 1451 1707" fill="none" xmlns="http://www.w3.org/2000/svg">
<path d="M163.3 853.1L164.2 1183.1L444.6 1348.1V1541.3L0.100037 1280.6V756.6L163.3 853.1ZM163.3 523.1V715.4L0 618.8V426.5L163.3 329.9L327.4 426.5L163.3 523.1ZM561.7 426.5L725 329.9L889.1 426.5L725 523.1L561.7 426.5Z" fill="white"/>
<path d="M281.301 1114.7V921.5L444.601 1018.1V1210.4L281.301 1114.7ZM561.701 1417.3L725.001 1513.9L889.101 1417.3V1609.6L725.001 1706.2L561.701 1609.6V1417.3ZM1123.3 426.5L1286.6 329.9L1450.7 426.5V618.8L1286.6 715.4V523.1L1123.3 426.5ZM1286.6 1183.1L1287.5 853.1L1450.8 756.5V1280.5L1006.3 1541.2V1348L1286.6 1183.1Z" fill="white"/>
<path d="M1169.5 1114.7L1006.2 1210.4V1018.1L1169.5 921.5V1114.7Z" fill="white"/>
<path d="M1169.5 591.5L1170.4 784.7L889.201 949.7V1280.5L725.901 1376.2L562.601 1280.5V949.7L281.401 784.7V591.5L445.401 494.9L724.901 660.7L1006.1 494.9L1170.2 591.5H1169.5ZM281.301 261.6L725.001 0L1169.5 261.6L1006.2 358.2L725.001 192.4L444.601 358.2L281.301 261.6Z" fill="white"/>
</svg>
