<svg width="125" height="128" viewBox="0 0 125 128" fill="none" xmlns="http://www.w3.org/2000/svg">
<path d="M83.5213 47.3764C78.7521 42.7116 72.346 40.0995 65.6747 40.0995C59.0034 40.0995 52.5973 42.7116 47.8281 47.3764C45.4907 49.7115 43.6381 52.4858 42.3771 55.5397C41.1161 58.5936 40.4715 61.8667 40.4805 65.1707C40.4895 68.4747 41.1518 71.7443 42.4294 74.7912C43.707 77.8382 45.5746 80.6025 47.9247 82.9248C52.68 87.6463 59.1033 90.3053 65.8045 90.3264C72.5056 90.3475 78.9456 87.7289 83.7305 83.0375C83.9076 82.8604 84.5995 82.1041 85.8226 80.7523L73.9141 68.9243C72.6911 70.3405 72.0474 71.0807 71.9669 71.1451C70.3506 72.7528 68.1636 73.6553 65.8839 73.6553C63.6042 73.6553 61.4172 72.7528 59.8009 71.1451C58.1969 69.5698 57.284 67.4221 57.2628 65.1739C57.2417 62.9258 58.1141 60.7613 59.6883 59.1561C61.313 57.5905 63.4865 56.7237 65.7427 56.7418C67.9989 56.7598 70.1583 57.6612 71.7577 59.2527L103.589 90.8423C99.1917 97.132 93.3465 102.272 86.5463 105.829C79.7461 109.386 72.1903 111.255 64.5161 111.28C56.4543 111.282 48.526 109.222 41.486 105.293C34.4461 101.365 28.5288 95.7001 24.2975 88.8379C20.0663 81.9758 17.6619 74.1448 17.3133 66.0906C16.9647 58.0363 18.6835 50.0269 22.3061 42.8248C25.9286 35.6228 31.3344 29.4679 38.0086 24.946C44.6828 20.4242 52.4034 17.6859 60.4353 16.992C68.4671 16.2981 76.5429 17.6716 83.8938 20.9817C91.2447 24.2918 97.6259 29.4284 102.43 35.9024C101.035 37.5332 97.4467 41.5938 91.6641 48.0845L103.46 59.6872L122.9 37.8818C118.2 27.3681 110.75 18.3172 101.336 11.6837C91.9223 5.05012 80.8928 1.07964 69.4107 0.190887C57.9287 -0.697864 46.4195 1.52805 36.0969 6.63392C25.7742 11.7398 17.0205 19.5364 10.7588 29.2017C4.49703 38.867 0.959289 50.0429 0.51857 61.5508C0.077852 73.0588 2.75048 84.4724 8.25466 94.5883C13.7588 104.704 21.8906 113.148 31.7925 119.028C41.6945 124.908 52.9997 128.008 64.5161 128C80.6086 128 93.9171 122.995 106.936 111.907C114.422 105.313 120.375 97.1628 124.38 88.0261L83.5213 47.3764Z" fill="white"/>
</svg>
