<svg width="146" height="128" viewBox="0 0 146 128" fill="none" xmlns="http://www.w3.org/2000/svg">
<path d="M110.148 39.1217C107.49 37.6024 104.071 37.6024 101.033 39.1217L79.7626 51.6558L65.3294 59.632L44.4392 72.1662C41.7804 73.6855 38.362 73.6855 35.3234 72.1662L18.9911 62.2908C16.3323 60.7715 14.4332 57.7329 14.4332 54.3145V35.3234C14.4332 32.2849 15.9525 29.2463 18.9911 27.3472L35.3234 17.8516C37.9822 16.3323 41.4006 16.3323 44.4392 17.8516L60.7715 27.727C63.4303 29.2463 65.3294 32.2849 65.3294 35.7033V48.2374L79.7626 39.8813V26.9674C79.7626 23.9288 78.2433 20.8902 75.2047 18.9911L44.819 1.13947C42.1602 -0.379822 38.7418 -0.379822 35.7033 1.13947L4.55786 19.3709C1.51929 20.8902 0 23.9288 0 26.9674V62.6706C0 65.7092 1.51929 68.7478 4.55786 70.6469L35.3234 88.4985C37.9822 90.0178 41.4006 90.0178 44.4392 88.4985L65.3294 76.3442L79.7626 67.9881L100.653 55.8338C103.312 54.3145 106.73 54.3145 109.769 55.8338L126.101 65.3294C128.76 66.8487 130.659 69.8872 130.659 73.3056V92.2967C130.659 95.3353 129.139 98.3739 126.101 100.273L110.148 109.769C107.49 111.288 104.071 111.288 101.033 109.769L84.7003 100.273C82.0415 98.7537 80.1424 95.7151 80.1424 92.2967V80.1424L65.7092 88.4985V101.033C65.7092 104.071 67.2285 107.11 70.2671 109.009L101.033 126.861C103.691 128.38 107.11 128.38 110.148 126.861L140.914 109.009C143.573 107.49 145.472 104.451 145.472 101.033V64.9496C145.472 61.911 143.953 58.8724 140.914 56.9733L110.148 39.1217Z" fill="white"/>
</svg>
