<svg width="101" height="128" viewBox="0 0 101 128" fill="none" xmlns="http://www.w3.org/2000/svg">
<path d="M49.4143 -0.000336658C22.9837 0.00655968 1.56078 21.4314 1.55371 47.8603C1.55689 50.8835 1.84035 53.9002 2.40055 56.8713L8.59328 52.6375C19.4623 45.181 37.0929 45.181 47.9608 52.6375L54.4442 57.0862L57.9702 59.5001C67.765 66.2109 83.6388 66.2109 93.421 59.5001L96.3026 57.5284C101.614 31.6212 84.9176 6.31158 59.0093 0.999633C55.8603 0.354029 52.6542 0.0270707 49.4394 0.0238878L49.4143 -0.000336658Z" fill="white"/>
<path d="M76.3207 76.6129C69.4855 76.7434 62.7667 74.8336 57.0215 71.1278L47.0247 64.2778C35.9292 57.469 21.9503 57.469 10.8542 64.2778L4.39608 68.7014C3.1153 69.5772 1.36682 69.249 0.490805 67.9682C-0.385208 66.6874 -0.0570142 64.939 1.22376 64.0629L7.68192 59.6396C20.6996 51.551 37.1788 51.551 50.197 59.6396L60.1939 66.4896C70.0848 72.5548 82.5433 72.5548 92.4334 66.4896L96.2248 63.8987C97.5057 63.0228 99.254 63.3509 100.13 64.6318C101.006 65.9126 100.678 67.6611 99.3971 68.5369L95.6055 71.1278C89.8612 74.8242 83.1493 76.7333 76.3205 76.6129" fill="white"/>
<path d="M28.7376 96.7203V69.6743C28.7144 69.1047 28.7356 68.5343 28.8007 67.968C28.9802 66.428 30.2836 65.2659 31.8339 65.2634C33.3346 65.3092 34.5625 66.4722 34.6902 67.968C34.8053 68.907 34.8391 69.8541 34.7913 70.7991V124.727C34.8545 126.47 33.492 127.935 31.7481 127.999C31.7304 127.999 31.7127 128 31.6949 128C29.9805 127.905 28.6681 126.437 28.7638 124.723C28.7664 124.673 28.7705 124.624 28.7754 124.575V106.591L28.7376 96.7203Z" fill="white"/>
<path d="M23.051 83.1101V96.5445C23.051 98.8446 21.7872 100.336 20.0809 100.336C18.3747 100.336 17.0225 98.731 17.0098 96.5445V69.6506C17.0098 67.2998 18.3874 65.7073 20.1695 65.8588C21.9514 66.0107 23.0131 67.3629 23.0257 69.7264C23.051 74.1496 23.051 78.6236 23.051 83.1103" fill="white"/>
<path d="M40.5038 83.0836V73.6556C40.5038 71.4689 41.6666 70.0536 43.3979 70.0536C45.1897 70.1375 46.5743 71.6583 46.4903 73.4501C46.4884 73.4934 46.4854 73.5366 46.4817 73.5797C46.5407 80 46.5407 86.4244 46.4817 92.8523C46.4817 95.0386 45.2179 96.3658 43.4105 96.3405C41.6033 96.3152 40.5038 94.9755 40.4912 92.7385V83.0954L40.5038 83.0836Z" fill="white"/>
<path d="M5.29398 85.0299V75.589C5.29398 73.3901 6.45663 71.9746 8.18815 71.9746C9.97996 72.0586 11.3645 73.5793 11.2805 75.3711C11.2784 75.4143 11.2756 75.4576 11.2719 75.5006C11.3308 81.9294 11.3308 88.358 11.2719 94.7873C11.2719 96.9737 10.0081 98.288 8.21343 98.2753C6.41879 98.2627 5.29398 96.9105 5.28125 94.6609V85.0304L5.29398 85.0299Z" fill="white"/>
<path d="M55.1771 77.0179C56.8173 77.0179 58.1471 78.3477 58.1471 79.988V85.119C58.1471 86.7593 56.8173 88.0889 55.1771 88.0889C53.5368 88.0889 52.207 86.7593 52.207 85.119V79.988C52.207 78.3477 53.5368 77.0179 55.1771 77.0179" fill="white"/>
<path d="M66.931 81.5168C68.5712 81.5168 69.901 82.8465 69.901 84.4868V113.289C69.901 114.929 68.5712 116.259 66.931 116.259C65.2907 116.259 63.9609 114.929 63.9609 113.289V84.4868C63.9609 82.8465 65.2907 81.5168 66.931 81.5168" fill="white"/>
<path d="M78.6067 82.6285C80.247 82.6285 81.5768 83.9583 81.5768 85.5986V110.079C81.5768 111.719 80.247 113.049 78.6067 113.049C76.9667 113.049 75.6367 111.719 75.6367 110.079V85.5986C75.6367 83.9583 76.9667 82.6285 78.6067 82.6285" fill="white"/>
<path d="M90.4495 79.8351C92.0898 79.8351 93.4195 81.165 93.4195 82.8051V93.3581C93.4195 94.9984 92.0898 96.3281 90.4495 96.3281C88.8094 96.3281 87.4795 94.9984 87.4795 93.3581V82.8051C87.4795 81.165 88.8094 79.8351 90.4495 79.8351" fill="white"/>
</svg>
