<svg fill="none" viewBox="0 0 281 256" xmlns="http://www.w3.org/2000/svg"><path d="M103.126 162.178l71.54-129.212c.98-1.771 1.969-3.536 2.853-5.367.802-1.662 1.483-3.34 1.927-5.154.94-3.816.688-7.793-.773-11.435-1.449-3.623-4-6.647-7.26-8.61A16.592 16.592 0 0 0 160.631.146c-3.755.503-7.183 2.265-9.885 5.02-1.28 1.309-2.336 2.764-3.315 4.32-1.077 1.713-2.049 3.488-3.032 5.259l-4.524 8.17-4.525-8.17c-.98-1.774-1.952-3.547-3.029-5.259-.98-1.556-2.036-3.011-3.319-4.32-2.698-2.755-6.126-4.516-9.881-5.023A16.601 16.601 0 0 0 108.339 2.4c-3.26 1.964-5.812 4.988-7.262 8.611-1.459 3.641-1.71 7.62-.773 11.435.445 1.814 1.126 3.493 1.929 5.154.882 1.831 1.871 3.595 2.854 5.367l14.61 26.392-56.927 102.82H23.76c-1.962 0-3.923-.008-5.884.108-1.782.105-3.517.332-5.245.836-3.639 1.06-6.816 3.275-9.112 6.415C1.236 172.657 0 176.479 0 180.401c0 3.924 1.237 7.74 3.52 10.86 2.294 3.142 5.472 5.357 9.11 6.416 1.73.503 3.465.729 5.246.837 1.961.117 3.922.106 5.884.106h153.336c.2-.418.691-1.515 1.171-3.158 4.859-16.567-7.207-33.284-23.821-33.284zm-66.681 42.409l-9.274 17.57c-.958 1.818-1.925 3.629-2.792 5.509-.784 1.706-1.451 3.43-1.886 5.291-.919 3.918-.674 8.001.756 11.742 1.418 3.717 3.917 6.825 7.106 8.837 3.192 2.014 6.897 2.829 10.552 2.313 3.675-.515 7.03-2.325 9.674-5.154 1.255-1.344 2.287-2.838 3.245-4.434 1.056-1.759 2.006-3.581 2.968-5.399l13.45-25.483c-1.049-1.745-11.09-17.215-33.799-10.792zm241.009-35.188a17.216 17.216 0 0 0-9.12-6.33c-1.728-.498-3.466-.721-5.248-.825-1.965-.116-3.925-.107-5.889-.107h-38.878l-51.385-91.516c-7.791 8.2-11.276 17.385-12.612 25.728-1.938 12.097.43 24.508 6.392 35.126l61.746 109.971c.983 1.749 1.955 3.501 3.033 5.192.98 1.534 2.036 2.971 3.321 4.262 2.704 2.72 6.132 4.459 9.891 4.955a16.784 16.784 0 0 0 10.791-2.224c3.259-1.935 5.816-4.921 7.27-8.496 1.459-3.596 1.709-7.522.77-11.287-.446-1.79-1.126-3.448-1.931-5.088-.882-1.806-1.871-3.547-2.855-5.296l-14.236-25.361h18.685c1.964 0 3.923.011 5.888-.105 1.782-.106 3.52-.328 5.248-.826a17.212 17.212 0 0 0 9.12-6.33 18.01 18.01 0 0 0 3.522-10.721 18.022 18.022 0 0 0-3.523-10.722z" fill="#fff"/></svg>