<svg width="50" height="50" viewBox="0 0 50 50" fill="none" xmlns="http://www.w3.org/2000/svg">
<path d="M0 3.57143C0 1.59598 1.59598 0 3.57143 0C29.2188 0 50 20.7812 50 46.4286C50 48.404 48.404 50 46.4286 50C44.4531 50 42.8571 48.404 42.8571 46.4286C42.8571 24.7321 25.2679 7.14286 3.57143 7.14286C1.59598 7.14286 0 5.54688 0 3.57143ZM14.2857 42.8571C14.2857 46.7969 11.0826 50 7.14286 50C3.20313 50 0 46.7969 0 42.8571C0 38.9174 3.20313 35.7143 7.14286 35.7143C11.0826 35.7143 14.2857 38.9174 14.2857 42.8571ZM3.57143 14.2857C21.3281 14.2857 35.7143 28.6719 35.7143 46.4286C35.7143 48.404 34.1183 50 32.1429 50C30.1674 50 28.5714 48.404 28.5714 46.4286C28.5714 32.6228 17.3772 21.4286 3.57143 21.4286C1.59598 21.4286 0 19.8326 0 17.8571C0 15.8817 1.59598 14.2857 3.57143 14.2857Z" fill="white"/>
</svg>
