<svg viewBox="0 0 40 30" fill="none" xmlns="http://www.w3.org/2000/svg"><path d="M33.32 2.487A32.457 32.457 0 0 0 25.307.002a.121.121 0 0 0-.13.06 22.87 22.87 0 0 0-.996 2.05 29.961 29.961 0 0 0-8.999 0 20.71 20.71 0 0 0-1.012-2.05.126.126 0 0 0-.13-.06 32.366 32.366 0 0 0-8.01 2.485.115.115 0 0 0-.053.044C.875 10.155-.524 17.591.163 24.933a.135.135 0 0 0 .051.093 32.637 32.637 0 0 0 9.828 4.969.128.128 0 0 0 .138-.046 23.093 23.093 0 0 0 2.01-3.27.125.125 0 0 0-.067-.174 21.498 21.498 0 0 1-3.07-1.463.127.127 0 0 1-.051-.162.127.127 0 0 1 .038-.048c.207-.154.41-.314.61-.478a.121.121 0 0 1 .126-.017c6.442 2.94 13.415 2.94 19.781 0a.121.121 0 0 1 .128.017c.197.16.404.324.612.478a.126.126 0 0 1-.01.209 20.165 20.165 0 0 1-3.072 1.462.127.127 0 0 0-.067.176 26.205 26.205 0 0 0 2.01 3.268.125.125 0 0 0 .137.046 32.533 32.533 0 0 0 9.843-4.969.125.125 0 0 0 .052-.088c.82-8.49-1.374-15.865-5.82-22.402a.1.1 0 0 0-.05-.049v.002zM13.152 20.46c-1.94 0-3.537-1.779-3.537-3.967 0-2.186 1.568-3.967 3.537-3.967 1.984 0 3.568 1.798 3.537 3.969 0 2.186-1.567 3.965-3.537 3.965zm13.079 0c-1.94 0-3.538-1.779-3.538-3.967 0-2.186 1.566-3.967 3.538-3.967 1.984 0 3.568 1.798 3.537 3.969 0 2.186-1.551 3.965-3.537 3.965z" fill="#fff"/></svg>