<svg width="39" height="32" fill="none" xmlns="http://www.w3.org/2000/svg"><path d="M22.4 0H16C7.163 0 0 7.163 0 16s7.163 16 16 16h6.4c8.837 0 16-7.163 16-16s-7.163-16-16-16zM12.006 28.165C6.892 26.487 3.2 21.675 3.2 16c0-5.675 3.692-10.487 8.806-12.165l-.036.032c-.064.055-.128.111-.191.168l-.113.1a16.19 16.19 0 0 0-.218.202c-.026.024-.053.048-.078.073-.098.093-.194.187-.29.282l-.064.066-.218.224-.1.108-.175.19-.109.122-.159.182-.11.13a15.16 15.16 0 0 0-.65.828c-.034.046-.068.091-.101.138l-.14.198-.093.135c-.049.071-.096.144-.144.216a16.208 16.208 0 0 0-.25.393l-.046.074c-.07.116-.14.233-.207.35l-.055.098c-.048.086-.097.172-.144.26l-.071.134c-.04.076-.08.151-.118.227l-.075.15-.106.218a15.137 15.137 0 0 0-.488 1.14l-.062.162a15.38 15.38 0 0 0-.084.233l-.055.156c-.029.085-.057.17-.084.256l-.045.138c-.036.114-.07.228-.103.343l-.016.055c-.038.133-.074.267-.108.402l-.03.124-.069.282-.034.158-.053.253-.033.171a16.363 16.363 0 0 0-.168 1.088 17.897 17.897 0 0 0-.045.43l-.016.179-.018.26-.01.17c-.006.096-.01.193-.013.29l-.005.142a16.149 16.149 0 0 0 0 .87l.005.143c.004.097.007.194.013.29l.01.17.018.26.016.178a16.027 16.027 0 0 0 .213 1.518l.033.171.053.253.034.158.068.283.03.123c.035.135.071.27.11.403l.015.054c.034.115.068.23.103.343l.045.138c.027.086.055.171.084.256l.055.156.084.234.062.162a15.95 15.95 0 0 0 .415.982l.073.158.106.218.075.15.118.226.071.135c.047.087.096.173.144.259l.055.098c.067.118.136.234.207.35l.046.074c.056.091.112.181.17.27l.08.124c.048.072.095.144.144.215.03.046.062.09.094.136l.139.198.1.138a16.194 16.194 0 0 0 .65.827l.111.13.159.182.11.123.173.19.101.107c.072.076.144.15.217.223l.065.067c.096.096.192.19.29.283l.079.073.217.202.114.1c.063.056.126.113.19.168l.036.03zM22.4 28.8c-7.07 0-12.8-5.73-12.8-12.8S15.33 3.2 22.4 3.2 35.2 8.93 35.2 16s-5.73 12.8-12.8 12.8z" fill="#fff"/></svg>