<svg width="33" height="30" viewBox="0 0 33 30" fill="none" xmlns="http://www.w3.org/2000/svg">
<path d="M29.706 0H3.27065C1.88678 0 0.768555 1.11718 0.768555 2.49895V27.5021C0.768555 28.8797 1.88678 30 3.27065 30H29.706C31.0835 30 32.2049 28.8807 32.2049 27.5021V2.49895C32.2039 1.11718 31.0825 0 29.706 0ZM21.8994 8.90697C21.2494 8.52688 20.7339 8.22659 20.0861 8.22659C19.4519 8.22659 18.9101 8.38513 18.6329 8.65183C18.3557 8.91642 18.2182 9.42881 18.2182 10.1858V11.3062H21.6085L20.8746 14.4225H18.2182V24.7774H13.9594V14.4225H11.9718V11.3062H13.9615V10.1165C13.9615 8.86392 14.1117 8.11424 14.4078 7.4958C14.7028 6.87946 15.2751 6.19278 16.0709 5.80428C16.8658 5.41684 18.0418 5.22155 19.2587 5.22155C20.5061 5.22155 21.4804 5.63734 22.6753 5.97228L21.8994 8.90697Z" fill="white"/>
</svg>
