<svg width="239" height="410" viewBox="0 0 239 410" fill="none" xmlns="http://www.w3.org/2000/svg">
<path d="M119.467 0C92.16 0 68.2667 23.8933 68.2667 51.2C68.2667 78.5067 92.16 102.4 119.467 102.4C146.773 102.4 170.667 78.5067 170.667 51.2C170.667 23.8933 146.773 0 119.467 0ZM0 136.533V170.667C0 170.667 68.2667 170.667 68.2667 238.933V307.2C68.2667 375.467 0 375.467 0 375.467V409.6H238.933V375.467C238.933 375.467 170.667 375.467 170.667 307.2V170.667C170.667 153.6 153.6 136.533 136.533 136.533H0Z" fill="var(--link-color)"/>
</svg>
