<svg width="36" height="50" viewBox="0 0 36 50" fill="none" xmlns="http://www.w3.org/2000/svg">
<path d="M10.7143 7.14286C8.73884 7.14286 7.14286 8.73884 7.14286 10.7143C7.14286 12.6897 5.54688 14.2857 3.57143 14.2857C1.59598 14.2857 0 12.6897 0 10.7143C0 4.79911 4.79911 0 10.7143 0H21.5402C29.3638 0 35.7143 6.35045 35.7143 14.1741C35.7143 20.0223 32.1205 25.2679 26.6741 27.3884L19.6429 30.1228V32.1429C19.6429 34.1183 18.0469 35.7143 16.0714 35.7143C14.096 35.7143 12.5 34.1183 12.5 32.1429V30.1228C12.5 27.1763 14.308 24.5313 17.0536 23.471L24.0848 20.7366C26.7857 19.6763 28.5714 17.0759 28.5714 14.1741C28.5714 10.2902 25.4241 7.14286 21.5402 7.14286H10.7143ZM16.0714 50C13.6049 50 11.6071 48.0022 11.6071 45.5357C11.6071 43.0692 13.6049 41.0714 16.0714 41.0714C18.5379 41.0714 20.5357 43.0692 20.5357 45.5357C20.5357 48.0022 18.5379 50 16.0714 50Z" fill="white"/>
</svg>
