<svg width="32" height="32" fill="none" xmlns="http://www.w3.org/2000/svg"><path d="M32 15.382a.814.814 0 0 0-.72-.765l-1.972-.32a.417.417 0 0 1-.346-.358 11.161 11.161 0 0 0-.131-.733.424.424 0 0 1 .202-.45l1.752-.973a.796.796 0 0 0 .385-.987l-.304-.838a.794.794 0 0 0-.933-.5l-1.965.384a.424.424 0 0 1-.448-.216 13.85 13.85 0 0 0-.37-.648.43.43 0 0 1 .035-.5l1.307-1.51a.802.802 0 0 0 .03-1.06l-.57-.685a.787.787 0 0 0-1.045-.154l-1.72 1.034a.415.415 0 0 1-.492-.049 19.89 19.89 0 0 0-.567-.476.42.42 0 0 1-.133-.478l.713-1.877a.796.796 0 0 0-.332-1.005l-.776-.453a.792.792 0 0 0-1.035.218l-1.257 1.58a.354.354 0 0 1-.431.132c-.047-.02-.444-.182-.752-.285a.417.417 0 0 1-.288-.402l.03-2.006a.806.806 0 0 0-.66-.836l-.88-.154a.804.804 0 0 0-.904.551l-.654 1.909a.42.42 0 0 1-.412.28h-.75a.423.423 0 0 1-.408-.282L14.55.573a.805.805 0 0 0-.906-.558l-.882.154a.804.804 0 0 0-.659.83l.031 2.012a.42.42 0 0 1-.297.404c-.176.068-.558.214-.732.279-.154.055-.322-.005-.457-.161l-1.25-1.539a.792.792 0 0 0-1.036-.222l-.774.448a.797.797 0 0 0-.332 1.013l.711 1.873a.426.426 0 0 1-.13.479c-.188.154-.38.308-.57.478a.414.414 0 0 1-.488.05L5.077 5.058a.8.8 0 0 0-1.047.154l-.568.684a.793.793 0 0 0 .028 1.058l1.314 1.509a.417.417 0 0 1 .034.496c-.131.21-.256.43-.37.65a.425.425 0 0 1-.451.216l-1.962-.379a.795.795 0 0 0-.934.5l-.308.838a.798.798 0 0 0 .385.988l1.752.973a.415.415 0 0 1 .204.456l-.019.097c-.04.215-.077.418-.112.634a.422.422 0 0 1-.343.357l-1.976.32A.801.801 0 0 0 0 15.4v.89a.79.79 0 0 0 .705.79l1.975.318a.416.416 0 0 1 .346.36c.038.242.077.493.13.731a.425.425 0 0 1-.201.45l-1.752.975a.796.796 0 0 0-.385.987l.308.838a.795.795 0 0 0 .933.501l1.966-.38a.423.423 0 0 1 .447.216c.116.215.24.433.37.647a.429.429 0 0 1-.034.5L3.5 24.733a.8.8 0 0 0-.038 1.06l.57.685a.787.787 0 0 0 1.044.154l1.72-1.033a.415.415 0 0 1 .492.048c.191.167.385.328.567.476a.42.42 0 0 1 .133.478l-.713 1.877a.796.796 0 0 0 .332 1.005l.778.45a.793.793 0 0 0 1.034-.217l1.273-1.566c.108-.133.277-.192.403-.141.267.11.446.173.764.279a.417.417 0 0 1 .289.402l-.031 2.004a.808.808 0 0 0 .66.837l.88.154a.802.802 0 0 0 .904-.552l.654-1.905a.419.419 0 0 1 .412-.28h.75a.423.423 0 0 1 .408.281l.651 1.898a.806.806 0 0 0 .906.558l.883-.154a.804.804 0 0 0 .658-.83l-.03-2.012a.418.418 0 0 1 .288-.4c.295-.1.503-.18.685-.25l.046-.018c.239-.082.354.018.421.1l1.288 1.588a.792.792 0 0 0 1.034.217l.775-.449a.797.797 0 0 0 .331-1.008l-.71-1.872a.425.425 0 0 1 .13-.48c.187-.153.378-.307.569-.478a.415.415 0 0 1 .49-.047l1.723 1.03a.799.799 0 0 0 1.047-.153l.57-.685a.793.793 0 0 0-.03-1.058l-1.312-1.513a.417.417 0 0 1-.034-.496c.131-.208.257-.428.37-.65a.427.427 0 0 1 .451-.216l1.96.382a.795.795 0 0 0 .934-.5l.304-.837a.798.798 0 0 0-.384-.988l-1.754-.975a.415.415 0 0 1-.201-.453l.018-.098c.04-.214.077-.417.113-.633a.422.422 0 0 1 .343-.357l1.976-.319a.802.802 0 0 0 .706-.79v-.901zm-21.727 7.23a1.215 1.215 0 0 1-1.96.205 10.39 10.39 0 0 1 .033-13.973 1.216 1.216 0 0 1 1.962.213l3.511 6.18a1.219 1.219 0 0 1 0 1.212l-3.546 6.163zM16 26.242c-.732 0-1.462-.077-2.178-.231a1.217 1.217 0 0 1-.787-1.797l3.539-6.154a1.215 1.215 0 0 1 1.054-.61h7.087a1.216 1.216 0 0 1 1.162 1.58c-1.345 4.178-5.262 7.212-9.877 7.212zm.578-12.608l-3.501-6.165a1.217 1.217 0 0 1 .793-1.792c.7-.147 1.414-.222 2.13-.221 4.615 0 8.532 3.033 9.875 7.214a1.214 1.214 0 0 1-1.162 1.58h-7.077a1.214 1.214 0 0 1-1.058-.616z" fill="#fff"/></svg>