<svg fill="none" viewBox="0 0 256 256" xmlns="http://www.w3.org/2000/svg"><path d="M256 131.206c0 28.587-8.139 54.299-24.417 77.134-16.277 22.836-37.305 38.639-63.083 47.409-3 .569-5.194.171-6.583-1.196s-2.084-3.075-2.084-5.125V213.38c0-11.047-2.889-19.134-8.666-24.259 6.333-.684 12.027-1.709 17.083-3.075 5.056-1.367 10.278-3.588 15.667-6.663s9.889-6.862 13.5-11.361 6.555-10.478 8.833-17.938 3.417-16.031 3.417-25.712c0-13.781-4.389-25.512-13.167-35.193 4.111-10.364 3.667-21.982-1.333-34.852-3.111-1.025-7.611-.398-13.5 1.88-5.889 2.277-11 4.783-15.334 7.517l-6.333 4.1c-10.333-2.961-21-4.442-32-4.442s-21.667 1.48-32 4.442c-1.778-1.253-4.139-2.79-7.083-4.613-2.945-1.822-7.584-4.015-13.917-6.577-6.333-2.563-11.111-3.332-14.333-2.307-4.89 12.87-5.278 24.488-1.167 34.852-8.778 9.68-13.167 21.412-13.167 35.193 0 9.681 1.14 18.223 3.417 25.626 2.278 7.403 5.194 13.383 8.75 17.939 3.556 4.555 8.028 8.371 13.417 11.446s10.61 5.296 15.666 6.663c5.056 1.366 10.75 2.391 17.084 3.075-4.445 4.1-7.167 9.966-8.167 17.596a32.471 32.471 0 0 1-7.5 2.563c-2.667.57-5.833.854-9.5.854s-7.306-1.224-10.917-3.673c-3.61-2.449-6.694-6.008-9.25-10.677-2.11-3.645-4.805-6.606-8.083-8.884s-6.028-3.645-8.25-4.1l-3.333-.513c-2.334 0-3.945.256-4.834.769s-1.166 1.167-.833 1.965c.333.797.833 1.594 1.5 2.391a12.304 12.304 0 0 0 2.167 2.051l1.166.854c2.445 1.139 4.861 3.303 7.25 6.492 2.39 3.189 4.14 6.093 5.25 8.713L53 209.451c1.444 4.328 3.889 7.83 7.333 10.507 3.445 2.676 7.167 4.385 11.167 5.125s7.861 1.139 11.583 1.196c3.723.057 6.806-.143 9.25-.598l3.834-.684c0 4.328.027 9.397.083 15.205.056 5.809.083 8.884.083 9.226 0 2.05-.722 3.758-2.166 5.125-1.445 1.367-3.667 1.765-6.667 1.196-25.778-8.77-46.806-24.573-63.083-47.409C8.139 185.505 0 159.793 0 131.206c0-23.804 5.722-45.757 17.167-65.86C28.61 45.245 44.139 29.329 63.75 17.597 83.361 5.867 104.778 0 128 0s44.639 5.866 64.25 17.597c19.611 11.73 35.139 27.647 46.583 47.75C250.278 85.449 256 107.402 256 131.206z" fill="#fff"/></svg>