<svg width="31" height="30" viewBox="0 0 31 30" fill="none" xmlns="http://www.w3.org/2000/svg">
<path d="M4.52418 0H26.8238C28.9423 0 30.6743 1.73254 30.6743 3.85111V26.1507C30.6743 28.2687 28.9423 30 26.8238 30H4.52418C2.40561 30 0.671875 28.2686 0.671875 26.1507V3.85111C0.671875 1.73254 2.40561 0 4.52418 0ZM22.5282 3.33197C21.7844 3.33197 21.1776 3.94112 21.1776 4.68457V7.91623C21.1776 8.65999 21.7844 9.26774 22.5282 9.26774H25.9188C26.6615 9.26774 27.2695 8.65999 27.2695 7.91623V4.68457C27.2695 3.94112 26.6615 3.33197 25.9188 3.33197H22.5282ZM27.2824 12.6866H24.6426C24.8929 13.5042 25.0286 14.3663 25.0286 15.2627C25.0286 20.2513 20.8517 24.2974 15.7013 24.2974C10.5522 24.2974 6.37513 20.2513 6.37513 15.2627C6.37513 14.3663 6.51214 13.5042 6.76126 12.6866H4.00714V25.3608C4.00714 26.0172 4.54308 26.5511 5.19884 26.5511H26.0912C26.7476 26.5511 27.2824 26.0172 27.2824 25.3608V12.6866ZM15.7014 9.09733C12.3751 9.09733 9.67689 11.7103 9.67689 14.9366C9.67689 18.1596 12.3751 20.7746 15.7014 20.7746C19.0294 20.7746 21.7278 18.1596 21.7278 14.9366C21.7278 11.7102 19.0294 9.09733 15.7014 9.09733Z" fill="white"/>
</svg>
