<svg viewBox="0 0 32 32" fill="none" xmlns="http://www.w3.org/2000/svg"><path d="M15.963 7.757a8.204 8.204 0 1 0 0 16.408 8.204 8.204 0 0 0 0-16.408zm0 13.532a5.33 5.33 0 1 1 0-10.66 5.33 5.33 0 0 1 0 10.66zM24.49 9.368a1.913 1.913 0 1 0 0-3.825 1.913 1.913 0 0 0 0 3.825z" fill="#fff"/><path d="M31.104 5.51A8.17 8.17 0 0 0 26.433.842a11.72 11.72 0 0 0-3.879-.745C20.845.02 20.304 0 15.972 0c-4.333 0-4.888 0-6.583.096A11.628 11.628 0 0 0 5.514.84a8.161 8.161 0 0 0-4.671 4.67 11.683 11.683 0 0 0-.744 3.878C.023 11.096 0 11.637 0 15.972c0 4.332 0 4.884.1 6.582.026 1.327.276 2.637.743 3.88a8.18 8.18 0 0 0 4.673 4.67c1.237.485 2.549.755 3.877.798 1.708.075 2.25.098 6.582.098 4.333 0 4.888 0 6.583-.098a11.734 11.734 0 0 0 3.878-.743 8.184 8.184 0 0 0 4.672-4.671c.466-1.242.716-2.552.743-3.879.076-1.707.1-2.248.1-6.582 0-4.335 0-4.885-.1-6.583a11.677 11.677 0 0 0-.747-3.933zm-2.161 16.913a8.947 8.947 0 0 1-.552 2.995 5.297 5.297 0 0 1-3.037 3.035 8.845 8.845 0 0 1-2.963.552c-1.686.078-2.161.098-6.483.098-4.326 0-4.768 0-6.485-.098a8.8 8.8 0 0 1-2.961-.552 5.297 5.297 0 0 1-3.05-3.035 9.013 9.013 0 0 1-.552-2.962c-.076-1.685-.094-2.16-.094-6.483 0-4.323 0-4.765.094-6.484a8.939 8.939 0 0 1 .552-2.994 5.298 5.298 0 0 1 3.05-3.037 8.889 8.889 0 0 1 2.96-.552c1.688-.076 2.162-.097 6.486-.097s4.767 0 6.483.097a8.8 8.8 0 0 1 2.963.552 5.307 5.307 0 0 1 3.037 3.037c.349.95.536 1.95.552 2.962.076 1.687.096 2.16.096 6.484 0 4.322 0 4.787-.077 6.483h-.019v-.001z" fill="#fff"/></svg>