<svg width="512" height="512" viewBox="0 0 512 512" fill="none" xmlns="http://www.w3.org/2000/svg">
<path fill-rule="evenodd" clip-rule="evenodd" d="M277.268 229.949V229.201C277.115 229.452 276.903 229.703 276.771 229.949H277.268Z" fill="var(--link-color)"/>
<path fill-rule="evenodd" clip-rule="evenodd" d="M0 0V512H512V0H0ZM159.251 425.356H83.2883V196.817H159.251V425.356ZM121.27 165.625H120.768C95.286 165.625 78.7692 148.069 78.7692 126.126C78.7692 103.702 95.7688 86.6439 121.767 86.6439C147.771 86.6439 163.751 103.702 164.248 126.126C164.248 148.069 147.771 165.625 121.27 165.625ZM433.231 425.356H357.248V303.087C357.248 272.377 346.27 251.415 318.769 251.415C297.767 251.415 285.286 265.529 279.788 279.201C277.79 284.085 277.268 290.873 277.268 297.722V425.357H201.27C201.27 425.357 202.288 218.258 201.27 196.818H277.268V229.203C287.365 213.666 305.384 191.453 345.747 191.453C395.751 191.453 433.231 224.109 433.231 294.301V425.356Z" fill="var(--link-color)"/>
</svg>
