<svg width="27" height="32" viewBox="0 0 27 32" fill="none" xmlns="http://www.w3.org/2000/svg">
<path d="M16 16C16 9.86263 20.4639 4.7685 26.3219 3.78531C23.5338 1.42544 19.9306 0 16 0C7.1775 0 0 7.1775 0 16C0 24.8225 7.1775 32 16 32C19.9304 32 23.5336 30.5746 26.3219 28.2147C20.4639 27.2315 16 22.1375 16 16ZM16 28.9032C8.88519 28.9032 3.09675 23.1149 3.09675 16C3.09675 8.88513 8.88519 3.09675 16 3.09675C17.098 3.09675 18.1852 3.23819 19.2353 3.5115C18.2751 4.21531 17.3926 5.03163 16.6096 5.94838C14.2196 8.74631 12.9032 12.3161 12.9032 16C12.9032 19.684 14.2195 23.2537 16.6096 26.0516C17.3926 26.9684 18.2751 27.7847 19.2353 28.4885C18.1852 28.7618 17.0981 28.9032 16 28.9032Z" fill="white"/>
</svg>
