<svg id="playstore-logo" viewBox="0 0 233 256" fill="none" xmlns="http://www.w3.org/2000/svg">
<path d="M179.41 87.8117C149.671 71.1782 101.939 44.4687 27.9026 3.01408C22.9111 -0.282426 17.1681 -0.714427 12.2061 0.965076L139.231 127.99L179.41 87.8117Z" fill="#32BBFF" class="svg-elem-1"></path>
<path d="M12.2065 0.965088C11.2765 1.28009 10.3715 1.66009 9.50602 2.11909C4.02651 5.0831 0 10.7866 0 18.0001V237.981C0 245.194 4.02601 250.898 9.50602 253.861C10.37 254.32 11.2745 254.701 12.2035 255.018L139.232 127.99L12.2065 0.965088Z" fill="#32BBFF" class="svg-elem-2"></path>
<path d="M139.231 127.99L12.2031 255.018C17.1666 256.71 22.9096 256.311 27.9027 252.966C99.7018 212.761 146.896 186.368 176.979 169.593C177.816 169.123 178.637 168.663 179.448 168.207L139.231 127.99Z" fill="#32BBFF" class="svg-elem-3"></path>
<path d="M0 127.99V237.98C0 245.194 4.02601 250.897 9.50602 253.861C10.37 254.319 11.2745 254.701 12.2035 255.018L139.232 127.99H0Z" fill="#2C9FD9" class="svg-elem-4"></path>
<path d="M27.9029 3.01396C21.9754 -0.900047 14.9854 -0.788547 9.50586 2.11946L137.304 129.918L179.41 87.8116C149.671 71.1781 101.939 44.4685 27.9029 3.01396Z" fill="#29CC5E" class="svg-elem-5"></path>
<path d="M137.305 126.063L9.50586 253.861C14.9859 256.768 21.9754 256.936 27.9029 252.966C99.702 212.761 146.896 186.368 176.979 169.593C177.817 169.123 178.637 168.663 179.448 168.207L137.305 126.063Z" fill="#D93F21" class="svg-elem-6"></path>
<path d="M232.451 127.99C232.451 121.895 229.375 115.744 223.28 112.333C223.28 112.333 211.88 105.973 176.939 86.4287L135.377 127.99L176.979 169.593C211.537 150.189 223.279 143.647 223.279 143.647C229.375 140.236 232.451 134.085 232.451 127.99Z" fill="#FFD500" class="svg-elem-7"></path>
<path d="M223.28 143.647C229.375 140.236 232.451 134.085 232.451 127.99H135.377L176.979 169.593C211.538 150.19 223.28 143.647 223.28 143.647Z" fill="#FFAA00" class="svg-elem-8"></path>
</svg>