<svg fill="none" viewBox="0 0 233 256" xmlns="http://www.w3.org/2000/svg"><g fill="#32bbff"><path d="m179.41 87.8117c-29.739-16.6335-77.471-43.343-151.5074-84.79762-4.9915-3.296506-10.7345-3.728507-15.6965-2.049004l127.0249 127.024924z"/><path d="m12.2065.965088c-.93.315002-1.835.695002-2.70048 1.154002-5.47951 2.96401-9.50602 8.66751-9.50602 15.88101v219.9809c0 7.213 4.02601 12.917 9.50602 15.88.86398.459 1.76848.84 2.69748 1.157l127.0285-127.028z"/><path d="m139.231 127.99-127.0279 127.028c4.9635 1.692 10.7065 1.293 15.6996-2.052 71.7991-40.205 118.9933-66.598 149.0763-83.373.837-.47 1.658-.93 2.469-1.386z"/></g><path d="m0 127.99v109.99c0 7.214 4.02601 12.917 9.50602 15.881.86398.458 1.76848.84 2.69748 1.157l127.0285-127.028z" fill="#2c9fd9"/><path d="m27.9029 3.01396c-5.9275-3.914007-12.9175-3.802507-18.39704-.8945l127.79814 127.79854 42.106-42.1064c-29.739-16.6335-77.471-43.3431-151.5071-84.79764z" fill="#29cc5e"/><path d="m137.305 126.063-127.79914 127.798c5.48004 2.907 12.46954 3.075 18.39704-.895 71.7991-40.205 118.9931-66.598 149.0761-83.373.838-.47 1.658-.93 2.469-1.386z" fill="#d93f21"/><path d="m232.451 127.99c0-6.095-3.076-12.246-9.171-15.657 0 0-11.4-6.36-46.341-25.9043l-41.562 41.5613 41.602 41.603c34.558-19.404 46.3-25.946 46.3-25.946 6.096-3.411 9.172-9.562 9.172-15.657z" fill="#ffd500"/><path d="m223.28 143.647c6.095-3.411 9.171-9.562 9.171-15.657h-97.074l41.602 41.603c34.559-19.403 46.301-25.946 46.301-25.946z" fill="#fa0"/></svg>