<svg fill="none" viewBox="0 0 31 30" xmlns="http://www.w3.org/2000/svg"><path d="M14.237 9.769l.938-4.42a2.499 2.499 0 0 1 2.967-1.925l3.995.85a2.5 2.5 0 1 1-.52 2.445l-3.995-.85-.833 3.919c2.23.17 4.446.912 6.454 2.124a3.989 3.989 0 0 1 5.926 3.342v.026a3.99 3.99 0 0 1-1.509 3.188 3.767 3.767 0 0 1-.01.153c0 4.998-5.562 8.788-12.248 8.788-6.665 0-12.135-3.78-12.132-8.691a6.639 6.639 0 0 1-.012-.227 3.99 3.99 0 0 1 4.317-6.687 14.308 14.308 0 0 1 6.662-2.035zm11.607 6.907c.51-.253.83-.775.826-1.343a1.49 1.49 0 0 0-2.52-1.008l-.73.7-.838-.569c-2.02-1.372-4.315-2.156-6.538-2.205h-1.257c-2.344.037-4.564.75-6.547 2.094l-.828.563-.73-.688a1.491 1.491 0 0 0-2.455 1.489 1.49 1.49 0 0 0 .812.951l.791.363-.067.868c-.016.213-.016.424.004.73 0 3.388 4.195 6.288 9.635 6.288 5.463 0 9.748-2.92 9.752-6.383a4.13 4.13 0 0 0 0-.635l-.065-.84zm-16.735.199a1.875 1.875 0 1 1 3.75 0 1.875 1.875 0 0 1-3.75 0zm8.75 0a1.875 1.875 0 1 1 3.75 0 1.875 1.875 0 0 1-3.75 0zm-2.48 6.379c-1.746 0-3.459-.463-4.852-1.513a.53.53 0 0 1 .746-.746c1.181.866 2.654 1.238 4.086 1.238 1.433 0 2.913-.344 4.105-1.2a.549.549 0 0 1 .915.258.586.586 0 0 1-.149.529c-.855.996-3.105 1.434-4.85 1.434z" fill="#fff"/></svg>