<svg width="32" height="32" fill="none" xmlns="http://www.w3.org/2000/svg"><path d="M31.588 15.048l-3.88-3.879V5.651c0-.751-.613-1.365-1.364-1.365h-5.512l-3.88-3.88a1.321 1.321 0 0 0-1.906 0l-3.88 3.886H5.649c-.75 0-1.365.614-1.365 1.365v5.512L.404 15.05a1.327 1.327 0 0 0 0 1.906l3.886 3.88v5.511c0 .752.614 1.365 1.365 1.365h5.512l3.879 3.88c.51.509 1.326.58 1.907 0l3.88-3.88h5.511c.751 0 1.365-.613 1.365-1.365v-5.512l3.88-3.879a1.333 1.333 0 0 0 0-1.907zm-6.126 4.291a1.345 1.345 0 0 0-.411.954v4.767h-4.767c-.34 0-.68.137-.954.411L16 28.802l-3.338-3.337a1.345 1.345 0 0 0-.953-.412H6.94v-4.767c0-.34-.137-.68-.411-.954l-3.33-3.33 3.336-3.337c.275-.275.412-.614.412-.954V6.944h4.767c.34 0 .68-.137.954-.412l3.33-3.33 3.338 3.337c.274.274.614.411.953.411h4.768v4.768c0 .34.137.679.41.953l3.332 3.33-3.338 3.338z" fill="#fff"/><path d="M16 8.354c-4.16 0-7.55 3.383-7.55 7.55 0 4.16 3.383 7.55 7.55 7.55a7.553 7.553 0 0 0 7.549-7.55c0-4.167-3.39-7.55-7.55-7.55zm0 12.415a4.876 4.876 0 0 1-4.873-4.872 4.872 4.872 0 0 1 9.744 0A4.88 4.88 0 0 1 16 20.77z" fill="#fff"/></svg>