<svg width="28" height="28" fill="none" xmlns="http://www.w3.org/2000/svg"><path d="M14 12c2.206 0 4-1.794 4-4V5a1 1 0 0 0-1-1h-6a1 1 0 0 0-1 1v3c0 2.206 1.794 4 4 4zm-2-6h4v2c0 1.103-.897 2-2 2s-2-.897-2-2V6zm11 2c2.206 0 4-1.794 4-4V1a1 1 0 0 0-1-1h-6a1 1 0 0 0-1 1v3c0 2.206 1.794 4 4 4zm-2-6h4v2c0 1.103-.897 2-2 2s-2-.897-2-2V2zM5 8c2.206 0 4-1.794 4-4V1a1 1 0 0 0-1-1H2a1 1 0 0 0-1 1v3c0 2.206 1.794 4 4 4zM3 2h4v2c0 1.103-.897 2-2 2s-2-.897-2-2V2zm17 11H8a1 1 0 0 0-1 1v13a1 1 0 0 0 2 0V15h10v12a1 1 0 0 0 2 0V14a1 1 0 0 0-1-1z" fill="#fff"/><path d="M27 9h-8a1 1 0 0 0 0 2h7v11a1 1 0 0 0 2 0V10a1 1 0 0 0-1-1zM1 23a1 1 0 0 0 1-1V11h7a1 1 0 0 0 0-2H1a1 1 0 0 0-1 1v12a1 1 0 0 0 1 1z" fill="#fff"/></svg>