<svg width="455" height="513" viewBox="0 0 455 513" fill="none" xmlns="http://www.w3.org/2000/svg">
<path d="M185.751 120.715H269.003C274.75 120.715 279.409 116.056 279.409 110.309V88.455C279.409 72.672 270.348 58.975 257.16 52.266C259.076 48.372 260.157 43.996 260.157 39.371V29.311C260.158 13.149 247.009 0 230.846 0H223.908C207.746 0 194.597 13.149 194.597 29.312V39.372C194.597 43.997 195.677 48.373 197.594 52.267C184.406 58.976 175.345 72.673 175.345 88.456V110.31C175.344 116.056 180.003 120.715 185.751 120.715ZM215.41 29.312C215.41 24.626 219.223 20.813 223.909 20.813H230.847C235.533 20.813 239.346 24.626 239.346 29.312V39.372C239.346 44.058 235.533 47.871 230.847 47.871H223.909C219.223 47.871 215.41 44.058 215.41 39.372V29.312ZM196.158 88.455C196.158 77.552 205.027 68.683 215.93 68.683H238.824C249.727 68.683 258.596 77.553 258.596 88.455V99.902H196.157V88.455H196.158Z" fill="var(--link-color)"/>
<path d="M269.003 391.285H185.751C180.004 391.285 175.345 395.944 175.345 401.691V423.545C175.345 439.327 184.406 453.025 197.594 459.734C195.678 463.628 194.597 468.004 194.597 472.629V482.689C194.597 498.851 207.747 512.001 223.909 512.001H230.847C247.009 512.001 260.159 498.852 260.159 482.689V472.629C260.159 468.004 259.079 463.628 257.162 459.734C270.349 453.025 279.41 439.328 279.41 423.545V401.691C279.41 395.944 274.751 391.285 269.003 391.285ZM239.344 482.688C239.344 487.374 235.531 491.187 230.845 491.187H223.907C219.221 491.187 215.408 487.374 215.408 482.688V472.628C215.408 467.942 219.221 464.129 223.907 464.129H230.845C235.531 464.129 239.344 467.942 239.344 472.628V482.688ZM258.597 423.545C258.597 434.448 249.727 443.317 238.825 443.317H215.931C205.028 443.317 196.159 434.447 196.159 423.545V412.098H258.598V423.545H258.597Z" fill="var(--link-color)"/>
<path d="M365.35 224.406C366.73 226.796 369.003 228.541 371.669 229.254C372.556 229.491 373.461 229.609 374.362 229.609C376.174 229.609 377.97 229.135 379.565 228.215L398.491 217.288C407.879 211.868 414.595 203.115 417.401 192.644C418.527 188.442 418.958 184.166 418.733 179.944C423.133 179.644 427.441 178.343 431.373 176.074L440.084 171.045C446.865 167.13 451.715 160.81 453.742 153.247C455.768 145.684 454.729 137.785 450.814 131.004L447.345 124.996C443.43 118.215 437.11 113.366 429.547 111.339C421.986 109.314 414.086 110.352 407.304 114.267L398.593 119.296C394.653 121.57 391.372 124.661 388.911 128.331C376.509 120.273 360.122 119.277 346.459 127.165L327.533 138.092C322.556 140.965 320.85 147.33 323.724 152.307L365.35 224.406ZM405.039 142.481C405.626 140.288 407.033 138.456 408.999 137.321L417.711 132.292C419.046 131.521 420.505 131.156 421.945 131.156C424.885 131.156 427.748 132.681 429.319 135.404L432.787 141.412C433.921 143.378 434.223 145.668 433.636 147.861C433.048 150.054 431.642 151.886 429.676 153.021L420.964 158.05C416.905 160.395 411.698 158.999 409.355 154.939L405.886 148.93C404.754 146.964 404.452 144.673 405.039 142.481ZM356.865 145.189C366.307 139.737 378.423 142.985 383.875 152.427L387.863 159.334C387.863 159.335 387.864 159.336 387.864 159.336L391.333 165.345C391.334 165.346 391.335 165.348 391.335 165.349L395.322 172.255C400.773 181.697 397.527 193.813 388.084 199.265L378.171 204.989L346.951 150.915L356.865 145.189Z" fill="var(--link-color)"/>
<path d="M89.4033 287.594C88.0233 285.204 85.7503 283.459 83.0843 282.746C80.4163 282.03 77.5773 282.406 75.1883 283.786L56.2623 294.713C46.8743 300.133 40.1583 308.886 37.3523 319.357C36.2263 323.561 35.7953 327.838 36.0203 332.062C31.6203 332.362 27.3123 333.658 23.3793 335.928L14.6683 340.957C7.88734 344.872 3.03734 351.192 1.01134 358.755C-1.01466 366.318 0.0243363 374.217 3.93934 380.998L7.40834 387.006C11.3233 393.787 17.6443 398.636 25.2063 400.664C27.7323 401.34 30.2943 401.675 32.8403 401.675C37.9183 401.675 42.9323 400.343 47.4493 397.735L56.1603 392.706C60.0923 390.436 63.3693 387.353 65.8293 383.692C69.3743 385.998 73.2943 387.765 77.4983 388.891C80.9953 389.828 84.5433 390.292 88.0683 390.292C95.1013 390.292 102.042 388.448 108.295 384.837L127.221 373.91C132.198 371.037 133.904 364.672 131.03 359.695L89.4033 287.594ZM49.7143 369.519C49.1263 371.712 47.7203 373.544 45.7543 374.679L37.0423 379.708C32.9833 382.053 27.7763 380.657 25.4333 376.597L21.9653 370.589C20.8303 368.623 20.5293 366.333 21.1163 364.14C21.7033 361.947 23.1103 360.115 25.0763 358.98L33.7883 353.951C35.1233 353.18 36.5823 352.815 38.0223 352.815C40.9623 352.815 43.8253 354.34 45.3963 357.063L48.8643 363.071C49.9993 365.036 50.3013 367.327 49.7143 369.519ZM97.8883 366.811C93.3143 369.451 87.9853 370.154 82.8843 368.786C77.7833 367.42 73.5193 364.147 70.8783 359.573L59.4313 339.745C53.9803 330.303 57.2263 318.187 66.6693 312.735L76.5823 307.011L107.801 361.085L97.8883 366.811Z" fill="var(--link-color)"/>
<path d="M453.741 358.753C451.715 351.19 446.864 344.87 440.084 340.956L431.372 335.927C427.433 333.653 423.115 332.357 418.706 332.06C419.483 317.289 412.153 302.6 398.489 294.712L379.563 283.785C377.174 282.405 374.335 282.032 371.667 282.745C369.001 283.46 366.728 285.203 365.348 287.593L323.722 359.691C320.848 364.668 322.553 371.033 327.531 373.906L346.457 384.833C352.833 388.514 359.8 390.262 366.681 390.262C374.547 390.262 382.298 387.974 388.914 383.675C391.374 387.342 394.654 390.43 398.591 392.703L407.303 397.732C411.819 400.34 416.832 401.672 421.912 401.672C424.457 401.672 427.022 401.337 429.546 400.66C437.108 398.634 443.429 393.783 447.344 387.003L450.813 380.995C454.728 374.215 455.768 366.316 453.741 358.753ZM395.321 339.745L383.874 359.573C378.422 369.013 366.306 372.26 356.864 366.811L346.951 361.087L378.171 307.013L388.084 312.737C392.658 315.378 395.929 319.642 397.297 324.743C398.663 329.842 397.962 335.172 395.321 339.745ZM432.788 370.589L429.319 376.597C426.976 380.656 421.77 382.052 417.71 379.708L408.998 374.677C407.032 373.543 405.626 371.71 405.038 369.517C404.451 367.324 404.752 365.034 405.887 363.067L409.355 357.058C410.927 354.336 413.789 352.812 416.729 352.812C418.17 352.812 419.629 353.178 420.964 353.948L429.676 358.979C431.642 360.113 433.048 361.946 433.636 364.139C434.225 366.333 433.923 368.623 432.788 370.589Z" fill="var(--link-color)"/>
<path d="M14.6688 171.044L23.3808 176.073C27.3208 178.348 31.6358 179.65 36.0458 179.946C35.2708 194.715 42.6018 209.401 56.2628 217.288L75.1888 228.215C76.7848 229.136 78.5818 229.609 80.3918 229.609C81.2928 229.609 82.1988 229.491 83.0848 229.254C85.7508 228.539 88.0238 226.796 89.4038 224.406L131.03 152.308C133.904 147.331 132.199 140.966 127.221 138.093L108.295 127.166C94.6308 119.277 78.2448 120.273 65.8428 128.332C63.3818 124.662 60.1008 121.572 56.1618 119.298L47.4498 114.269C40.6688 110.355 32.7708 109.316 25.2068 111.341C17.6448 113.367 11.3238 118.218 7.40878 124.998L3.93978 131.006C0.0247808 137.787 -1.01522 145.685 1.01178 153.249C3.03778 160.812 7.88778 167.131 14.6688 171.044ZM59.4318 172.255L70.8788 152.427C73.5198 147.853 77.7838 144.582 82.8848 143.214C84.5878 142.758 86.3168 142.531 88.0348 142.531C91.4608 142.531 94.8428 143.43 97.8888 145.189L107.802 150.913L76.5828 204.987L66.6698 199.263C62.0958 196.622 58.8248 192.358 57.4568 187.257C56.0898 182.158 56.7908 176.828 59.4318 172.255ZM21.9648 141.41L25.4328 135.402C27.7768 131.343 32.9848 129.948 37.0418 132.292L45.7538 137.322C47.7198 138.456 49.1258 140.289 49.7138 142.482C50.3008 144.675 49.9998 146.965 48.8648 148.931L45.3968 154.939C43.0538 158.998 37.8478 160.394 33.7878 158.05L25.0758 153.019C23.1098 151.885 21.7038 150.052 21.1158 147.859C20.5278 145.667 20.8298 143.377 21.9648 141.41Z" fill="var(--link-color)"/>
<path d="M352.621 265.224V246.775C352.621 244.949 352.14 243.154 351.227 241.572L301.796 155.956C300.883 154.374 299.569 153.06 297.987 152.147L282.011 142.923C280.429 142.009 278.634 141.529 276.808 141.529H177.946C176.12 141.529 174.325 142.01 172.743 142.923L156.766 152.147C155.184 153.06 153.87 154.374 152.957 155.956L103.526 241.572C102.612 243.154 102.132 244.949 102.132 246.775V265.224C102.132 267.05 102.613 268.845 103.526 270.427L152.957 356.043C153.87 357.625 155.184 358.939 156.766 359.852L172.743 369.076C174.325 369.99 176.12 370.47 177.946 370.47H276.808C278.634 370.47 280.429 369.989 282.011 369.076L297.988 359.852C299.57 358.939 300.884 357.625 301.797 356.043L351.228 270.427C352.141 268.846 352.621 267.051 352.621 265.224ZM331.808 262.435L285.166 343.223L274.019 349.658H180.734L169.587 343.223L122.945 262.435V249.564L169.587 168.776L180.734 162.341H274.019L285.166 168.776L331.808 249.564V262.435Z" fill="var(--link-color)"/>
<path d="M202.255 308.033H197.336L194.877 303.774C192.004 298.796 185.638 297.091 180.662 299.965C175.685 302.838 173.979 309.203 176.853 314.18L182.316 323.643C184.175 326.863 187.61 328.846 191.328 328.846H202.255C208.002 328.846 212.661 324.187 212.661 318.44C212.661 312.693 208.002 308.033 202.255 308.033Z" fill="var(--link-color)"/>
<path d="M167.294 256L169.753 251.741C172.627 246.764 170.922 240.399 165.945 237.526C160.97 234.654 154.604 236.357 151.73 241.335L146.267 250.798C144.407 254.018 144.407 257.985 146.267 261.205L151.73 270.668C153.657 274.006 157.155 275.872 160.751 275.872C162.516 275.872 164.306 275.422 165.945 274.476C170.922 271.603 172.628 265.238 169.754 260.261L167.294 256Z" fill="var(--link-color)"/>
<path d="M180.661 212.035C182.3 212.981 184.089 213.431 185.855 213.431C189.451 213.431 192.949 211.565 194.876 208.227L197.335 203.968H202.254C208.001 203.968 212.66 199.309 212.66 193.562C212.66 187.815 208.001 183.156 202.254 183.156H191.327C187.609 183.156 184.174 185.139 182.315 188.359L176.852 197.822C173.978 202.797 175.684 209.161 180.661 212.035Z" fill="var(--link-color)"/>
<path d="M272.438 188.357C270.579 185.137 267.144 183.154 263.426 183.154H252.499C246.752 183.154 242.093 187.813 242.093 193.56C242.093 199.307 246.752 203.966 252.499 203.966H257.418L259.877 208.225C261.804 211.563 265.302 213.43 268.898 213.429C270.663 213.429 272.453 212.979 274.092 212.033C279.069 209.16 280.775 202.795 277.901 197.818L272.438 188.357Z" fill="var(--link-color)"/>
<path d="M285 251.741L287.459 256L285 260.259C282.126 265.236 283.831 271.601 288.809 274.474C290.448 275.42 292.237 275.871 294.003 275.87C297.599 275.87 301.097 274.004 303.024 270.666L308.487 261.203C310.347 257.983 310.347 254.016 308.487 250.796L303.024 241.333C300.151 236.355 293.785 234.649 288.809 237.524C283.831 240.399 282.126 246.763 285 251.741Z" fill="var(--link-color)"/>
<path d="M274.093 299.963C269.117 297.091 262.752 298.796 259.878 303.773L257.418 308.032H252.499C246.751 308.032 242.093 312.69 242.093 318.437C242.093 324.184 246.752 328.843 252.499 328.843H263.426C267.144 328.843 270.579 326.86 272.438 323.64L277.901 314.178C280.776 309.202 279.07 302.837 274.093 299.963Z" fill="var(--link-color)"/>
<path d="M261.198 256.001C261.198 237.353 246.025 222.18 227.377 222.18C208.729 222.18 193.556 237.353 193.556 256.001C193.556 274.649 208.729 289.822 227.377 289.822C246.025 289.822 261.198 274.649 261.198 256.001ZM227.377 269.009C220.204 269.009 214.369 263.174 214.369 256.001C214.369 248.828 220.204 242.993 227.377 242.993C234.55 242.993 240.385 248.828 240.385 256.001C240.385 263.174 234.549 269.009 227.377 269.009Z" fill="var(--link-color)"/>
</svg>
