<svg width="43" height="32" viewBox="0 0 43 32" fill="none" xmlns="http://www.w3.org/2000/svg">
<path d="M40 32C40 32 42.6667 32 42.6667 29.3333C42.6667 26.6667 40 18.6667 29.3333 18.6667C18.6667 18.6667 16 26.6667 16 29.3333C16 32 18.6667 32 18.6667 32H40ZM18.7253 29.3333C18.7056 29.3306 18.6861 29.3271 18.6667 29.3227C18.6693 28.6187 19.112 26.576 20.6933 24.736C22.1653 23.0107 24.752 21.3333 29.3333 21.3333C33.912 21.3333 36.4987 23.0133 37.9733 24.736C39.5547 26.576 39.9947 28.6213 40 29.3227L39.9787 29.328C39.9663 29.3301 39.9538 29.3319 39.9413 29.3333H18.7253V29.3333ZM29.3333 13.3333C30.7478 13.3333 32.1044 12.7714 33.1046 11.7712C34.1048 10.771 34.6667 9.41449 34.6667 8C34.6667 6.58551 34.1048 5.22896 33.1046 4.22876C32.1044 3.22857 30.7478 2.66667 29.3333 2.66667C27.9188 2.66667 26.5623 3.22857 25.5621 4.22876C24.5619 5.22896 24 6.58551 24 8C24 9.41449 24.5619 10.771 25.5621 11.7712C26.5623 12.7714 27.9188 13.3333 29.3333 13.3333ZM37.3333 8C37.3333 9.05058 37.1264 10.0909 36.7244 11.0615C36.3223 12.0321 35.7331 12.914 34.9902 13.6569C34.2473 14.3997 33.3654 14.989 32.3948 15.391C31.4242 15.7931 30.3839 16 29.3333 16C28.2828 16 27.2425 15.7931 26.2719 15.391C25.3013 14.989 24.4193 14.3997 23.6765 13.6569C22.9336 12.914 22.3443 12.0321 21.9423 11.0615C21.5403 10.0909 21.3333 9.05058 21.3333 8C21.3333 5.87827 22.1762 3.84344 23.6765 2.34315C25.1768 0.842855 27.2116 0 29.3333 0C31.4551 0 33.4899 0.842855 34.9902 2.34315C36.4905 3.84344 37.3333 5.87827 37.3333 8V8ZM18.496 19.4133C17.4293 19.0774 16.3297 18.8566 15.216 18.7547C14.5902 18.6952 13.9619 18.6658 13.3333 18.6667C2.66667 18.6667 0 26.6667 0 29.3333C0 31.112 0.888 32 2.66667 32H13.9093C13.514 31.1675 13.3169 30.2548 13.3333 29.3333C13.3333 26.64 14.3387 23.888 16.24 21.5893C16.888 20.8053 17.6427 20.072 18.496 19.4133ZM13.12 21.3333C11.5417 23.7047 10.6892 26.4848 10.6667 29.3333H2.66667C2.66667 28.64 3.104 26.5867 4.69333 24.736C6.14667 23.04 8.672 21.3867 13.12 21.336V21.3333ZM4 9.33333C4 7.2116 4.84286 5.17677 6.34315 3.67648C7.84344 2.17619 9.87827 1.33333 12 1.33333C14.1217 1.33333 16.1566 2.17619 17.6569 3.67648C19.1571 5.17677 20 7.2116 20 9.33333C20 11.4551 19.1571 13.4899 17.6569 14.9902C16.1566 16.4905 14.1217 17.3333 12 17.3333C9.87827 17.3333 7.84344 16.4905 6.34315 14.9902C4.84286 13.4899 4 11.4551 4 9.33333V9.33333ZM12 4C10.5855 4 9.22896 4.5619 8.22876 5.5621C7.22857 6.56229 6.66667 7.91885 6.66667 9.33333C6.66667 10.7478 7.22857 12.1044 8.22876 13.1046C9.22896 14.1048 10.5855 14.6667 12 14.6667C13.4145 14.6667 14.771 14.1048 15.7712 13.1046C16.7714 12.1044 17.3333 10.7478 17.3333 9.33333C17.3333 7.91885 16.7714 6.56229 15.7712 5.5621C14.771 4.5619 13.4145 4 12 4Z" fill="white"/>
</svg>
