<svg width="60" height="50" viewBox="0 0 60 50" fill="none" xmlns="http://www.w3.org/2000/svg">
<path d="M59.8332 37.3372C59.8332 33.8361 58.7847 30.4554 56.8009 27.5606C55.374 25.4784 53.5365 23.7494 51.4072 22.4645C53.9142 20.0903 55.4828 16.7347 55.4828 13.0174C55.4828 5.83968 49.6431 0 42.4655 0C38.2093 0 34.2224 2.10495 31.8007 5.56034C31.1853 5.47071 30.5566 5.42235 29.9166 5.42235C29.2766 5.42235 28.6481 5.47087 28.0327 5.56034C25.6108 2.10495 21.6239 0 17.3679 0C10.1901 0 4.35045 5.83968 4.35045 13.0174C4.35045 16.7347 5.91903 20.0903 8.42621 22.4645C6.29668 23.7492 4.45919 25.4784 3.03244 27.5604C1.04862 30.4554 0 33.8361 0 37.3372V44.5778H12.5489V50H47.2846V44.5778H59.8334V37.3372H59.8332ZM42.4655 3.21284C47.8718 3.21284 52.2701 7.61115 52.2701 13.0176C52.2701 18.4241 47.8718 22.8224 42.4655 22.8224C42.3686 22.8224 42.2717 22.8209 42.1747 22.818C42.1821 22.7975 42.1882 22.7764 42.1954 22.7559C42.3628 22.2814 42.5024 21.794 42.6144 21.2962C42.6223 21.2608 42.6312 21.2258 42.6388 21.1903C42.6679 21.056 42.6934 20.9205 42.7183 20.7846C42.73 20.7203 42.7421 20.6562 42.7528 20.5918C42.7731 20.4705 42.7914 20.3488 42.8083 20.2265C42.82 20.1415 42.8306 20.0566 42.8407 19.9714C42.8534 19.8635 42.8658 19.7554 42.8759 19.6466C42.8862 19.5356 42.8939 19.4245 42.9013 19.3132C42.9071 19.2255 42.9143 19.1381 42.9183 19.0499C42.9271 18.8608 42.9321 18.6714 42.9328 18.4819C42.9328 18.4679 42.9339 18.4543 42.9339 18.4401C42.9339 18.4326 42.9332 18.425 42.9332 18.4175C42.9329 18.2239 42.9273 18.0315 42.9186 17.8397C42.9161 17.7839 42.9127 17.7283 42.9095 17.6728C42.9 17.5097 42.8876 17.3475 42.8724 17.186C42.8688 17.1494 42.8659 17.1128 42.8622 17.0763C42.3768 12.3844 39.4126 8.36838 35.1366 6.51081C36.9792 4.44072 39.6444 3.21284 42.4655 3.21284ZM26.5242 9.24014C26.5555 9.22873 26.5871 9.21797 26.6185 9.20673C26.716 9.17187 26.8143 9.13878 26.9131 9.10681C26.9879 9.08288 27.0633 9.05975 27.1391 9.03758C27.1942 9.02136 27.2494 9.00577 27.3049 8.99035C27.4038 8.9632 27.5032 8.9367 27.6036 8.91245C28.3458 8.73221 29.1197 8.63439 29.9163 8.63439C30.7135 8.63503 31.4878 8.73302 32.23 8.91325C32.3298 8.93734 32.4286 8.96369 32.5271 8.99067C32.5833 9.00626 32.6395 9.022 32.6952 9.03854C32.7701 9.06055 32.8446 9.08336 32.9187 9.10697C33.0188 9.13926 33.1182 9.17267 33.2168 9.20801C33.2472 9.21877 33.2775 9.22905 33.3077 9.24014C36.5868 10.4528 39.0453 13.371 39.6017 16.9125C39.606 16.9408 39.6102 16.9692 39.6144 16.9976C39.6322 17.1176 39.6472 17.2386 39.6605 17.3599C39.6653 17.4045 39.6704 17.449 39.6748 17.4938C39.6854 17.6045 39.6933 17.716 39.7003 17.8278C39.7032 17.8756 39.7072 17.9234 39.7095 17.9714C39.7162 18.1142 39.7199 18.2578 39.7204 18.4022C39.7204 18.4147 39.7212 18.4269 39.7212 18.4395C39.7212 18.4453 39.7209 18.4512 39.7209 18.457C39.7206 18.5967 39.7164 18.7355 39.7103 18.8738C39.7084 18.9174 39.7064 18.9609 39.7039 19.0043C39.6963 19.1379 39.6863 19.2709 39.6735 19.403C39.6685 19.454 39.6618 19.505 39.656 19.5559C39.6462 19.6413 39.6353 19.7266 39.6234 19.8114C39.6141 19.8775 39.6047 19.9437 39.5941 20.0093C39.5779 20.1094 39.5599 20.2089 39.5407 20.308C39.5235 20.3962 39.5047 20.484 39.4851 20.5717C39.4733 20.6246 39.4611 20.6774 39.4484 20.73C39.4171 20.8602 39.3827 20.9897 39.3461 21.1187C39.3315 21.1699 39.3179 21.2215 39.3024 21.2723C39.2801 21.3461 39.256 21.4194 39.2321 21.4926C39.2128 21.5513 39.193 21.6096 39.1726 21.6677C39.1495 21.7338 39.1267 21.7999 39.1023 21.8655C39.0607 21.9768 39.017 22.0871 38.9715 22.1965C38.9513 22.2454 38.9298 22.2937 38.9087 22.3424C38.869 22.4335 38.8282 22.5241 38.7858 22.6137C38.7809 22.6243 38.7759 22.6349 38.7709 22.6455C38.7556 22.6773 38.7405 22.7093 38.725 22.7411C38.6774 22.8381 38.6279 22.934 38.5772 23.0291C38.5574 23.066 38.5383 23.1035 38.5181 23.1403C38.5168 23.1427 38.5155 23.1449 38.5142 23.1472C38.4586 23.2484 38.4006 23.348 38.3417 23.4469C38.3182 23.4861 38.2951 23.5255 38.2712 23.5642C38.2069 23.6684 38.1409 23.7716 38.0729 23.8731C38.0307 23.9362 37.9865 23.998 37.9428 24.0602C37.9057 24.1129 37.8688 24.1657 37.8307 24.2176C37.7814 24.2848 37.7311 24.3511 37.68 24.4171C37.6453 24.462 37.6103 24.5065 37.575 24.5508C37.521 24.6183 37.4665 24.6854 37.411 24.7514C37.3764 24.7924 37.3409 24.8325 37.3058 24.8729C37.2479 24.9392 37.1903 25.0057 37.1308 25.0704C37.0955 25.1088 37.0589 25.1458 37.0229 25.1837C36.9262 25.2857 36.8272 25.3854 36.7263 25.4833C36.6664 25.5413 36.6068 25.5994 36.5455 25.6558C36.5031 25.6948 36.4595 25.7327 36.4163 25.7711C36.346 25.8336 36.2751 25.8955 36.203 25.9559C36.1664 25.9865 36.1294 26.0169 36.0923 26.0471C36.0051 26.1181 35.9168 26.1876 35.827 26.2558C35.8025 26.2742 35.7784 26.293 35.7539 26.3113C34.1218 27.5246 32.1017 28.2438 29.9164 28.2438C27.731 28.2438 25.7106 27.5244 24.0785 26.3109C24.0544 26.2929 24.0308 26.2744 24.0069 26.2562C23.9168 26.188 23.8279 26.1179 23.7404 26.0466C23.7036 26.0166 23.6668 25.9865 23.6305 25.956C23.5581 25.8953 23.4871 25.8331 23.4164 25.7705C23.3735 25.7322 23.3301 25.6947 23.2879 25.6558C23.2264 25.5992 23.1666 25.5409 23.1065 25.4829C23.0052 25.3848 22.9061 25.2847 22.809 25.1824C22.7735 25.145 22.7372 25.1085 22.7024 25.0706C22.6428 25.0057 22.5851 24.939 22.5273 24.8727C22.4921 24.8324 22.4568 24.7924 22.4222 24.7514C22.3665 24.6854 22.3122 24.6183 22.2582 24.5509C22.2229 24.5066 22.1877 24.4621 22.153 24.4171C22.1021 24.3513 22.0518 24.2849 22.0025 24.2178C21.9644 24.1657 21.9273 24.1127 21.8902 24.0599C21.8465 23.9979 21.8025 23.9362 21.7604 23.8732C21.6921 23.7712 21.6258 23.6678 21.5614 23.5632C21.5378 23.5248 21.515 23.4861 21.4918 23.4474C21.4319 23.347 21.3733 23.2461 21.3169 23.1435C21.2962 23.1057 21.2766 23.0673 21.2562 23.0294C21.2054 22.934 21.1558 22.8378 21.1081 22.7406C21.0911 22.7061 21.0745 22.6712 21.058 22.6365C21.0554 22.6312 21.053 22.6259 21.0506 22.6206C21.0061 22.5268 20.9635 22.432 20.9219 22.3365C20.9022 22.291 20.8821 22.2457 20.8631 22.2001C20.8165 22.0883 20.772 21.9755 20.7295 21.8618C20.7065 21.8004 20.6853 21.7384 20.6636 21.6766C20.6413 21.6131 20.6198 21.5492 20.5987 21.4851C20.5761 21.4157 20.5533 21.3463 20.5321 21.2766C20.5004 21.1723 20.4705 21.0674 20.4424 20.9619C20.4227 20.8879 20.4048 20.8132 20.3867 20.7386C20.3725 20.68 20.3589 20.6214 20.3459 20.5624C20.3298 20.4901 20.3136 20.418 20.2991 20.3454C20.2768 20.2323 20.2564 20.1186 20.2381 20.0042C20.2281 19.9425 20.2195 19.8807 20.2106 19.819C20.1976 19.7276 20.1859 19.6357 20.1754 19.5435C20.1703 19.4981 20.1644 19.4526 20.1597 19.4071C20.1464 19.2717 20.1363 19.1353 20.1285 18.9985C20.1263 18.9591 20.1245 18.9198 20.1228 18.8804C20.1162 18.7341 20.1115 18.5873 20.1115 18.4395C20.1115 18.2811 20.116 18.1238 20.1236 17.9672C20.1256 17.9246 20.1292 17.8824 20.1316 17.84C20.1387 17.7224 20.1472 17.6051 20.1584 17.4885C20.1623 17.4479 20.1669 17.4074 20.1713 17.3669C20.1851 17.2407 20.2007 17.1151 20.2193 16.9902C20.2228 16.966 20.2264 16.9416 20.2302 16.9173C20.7849 13.3737 23.2439 10.4536 26.5242 9.24014ZM7.56312 13.0176C7.56312 7.61131 11.9614 3.21284 17.3679 3.21284C20.1891 3.21284 22.8542 4.44088 24.6968 6.51049C20.4193 8.3687 17.4545 12.3866 16.9705 17.0805C16.9671 17.1123 16.9647 17.1443 16.9616 17.1763C16.9456 17.3435 16.9329 17.5113 16.9233 17.6802C16.9204 17.7316 16.9171 17.7828 16.9147 17.8344C16.9056 18.0353 16.8993 18.2369 16.8993 18.44C16.8993 18.6449 16.9053 18.8494 16.9149 19.0537C16.9188 19.136 16.9255 19.2174 16.9308 19.2992C16.9387 19.4168 16.9467 19.5344 16.9576 19.6516C16.9673 19.7559 16.9792 19.8595 16.9914 19.9631C17.002 20.0534 17.0132 20.1433 17.0257 20.2333C17.0421 20.3513 17.0598 20.4689 17.0792 20.586C17.091 20.6556 17.1038 20.725 17.1165 20.7944C17.1406 20.9254 17.1652 21.0562 17.1931 21.1858C17.2024 21.2286 17.213 21.271 17.2227 21.3135C17.3317 21.7959 17.4672 22.2682 17.6284 22.7287C17.6387 22.7584 17.6477 22.7885 17.6582 22.818C17.5613 22.8209 17.4643 22.8224 17.3676 22.8224C11.9614 22.8222 7.56312 18.4239 7.56312 13.0176ZM15.2422 33.4986C15.2069 33.5543 15.1731 33.611 15.1385 33.6671C15.065 33.7856 14.9923 33.9045 14.9219 34.0245C14.8826 34.0915 14.8447 34.1589 14.8064 34.2264C14.7431 34.3377 14.6806 34.4494 14.6199 34.562C14.5817 34.6328 14.5441 34.704 14.5068 34.7751C14.4484 34.8871 14.3913 34.9997 14.3354 35.1126C14.3003 35.1836 14.2652 35.2545 14.2312 35.3258C14.1743 35.4448 14.1196 35.5648 14.0654 35.685C14.036 35.7503 14.0058 35.8152 13.9774 35.8809C13.9147 36.0249 13.855 36.1699 13.7964 36.3154C13.7792 36.358 13.7609 36.4001 13.7441 36.4427C13.6698 36.6317 13.5986 36.8221 13.5311 37.0134C13.5157 37.0573 13.5019 37.1016 13.4867 37.1454C13.4359 37.2929 13.3864 37.4408 13.3397 37.5894C13.3183 37.6577 13.2986 37.7263 13.278 37.7947C13.2402 37.9207 13.2031 38.0468 13.1683 38.1737C13.1476 38.2492 13.1278 38.3248 13.108 38.4006C13.0762 38.5224 13.0457 38.6445 13.0168 38.767C12.9983 38.8446 12.9803 38.9222 12.9631 39C12.9355 39.1241 12.9097 39.2488 12.8848 39.3736C12.8698 39.4486 12.8544 39.5236 12.8404 39.599C12.8152 39.7349 12.7926 39.8714 12.7705 40.0081C12.7603 40.0724 12.7489 40.1363 12.7392 40.2005C12.7093 40.4013 12.6822 40.6026 12.6594 40.8048C12.6591 40.8072 12.6589 40.8097 12.6587 40.8121C12.638 40.996 12.6202 41.1802 12.6053 41.3651H3.21268V37.3372C3.21268 31.8342 6.3762 26.894 11.3324 24.5458C13.1379 25.4948 15.1903 26.035 17.3677 26.035C17.9974 26.035 18.629 25.9885 19.2558 25.8963C19.3535 26.0355 19.4528 26.1734 19.5556 26.3086C19.5903 26.3541 19.6262 26.3984 19.6616 26.4434C19.7631 26.5732 19.8661 26.7015 19.9724 26.8273C20.0159 26.8789 20.0606 26.9293 20.1049 26.9802C20.2045 27.0946 20.3057 27.2075 20.4092 27.3182C20.4635 27.3765 20.5187 27.4338 20.574 27.4912C20.6686 27.5887 20.7645 27.6848 20.862 27.7794C20.8986 27.8149 20.9332 27.8525 20.9701 27.8876C20.8305 27.972 20.6922 28.0584 20.5552 28.1466C20.5329 28.1609 20.511 28.176 20.4888 28.1904C20.3518 28.2794 20.2162 28.3703 20.082 28.463C20.0355 28.4952 19.9893 28.5276 19.943 28.56C19.8233 28.6444 19.7049 28.7302 19.5875 28.8174C19.5504 28.845 19.5128 28.872 19.476 28.8999C19.3267 29.0129 19.179 29.1279 19.0333 29.2455C19.0015 29.2712 18.9704 29.2977 18.9386 29.3237C18.8226 29.4186 18.7077 29.5152 18.5943 29.6132C18.5503 29.6511 18.5066 29.6893 18.4629 29.7277C18.3494 29.8278 18.2372 29.9293 18.1262 30.0323C18.0973 30.0591 18.0678 30.0854 18.039 30.1126C17.9028 30.2408 17.7687 30.3714 17.6365 30.5042C17.6021 30.5387 17.5685 30.5739 17.5345 30.6086C17.4333 30.7119 17.3332 30.8163 17.2344 30.9222C17.1952 30.9643 17.156 31.0063 17.1171 31.0489C17.006 31.1703 16.8964 31.2934 16.7886 31.4182C16.7718 31.4378 16.7543 31.4568 16.7374 31.4765C16.6145 31.62 16.4944 31.7661 16.3758 31.9138C16.3427 31.9549 16.3104 31.9966 16.2778 32.0383C16.1887 32.1515 16.1008 32.2659 16.0144 32.3814C15.981 32.426 15.9474 32.4704 15.9145 32.5153C15.8014 32.6695 15.6897 32.825 15.5813 32.9833C15.4649 33.1532 15.3521 33.3252 15.2422 33.4986ZM15.7615 46.7875V44.578V42.7596C15.7615 42.5813 15.7649 42.4036 15.7715 42.2264C15.7736 42.1681 15.7783 42.1103 15.7811 42.0522C15.7869 41.9339 15.7924 41.8156 15.8011 41.6978C15.8064 41.6263 15.8144 41.5555 15.8208 41.4842C15.8301 41.3804 15.8385 41.2765 15.8501 41.1733C15.8586 41.0978 15.8697 41.0228 15.8793 40.9475C15.8918 40.8493 15.9035 40.751 15.918 40.6534C15.9297 40.5756 15.9439 40.4985 15.9567 40.4211C15.9725 40.327 15.9871 40.2325 16.0047 40.1389C16.0197 40.0597 16.037 39.9813 16.0533 39.9024C16.0719 39.8115 16.0897 39.7202 16.1101 39.63C16.1281 39.5503 16.1487 39.4714 16.168 39.3921C16.1896 39.3037 16.2104 39.2149 16.2337 39.127C16.2549 39.0472 16.2783 38.9682 16.3008 38.889C16.3252 38.8027 16.349 38.7163 16.375 38.6307C16.3993 38.551 16.4259 38.472 16.4515 38.3928C16.4788 38.3088 16.5053 38.2246 16.534 38.1412C16.5613 38.0623 16.5907 37.9841 16.6193 37.9059C16.6495 37.8233 16.6791 37.7404 16.7107 37.6585C16.7409 37.5806 16.7731 37.5037 16.8044 37.4262C16.8373 37.3454 16.8698 37.2642 16.9041 37.184C16.9374 37.1067 16.9724 37.0303 17.0069 36.9538C17.0424 36.8749 17.0776 36.7957 17.1146 36.7177C17.1507 36.6414 17.1886 36.566 17.226 36.4904C17.2643 36.4133 17.302 36.336 17.3415 36.2597C17.3806 36.1845 17.4212 36.1103 17.4615 36.0359C17.5023 35.9606 17.5427 35.8853 17.5847 35.8107C17.6265 35.7368 17.6699 35.6641 17.7128 35.591C17.7561 35.5174 17.7992 35.4437 17.844 35.3708C17.8885 35.2983 17.9344 35.227 17.9802 35.1554C18.0262 35.0835 18.0718 35.0117 18.119 34.9407C18.1662 34.8697 18.2147 34.7997 18.2633 34.7297C18.3116 34.6598 18.3598 34.5899 18.4093 34.5208C18.4591 34.4515 18.5103 34.383 18.5616 34.3144C18.6123 34.2465 18.6629 34.1785 18.7148 34.1116C18.7672 34.0439 18.8208 33.9773 18.8745 33.9104C18.9276 33.8443 18.981 33.7782 19.0353 33.713C19.09 33.6475 19.1459 33.5827 19.2018 33.5182C19.2576 33.4538 19.3135 33.3893 19.3705 33.3257C19.4275 33.2621 19.4858 33.1995 19.544 33.1368C19.6021 33.0743 19.6603 33.0122 19.7196 32.9508C19.779 32.8891 19.8396 32.8284 19.9003 32.7678C19.9608 32.7073 20.0217 32.6471 20.0834 32.5875C20.1449 32.5282 20.2074 32.4697 20.2702 32.4114C20.3332 32.3529 20.3965 32.2946 20.4606 32.2371C20.5245 32.1799 20.5891 32.1235 20.6541 32.0675C20.7194 32.0111 20.7851 31.955 20.8514 31.8998C20.9174 31.8448 20.9841 31.7907 21.0512 31.7369C21.1188 31.6826 21.187 31.6288 21.2557 31.5756C21.3237 31.5233 21.3922 31.4715 21.4612 31.4201C21.5312 31.3679 21.6017 31.3164 21.673 31.2654C21.7427 31.2155 21.8131 31.1663 21.8839 31.1175C21.9566 31.0675 22.0295 31.0182 22.1031 30.9696C22.1745 30.9223 22.2467 30.8756 22.3191 30.8295C22.3941 30.7818 22.4696 30.7347 22.5456 30.6884C22.6188 30.6438 22.6926 30.5996 22.7668 30.5562C22.8439 30.5111 22.9216 30.4666 22.9999 30.4228C23.0749 30.3807 23.1504 30.3391 23.2264 30.2983C23.3059 30.2555 23.386 30.2136 23.4667 30.1722C23.5431 30.1328 23.6199 30.0941 23.6973 30.056C23.7582 30.0262 23.8197 29.9972 23.8813 29.9682C25.6866 30.9172 27.7394 31.4572 29.9166 31.4572C32.094 31.4572 34.1466 30.9172 35.9519 29.9682C36.013 29.9971 36.074 30.0258 36.1344 30.0554C36.2128 30.0939 36.2904 30.1331 36.3678 30.1728C36.4475 30.2138 36.5268 30.2552 36.6056 30.2975C36.6823 30.3387 36.7586 30.3808 36.8345 30.4234C36.9117 30.4668 36.9885 30.5106 37.0646 30.5553C37.14 30.5993 37.2147 30.6441 37.2889 30.6894C37.3639 30.7352 37.4383 30.7815 37.5122 30.8285C37.5857 30.8753 37.6587 30.9225 37.7311 30.9705C37.8039 31.0185 37.876 31.0674 37.9476 31.1167C38.0191 31.166 38.0903 31.2156 38.1608 31.2661C38.2313 31.3165 38.301 31.3676 38.3704 31.4193C38.4402 31.4711 38.5094 31.5233 38.578 31.5763C38.6461 31.629 38.7136 31.6823 38.7807 31.7361C38.8482 31.7902 38.9153 31.8447 38.9818 31.8999C39.0478 31.9549 39.113 32.0106 39.1779 32.0667C39.2433 32.1231 39.3084 32.1798 39.3726 32.2374C39.4362 32.2945 39.499 32.3523 39.5615 32.4103C39.6248 32.4691 39.688 32.5282 39.7501 32.5881C39.8113 32.6471 39.8716 32.7068 39.9315 32.7667C39.9925 32.8278 40.0536 32.889 40.1135 32.951C40.1723 33.012 40.2303 33.0737 40.2879 33.1357C40.3467 33.1988 40.4053 33.2621 40.4629 33.3262C40.5194 33.3892 40.5748 33.453 40.6301 33.5169C40.6865 33.5819 40.7428 33.6472 40.7979 33.7133C40.8521 33.7781 40.9049 33.8438 40.9578 33.9095C41.0117 33.9766 41.0657 34.0436 41.1184 34.1117C41.1701 34.1784 41.2204 34.246 41.2708 34.3136C41.3222 34.3824 41.3736 34.4513 41.4238 34.521C41.4731 34.5896 41.5211 34.6593 41.5691 34.7289C41.6178 34.7992 41.6666 34.8696 41.714 34.9409C41.7609 35.0114 41.8062 35.0827 41.8519 35.1541C41.898 35.2262 41.9442 35.2982 41.989 35.3711C42.0334 35.4432 42.0761 35.5165 42.1191 35.5894C42.1625 35.663 42.2062 35.7364 42.2481 35.8107C42.2901 35.8849 42.3302 35.9601 42.3709 36.035C42.4113 36.1097 42.4521 36.1842 42.4912 36.2595C42.5307 36.3357 42.5683 36.413 42.6065 36.4899C42.6439 36.5656 42.682 36.6411 42.7181 36.7175C42.7551 36.7956 42.7901 36.8745 42.8255 36.9532C42.8602 37.0301 42.8953 37.1066 42.9286 37.1842C42.9628 37.2637 42.9948 37.3441 43.0275 37.4245C43.0593 37.5025 43.0918 37.5803 43.1221 37.659C43.1536 37.7404 43.183 37.8228 43.2131 37.9051C43.2418 37.9836 43.2712 38.0619 43.2985 38.1411C43.3274 38.2247 43.3541 38.3094 43.3814 38.3937C43.4069 38.4726 43.4335 38.5511 43.4575 38.6307C43.4837 38.7163 43.5073 38.8029 43.5319 38.8891C43.5544 38.9683 43.5779 39.0472 43.5991 39.127C43.6224 39.2149 43.6431 39.3036 43.6648 39.3921C43.6842 39.4713 43.7046 39.5503 43.7226 39.63C43.743 39.7202 43.7607 39.8113 43.7795 39.9021C43.7957 39.9809 43.813 40.0595 43.828 40.1389C43.8455 40.2317 43.8599 40.3253 43.8757 40.4188C43.8887 40.4971 43.9031 40.5748 43.9149 40.6535C43.9293 40.7504 43.9409 40.848 43.9534 40.9454C43.9632 41.0214 43.9745 41.0969 43.983 41.1732C43.9945 41.2763 44.0029 41.3802 44.0122 41.484C44.0186 41.5553 44.0267 41.6262 44.032 41.6976C44.0408 41.8154 44.0461 41.9339 44.0519 42.0523C44.0548 42.1103 44.0594 42.1681 44.0615 42.2263C44.0681 42.4035 44.0715 42.5811 44.0715 42.7594V44.5776V46.7875H15.7615V46.7875ZM47.2287 41.3651C47.1973 40.9738 47.152 40.5849 47.0945 40.1984C47.0853 40.1372 47.0744 40.0765 47.0646 40.0155C47.0423 39.8756 47.019 39.736 46.9931 39.5969C46.9794 39.5236 46.9645 39.4507 46.9499 39.3776C46.9247 39.2505 46.8983 39.1238 46.8702 38.9976C46.8532 38.9214 46.8355 38.8453 46.8175 38.7694C46.7881 38.6454 46.7573 38.5219 46.7252 38.3987C46.7057 38.324 46.6863 38.2495 46.6657 38.1749C46.6305 38.0468 46.593 37.9192 46.5547 37.7918C46.5345 37.7247 46.5152 37.6574 46.4942 37.5904C46.4468 37.4396 46.3967 37.2895 46.3451 37.1398C46.3306 37.0981 46.3175 37.0558 46.3027 37.014C46.2349 36.8221 46.1637 36.6313 46.0891 36.4415C46.073 36.4009 46.0555 36.3607 46.0391 36.3201C45.9798 36.1728 45.9191 36.0258 45.8557 35.88C45.8275 35.8152 45.7978 35.7513 45.7689 35.6869C45.7143 35.5654 45.659 35.4445 45.6015 35.3243C45.568 35.254 45.5333 35.1841 45.4987 35.1142C45.4423 35.0002 45.3847 34.8866 45.3257 34.7737C45.2888 34.703 45.2517 34.6326 45.2138 34.5624C45.1527 34.4495 45.0901 34.3374 45.0265 34.2256C44.9882 34.1585 44.9505 34.0913 44.9114 34.0246C44.8408 33.904 44.7677 33.7847 44.6938 33.6655C44.6594 33.6099 44.626 33.5538 44.591 33.4987C44.4809 33.3254 44.3682 33.1534 44.2516 32.9833C44.143 32.8249 44.0313 32.6694 43.9182 32.5152C43.8855 32.4705 43.8521 32.4263 43.819 32.382C43.7321 32.2659 43.6439 32.1512 43.5544 32.0374C43.5221 31.9965 43.4902 31.955 43.4574 31.9144C43.3387 31.7663 43.218 31.6198 43.0948 31.476C43.0788 31.4574 43.0622 31.4392 43.0462 31.4206C42.9376 31.2948 42.8271 31.1708 42.7151 31.0484C42.6765 31.0063 42.6378 30.9647 42.599 30.923C42.4997 30.8165 42.399 30.7113 42.2971 30.6075C42.2636 30.5733 42.2306 30.5387 42.1967 30.5048C42.0642 30.3718 41.9296 30.2408 41.7931 30.1123C41.7649 30.0857 41.736 30.06 41.7078 30.0337C41.5961 29.9301 41.4834 29.8281 41.3693 29.7275C41.3259 29.6893 41.2822 29.6514 41.2386 29.6135C41.1248 29.5153 41.01 29.4188 40.8938 29.3237C40.8622 29.2978 40.8312 29.2713 40.7994 29.2456C40.6538 29.128 40.5062 29.013 40.357 28.9003C40.3197 28.8722 40.2818 28.8449 40.2444 28.8171C40.1274 28.7303 40.0097 28.6449 39.8905 28.561C39.8438 28.5281 39.797 28.4953 39.7501 28.4629C39.6171 28.3711 39.483 28.2812 39.3474 28.1932C39.3236 28.1777 39.3003 28.1617 39.2766 28.1464C39.1397 28.0585 39.0019 27.9723 38.8625 27.8881C38.8984 27.8539 38.9322 27.8174 38.9677 27.7827C39.0673 27.6864 39.1651 27.5884 39.2615 27.4888C39.3153 27.4332 39.3688 27.3775 39.4215 27.3209C39.5267 27.2085 39.6292 27.0938 39.7304 26.9776C39.7734 26.9283 39.8166 26.8793 39.8589 26.8292C39.9667 26.7017 40.0714 26.5714 40.1744 26.4395C40.2081 26.3965 40.2426 26.3541 40.2757 26.3105C40.379 26.1748 40.4788 26.0363 40.5769 25.8966C41.2037 25.9886 41.8353 26.0352 42.465 26.0352C44.6424 26.0352 46.695 25.4952 48.5003 24.546C53.4567 26.8941 56.62 31.8344 56.62 37.3374V41.3651H47.2287V41.3651Z" fill="white"/>
</svg>
