<svg width="43" height="32" viewBox="0 0 43 32" fill="none" xmlns="http://www.w3.org/2000/svg">
<path d="M11.0448 5.94873C10.5011 5.49723 9.80083 5.27938 9.09699 5.34284C8.39316 5.40629 7.7431 5.74588 7.28897 6.28734L0.621207 14.2887C0.219919 14.7676 0 15.3724 0 15.9973C0 16.6221 0.219919 17.2269 0.621207 17.7059L7.28897 25.7072C7.51266 25.9782 7.7877 26.2023 8.0983 26.3667C8.4089 26.531 8.74892 26.6324 9.09882 26.6649C9.44871 26.6974 9.80159 26.6604 10.1371 26.5561C10.4727 26.4518 10.7843 26.2821 11.0541 26.057C11.3239 25.8318 11.5465 25.5555 11.7092 25.244C11.8718 24.9325 11.9713 24.592 12.0019 24.2419C12.0325 23.8918 11.9935 23.5392 11.8874 23.2042C11.7812 22.8692 11.6099 22.5585 11.3832 22.29L6.13774 15.9973L11.3834 9.70464C11.8364 9.16161 12.0552 8.46091 11.9917 7.75659C11.9282 7.05228 11.5876 6.402 11.0448 5.94873Z" fill="white"/>
<path d="M24.5225 0.0470032C23.8297 -0.084173 23.1131 0.0617181 22.5267 0.453316C21.9403 0.844913 21.5309 1.45095 21.3866 2.14116L16.0524 28.8121C15.9832 29.1556 15.9825 29.5093 16.0504 29.853C16.1183 30.1968 16.2534 30.5237 16.448 30.815C16.6426 31.1064 16.8928 31.3565 17.1843 31.5509C17.4757 31.7453 17.8027 31.8802 18.1465 31.9479C18.3196 31.9835 18.4959 32.001 18.6726 32C19.2886 31.999 19.8852 31.7847 20.361 31.3934C20.8368 31.0022 21.1624 30.4582 21.2824 29.8541L26.6166 3.18295C26.6858 2.83948 26.6865 2.48572 26.6187 2.14198C26.5508 1.79824 26.4157 1.47129 26.2211 1.17991C26.0265 0.888527 25.7763 0.638449 25.4848 0.444032C25.1933 0.249616 24.8663 0.114691 24.5225 0.0470032V0.0470032Z" fill="white"/>
<path d="M42.055 14.2888L35.3872 6.28751C35.1635 6.01649 34.8885 5.79236 34.5779 5.628C34.2673 5.46365 33.9273 5.3623 33.5774 5.32979C33.2275 5.29729 32.8746 5.33426 32.539 5.43859C32.2035 5.54292 31.8919 5.71254 31.6221 5.93771C31.3523 6.16288 31.1297 6.43916 30.967 6.75065C30.8044 7.06215 30.7049 7.40272 30.6743 7.75279C30.6437 8.10286 30.6826 8.45552 30.7888 8.79051C30.895 9.12549 31.0663 9.43618 31.293 9.70472L36.5385 15.9975L31.2928 22.2902C31.0662 22.5588 30.8948 22.8694 30.7887 23.2044C30.6825 23.5394 30.6436 23.8921 30.6742 24.2421C30.7048 24.5922 30.8042 24.9328 30.9669 25.2443C31.1295 25.5558 31.3522 25.8321 31.6219 26.0572C31.8917 26.2824 32.2034 26.452 32.5389 26.5563C32.8745 26.6607 33.2273 26.6976 33.5772 26.6651C33.9271 26.6326 34.2672 26.5313 34.5778 26.3669C34.8884 26.2026 35.1634 25.9784 35.3871 25.7074L42.055 17.706C42.4563 17.2271 42.6762 16.6222 42.6762 15.9974C42.6762 15.3726 42.4563 14.7677 42.055 14.2888V14.2888Z" fill="white"/>
</svg>
