<svg width="512" height="376" viewBox="0 0 512 376" fill="none" xmlns="http://www.w3.org/2000/svg">
<path d="M498.534 324.266H494.933V34.133C494.933 15.308 479.624 0 460.8 0H51.2C32.375 0 17.067 15.309 17.067 34.133V324.266H13.466C6.042 324.266 0 330.308 0 337.732V362.001C0 369.425 6.042 375.467 13.466 375.467H498.535C505.959 375.467 512.001 369.425 512.001 362.001V337.732C512 330.308 505.958 324.266 498.534 324.266ZM51.2 42.666C51.2 37.956 55.023 34.133 59.733 34.133H452.266C456.976 34.133 460.799 37.956 460.799 42.666V298.666C460.799 303.376 456.976 307.199 452.266 307.199H59.733C55.023 307.199 51.2 303.376 51.2 298.666V42.666V42.666ZM494.933 358.4H17.067V341.333H209.135C213.103 346.598 219.358 349.866 226.133 349.866H294.4C301.175 349.866 307.43 346.598 311.398 341.333H494.933V358.4Z" fill="white"/>
<path d="M443.736 51.2012H68.2686V290.134H443.736V51.2012ZM219.378 227.909C217.714 229.582 215.529 230.409 213.345 230.409C211.16 230.409 208.976 229.581 207.312 227.909L156.505 177.102C155.515 176.257 154.722 175.182 154.21 173.936C152.887 170.745 153.57 167.075 156.011 164.635L207.271 113.384C210.599 110.048 216.001 110.048 219.337 113.384C222.665 116.712 222.665 122.114 219.337 125.45L174.162 170.625L219.38 215.843C222.714 219.179 222.714 224.581 219.378 227.909ZM272.967 120.867L255.9 223.275C255.2 227.448 251.591 230.409 247.486 230.409C247.025 230.409 246.547 230.375 246.078 230.289C241.427 229.512 238.287 225.118 239.064 220.467L256.131 118.058C256.908 113.416 261.251 110.267 265.953 111.052C270.595 111.821 273.735 116.225 272.967 120.867ZM355.817 176.692L304.719 227.952C303.055 229.625 300.87 230.461 298.677 230.461C296.501 230.461 294.316 229.633 292.652 227.969C289.315 224.641 289.307 219.239 292.635 215.903L337.725 170.668L292.635 125.493C289.307 122.148 289.316 116.746 292.652 113.418C295.988 110.082 301.399 110.107 304.718 113.427L355.816 164.636C359.136 167.971 359.136 173.355 355.817 176.692Z" fill="var(--link-color)"/>
</svg>
