<svg width="512" height="420" viewBox="0 0 512 420" fill="none" xmlns="http://www.w3.org/2000/svg">
<path d="M500.398 48.378C492.355 51.945 484.085 54.956 475.635 57.401C485.639 46.087 493.266 32.775 497.922 18.208C498.966 14.943 497.884 11.369 495.2 9.233C492.519 7.096 488.795 6.84 485.844 8.589C467.899 19.232 448.539 26.881 428.239 31.353C407.79 11.372 380.017 0 351.305 0C290.699 0 241.392 49.306 241.392 109.91C241.392 114.683 241.694 119.43 242.292 124.111C167.086 117.508 97.1684 80.543 49.1564 21.648C47.4454 19.549 44.8094 18.417 42.1104 18.634C39.4104 18.845 36.9834 20.368 35.6194 22.709C25.8814 39.418 20.7334 58.529 20.7334 77.974C20.7334 104.458 30.1884 129.585 46.8914 149.22C41.8124 147.461 36.8844 145.263 32.1804 142.652C29.6554 141.246 26.5734 141.268 24.0644 142.706C21.5544 144.145 19.9804 146.79 19.9134 149.682C19.9014 150.169 19.9014 150.656 19.9014 151.15C19.9014 190.681 41.1774 226.272 73.7064 245.67C70.9114 245.391 68.1194 244.986 65.3444 244.456C62.4834 243.909 59.5424 244.912 57.6134 247.094C55.6814 249.274 55.0414 252.313 55.9324 255.088C67.9724 292.679 98.9714 320.328 136.446 328.758C105.364 348.226 69.8204 358.423 32.5074 358.423C24.7214 358.423 16.8914 357.966 9.22843 357.059C5.42143 356.606 1.78143 358.854 0.484431 362.475C-0.812569 366.097 0.562431 370.135 3.80043 372.211C51.7354 402.946 107.161 419.191 164.084 419.191C275.987 419.191 345.991 366.422 385.01 322.154C433.667 266.955 461.572 193.893 461.572 121.703C461.572 118.687 461.526 115.642 461.433 112.606C480.63 98.143 497.157 80.639 510.606 60.521C512.649 57.466 512.428 53.427 510.061 50.615C507.7 47.798 503.76 46.888 500.398 48.378Z" fill="white"/>
</svg>
