<svg width="38" height="30" fill="none" xmlns="http://www.w3.org/2000/svg"><path d="M37.698 3.574a15.408 15.408 0 0 1-4.343 1.19A7.616 7.616 0 0 0 36.683.578a15.782 15.782 0 0 1-4.812 1.82A7.539 7.539 0 0 0 26.35 0c-4.181 0-7.57 3.388-7.57 7.563 0 .6.072 1.177.198 1.724-6.29-.294-11.865-3.316-15.594-7.881a7.449 7.449 0 0 0-1.028 3.81A7.56 7.56 0 0 0 5.72 11.51a7.519 7.519 0 0 1-3.423-.942v.09a7.574 7.574 0 0 0 6.066 7.425 7.792 7.792 0 0 1-1.988.264c-.486 0-.95-.047-1.412-.133a7.602 7.602 0 0 0 7.082 5.257 15.189 15.189 0 0 1-9.383 3.23c-.6 0-1.2-.029-1.803-.101A21.518 21.518 0 0 0 12.485 30c13.918 0 21.523-11.528 21.523-21.512 0-.318 0-.643-.024-.968a15.146 15.146 0 0 0 3.784-3.917l-.07-.029z" fill="#fff"/></svg>