<svg viewBox="0 0 43 30" fill="none" xmlns="http://www.w3.org/2000/svg"><path d="M41.01 2.575C39.473.746 36.63 0 31.206 0H11.51C5.96 0 3.072.794 1.54 2.742.044 4.64.044 7.438.044 11.31v7.38C.044 26.191 1.817 30 11.51 30h19.695c4.705 0 7.313-.658 9-2.273 1.729-1.655 2.467-4.358 2.467-9.037v-7.38c0-4.083-.116-6.897-1.661-8.735zM27.412 16.02l-8.943 4.674a1.372 1.372 0 0 1-1.35-.042 1.375 1.375 0 0 1-.662-1.177v-9.318a1.375 1.375 0 0 1 2.009-1.22l8.943 4.644a1.375 1.375 0 0 1 .003 2.439z" fill="#fff"/></svg>