<svg fill="none" viewBox="0 0 776 270" xmlns="http://www.w3.org/2000/svg"><linearGradient id="a" gradientUnits="userSpaceOnUse" x1="148.41" x2="128.9" y1="137.44" y2="105.99"><stop offset="0" stop-color="#d62616" stop-opacity="0"/><stop offset="1" stop-color="#d62616"/></linearGradient><path d="M330.4 112h-12.1L297 186.5h23.6l18-62.9c1-2.7.6-5.8-1.1-8.2-1.6-2.2-4.3-3.5-7.1-3.4zm16.5-16.7c-2.1 6.7-8.2 11.4-15.2 11.8-4.8.2-8.8-3.4-9-8.2-.1-1.2.1-2.5.6-3.6 2.1-6.7 8.2-11.4 15.2-11.8 2.9-.2 5.7 1.2 7.5 3.6.8 1.2 1.4 2.6 1.5 4s-.1 2.8-.6 4.2zm96.5 12.7c-4.7 0-9.3.9-13.6 2.6-2.1.9-4 2.1-5.9 3.4l5.4-19c.9-2.7.6-5.8-1.1-8.1-.8-1.1-1.9-2-3.1-2.6s-2.6-.9-4-.8h-11.6l-29.4 103h23l11.3-39.6c1.2-5.2 3.8-9.9 7.5-13.7 2.8-2.9 6.7-4.6 10.7-4.5 3.2-.3 6.3 1.5 7.6 4.5 1.4 4.5 1.2 9.3-.4 13.7l-11.2 39.5h23.3l11.1-38.7c3.4-9.3 3.3-19.5-.3-28.6-3.6-7.3-11.2-11.6-19.3-11.1zm209.7-.2c-10.9-.2-21.6 2.9-30.7 8.9-4-6-10.8-9.3-18-8.8-4.7 0-9.3.9-13.6 2.6-2.5 1.1-4.9 2.6-7.1 4.3-.6-4.2-4.4-7.2-8.6-6.9h-11.5l-22.4 78.5h23l11.4-39.7c1.2-5.2 3.8-9.9 7.5-13.7 1.4-1.4 3-2.6 4.9-3.4 1.8-.8 3.8-1.2 5.8-1.1 1.6-.2 3.2.2 4.5 1s2.4 2.1 3 3.5c1.4 4.5 1.2 9.3-.4 13.7l-11.3 39.7h23.3l11.4-39.7c1.2-5.1 3.8-9.9 7.5-13.7 2.8-2.9 6.7-4.6 10.7-4.5 3.3-.3 6.3 1.5 7.6 4.5 1.4 4.5 1.2 9.3-.4 13.7l-11.4 39.7h23.3l11.1-38.9c3.4-9.3 3.3-19.5-.3-28.6-3.5-7.3-11.2-11.7-19.3-11.1zm-183.5 44.8l12.8-44.8h23.3l-12.8 44.8c-3.8 13.2 8.6 13.2 8.6 13.2 7.9-.1 14.7-5.5 16.7-13.2l12.8-44.8h23l-12.8 44.8c-5.7 20.4-24.5 34.3-45.6 33.8 0 0-36.3 2.4-26-33.8zm282.3-5c3.4-9.3 3.3-19.5-.3-28.6-3.6-7.3-11.2-11.6-19.2-11-4.7-.1-9.3.8-13.6 2.6-2.1.9-4 2-5.9 3.4l5.4-18.9c.9-2.7.6-5.7-1.1-8.1-.8-1.1-1.9-2-3.2-2.6-1.2-.6-2.6-.9-4-.8h-11.5L679 152c-10.7 37.4 27.1 34.6 27.1 34.6s34.5.6 45.8-39zm-23.1-.8c-1.3 5.4-3.9 10.4-7.7 14.5-1.4 1.5-3 2.6-4.9 3.4-1.8.8-3.8 1.2-5.8 1.1-3.3.4-6.5-1.5-7.8-4.6-1.3-4.8-.9-9.9.9-14.5 1.2-5.2 3.8-9.9 7.5-13.7 2.8-2.9 6.7-4.6 10.7-4.5 3.2-.3 6.3 1.5 7.6 4.5 1.3 4.6 1.2 9.4-.5 13.8zM381.3 95c.5-1.3.6-2.8.4-4.2s-.7-2.8-1.5-4c-1.6-2.2-4.2-3.5-6.9-3.4h-12l-24.8 87c-3.4 12 2.5 15 8.1 15.5 4 .3 8.7.5 13.3.5 3 0 5.9-.1 8.3-.2l2.4-.1 5.3-18.6h-10.4c-2.8 0-2.5-1-2.3-2l10.7-37.6h2.9c3.3-.1 6.4-1.2 9-3.2 2.8-2 4.8-5 5.8-8.3l1.8-6.2H377zm-81.4 52.6c3.4-9.3 3.3-19.5-.3-28.6-3.6-7.2-11.2-11.6-19.2-11-4.7-.1-9.3.8-13.6 2.6-2.1.9-4 2-5.9 3.4l5.4-18.9c.9-2.7.6-5.7-1.1-8.1-.8-1.1-1.9-2-3.1-2.6s-2.6-.9-4-.8h-11.6L227 152c-10.7 37.4 27.1 34.6 27.1 34.6s34.4.6 45.8-39zm-23.1-.8c-1.3 5.4-3.9 10.4-7.7 14.5-2.8 2.9-6.7 4.6-10.7 4.5-3.3.4-6.5-1.5-7.9-4.6-1.3-4.8-.9-9.9.9-14.5 1.2-5.2 3.8-9.9 7.5-13.7 2.8-2.9 6.7-4.6 10.7-4.5 3.2-.3 6.3 1.5 7.6 4.5 1.4 4.6 1.3 9.4-.4 13.8z" fill="#fff"/><path d="M22.4 114c-3.6 8.3.3 18 8.6 21.5 2.3 1 4.8 1.4 7.4 1.3h5.8l16.5-57.7H32.5z" fill="#d62817"/><path d="M178.2 101.4c-7.6-15.2-20.9-22.5-39.7-22.5h-35l-16.4 58H112c4-.6 7.9 1.5 9.5 5.2 1.8 5.6 1.6 11.7-.5 17.3-1.6 6.8-4.9 13.1-9.6 18.3-3.5 3.7-8.3 5.8-13.4 5.7-4.2.5-8.2-1.9-9.8-5.8-1.6-6-1.2-12.4 1.1-18.2l30.5-107.6c2-5.7 1.2-11.9-2.2-16.9-3.4-4.7-9-7.3-14.8-7H68.9L28.7 169.6c-22 77.5 55.9 71.8 55.9 71.8s70.9 1.6 94.3-80.6c6.8-24.2 6.6-44.2-.7-59.4z" fill="#ec7000"/><path d="M178.9 160.5c6.9-24 6.7-43.9-.7-59-7.6-15.1-20.9-22.3-39.7-22.3h-26.4l-16.4 57.7h16.2c4-.6 7.9 1.5 9.5 5.1 1.8 5.6 1.6 11.6-.5 17.1" fill="url(#a)"/></svg>