<svg viewBox="0 0 3617 1575" fill="none" xmlns="http://www.w3.org/2000/svg"><path d="M262.202 1233.25c8.098-39.13 28.636-78.38 49.577-112 76.131-122.222 218.078-211.003 364.425-211.003v-1c-26.98-.074-54.897-9.248-78.999-20.703-24.52-11.653-46.065-27.9-64.985-47.297-14.769-15.139-26.832-33.14-36.262-51.999-55.764-111.522-4.763-249.596 110.248-298.851 23.783-10.185 51.005-17.108 77.001-17.15 101.711-.163 192.831 63.708 219.269 164.002 28.51 108.155-34.98 225.539-141.271 260.999-17.865 5.961-37.045 10.948-56.001 11v1c135.114 0 268.501 76.131 346.846 184.002 30.93 42.59 51.94 89.19 68.15 139 19.07-10.97 36.53-29.53 52-45 31.79-31.79 60.91-65.13 86.72-102 154.38-220.548 163.04-520.673 24.83-750.997C1134.62 86.711 833.914-45.875 550.185 14.462 458.365 33.988 371.198 71.15 294.186 124.97c-64.43 45.026-120.888 101.352-166.571 165.279-137.401 192.268-166.25 450.18-74.85 667.994 32.357 77.106 78.285 145.146 134.252 206.996 15.884 17.55 33.199 33.86 51.171 49.27 7.375 6.32 15.082 14.76 24.001 18.73M1591.18 703.241V575.24c-17.71 1.4-35.42 5.681-53 8.272-4.43.652-16.08.612-18.97 4.327-3.37 4.334-1.03 17.071-1.03 22.401v315.001c0 6.216-2.09 17.036.6 22.697 1.7 3.553 8.98 4.247 12.4 5.149 12.02 3.166 24.68 5.212 37 6.872 51.24 6.901 108.36 9.211 150.01-27.007 44.93-39.073 50.75-114.452 31.41-167.713-8.51-23.432-22.62-44.557-44.41-57.547-24.49-14.596-55.23-17.485-83-13.016-10.68 1.719-20.48 6.753-31 8.563M3277.2 580.703c-30.25 5.453-44.79 42.126-27.9 67.536 10.1 15.181 29.63 20.954 46.9 17.735 30.04-5.596 44.59-42.463 27.4-67.729-10-14.71-29.35-20.614-46.4-17.54m-909.02 35.536v171.998c0 41.224-2.22 81.642 18.31 118.999 12.87 23.405 35.88 39.67 60.69 48.344 59.65 20.847 147.48 10.968 181.72-48.344 20.92-36.253 19.28-78.558 19.28-118.999V616.241h-78v154.998c0 27.589 3.78 58.209-3.75 85.002-10.97 39.076-63.82 54.973-96.25 31.076-25.6-18.862-25-52.649-25-81.075V616.241h-77m545.99 334.999l-10-60c-30.57 7.073-67.26 19.161-97 1.525-40.55-24.042-36.93-104.421 1-128.976 27-17.48 57.88-6.054 86 .452 4.04-14.252 7.78-28.628 11.37-43 .91-3.61 4.82-11.925 2.56-15.301-1.95-2.919-7.8-3.98-10.93-5.032-9.82-3.303-19.74-5.884-30-7.395-44.62-6.573-93.5 1.79-125.91 35.743-47.76 50.029-53.57 152.927-.09 201.815 43.01 39.319 121.04 44.47 173 20.17m142-259.574c-26.34 3.461-51.25 10.116-72 27.876-58.6 50.154-62.84 157.296-6.91 211.529 27.28 26.455 67.55 37.35 104.91 32.884 25.8-3.086 50.47-12.307 70-29.885 77.16-69.449 44.75-222.214-61-240.579-11.29-1.961-23.57-3.327-35-1.826m336 265.576h74V757.241c19.26-.398 43.13-7.517 60 5.529 15.09 11.669 14.28 31.508 16.29 48.473 5.59 47.425.71 98.214.71 145.999h73V850.244c0-51.02 5.67-117.056-48-144.741-9.51-4.904-19.52-8.134-30-10.254-18.36-3.716-37.45-3.364-56-2.093-22.56 1.544-44.83 3.45-67 8.438-5.45 1.227-18.42 1.647-21.97 6.354-2.89 3.831-1.03 13.686-1.03 18.297v231.001M1813.16 698.247c0 52.422-4.13 106.847.83 159.001 2.63 27.614 6.31 55.721 26.26 76.996 21.31 22.718 53.08 29.004 82.91 29.004 39.3 0 75.65-6.083 114-14V698.25h-49l-25 1c4.81 20.185 1 45.252 1 65.998v133.001c-19.51 2.466-45.62 7.661-61.91-6.619-15.24-13.345-15.09-38.842-15.09-57.381V698.251h-74m256 0c2.67 19.827 11.35 40.063 17.67 58.998a1386.455 1386.455 0 0 0 47.19 121.999c7.44 16.844 15.39 33.41 23.36 50 2.68 5.58 8.89 13.563 7.41 20-6.53 28.36-33.62 39.349-59.63 36.83-5.44-.53-21.08-7.48-25.41-4.71-3.34 2.13-3.66 11.3-4.39 14.88-2.86 14.042-6.3 27.972-9.2 42.002 41.82 22.04 102.83 13.51 133.71-22 23.9-27.484 36.96-64.966 51.14-98.003 20.51-47.785 38.38-96.681 54.82-146 7.85-23.571 19.01-49.349 22.33-73.999h-76l-14.58 55-35.42 114.999c-15.55-29.503-24.15-65.223-34.03-97.001-7.32-23.572-17.67-48.488-20.97-73.002h-78m1180.98 0v259c22.88 0 50.76-4.298 73 1V698.243h-73m-187 56.288c20.29-2.185 39.01 10.654 47.14 28.711 15.96 35.416 13.25 112.43-37.14 117.827-76.86 8.234-82.42-138.739-10-146.536m-1440 .997c81.12-9.702 82.22 138.225 9 145.542-9.49.95-19.56.348-29-.663-3.19-.342-8.78.127-10.97-2.755-4.25-5.577-1.03-23.481-1.03-30.411v-73.002c0-7.073-2.91-22.467 1.03-28.468 5.02-7.649 22.75-9.263 30.97-10.246M672.138 1138.66c-37.687 4.97-73.387 15.31-104.999 37.3-24.17 16.81-45.184 38.39-60.948 63.28-75.232 118.78-16.557 283.99 118.945 325.97 31.087 9.64 63.848 11.98 96 7.75 30.972-4.07 61.92-15.09 87.999-32.39 25.148-16.67 47.758-37.93 64.301-63.33 62.109-95.36 40.49-225.87-50.302-295.12-21.148-16.12-45.445-28.25-70.998-35.59-25.102-7.21-53.904-11.3-80.001-7.87h.003z" fill="#fff"/></svg>