<svg width="3617" height="1575" viewBox="0 0 3617 1575" fill="none" xmlns="http://www.w3.org/2000/svg">
<path d="M262.202 1233.25C270.3 1194.12 290.838 1154.87 311.779 1121.25C387.91 999.028 529.857 910.247 676.204 910.247V909.247C649.224 909.173 621.307 899.999 597.205 888.544C572.685 876.891 551.14 860.644 532.22 841.247C517.451 826.108 505.388 808.107 495.958 789.248C440.194 677.726 491.195 539.652 606.206 490.397C629.989 480.212 657.211 473.289 683.207 473.247C784.918 473.084 876.038 536.955 902.476 637.249C930.986 745.404 867.496 862.788 761.205 898.248C743.34 904.209 724.16 909.196 705.204 909.248V910.248C840.318 910.248 973.705 986.379 1052.05 1094.25C1082.98 1136.84 1103.99 1183.44 1120.2 1233.25C1139.27 1222.28 1156.73 1203.72 1172.2 1188.25C1203.99 1156.46 1233.11 1123.12 1258.92 1086.25C1413.3 865.702 1421.96 565.577 1283.75 335.253C1134.62 86.7111 833.914 -45.8747 550.185 14.4616C458.365 33.9878 371.198 71.1508 294.186 124.971C229.756 169.997 173.298 226.323 127.615 290.25C-9.78625 482.518 -38.6354 740.43 52.7649 958.244C85.1218 1035.35 131.05 1103.39 187.017 1165.24C202.901 1182.79 220.216 1199.1 238.188 1214.51C245.563 1220.83 253.27 1229.27 262.189 1233.24M1591.18 703.241V575.24C1573.47 576.64 1555.76 580.921 1538.18 583.512C1533.75 584.164 1522.1 584.124 1519.21 587.839C1515.84 592.173 1518.18 604.91 1518.18 610.24V925.241C1518.18 931.457 1516.09 942.277 1518.78 947.938C1520.48 951.491 1527.76 952.185 1531.18 953.087C1543.2 956.253 1555.86 958.299 1568.18 959.959C1619.42 966.86 1676.54 969.17 1718.19 932.952C1763.12 893.879 1768.94 818.5 1749.6 765.239C1741.09 741.807 1726.98 720.682 1705.19 707.692C1680.7 693.096 1649.96 690.207 1622.19 694.676C1611.51 696.395 1601.71 701.429 1591.19 703.239M3277.2 580.703C3246.95 586.156 3232.41 622.829 3249.3 648.239C3259.4 663.42 3278.93 669.193 3296.2 665.974C3326.24 660.378 3340.79 623.511 3323.6 598.245C3313.6 583.535 3294.25 577.631 3277.2 580.705M2368.18 616.241V788.239C2368.18 829.463 2365.96 869.881 2386.49 907.238C2399.36 930.643 2422.37 946.908 2447.18 955.582C2506.83 976.429 2594.66 966.55 2628.9 907.238C2649.82 870.985 2648.18 828.68 2648.18 788.239V616.241H2570.18V771.239C2570.18 798.828 2573.96 829.448 2566.43 856.241C2555.46 895.317 2502.61 911.214 2470.18 887.317C2444.58 868.455 2445.18 834.668 2445.18 806.242V616.241H2368.18M2914.17 951.24L2904.17 891.24C2873.6 898.313 2836.91 910.401 2807.17 892.765C2766.62 868.723 2770.24 788.344 2808.17 763.789C2835.17 746.309 2866.05 757.735 2894.17 764.241C2898.21 749.989 2901.95 735.613 2905.54 721.241C2906.45 717.631 2910.36 709.316 2908.1 705.94C2906.15 703.021 2900.3 701.96 2897.17 700.908C2887.35 697.605 2877.43 695.024 2867.17 693.513C2822.55 686.94 2773.67 695.303 2741.26 729.256C2693.5 779.285 2687.69 882.183 2741.17 931.071C2784.18 970.39 2862.21 975.541 2914.17 951.241M3056.17 691.667C3029.83 695.128 3004.92 701.783 2984.17 719.543C2925.57 769.697 2921.33 876.839 2977.26 931.072C3004.54 957.527 3044.81 968.422 3082.17 963.956C3107.97 960.87 3132.64 951.649 3152.17 934.071C3229.33 864.622 3196.92 711.857 3091.17 693.492C3079.88 691.531 3067.6 690.165 3056.17 691.666M3392.17 957.242H3466.17V757.241C3485.43 756.843 3509.3 749.724 3526.17 762.77C3541.26 774.439 3540.45 794.278 3542.46 811.243C3548.05 858.668 3543.17 909.457 3543.17 957.242H3616.17V850.244C3616.17 799.224 3621.84 733.188 3568.17 705.503C3558.66 700.599 3548.65 697.369 3538.17 695.249C3519.81 691.533 3500.72 691.885 3482.17 693.156C3459.61 694.7 3437.34 696.606 3415.17 701.594C3409.72 702.821 3396.75 703.241 3393.2 707.948C3390.31 711.779 3392.17 721.634 3392.17 726.245V957.246M1813.16 698.247C1813.16 750.669 1809.03 805.094 1813.99 857.248C1816.62 884.862 1820.3 912.969 1840.25 934.244C1861.56 956.962 1893.33 963.248 1923.16 963.248C1962.46 963.248 1998.81 957.165 2037.16 949.248V698.25H1988.16L1963.16 699.25C1967.97 719.435 1964.16 744.502 1964.16 765.248V898.249C1944.65 900.715 1918.54 905.91 1902.25 891.63C1887.01 878.285 1887.16 852.788 1887.16 834.249V698.251H1813.16M2069.16 698.251C2071.83 718.078 2080.51 738.314 2086.83 757.249C2100.64 798.676 2116.37 839.303 2134.02 879.248C2141.46 896.092 2149.41 912.658 2157.38 929.248C2160.06 934.828 2166.27 942.811 2164.79 949.248C2158.26 977.608 2131.17 988.597 2105.16 986.078C2099.72 985.548 2084.08 978.598 2079.75 981.368C2076.41 983.498 2076.09 992.668 2075.36 996.248C2072.5 1010.29 2069.06 1024.22 2066.16 1038.25C2107.98 1060.29 2168.99 1051.76 2199.87 1016.25C2223.77 988.766 2236.83 951.284 2251.01 918.247C2271.52 870.462 2289.39 821.566 2305.83 772.247C2313.68 748.676 2324.84 722.898 2328.16 698.248H2252.16L2237.58 753.248L2202.16 868.247C2186.61 838.744 2178.01 803.024 2168.13 771.246C2160.81 747.674 2150.46 722.758 2147.16 698.244H2069.16M3250.14 698.244V957.244C3273.02 957.244 3300.9 952.946 3323.14 958.244V698.243H3250.14M3063.14 754.531C3083.43 752.346 3102.15 765.185 3110.28 783.242C3126.24 818.658 3123.53 895.672 3073.14 901.069C2996.28 909.303 2990.72 762.33 3063.14 754.533M1623.14 755.53C1704.26 745.828 1705.36 893.755 1632.14 901.072C1622.65 902.022 1612.58 901.42 1603.14 900.409C1599.95 900.067 1594.36 900.536 1592.17 897.654C1587.92 892.077 1591.14 874.173 1591.14 867.243V794.241C1591.14 787.168 1588.23 771.774 1592.17 765.773C1597.19 758.124 1614.92 756.51 1623.14 755.527M672.138 1138.66C634.451 1143.63 598.751 1153.97 567.139 1175.96C542.969 1192.77 521.955 1214.35 506.191 1239.24C430.959 1358.02 489.634 1523.23 625.136 1565.21C656.223 1574.85 688.984 1577.19 721.136 1572.96C752.108 1568.89 783.056 1557.87 809.135 1540.57C834.283 1523.9 856.893 1502.64 873.436 1477.24C935.545 1381.88 913.926 1251.37 823.134 1182.12C801.986 1166 777.689 1153.87 752.136 1146.53C727.034 1139.32 698.232 1135.23 672.135 1138.66L672.138 1138.66Z" fill="white"/>
</svg>
