<svg fill="none" viewBox="0 0 1202 335" xmlns="http://www.w3.org/2000/svg" xmlns:xlink="http://www.w3.org/1999/xlink"><linearGradient id="a"><stop offset="0" stop-color="#22e6b8"/><stop offset="1" stop-color="#00c1ce"/></linearGradient><linearGradient id="b" gradientUnits="userSpaceOnUse" x1="320.272" x2=".063213" xlink:href="#a" y1="167.148" y2="167.148"/><linearGradient id="c" gradientUnits="userSpaceOnUse" x1="731.034" x2="686.684" xlink:href="#a" y1="86.4436" y2="86.4436"/><path d="m214.8 123.4c-25.8-25.2-66.7-25.2-92.3 0-25.5 25.7-25.1 67.4.3 93s66.9 25.9 92.5.3c.4-.4 2.2-2.4 5.4-5.9l-30.7-31c-3.1 3.8-4.9 5.7-5 5.7-8.6 8.6-22.7 8.6-31.4 0-8.6-8.6-8.6-22.9-.3-31.4 8.4-8.4 22.5-8.4 31.2.3 0 0 27.5 27.5 82.3 82.6-22.6 32.8-60.4 53.4-101.1 53.4-67.4 0-122.2-55.2-122.2-123.4s54.9-123.3 122.2-123.3c39.3 0 75.4 19 97.9 49.9-3.6 4.2-12.8 14.8-27.8 31.8l30.4 30.4 50.3-57c-26.1-59.5-84.9-98.8-150.9-98.8-91.4 0-165.6 74.9-165.6 167.1s74.1 167.2 165.5 167.2c41.6 0 76-13.1 109.6-42 30.5-26.1 45-62.3 45-62.3z" fill="url(#b)"/><path d="m894.049 189.683v80.1h-32.6v-81.7c-3.3-18.8-19.8-33.1-39.7-33.1-20.2 0-37 14.6-39.9 34v80.9h-32.6v-145.5l25.1 15.9c12.8-11 29.4-17.6 47.4-17.6 38.3.2 69.8 29.7 72.3 67zm-342.5-83.7c-10.9 5.7-20.5 13.2-28.6 22.3-12-16.7-31.7-27.6-53.8-27.6-36.7 0-66.4 29.7-66.4 66.5s29.7 66.5 66.4 66.5c11.9 0 23.2-3.1 32.8-8.6 3.6 11.9 9.3 22.6 16.7 32.2-14.6 8.1-31.5 12.8-49.5 12.8-56.6 0-102.6-46-102.6-102.6s46-102.7995 102.7-102.7995c33.6-.3 63.6 16.2 82.3 41.2995zm48.5 163.9c-40 0-72.5-32.4-72.5-72.5s32.4-72.5 72.5-72.5 72.5 32.4 72.5 72.5-32.3 72.5-72.5 72.5zm0-32.4c22.3 0 40.2-18.1 40.2-40.2s-18.1-40.2-40.2-40.2c-22 0-40.2 18.1-40.2 40.2s18.1 40.2 40.2 40.2zm92.8-112.7h32.2v144.9h-32.2zm350.301-25.5995h-92.201v52.5995h89.501v32.7h-89.501v52.6h92.201v32.8h-126.801v-203.3995h126.801zm67.6 97.8995-49.6-72.1h41c1.3 2.1 3.1 4.9 5.3 8.4 2.8 4 5.6 8.4 8.4 12.8 2.9 4.5 5.7 8.8 8.4 12.8 2.6 4 4.6 7.1 5.7 9.2l1.7 2.9 29.6-46.2h39l-48.8 71 50.5 73.9h-40.4l-31.1-47.3-1.7 2.5c-1.4 2.1-3.3 5.2-6.1 9.3-2.8 4.2-5.7 8.6-8.8 13.5-3.1 4.7-6 9.2-8.8 13.5-2.2 3.6-4 6.4-5.3 8.4h-38.6z" fill="#fff"/><path clip-rule="evenodd" d="m686.648 86.2833c0-5.9 2.2-11 6.6-15.5s9.5-6.6 15.5-6.6c6.1 0 11.4 2.2 15.8 6.6 4.3 4.2 6.6 9.3 6.6 15.5s-2.2 11.4-6.6 15.7997c-4.2 4.3-9.3 6.6-15.5 6.6s-11.4-2.2-15.8-6.6c-4.3-4.2997-6.6-9.4997-6.6-15.7997z" fill="url(#c)" fill-rule="evenodd"/></svg>