<svg viewBox="0 0 928 213" xmlns="http://www.w3.org/2000/svg"><g fill="#fff"><path d="M309.98 53.246v82.676h40.586l-2.559 19.089h-62.678V53.241h24.651zm115.63 101.77l-5.415-21.879h-30.358l-5.263 21.872h-25.553l31.418-101.76h29.908l31.419 101.77H425.61zm-31.564-39.359h21.939l-10.97-44.935-10.969 44.943zm137.46-62.406l-2.407 18.5h-25.696v83.266h-24.658V71.751h-26.892v-18.5h79.66zm55.081-2.499c14.828 0 26.349 4.654 34.569 13.952 8.317 9.3 12.474 22.418 12.474 39.353 0 11.07-1.902 20.614-5.708 28.636-3.71 8.026-9.119 14.197-16.238 18.506-7.013 4.21-15.38 6.31-25.097 6.31-9.723 0-18.094-2.1-25.1-6.31-7.019-4.216-12.428-10.28-16.24-18.214-3.705-8.022-5.555-17.665-5.555-28.928 0-10.964 1.856-20.455 5.562-28.488 3.805-8.02 9.214-14.145 16.233-18.354 7.013-4.308 15.377-6.463 25.1-6.463zm0 17.625c-7.117 0-12.427 2.838-15.934 8.517-3.405 5.582-5.11 14.636-5.11 27.163 0 12.528 1.75 21.636 5.262 27.31 3.507 5.68 8.764 8.523 15.777 8.523 7.219 0 12.528-2.79 15.934-8.37 3.514-5.682 5.263-14.836 5.263-27.463s-1.756-21.727-5.263-27.308c-3.506-5.58-8.815-8.371-15.929-8.371m94.834 86.639H656.77V53.247h24.651zm59.828-101.77l-33.222 45.67 35.927 56.096h-28.562l-33.215-54.332 33.068-47.434zm82.868 0l-2.552 17.18H784.89v24.38h32.017v16.882H784.89v25.99h39.227v17.333H760.24V53.242h63.877zm103.85 101.77h-31.411l-30.068-78.858c1.008 7.735 1.756 14.584 2.26 20.556.598 5.878.903 12.879.903 21v37.303h-21.948V53.248h30.664l30.81 79.004c-2.202-13.417-3.302-26.043-3.302-37.888V53.248h22.092v101.77zm-784.82-44.158h-18.295l14.981-41.341 3.314 41.34z"/><path clip-rule="evenodd" d="M108.55 212.11c59.955 0 108.56-47.478 108.56-106.05C217.11 47.484 168.505.01 108.55.01 48.597.01 0 47.489 0 106.06c0 58.576 48.6 106.05 108.55 106.05zm-40.837-83.412l33.844-75.669H75.342L32.57 148.477h78.744l7.067-19.501h26.068l1.584 19.501h27.654l-14.979-95.448h-31.685l-34.148 75.669z" fill-rule="evenodd"/></g></svg>