<svg version="1.1" viewBox="0 0 928 213" xmlns="http://www.w3.org/2000/svg">
<path d="m309.98 53.246v82.676h40.586l-2.559 19.089h-62.678v-101.77h24.651zm115.63 101.77-5.415-21.879h-30.358l-5.263 21.872h-25.553l31.418-101.76h29.908l31.419 101.77h-26.156zm-31.564-39.359h21.939l-10.97-44.935-10.969 44.943v-8e-3zm137.46-62.406-2.407 18.5h-25.696v83.266h-24.658v-83.266h-26.892v-18.5h79.66-7e-3zm55.081-2.4986c14.828 0 26.349 4.6532 34.569 13.952 8.317 9.2997 12.474 22.418 12.474 39.353 0 11.069-1.902 20.614-5.708 28.636-3.71 8.026-9.119 14.197-16.238 18.506-7.013 4.209-15.38 6.309-25.097 6.309-9.723 0-18.094-2.1-25.1-6.309-7.019-4.216-12.428-10.281-16.24-18.214-3.705-8.022-5.555-17.665-5.555-28.928 0-10.964 1.856-20.455 5.562-28.488 3.805-8.0211 9.214-14.145 16.233-18.354 7.013-4.3079 15.377-6.4638 25.1-6.4638v0.0013zm0 17.625c-7.117 0-12.427 2.8373-15.934 8.5171-3.405 5.5812-5.11 14.636-5.11 27.163 0 12.528 1.75 21.636 5.262 27.309 3.507 5.681 8.764 8.524 15.777 8.524 7.219 0 12.528-2.79 15.934-8.371 3.514-5.681 5.263-14.835 5.263-27.462 0-12.627-1.756-21.727-5.263-27.308-3.506-5.5812-8.815-8.3718-15.929-8.3718m94.834 86.639h-24.651v-101.77h24.651v101.77zm59.828-101.77-33.222 45.67 35.927 56.096h-28.562l-33.215-54.332 33.068-47.434h26.004zm82.868 0-2.552 17.181h-36.675v24.379h32.017v16.882h-32.017v25.99h39.227v17.333h-63.877v-101.77h63.877zm103.85 101.77h-31.411l-30.068-78.858c1.008 7.7358 1.756 14.584 2.26 20.556 0.598 5.8786 0.903 12.879 0.903 21v37.303h-21.948v-101.77h30.664l30.81 79.004c-2.202-13.417-3.302-26.043-3.302-37.888v-41.116h22.092v101.77zm-784.82-44.158h-18.295l14.981-41.341 3.314 41.341z" fill="#fff"/>
<path d="m108.55 212.11c59.955 0 108.56-47.478 108.56-106.05 0-58.576-48.605-106.05-108.56-106.05-59.953 0-108.55 47.479-108.55 106.05 0 58.576 48.6 106.05 108.55 106.05zm-40.837-83.412 33.844-75.669h-26.215l-42.772 95.448h78.744l7.067-19.501h26.068l1.584 19.501h27.654l-14.979-95.448h-31.685l-34.148 75.669h-25.162z" clip-rule="evenodd" fill="#fff" fill-rule="evenodd"/>
</svg>