<svg fill="none" viewBox="0 0 2207 200" xmlns="http://www.w3.org/2000/svg"><path d="M0 103.625V7.297l40.887 1.451 19.349 29.993c37.422 58.01 62.235 97.953 62.246 100.202.006 1.249 3.282 7.204 7.28 13.23l7.27 10.958 9.59-15.513c9.527-15.41 36.527-58.135 70.781-112l17.881-28.12h39.65v192.454h-37.491v-58.735c0-33.473-.975-58.735-2.267-58.735-1.246 0-14.054 18.839-28.461 41.865-14.408 23.025-31.101 49.381-37.099 58.57l-10.903 16.706-40.757.332-16.301-24.369c-8.965-13.403-25.338-38.991-36.386-56.861-11.047-17.87-21.188-34.178-22.536-36.24-1.637-2.506-2.498 16.342-2.596 56.86l-.147 60.61H0zm335.965 92.964c-.721-1.877-.971-10.604-.556-19.395l.753-15.984h232.44v37.491l-115.664.65c-95.881.538-115.89.071-116.976-2.763zm273.886-96.613V0h244.938v42.49H652.332v157.453h-42.489zm274.935 0V0h242.444v42.601l-199.58-1.36-1.437 7.186c-.79 3.952-1.436 30.664-1.436 59.36v52.174h202.453v39.99H884.79zm279.934 41.24V82.481h234.95v117.471h-234.95zm192.87 1.219l-.83-17.536-153.31 1.321-.76 13.448c-.42 7.397-.18 14.989.54 16.871 1.08 2.794 15.44 3.423 78.25 3.428l76.94.005-.84-17.537zm177.03-21.214v-78.73h-92.47V0h225.14l-1.45 41.24-91.23 1.363V199.96h-39.99v-78.738zM1707.08 100V0h237.5l-1.3 198.702-236.2 1.298zm197.46 1.226V42.491h-154.96v117.471h154.96zm80.39 96.246c.46-1.363 13.21-15.159 28.33-30.656 28.01-28.705 54.28-57.98 55.87-62.26.93-2.499-6.87-11.291-56.34-63.536-16.75-17.694-29.97-32.656-29.38-33.248 1.73-1.724 34.18-2.655 41.74-1.197 4.41.849 9.52 5.091 14.16 11.748 10.58 15.168 52.02 56.657 56.59 56.657 3.74 0 32.52-27.741 56.08-54.073l11.26-12.574 19.99-1.404c10.99-.772 21.43-.853 23.2-.18 3.12 1.19-20.45 28.13-65.08 74.369-10.65 11.039-19.37 21.047-19.37 22.24 0 2.623 30.23 36.003 61.86 68.32 12.72 12.989 23.12 24.664 23.12 25.944 0 1.281-10.12 2.328-22.49 2.328s-22.5-.908-22.5-2.019c0-2.534-61.54-63.871-65.38-65.169-1.56-.526-17.68 14.378-35.83 33.117l-33.01 34.072h-21.82c-13.33 0-21.5-.965-20.99-2.479zM336.004 121.623c-.717-1.869-.967-11.159-.556-20.645l.748-17.248 233.899-1.299-.726 20.645-.726 20.646-115.665.65c-95.628.537-115.891.057-116.968-2.747zm.633-80.775c-.93-.929-1.691-10.5-1.691-21.268V0h235.147l-1.452 41.24-115.155.649c-63.336.357-115.915-.113-116.846-1.041zM1164.74 21.27V.001h235.15l-1.45 41.24-233.69 1.298z" fill="#fff"/></svg>