<svg fill="none" viewBox="0 0 1433 221" xmlns="http://www.w3.org/2000/svg"><g fill="#fff"><path d="m291.784 52.06v-27.108h-108.202v162.185h108.202v-27.108h-81.094v-40.547h67.423v-26.876h-67.423v-40.546zm140.55 135.077-44.021-70.435c15.756-4.402 35.682-15.755 35.682-44.485 0-47.265-54.216-47.265-54.216-47.265h-53.986v27.108l25.718 40.546h-25.718v94.531h27.106v-67.655h15.526l42.167 67.655zm-84.337-135.077h21.782s27.106 0 27.106 20.157c0 15.987-16.451 19.462-23.632 20.157zm211.123 0v-27.108h-108.202v162.185h108.202v-27.108h-81.093v-40.547h67.423v-26.876h-67.423v-40.546zm73.067 135.077c26.181 0 50.509-18.303 50.509-47.265 0-19.23-9.268-34.059-26.414-41.937-11.584-5.329-22.937-5.329-24.095-5.329-12.049 0-23.632-6.95-23.632-20.389 0-12.975 10.888-20.157 23.632-20.157 12.279 0 23.17 6.719 23.632 20.157h26.877c-.463-27.572-22.474-47.265-50.509-47.265-26.181 0-50.742 18.535-50.742 47.265 0 19.23 9.5 34.059 26.414 41.937 11.816 5.328 22.937 5.328 24.328 5.328 10.888.464 23.632 6.72 23.632 20.39 0 12.743-11.121 20.157-23.632 20.157-12.049 0-23.17-6.72-23.632-20.157h-27.11c.463 28.267 22.707 46.57 50.742 47.265zm68.836-162.185 64.877 162.185 64.641-162.185zm39.854 26.876h49.814l-24.791 62.326zm226.899.232v-27.108h-108.202v162.185h108.202v-27.108h-81.092v-40.547h67.422v-26.876h-67.422v-40.546zm152.384 135.077-44.02-70.435c15.75-4.402 35.68-15.755 35.68-44.485 0-47.265-54.22-47.265-54.22-47.265h-53.98v27.108l25.72 40.546h-25.72v94.531h27.11v-67.655h15.52l42.17 67.655zm-84.33-135.077h21.77s27.11 0 27.11 20.157c0 15.987-16.45 19.462-23.63 20.157zm164.48 135.077c26.18 0 50.51-18.303 50.51-47.265 0-19.23-9.27-34.059-26.41-41.937-11.59-5.329-22.94-5.329-24.1-5.329-12.05 0-23.64-6.95-23.64-20.389 0-12.975 10.9-20.157 23.64-20.157 12.27 0 23.17 6.719 23.63 20.157h26.88c-.47-27.572-22.48-47.265-50.51-47.265-26.18 0-50.74 18.535-50.74 47.265 0 19.23 9.5 34.059 26.41 41.937 11.82 5.328 22.94 5.328 24.33 5.328 10.89.464 23.63 6.72 23.63 20.39 0 12.743-11.12 20.157-23.63 20.157-12.05 0-23.17-6.72-23.64-20.157h-27.1c.46 28.267 22.7 46.57 50.74 47.265z"/><path clip-rule="evenodd" d="m0 221h1429.37v-221h-1429.37zm125.863-196.048h36.144l-73.91 82.483 67.423 79.702h-35.45l-50.045-59.314-15.292 17.147v42.167h-27.108v-170.206h-6.238v178.226h1382.143v-8.02h-115.62v-162.185h108.2v26.877l-81.09.231v40.547l67.41-.232v27.108h-67.41v40.546h88.51v-143.097h-1348.797v87.491z" fill-rule="evenodd"/></g></svg>