<svg fill="none" viewBox="0 0 512 512" xmlns="http://www.w3.org/2000/svg"><g fill="#fff"><path clip-rule="evenodd" d="M258.184 466.602l17.476-8.738 56.796-28.398 39.321-21.845 28.398-14.199 5.461-2.73 5.461-2.731 43.689-24.029-15.291-21.845-2.048-3.276-2.048-3.277-28.671-45.874-7.281-10.922-3.641-5.461-37.136-55.704-52.427-80.825-48.059-69.903-45.873 69.903-52.428 80.825-37.135 55.704-10.923 16.383-17.475 26.214-13.107 19.66-1.457 2.184-2.912 4.369-4.37 7.282-8.737 14.563 43.689 24.029 10.316 5.461 7.16 3.791 19.66 10.408 41.505 21.845 56.796 28.398zM114.01 348.641l25.951-39.321 59.112-89.563 29.556-44.781 29.555-44.782 30.004 44.782 28.54 42.597 61.471 91.747 26.345 39.321-108.661 56.763-11.088 5.792-26.611 13.901-26.213-13.901-10.922-5.792z" fill-rule="evenodd"/><path d="M258.184 45L63.767 217.573l6.553 6.189 2.699 2.549 48.052 45.383 18.201-30.092-5.045-4.799-4.203-3.997-16.014-15.233 20.217-17.476 8.181-7.071 54.999-47.541z"/><path d="M452.602 217.573L258.184 45l61.588 100.485 52.005 45.393 10.561 9.219 20.021 17.476-15.009 15.233-3.939 3.997-4.729 4.799 18.554 30.272 46.457-45.563 2.356-2.311zm-249.029-1.308l54.611-42.382 56.179 42.382-30.751-45.787-25.428-24.993-25.047 24.993zM63.767 326.796l43.689-32.592 4.678-7.733-54.92 40.325 22.348 10.814 1.68-2.076zm168.204 84.4l26.213 5.163 26.611-5.163 11.088-5.792-37.699 6.586-37.135-6.586z"/><path d="M373.291 232.806l10.12 3.997 3.939-3.997-17.923-6.305zm-1.514-41.928l-33.93-15.902 2.875 4.69 41.616 20.431zM179.57 174.976l-37.162 18.05-8.181 7.071 42.506-20.431zm-45.343 61.827l10.365-3.997 3.814-6.305-18.382 6.305zm265.948 156.619L481 381.408l-42.747-43.003-.806.406 2.048 3.276 30.583 36.699-64.442 11.906z"/><path clip-rule="evenodd" d="M317.618 220.34l-59.434-42.088-56.838 41.505-52.94 83.01 109.778-86.502 114.3 88.686z" fill-rule="evenodd"/><path d="M443.693 226.311l8.909 4.369-9.665 8.737-42.206 38.159 5.452 8.895 46.419-36.131-7.072-7.993 13.625-11.667-13.106-6.68zM63.767 230.68l9.252-4.369-2.699-2.549-13.106 6.918 14.268 10.922-7.715 8.738 48.367 36.131 4.677-7.733-43.4-39.321zm54.005 162.742l-73.665-12.014 28.398-32.039 4.369-7.282 2.912-4.369-1.134 1.016L31 381.408l93.932 15.805zm293.15-99.218l43.864 32.592-19.387 8.738 2.048 3.277.806-.406 23.087-11.609-55.157-40.325z"/><path clip-rule="evenodd" d="M148.406 331.165l109.778-89.563 111.408 89.563-111.408 50.243zm109.778 41.505l100.486-41.505-34.79-27.227-65.696 59.994-64.267-59.994-34.034 27.227zm0-120.146l-58.98 47.185 58.98 57.67 60.292-57.67z" fill-rule="evenodd"/></g></svg>