<svg width="1e3" height="1e3" version="1.1" viewBox="0 0 1e3 1e3" xmlns="http://www.w3.org/2000/svg">
 <defs>
  <clipPath id="clipPath114">
   <path d="m0 750h750v-750h-750z"/>
  </clipPath>
 </defs>
 <g transform="matrix(1.3333 0 0 -1.3333 0 1e3)">
  <g clip-path="url(#clipPath114)">
   <g transform="translate(369.93 736.93)">
    <path d="m0 0c-149.47-0.039-270.62-121.2-270.66-270.66 0.018-17.097 1.621-34.157 4.789-50.959l35.021 23.943c61.466 42.168 161.17 42.168 222.63 0l36.665-25.158 19.94-13.651c55.391-37.951 145.16-37.951 200.48 0l16.296 11.15c30.039 146.51-64.384 289.64-210.9 319.68-17.808 3.651-35.939 5.5-54.119 5.518z" fill="#f2b705"/>
   </g>
   <g transform="translate(522.09 303.67)">
    <path d="m0 0c-38.654-0.738-76.65 10.062-109.14 31.019l-56.534 38.738c-62.747 38.505-141.8 38.505-204.55 0l-36.522-25.016c-7.243-4.953-17.131-3.097-22.085 4.146s-3.098 17.131 4.145 22.085l36.522 25.015c73.617 45.742 166.81 45.742 240.43 0l56.534-38.738c55.935-34.3 126.39-34.3 182.32 0l21.441 14.652c7.244 4.953 17.131 3.098 22.085-4.146 4.954-7.243 3.098-17.131-4.145-22.084l-21.442-14.652c-32.485-20.904-70.442-31.7-109.06-31.019" fill="#53cbc8"/>
   </g>
   <g transform="translate(253 189.96)">
    <path d="m0 0v152.95c-0.131 3.221-0.011 6.447 0.357 9.649 1.015 8.709 8.386 15.281 17.153 15.295 8.487-0.259 15.431-6.836 16.153-15.295 0.651-5.31 0.842-10.666 0.572-16.01v-304.97c0.357-9.861-7.348-18.145-17.21-18.503-0.1-3e-3 -0.2-6e-3 -0.301-8e-3 -9.695 0.54-17.117 8.838-16.576 18.534 0.015 0.278 0.038 0.557 0.066 0.835v101.7z" fill="#53cbc8"/>
   </g>
   <g transform="translate(220.84 266.93)">
    <path d="m0 0v-75.974c0-13.007-7.147-21.441-16.796-21.441s-17.296 9.076-17.368 21.441v152.09c0 13.294 7.791 22.3 17.869 21.443 10.077-0.859 16.081-8.506 16.152-21.872 0.143-25.014 0.143-50.315 0.143-75.688" fill="#53cbc8"/>
   </g>
   <g transform="translate(319.54 267.08)">
    <path d="m0 0v53.317c0 12.366 6.576 20.37 16.367 20.37 10.133-0.475 17.963-9.075 17.488-19.208-0.011-0.245-0.028-0.489-0.049-0.733 0.334-36.308 0.334-72.639 0-108.99 0-12.364-7.147-19.869-17.368-19.726-10.22 0.143-16.438 7.719-16.509 20.37v54.533z" fill="#53cbc8"/>
   </g>
   <g transform="translate(120.42 256.07)">
    <path d="m0 0v53.39c0 12.435 6.575 20.44 16.367 20.44 10.133-0.475 17.963-9.075 17.488-19.208-0.012-0.244-0.028-0.489-0.049-0.732 0.333-36.356 0.333-72.711 0-109.07 0-12.364-7.147-19.797-17.296-19.725-10.149 0.071-16.51 7.718-16.582 20.44v54.462z" fill="#53cbc8"/>
   </g>
   <g transform="translate(402.52 301.38)">
    <path d="m0 0c9.276 0 16.796-7.52 16.796-16.796v-29.017c0-9.276-7.52-16.795-16.796-16.795s-16.796 7.519-16.796 16.795v29.017c0 9.276 7.52 16.796 16.796 16.796" fill="#53cbc8"/>
   </g>
   <g transform="translate(468.99 275.94)">
    <path d="m0 0c9.276 0 16.796-7.52 16.796-16.796v-162.88c0-9.276-7.52-16.796-16.796-16.796s-16.796 7.52-16.796 16.796v162.88c0 9.276 7.52 16.796 16.796 16.796" fill="#53cbc8"/>
   </g>
   <g transform="translate(535.02 269.65)">
    <path d="m0 0c9.276 0 16.796-7.52 16.796-16.796v-138.44c0-9.277-7.52-16.796-16.796-16.796-9.275 0-16.796 7.519-16.796 16.796v138.44c0 9.276 7.521 16.796 16.796 16.796" fill="#53cbc8"/>
   </g>
   <g transform="translate(601.99 285.45)">
    <path d="m0 0c9.276 0 16.796-7.521 16.796-16.796v-59.679c0-9.276-7.52-16.796-16.796-16.796-9.275 0-16.796 7.52-16.796 16.796v59.679c0 9.275 7.521 16.796 16.796 16.796" fill="#53cbc8"/>
   </g>
  </g>
 </g>
</svg>
