<svg viewBox="0 0 1188 201" fill="none" xmlns="http://www.w3.org/2000/svg">
<path d="M56.4594 199.769C53.3843 199.087 49.9644 198.737 46.2049 198.737C42.4455 198.562 38.5985 198.317 34.6676 197.967C30.7366 197.634 26.8914 197.109 23.1303 196.426C19.5423 195.569 16.3797 194.291 13.6442 192.576C11.0819 190.703 9.11639 188.218 7.74773 185.155C6.38082 182.075 6.03953 178.049 6.72211 173.096C6.55234 172.589 6.12529 171.311 5.44096 169.246C4.75663 167.198 3.98829 165.063 3.13419 162.84C2.44986 160.617 1.76554 158.569 1.08296 156.697C0.398631 154.806 0.0573442 153.616 0.0573442 153.109C-0.114176 151.901 0.143096 150.711 0.825675 149.521C1.51 148.313 2.36411 147.298 3.38973 146.441C4.41535 145.583 5.52672 144.9 6.72211 144.393C7.91925 143.71 9.03063 143.273 10.0562 143.098C10.226 143.623 10.4833 144.813 10.8246 146.686C11.3374 148.401 11.936 150.291 12.6203 152.339C13.4744 154.211 14.4143 156.014 15.4399 157.712C16.4655 159.252 17.4911 160.022 18.5167 160.022C19.1993 160.022 19.8836 159.69 20.568 159.007C21.2505 158.307 22.1904 156.784 23.3875 154.387C24.7545 151.989 26.5502 148.576 28.7712 144.13C30.9939 139.685 33.985 133.787 37.7445 126.436C41.5039 119.085 46.2049 109.949 51.8458 99.0066C57.6565 88.0678 64.7501 74.9921 73.1248 59.781C74.6632 57.217 77.397 53.9704 81.328 50.0395C85.4305 45.937 90.1315 41.7487 95.4294 37.4764C100.899 33.0327 106.709 28.5889 112.863 24.1451C119.187 19.7014 125.34 15.6846 131.323 12.095C137.474 8.50531 143.201 5.60005 148.499 3.37729C153.799 1.15629 158.157 0.0449219 161.575 0.0449219C162.942 0.0449219 164.48 0.130634 166.19 0.302154C168.07 0.302154 169.265 1.32781 169.778 3.37729V5.68576V9.27547C169.949 10.4709 170.035 11.668 170.035 12.8634V14.9146C170.035 21.2398 169.01 26.9647 166.958 32.0928C164.907 37.0494 162.173 41.663 158.755 45.937C155.335 50.0395 151.32 54.0561 146.705 57.987C142.261 61.7465 137.646 65.6775 132.861 69.78C132.861 69.9515 132.775 70.207 132.604 70.5483V71.5739C132.604 71.7454 133.629 73.1123 135.681 75.6763C137.903 78.0689 140.21 81.2316 142.603 85.1625C145.167 88.9219 147.473 93.2817 149.525 98.2383C151.747 103.018 152.857 107.989 152.857 113.099C152.857 123.88 149.696 134.469 143.373 144.9C137.219 155.157 129.357 164.38 119.785 172.589C110.385 180.797 100.045 187.378 88.7628 192.331C77.4828 197.284 66.7155 199.769 56.4594 199.769V199.769ZM32.8736 176.176C32.8736 178.574 33.8135 180.36 35.6932 181.567C37.5729 182.582 39.7099 183.265 42.1024 183.615C44.495 183.79 46.8893 183.79 49.2818 183.615C51.8458 183.44 53.6398 183.352 54.6654 183.352C65.4327 183.352 75.176 181.812 83.892 178.732C92.6098 175.494 100.3 170.961 106.967 165.15C113.631 159.165 119.358 152.076 124.143 143.868C129.1 135.677 133.202 126.523 136.449 116.442V114.132C136.62 112.767 136.706 111.909 136.706 111.577C136.706 104.908 135.681 99.7802 133.629 96.1871C131.75 92.4259 129.014 89.692 125.426 87.982C122.008 86.1023 117.82 84.9052 112.863 84.3941C107.907 83.8813 102.437 83.4526 96.455 83.1113C95.6009 82.9398 94.318 82.0856 92.6098 80.5472C91.0714 78.839 90.2155 77.556 90.0457 76.702C89.7027 75.8479 89.96 74.565 90.8141 72.8568C91.6699 71.1469 92.4383 70.1213 93.1226 69.78C99.9589 69.6085 106.967 68.1558 114.144 65.422C121.324 62.5167 127.819 58.6696 133.629 53.8846C139.611 49.0978 144.482 43.4587 148.243 36.9637C152.003 30.4687 153.883 23.4608 153.883 15.9402C147.559 15.9402 140.809 18.163 133.629 22.6068C126.621 26.879 119.785 32.1786 113.119 38.5021C106.624 44.654 100.727 51.2348 95.4294 58.2426C90.1315 65.2504 86.029 71.4041 83.1237 76.702C81.9266 79.0945 79.9611 82.7699 77.2273 87.7265C74.6632 92.6831 71.6721 98.324 68.254 104.646C65.0056 110.964 61.5875 117.632 57.9978 124.651C54.4081 131.651 50.99 138.32 47.7434 144.638C44.495 150.974 41.5896 156.697 39.0256 161.825C36.4633 166.953 34.5818 170.698 33.3864 173.096C33.2149 173.446 33.0434 173.954 32.8736 174.636V176.176V176.176Z" fill="white"/>
<path d="M179.514 176.142C179.514 174.952 179.599 173.15 179.769 170.752C180.112 168.196 180.454 165.711 180.795 163.331C181.138 160.933 181.479 158.798 181.82 156.908C182.163 154.86 182.505 153.582 182.846 153.075L229.506 59.7469C230.191 58.38 231.472 56.5004 233.353 54.1061C235.403 51.5438 237.54 48.9797 239.763 46.4156C242.155 43.6801 244.462 41.2018 246.685 38.9808C249.077 36.5883 251.043 34.7068 252.581 33.3398C253.777 33.6811 254.632 34.2797 255.145 35.1356C255.658 35.9897 255.999 37.0153 256.171 38.2107C256.341 39.2363 256.341 40.2619 256.171 41.2875V43.8516V47.4412C256.171 48.9797 256.085 49.748 255.914 49.748C254.205 54.3633 251.555 59.8327 247.966 66.1561C244.376 72.4796 240.359 79.2319 235.916 86.4095C231.472 93.5889 226.858 101.111 222.072 108.97C217.458 116.671 213.184 124.354 209.253 132.037C205.494 139.563 202.331 146.826 199.767 153.845C197.374 160.846 196.177 167.251 196.177 173.062C196.177 176.142 197.033 178.628 198.741 180.5C200.621 182.216 202.587 183.756 204.638 185.121C206.689 186.486 208.569 187.851 210.279 189.217C212.158 190.582 213.098 192.472 213.098 194.852C213.098 196.392 212.416 197.6 211.047 198.44C209.68 199.122 208.056 199.473 206.176 199.473C198.999 199.473 192.759 197.512 187.461 193.574C182.163 189.479 179.514 183.668 179.514 176.142V176.142Z" fill="white"/>
<path d="M247.967 177.893V173.78C248.138 171.557 248.224 170.104 248.224 169.422C253.693 156.943 260.701 145.409 269.246 134.82C277.792 124.214 287.45 114.815 298.217 106.607C298.558 106.607 299.071 106.519 299.755 106.362C300.609 106.012 301.208 105.837 301.549 105.837C306.165 105.837 309.926 106.869 312.831 108.917C315.908 110.807 318.3 113.363 320.009 116.618C321.89 119.681 323.171 123.199 323.856 127.119C324.538 130.882 324.879 134.558 324.879 138.146C324.879 144.814 323.343 151.815 320.266 159.166C317.189 166.341 313.001 173.01 307.703 179.17C302.575 185.156 296.678 190.109 290.014 194.03C283.347 197.793 276.425 199.683 269.246 199.683C262.068 199.683 256.685 197.793 253.095 194.03C249.677 190.109 247.967 184.718 247.967 177.893V177.893ZM267.965 174.812C267.965 176.685 268.733 177.963 270.271 178.645C271.81 179.345 273.348 179.678 274.887 179.678C279.159 179.678 283.261 178.575 287.192 176.352C291.295 173.955 294.884 171.049 297.961 167.636C301.208 164.049 303.772 160.111 305.652 155.84C307.531 151.57 308.471 147.457 308.471 143.536C308.471 141.646 308.301 139.598 307.96 137.375C307.789 134.978 307.276 132.93 306.422 131.232C305.566 129.342 304.199 127.889 302.319 126.857C300.609 125.842 298.131 125.667 294.884 126.349C292.492 126.857 289.756 129.08 286.68 133.018C283.603 136.955 280.613 141.558 277.706 146.862C274.972 151.99 272.664 157.205 270.784 162.508C268.904 167.637 267.965 171.732 267.965 174.812V174.812Z" fill="white"/>
<path d="M396.157 106.659C392.226 107.184 387.697 109.652 382.568 114.097C377.442 118.368 372.486 123.671 367.699 129.989C363.085 136.15 359.154 142.906 355.906 150.256C352.659 157.432 351.035 164.1 351.035 170.244C351.035 175.197 352.316 178.697 354.88 180.762C357.444 182.635 361.12 183.58 365.905 183.58C371.033 183.58 375.989 182.985 380.775 181.778C385.731 180.412 390.602 179.047 395.389 177.682C400.345 176.142 405.216 174.777 410.001 173.587C414.958 172.204 420 171.521 425.128 171.521C425.128 173.919 424.787 175.967 424.103 177.682C423.418 179.222 422.393 180.92 421.026 182.81C412.138 187.081 402.993 191.019 393.593 194.606C384.193 198.019 374.365 199.735 364.111 199.735C361.034 199.735 357.786 199.21 354.368 198.194C350.949 196.987 347.787 195.377 344.881 193.311C341.976 191.264 339.498 188.796 337.447 185.89C335.567 182.985 334.627 179.73 334.627 176.142C334.627 168.458 335.738 161.02 337.959 153.844C340.182 146.493 343.259 139.563 347.19 133.069C351.121 126.576 355.82 120.59 361.29 115.13C366.93 109.652 372.998 104.874 379.493 100.761V100.516C382.056 98.9719 384.963 97.5192 388.209 96.1523C391.628 94.6139 394.79 93.7598 397.696 93.5882C400.601 93.2469 402.993 93.9295 404.875 95.6395C406.924 97.1779 407.95 100.166 407.95 104.611C407.95 106.659 407.78 109.407 407.437 112.82C407.096 116.057 406.156 118.368 404.618 119.733C403.251 120.59 401.455 121.36 399.234 122.043C398.208 122.393 397.183 122.638 396.157 122.813V106.659V106.659Z" fill="white"/>
<path d="M423.582 165.816C424.095 157.608 426.573 149.924 431.017 142.748C435.461 135.398 440.674 128.554 446.657 122.236C452.809 115.9 459.218 110.09 465.884 104.804C472.721 99.3294 478.703 94.287 483.831 89.6735C483.831 88.6479 483.318 87.281 482.293 85.571C481.438 83.8611 480.754 80.87 480.241 76.5977C480.241 69.0771 481.951 62.2408 485.369 56.0871C488.788 49.7636 493.231 44.4658 498.701 40.1918C504.342 35.7481 510.579 32.3299 517.416 29.9374C524.423 27.5448 531.517 26.3477 538.695 26.3477C541.771 26.3477 544.335 27.5448 546.387 29.9374C548.438 32.1584 550.062 34.894 551.258 38.1406C552.455 41.389 553.223 44.7214 553.566 48.1395C554.079 51.5577 554.334 54.379 554.334 56.6H545.361C545.361 54.7202 545.106 52.7547 544.593 50.7035C544.25 48.6523 543.567 46.8583 542.542 45.3199C541.686 43.61 540.49 42.2431 538.952 41.2174C537.585 40.022 535.789 39.4234 533.568 39.4234C529.637 39.4234 525.363 40.5348 520.75 42.7558C516.135 44.807 511.776 47.5409 507.674 50.9608C503.743 54.2075 500.409 57.9668 497.675 62.2408C494.94 66.513 493.573 70.7871 493.573 75.0593C493.573 77.2821 494.257 78.9046 495.624 79.9302C497.162 80.786 499.042 81.3829 501.265 81.7259C503.657 82.0672 506.136 82.2387 508.7 82.2387C511.264 82.2387 513.656 82.4085 515.877 82.7515C518.271 82.9213 520.151 83.5198 521.518 84.5454C523.057 85.571 523.825 87.1953 523.825 89.4163C523.825 90.7832 523.655 92.1518 523.312 93.5187C522.971 94.7159 521.945 95.7397 520.237 96.5956C510.324 99.1596 501.351 102.231 493.317 105.819C485.455 109.25 478.276 113.433 471.781 118.386C465.286 123.181 459.218 128.904 453.579 135.573C448.109 142.223 442.724 150.187 437.426 159.41C437.426 159.743 437.34 160.6 437.171 161.966V164.538C437.171 170.682 438.879 175.39 442.297 178.628C445.887 181.708 450.588 183.248 456.398 183.248C462.893 183.248 470.157 182.233 478.19 180.168C486.395 178.12 494.343 175.897 502.033 173.517C509.725 171.119 516.733 168.896 523.057 166.849C529.552 164.783 534.337 163.768 537.413 163.768C537.242 167.531 535.619 171.119 532.543 174.532C529.466 177.945 525.449 181.113 520.492 184.018C515.536 186.748 509.895 189.234 503.572 191.456C497.418 193.679 491.094 195.465 484.599 196.847C478.276 198.212 472.038 199.14 465.884 199.665C459.902 200.173 454.604 200.173 449.989 199.665C445.545 199.665 441.614 198.632 438.196 196.585C434.948 194.537 432.214 191.877 429.991 188.639C427.94 185.383 426.316 181.795 425.12 177.875C424.095 173.762 423.582 169.754 423.582 165.816V165.816Z" fill="white"/>
<path d="M535.105 174.041C535.105 165.5 537.498 157.116 542.283 148.908C547.24 140.717 553.479 133.436 561 127.118C568.519 120.799 576.809 115.759 585.868 111.996C594.926 108.058 603.558 106.098 611.761 106.098C615.009 106.098 618.086 106.693 620.991 107.9C623.897 109.091 626.974 109.686 630.22 109.686H631.759C632.614 107.813 634.237 104.47 636.629 99.692C639.193 94.9017 641.843 89.8593 644.577 84.5614C647.484 79.2636 650.218 74.307 652.782 69.6917C655.346 64.9067 657.226 61.5725 658.423 59.6928C660.303 56.4462 662.867 52.4295 666.113 47.6427C669.362 42.6861 672.523 37.901 675.599 33.2857C678.848 28.6705 681.667 24.7395 684.06 21.4929C686.452 18.2445 687.821 16.6221 688.162 16.6221L698.161 26.621C698.161 26.9623 697.477 28.5007 696.11 31.2345C694.913 33.9701 693.29 37.5598 691.239 42.0035C689.188 46.2758 686.796 51.0608 684.06 56.3604C681.496 61.6583 678.848 66.9561 676.112 72.2557C673.378 77.5536 670.729 82.6817 668.165 87.6383C665.772 92.4233 663.635 96.4401 661.755 99.692C656.457 107.725 651.072 115.916 645.603 124.3C640.305 132.508 636.033 140.192 632.784 147.367C629.707 154.386 628.171 160.529 628.171 165.832C628.34 171.135 631.246 174.811 636.887 176.858C647.141 174.986 654.833 174.216 659.961 174.548C665.088 174.898 668.25 175.826 669.446 177.366C670.814 178.731 670.643 180.446 668.935 182.494C667.225 184.384 664.489 186.082 660.73 187.622C657.14 189.162 652.954 190.195 648.167 190.702C643.382 191.21 638.597 190.702 633.81 189.162C629.025 187.622 624.667 184.804 620.734 180.709C616.803 176.596 613.812 170.698 611.761 163.014L572.022 196.093C572.022 196.093 571.34 196.251 569.973 196.601C568.776 196.933 567.237 197.283 565.358 197.616C563.648 197.966 561.854 198.316 559.974 198.648C558.093 198.999 556.556 199.243 555.359 199.418H553.82C549.889 199.418 546.641 198.736 544.079 197.371C541.684 195.83 539.805 193.958 538.438 191.735C537.071 189.337 536.131 186.607 535.618 183.527C535.275 180.446 535.105 177.278 535.105 174.041V174.041ZM551.769 171.223C551.769 172.238 551.683 173.445 551.514 174.811C551.514 176.176 551.599 177.453 551.769 178.644C552.11 179.676 552.623 180.621 553.308 181.479C554.162 182.319 555.359 182.756 556.897 182.756C559.118 182.756 561.768 181.987 564.845 180.446C568.092 178.731 571.254 176.771 574.331 174.548C577.408 172.325 580.227 170.103 582.791 167.88C585.525 165.657 587.491 164.047 588.688 163.014C589.883 161.824 592.106 159.671 595.354 156.609C598.601 153.353 601.933 149.94 605.352 146.352C608.941 142.764 612.274 139.422 615.35 136.341C618.427 133.278 620.564 131.056 621.76 129.69V128.92V128.395C621.931 128.238 622.017 128.063 622.017 127.888C622.017 126.348 621.504 125.245 620.479 124.562C619.624 123.705 618.513 123.197 617.146 123.022C615.949 122.672 614.668 122.585 613.299 122.76H609.967C603.813 122.76 597.32 124.037 590.482 126.61C583.646 129.165 577.322 132.683 571.51 137.111C565.871 141.399 561.169 146.527 557.41 152.495C553.649 158.306 551.769 164.554 551.769 171.223V171.223Z" fill="white"/>
<path d="M669.957 186.642C669.957 184.069 670.727 180.482 672.266 175.861C673.804 171.083 675.769 165.955 678.162 160.477C680.726 155.016 683.546 149.468 686.622 143.815C689.869 138.179 693.117 133.051 696.364 128.43C699.612 123.827 702.689 120.064 705.595 117.159C708.5 114.254 711.064 112.801 713.285 112.801C718.072 112.801 720.464 115.111 720.464 119.714C720.464 121.78 720.037 123.477 719.181 124.843C718.499 126.208 717.645 127.503 716.619 128.693C715.594 129.883 714.482 131.091 713.285 132.281C712.09 133.314 711.064 134.591 710.208 136.131C708.671 138.687 706.79 142.204 704.569 146.632C702.346 151.078 700.125 155.436 697.902 159.707C695.851 163.82 694.057 167.495 692.519 170.733C690.98 173.988 690.212 175.773 690.212 176.123V179.449C696.877 178.259 703.286 175.441 709.44 170.995C715.594 166.375 721.404 161.002 726.874 154.841C732.515 148.698 737.812 142.275 742.769 135.624C747.897 128.78 752.682 122.532 757.126 116.897C761.57 111.086 765.758 106.308 769.689 102.545C773.62 98.7821 777.295 96.9023 780.713 96.9023C780.713 103.228 779.43 108.951 776.866 114.079C774.304 119.207 771.483 124.247 768.406 129.201C765.501 134.171 762.767 139.282 760.203 144.585C757.639 149.713 756.358 155.524 756.358 162.017C756.358 164.765 757.98 167.232 761.228 169.455C764.646 171.503 768.492 173.306 772.766 174.846C777.209 176.211 781.482 177.314 785.584 178.171C789.687 179.029 792.506 179.536 794.045 179.711V186.38C790.114 186.555 785.243 186.642 779.43 186.642C773.62 186.467 767.809 185.785 761.997 184.577C756.186 183.387 750.888 181.427 746.101 178.679C741.488 175.773 738.411 171.59 736.873 166.13C732.429 169.035 728.155 172.448 724.054 176.386C719.952 180.306 715.679 183.982 711.234 187.412C706.962 190.825 702.432 193.73 697.647 196.128C692.86 198.509 687.648 199.716 682.007 199.716C678.589 199.716 675.684 198.264 673.291 195.358C671.068 192.453 669.957 189.547 669.957 186.642V186.642Z" fill="white"/>
<path d="M854.813 106.659C850.882 107.184 846.353 109.652 841.225 114.097C836.096 118.368 831.14 123.671 826.355 129.989C821.739 136.15 817.809 142.906 814.562 150.256C811.314 157.432 809.689 164.1 809.689 170.244C809.689 175.197 810.972 178.697 813.536 180.762C816.1 182.635 819.774 183.58 824.561 183.58C829.687 183.58 834.644 182.985 839.431 181.778C844.387 180.412 849.258 179.047 854.043 177.682C859 176.142 863.87 174.777 868.657 173.587C873.614 172.204 878.656 171.521 883.782 171.521C883.782 173.919 883.441 175.967 882.757 177.682C882.074 179.222 881.049 180.92 879.682 182.81C870.794 187.081 861.649 191.019 852.249 194.606C842.849 198.019 833.021 199.735 822.765 199.735C819.688 199.735 816.442 199.21 813.023 198.194C809.605 196.987 806.443 195.377 803.537 193.311C800.632 191.264 798.154 188.796 796.103 185.89C794.223 182.985 793.281 179.73 793.281 176.142C793.281 168.458 794.393 161.02 796.615 153.844C798.836 146.493 801.913 139.563 805.844 133.069C809.775 126.576 814.476 120.59 819.946 115.13C825.585 109.652 831.653 104.874 838.148 100.761V100.516C840.712 98.9719 843.617 97.5192 846.865 96.1523C850.284 94.6139 853.444 93.7598 856.352 93.5882C859.257 93.2469 861.649 93.9295 863.529 95.6395C865.58 97.1779 866.606 100.166 866.606 104.611C866.606 106.659 866.434 109.407 866.093 112.82C865.752 116.057 864.812 118.368 863.274 119.733C861.905 120.59 860.111 121.36 857.89 122.043C856.864 122.393 855.839 122.638 854.813 122.813V106.659V106.659Z" fill="white"/>
<path d="M883.779 182.792C885.318 173.044 888.223 164.083 892.497 155.874C896.769 147.666 901.642 140.578 907.11 134.592C912.75 128.431 918.818 123.39 925.313 119.47C931.808 115.532 938.132 113.047 944.286 112.032C950.438 110.842 956.078 111.087 961.207 112.802C966.504 114.499 970.777 117.93 974.025 123.058C974.025 126.978 973.085 130.741 971.205 134.329C969.496 137.917 967.53 141.505 965.307 145.11C963.258 148.698 961.292 152.374 959.411 156.119C957.703 159.882 956.847 163.908 956.847 168.178C956.847 172.624 957.788 176.212 959.668 178.942C961.719 181.515 965.223 182.792 970.18 182.792C974.281 182.792 978.213 182.197 981.973 180.99C985.904 179.799 989.835 179.204 993.766 179.204C994.45 179.204 995.561 179.292 997.1 179.449H1000.43C998.381 182.355 995.731 184.84 992.484 186.888C989.236 188.936 985.818 190.738 982.228 192.279C978.64 193.644 974.879 194.676 970.948 195.359C967.189 196.041 963.685 196.374 960.436 196.374C957.36 196.374 954.626 195.691 952.233 194.326C949.841 192.961 947.789 191.158 946.08 188.936C944.371 186.713 943.003 184.245 941.977 181.515C941.123 178.609 940.696 175.774 940.696 173.044C938.132 175.949 935.312 179.029 932.235 182.285C929.33 185.348 926.167 188.166 922.749 190.738C919.503 193.294 915.913 195.446 911.982 197.144C908.221 198.859 904.29 199.717 900.187 199.717C895.744 199.717 891.898 198.089 888.652 194.834C885.403 191.421 883.779 187.413 883.779 182.792V182.792ZM900.7 174.846V179.449C900.872 181.165 901.983 182.285 904.034 182.792C908.307 181.76 913.177 179.537 918.647 176.124C924.116 172.536 929.244 168.441 934.029 163.82C938.816 159.025 942.833 153.984 946.08 148.698C949.328 143.22 950.95 138.005 950.95 133.052C950.95 132.719 950.865 132.194 950.695 131.511V129.726C944.884 129.726 938.986 130.916 933.004 133.314C927.022 135.694 921.638 139.037 916.853 143.308C912.068 147.403 908.135 152.199 905.06 157.659C902.153 163.138 900.7 168.861 900.7 174.846V174.846Z" fill="white"/>
<path d="M1049.4 179.642C1049.4 174.514 1050.43 169.824 1052.48 165.536C1054.7 161.09 1057.09 156.907 1059.66 152.987C1062.22 149.049 1064.53 145.111 1066.58 141.19C1068.8 137.252 1069.91 133.069 1069.91 128.624C1069.91 127.591 1069.83 126.401 1069.66 125.036C1069.66 123.496 1069.49 122.043 1069.14 120.678C1068.97 119.313 1068.46 118.193 1067.61 117.335C1066.92 116.32 1065.98 115.812 1064.78 115.812C1064.61 115.812 1064.27 115.882 1063.76 116.057C1063.42 116.057 1063.25 116.145 1063.25 116.32C1060.85 119.558 1057.95 123.233 1054.53 127.346C1051.28 131.267 1047.78 135.205 1044.02 139.143C1040.26 143.063 1036.58 146.826 1032.99 150.414C1029.41 154.002 1026.16 156.995 1023.25 159.392C1021.2 161.265 1018.38 163.838 1014.79 167.076C1011.37 170.331 1007.87 173.569 1004.28 176.824C1000.86 179.905 997.785 182.635 995.051 185.033C992.487 187.413 991.034 188.621 990.691 188.621L978.898 178.61C980.437 178.61 981.975 178.277 983.514 177.595C984.881 176.912 986.247 176.142 987.616 175.284C997.871 168.441 1007.1 160.583 1015.3 151.691C1023.68 142.818 1031.88 133.244 1039.92 122.988C1040.26 122.463 1041.11 121.011 1042.48 118.63C1044.02 116.057 1045.64 113.24 1047.35 110.159C1049.06 106.921 1050.77 103.753 1052.48 100.673C1054.19 97.4318 1055.47 94.8677 1056.32 92.988C1057.35 90.7653 1057.95 88.9712 1058.12 87.6043C1058.46 86.2374 1058.72 85.2118 1058.89 84.5275C1059.23 83.6734 1059.74 83.0749 1060.43 82.7336C1061.11 82.3905 1062.56 82.2207 1064.78 82.2207C1065.13 82.2207 1065.9 82.3047 1067.09 82.4762C1068.46 82.6477 1069.31 82.8176 1069.66 82.9891C1071.88 87.6044 1073.84 91.7069 1075.55 95.2948C1077.26 98.8844 1078.71 102.301 1079.91 105.556C1081.11 108.619 1081.96 111.787 1082.48 115.042C1083.16 118.28 1083.5 121.868 1083.5 125.806C1081.28 131.442 1078.8 137.252 1076.07 143.238C1073.33 149.049 1071.02 154.597 1069.14 159.9C1067.26 165.203 1066.07 169.981 1065.55 174.252C1065.21 178.54 1066.15 181.952 1068.37 184.508C1070.77 186.906 1074.7 188.183 1080.17 188.358C1085.81 188.533 1093.76 187.081 1104.01 184C1106.75 185.365 1107 187.081 1104.78 189.128C1102.56 191.001 1099.14 192.804 1094.53 194.519C1090.08 196.217 1085.12 197.669 1079.65 198.877C1074.36 199.892 1069.91 200.155 1066.32 199.647C1063.08 199.647 1060.34 199.122 1058.12 198.107C1056.07 196.899 1054.36 195.377 1052.99 193.486C1051.8 191.614 1050.85 189.478 1050.17 187.081C1049.66 184.683 1049.4 182.215 1049.4 179.642V179.642Z" fill="white"/>
<path d="M1093.75 186.118C1090.85 179.625 1089.56 173.306 1089.91 167.146C1090.25 160.828 1091.61 154.929 1094.01 149.469C1096.57 143.815 1099.82 138.775 1103.75 134.329C1107.85 129.726 1112.21 125.788 1116.83 122.533C1121.44 119.12 1126.05 116.565 1130.67 114.85C1135.45 113.134 1139.64 112.452 1143.23 112.802C1146.82 112.977 1149.64 114.255 1151.69 116.652C1153.74 119.033 1154.43 122.708 1153.74 127.661C1153.74 134.329 1151.61 140.14 1147.33 145.111C1143.23 150.064 1138.62 154.509 1133.49 158.43C1128.53 162.368 1123.92 165.955 1119.64 169.193C1115.54 172.274 1113.49 175.179 1113.49 177.927C1113.49 179.45 1114.35 180.657 1116.06 181.515C1117.93 182.355 1120.07 183.037 1122.46 183.562C1124.86 183.895 1127.25 184.158 1129.64 184.333C1132.04 184.508 1133.75 184.665 1134.77 184.84C1150.84 181.427 1162.89 179.38 1170.92 178.68C1178.95 177.839 1184 177.927 1186.05 178.942C1188.1 179.8 1187.67 181.252 1184.76 183.3C1182.03 185.19 1177.76 187.238 1171.95 189.461C1166.14 191.509 1159.38 193.381 1151.69 195.096C1144 196.812 1136.39 197.827 1128.87 198.177C1121.35 198.352 1114.35 197.582 1107.85 195.866C1101.53 194.151 1096.83 190.913 1093.75 186.118V186.118ZM1138.62 127.661C1135.2 127.661 1131.95 128.606 1128.87 130.496C1125.8 132.369 1122.98 134.767 1120.41 137.672C1118.02 140.403 1115.97 143.483 1114.26 146.896C1112.55 150.151 1111.27 153.214 1110.42 156.119C1110.76 156.294 1111.01 156.382 1111.18 156.382H1111.95C1114.35 156.382 1117.08 155.349 1120.16 153.302C1123.23 151.254 1126.14 148.769 1128.87 145.863C1131.61 142.8 1133.92 139.632 1135.8 136.377C1137.68 133.139 1138.62 130.234 1138.62 127.661V127.661Z" fill="white"/>
</svg>