<svg fill="none" viewBox="0 0 1188 201" xmlns="http://www.w3.org/2000/svg"><g fill="#fff"><path d="M56.46 199.769c-3.076-.682-6.496-1.032-10.255-1.032-3.76-.175-7.606-.42-11.537-.77a122.313 122.313 0 0 1-11.538-1.541c-3.588-.857-6.75-2.135-9.486-3.85-2.562-1.873-4.528-4.358-5.896-7.421-1.367-3.08-1.708-7.106-1.026-12.059-.17-.507-.597-1.785-1.281-3.85a153.777 153.777 0 0 0-2.307-6.406 127.502 127.502 0 0 0-2.051-6.143c-.684-1.891-1.026-3.081-1.026-3.588-.171-1.208.086-2.398.769-3.588a11.086 11.086 0 0 1 2.564-3.08 13.218 13.218 0 0 1 3.332-2.048c1.197-.683 2.309-1.12 3.334-1.295.17.525.427 1.715.769 3.588a186.825 186.825 0 0 0 1.795 5.653 52.778 52.778 0 0 0 2.82 5.373c1.025 1.54 2.051 2.31 3.077 2.31.682 0 1.367-.332 2.051-1.015.682-.7 1.622-2.223 2.82-4.62 1.366-2.398 3.162-5.811 5.383-10.257a2296.906 2296.906 0 0 1 8.974-17.694c3.759-7.351 8.46-16.487 14.1-27.43 5.812-10.938 12.905-24.014 21.28-39.225 1.538-2.564 4.272-5.81 8.203-9.742 4.102-4.102 8.803-8.29 14.101-12.563a386.207 386.207 0 0 1 17.434-13.33c6.324-4.445 12.477-8.461 18.46-12.051 6.151-3.59 11.878-6.495 17.176-8.718 5.3-2.22 9.658-3.332 13.076-3.332 1.367 0 2.905.086 4.615.257 1.88 0 3.075 1.026 3.588 3.075v5.899a25.32 25.32 0 0 1 .257 3.587v2.052c0 6.325-1.025 12.05-3.077 17.178-2.051 4.956-4.785 9.57-8.203 13.844-3.42 4.102-7.435 8.12-12.05 12.05-4.444 3.76-9.059 7.69-13.844 11.793 0 .171-.086.427-.257.768v1.026c0 .171 1.025 1.538 3.077 4.102 2.222 2.393 4.529 5.556 6.922 9.486 2.564 3.76 4.87 8.12 6.922 13.076 2.222 4.78 3.332 9.751 3.332 14.861 0 10.781-3.161 21.37-9.484 31.801-6.154 10.257-14.016 19.48-23.588 27.689-9.4 8.208-19.74 14.789-31.022 19.742-11.28 4.953-22.047 7.438-32.304 7.438zm-23.586-23.593c0 2.398.94 4.184 2.82 5.391 1.879 1.015 4.016 1.698 6.408 2.048 2.393.175 4.787.175 7.18 0 2.564-.175 4.358-.263 5.383-.263 10.768 0 20.511-1.54 29.227-4.62 8.718-3.238 16.408-7.771 23.075-13.582 6.664-5.985 12.391-13.074 17.176-21.282 4.957-8.191 9.059-17.345 12.306-27.426v-2.31c.171-1.365.257-2.223.257-2.555 0-6.669-1.025-11.797-3.077-15.39-1.879-3.761-4.615-6.495-8.203-8.205-3.418-1.88-7.606-3.077-12.563-3.588-4.956-.513-10.426-.941-16.408-1.283-.854-.171-2.137-1.025-3.845-2.564-1.539-1.708-2.394-2.991-2.564-3.845-.343-.854-.086-2.137.768-3.845.856-1.71 1.624-2.736 2.309-3.077 6.836-.171 13.844-1.624 21.021-4.358 7.18-2.905 13.675-6.752 19.485-11.537 5.982-4.787 10.853-10.426 14.614-16.921 3.76-6.495 5.64-13.503 5.64-21.024-6.324 0-13.074 2.223-20.254 6.667-7.008 4.272-13.844 9.572-20.51 15.895a160.362 160.362 0 0 0-17.69 19.74c-5.297 7.008-9.4 13.162-12.305 18.46-1.197 2.392-3.163 6.068-5.897 11.025a1061.547 1061.547 0 0 1-8.973 16.919c-3.248 6.318-6.667 12.986-10.256 20.005-3.59 7-7.008 13.669-10.255 19.987a1931.376 1931.376 0 0 0-8.717 17.187c-2.563 5.128-4.444 8.873-5.64 11.271-.171.35-.343.858-.512 1.54zm146.64-.034c0-1.19.085-2.992.255-5.39.343-2.556.685-5.041 1.026-7.421.343-2.398.684-4.533 1.025-6.423.343-2.048.685-3.326 1.026-3.833l46.66-93.328c.685-1.367 1.966-3.247 3.847-5.64a253.619 253.619 0 0 1 6.41-7.691 151.439 151.439 0 0 1 6.922-7.435c2.392-2.393 4.358-4.274 5.896-5.641 1.196.341 2.051.94 2.564 1.796.513.854.854 1.88 1.026 3.075a9.345 9.345 0 0 1 0 3.077v6.154c0 1.538-.086 2.306-.257 2.306-1.709 4.615-4.359 10.085-7.948 16.408-3.59 6.324-7.607 13.076-12.05 20.253a3650.374 3650.374 0 0 0-13.844 22.561 394.688 394.688 0 0 0-12.819 23.067c-3.759 7.526-6.922 14.789-9.486 21.808-2.393 7.001-3.59 13.406-3.59 19.217 0 3.08.856 5.566 2.564 7.438a49.078 49.078 0 0 0 5.897 4.621 80.494 80.494 0 0 1 5.641 4.096c1.879 1.365 2.819 3.255 2.819 5.635 0 1.54-.682 2.748-2.051 3.588-1.367.682-2.991 1.033-4.871 1.033-7.177 0-13.417-1.961-18.715-5.899-5.298-4.095-7.947-9.906-7.947-17.432zm68.453 1.751v-4.113c.171-2.223.257-3.676.257-4.358a152.028 152.028 0 0 1 21.022-34.602 167.436 167.436 0 0 1 28.971-28.213c.341 0 .854-.088 1.538-.245.854-.35 1.453-.525 1.794-.525 4.616 0 8.377 1.032 11.282 3.08 3.077 1.89 5.469 4.446 7.178 7.701 1.881 3.063 3.162 6.581 3.847 10.501.682 3.763 1.023 7.439 1.023 11.027 0 6.668-1.536 13.669-4.613 21.02-3.077 7.175-7.265 13.844-12.563 20.004-5.128 5.986-11.025 10.939-17.689 14.86-6.667 3.763-13.589 5.653-20.768 5.653-7.178 0-12.561-1.89-16.151-5.653-3.418-3.921-5.128-9.312-5.128-16.137zm19.998-3.081c0 1.873.768 3.151 2.306 3.833 1.539.7 3.077 1.033 4.616 1.033 4.272 0 8.374-1.103 12.305-3.326 4.103-2.397 7.692-5.303 10.769-8.716 3.247-3.587 5.811-7.525 7.691-11.796 1.879-4.27 2.819-8.383 2.819-12.304 0-1.89-.17-3.938-.511-6.161-.171-2.397-.684-4.445-1.538-6.143-.856-1.89-2.223-3.343-4.103-4.375-1.71-1.015-4.188-1.19-7.435-.508-2.392.508-5.128 2.731-8.204 6.669-3.077 3.937-6.067 8.54-8.974 13.844a114.7 114.7 0 0 0-6.922 15.646c-1.88 5.129-2.819 9.224-2.819 12.304zm128.192-68.153c-3.931.525-8.46 2.993-13.589 7.438-5.126 4.271-10.082 9.574-14.869 15.892-4.614 6.161-8.545 12.917-11.793 20.267-3.247 7.176-4.871 13.844-4.871 19.988 0 4.953 1.281 8.453 3.845 10.518 2.564 1.873 6.24 2.818 11.025 2.818 5.128 0 10.084-.595 14.87-1.802 4.956-1.366 9.827-2.731 14.614-4.096a263.908 263.908 0 0 1 14.612-4.095 56.022 56.022 0 0 1 15.127-2.066c0 2.398-.341 4.446-1.025 6.161-.685 1.54-1.71 3.238-3.077 5.128a357.997 357.997 0 0 1-27.433 11.796c-9.4 3.413-19.228 5.129-29.482 5.129-3.077 0-6.325-.525-9.743-1.541-3.419-1.207-6.581-2.817-9.487-4.883a30.59 30.59 0 0 1-7.434-7.421c-1.88-2.905-2.82-6.16-2.82-9.748 0-7.684 1.111-15.122 3.332-22.298a90.606 90.606 0 0 1 9.231-20.775 94.234 94.234 0 0 1 14.1-17.939 112.26 112.26 0 0 1 18.203-14.369v-.245c2.563-1.544 5.47-2.997 8.716-4.364 3.419-1.538 6.581-2.392 9.487-2.564 2.905-.341 5.297.342 7.179 2.052 2.049 1.538 3.075 4.526 3.075 8.971 0 2.048-.17 4.796-.513 8.209-.341 3.237-1.281 5.548-2.819 6.913-1.367.857-3.163 1.627-5.384 2.31-1.026.35-2.051.595-3.077.77z"/><path d="M423.582 165.816c.513-8.208 2.991-15.892 7.435-23.068a120.257 120.257 0 0 1 15.64-20.512c6.152-6.336 12.561-12.146 19.227-17.432 6.837-5.475 12.819-10.517 17.947-15.13 0-1.026-.513-2.393-1.538-4.103-.855-1.71-1.539-4.701-2.052-8.973 0-7.52 1.71-14.357 5.128-20.51 3.419-6.324 7.862-11.622 13.332-15.896 5.641-4.444 11.878-7.862 18.715-10.255 7.007-2.392 14.101-3.59 21.279-3.59 3.076 0 5.64 1.198 7.692 3.59 2.051 2.221 3.675 4.957 4.871 8.204a40.496 40.496 0 0 1 2.308 9.998c.513 3.419.768 6.24.768 8.461h-8.973c0-1.88-.255-3.845-.768-5.897-.343-2.05-1.026-3.845-2.051-5.383-.856-1.71-2.052-3.077-3.59-4.103-1.367-1.195-3.163-1.794-5.384-1.794-3.931 0-8.205 1.112-12.818 3.333-4.615 2.051-8.974 4.785-13.076 8.205a48.318 48.318 0 0 0-9.999 11.28c-2.735 4.272-4.102 8.546-4.102 12.818 0 2.223.684 3.846 2.051 4.871 1.538.856 3.418 1.453 5.641 1.796 2.392.341 4.871.513 7.435.513s4.956.17 7.177.512c2.394.17 4.274.769 5.641 1.794 1.539 1.026 2.307 2.65 2.307 4.871 0 1.367-.17 2.736-.513 4.103-.341 1.197-1.367 2.22-3.075 3.077-9.913 2.564-18.886 5.635-26.92 9.223-7.862 3.431-15.041 7.614-21.536 12.567-6.495 4.795-12.563 10.518-18.202 17.187-5.47 6.65-10.855 14.614-16.153 23.837 0 .333-.086 1.19-.255 2.556v2.572c0 6.144 1.708 10.852 5.126 14.09 3.59 3.08 8.291 4.62 14.101 4.62 6.495 0 13.759-1.015 21.792-3.08a445.797 445.797 0 0 0 23.843-6.651 2047.95 2047.95 0 0 0 21.024-6.668c6.495-2.066 11.28-3.081 14.356-3.081-.171 3.763-1.794 7.351-4.87 10.764-3.077 3.413-7.094 6.581-12.051 9.486-4.956 2.73-10.597 5.216-16.92 7.438-6.154 2.223-12.478 4.009-18.973 5.391a148.364 148.364 0 0 1-18.715 2.818c-5.982.508-11.28.508-15.895 0-4.444 0-8.375-1.033-11.793-3.08-3.248-2.048-5.982-4.708-8.205-7.946-2.051-3.256-3.675-6.844-4.871-10.764-1.025-4.113-1.538-8.121-1.538-12.059z"/><path d="M535.105 174.041c0-8.541 2.393-16.925 7.178-25.133 4.957-8.191 11.196-15.472 18.717-21.79a95.184 95.184 0 0 1 24.868-15.122c9.058-3.938 17.69-5.898 25.893-5.898 3.248 0 6.325.595 9.23 1.802 2.906 1.191 5.983 1.786 9.229 1.786h1.539c.855-1.873 2.478-5.216 4.87-9.994 2.564-4.79 5.214-9.833 7.948-15.13a3264.52 3264.52 0 0 1 8.205-14.87c2.564-4.785 4.444-8.12 5.641-10 1.88-3.246 4.444-7.263 7.69-12.05a2260.23 2260.23 0 0 1 9.486-14.356c3.249-4.616 6.068-8.547 8.461-11.793 2.392-3.248 3.761-4.87 4.102-4.87l9.999 9.998c0 .341-.684 1.88-2.051 4.614-1.197 2.735-2.82 6.325-4.871 10.769a558.724 558.724 0 0 1-7.179 14.356 687.748 687.748 0 0 1-7.948 15.896c-2.734 5.298-5.383 10.426-7.947 15.382-2.393 4.785-4.53 8.802-6.41 12.054a5816.76 5816.76 0 0 0-16.152 24.608c-5.298 8.208-9.57 15.892-12.819 23.067-3.077 7.019-4.613 13.162-4.613 18.465.169 5.303 3.075 8.979 8.716 11.026 10.254-1.872 17.946-2.642 23.074-2.31 5.127.35 8.289 1.278 9.485 2.818 1.368 1.365 1.197 3.08-.511 5.128-1.71 1.89-4.446 3.588-8.205 5.128-3.59 1.54-7.776 2.573-12.563 3.08-4.785.508-9.57 0-14.357-1.54-4.785-1.54-9.143-4.358-13.076-8.453-3.931-4.113-6.922-10.011-8.973-17.695l-39.739 33.079s-.682.158-2.049.508c-1.197.332-2.736.682-4.615 1.015-1.71.35-3.504.7-5.384 1.032a118.05 118.05 0 0 1-4.615.77h-1.539c-3.931 0-7.179-.682-9.741-2.047-2.395-1.541-4.274-3.413-5.641-5.636-1.367-2.398-2.307-5.128-2.82-8.208a85.78 85.78 0 0 1-.513-9.486zm16.664-2.818c0 1.015-.086 2.222-.255 3.588 0 1.365.085 2.642.255 3.833a9.074 9.074 0 0 0 1.539 2.835c.854.84 2.051 1.277 3.589 1.277 2.221 0 4.871-.769 7.948-2.31a79.893 79.893 0 0 0 9.486-5.898c3.077-2.223 5.896-4.445 8.46-6.668 2.734-2.223 4.7-3.833 5.897-4.866 1.195-1.19 3.418-3.343 6.666-6.405a629.697 629.697 0 0 0 9.998-10.257c3.589-3.588 6.922-6.93 9.998-10.011 3.077-3.063 5.214-5.285 6.41-6.651v-1.295c.171-.157.257-.332.257-.507 0-1.54-.513-2.643-1.538-3.326-.855-.857-1.966-1.365-3.333-1.54-1.197-.35-2.478-.437-3.847-.262h-3.332c-6.154 0-12.647 1.277-19.485 3.85-6.836 2.555-13.16 6.073-18.972 10.501a58.051 58.051 0 0 0-14.1 15.384c-3.761 5.811-5.641 12.059-5.641 18.728zm118.188 15.419c0-2.573.77-6.16 2.309-10.781 1.538-4.778 3.503-9.906 5.896-15.384a314.916 314.916 0 0 1 8.46-16.662c3.247-5.636 6.495-10.764 9.742-15.385 3.248-4.603 6.325-8.366 9.231-11.271 2.905-2.905 5.469-4.358 7.69-4.358 4.787 0 7.179 2.31 7.179 6.913 0 2.066-.427 3.763-1.283 5.129a18.668 18.668 0 0 1-2.562 3.85 63.467 63.467 0 0 1-3.334 3.588c-1.195 1.033-2.221 2.31-3.077 3.85-1.537 2.556-3.418 6.073-5.639 10.501a903.175 903.175 0 0 1-6.667 13.075 648.269 648.269 0 0 0-5.383 11.026c-1.539 3.255-2.307 5.04-2.307 5.39v3.326c6.665-1.19 13.074-4.008 19.228-8.454 6.154-4.62 11.964-9.993 17.434-16.154a243.816 243.816 0 0 0 15.895-19.217c5.128-6.844 9.913-13.092 14.357-18.727 4.444-5.811 8.632-10.589 12.563-14.352s7.606-5.643 11.024-5.643c0 6.326-1.283 12.049-3.847 17.177a187.376 187.376 0 0 1-8.46 15.122 221.504 221.504 0 0 0-8.203 15.384c-2.564 5.128-3.845 10.939-3.845 17.432 0 2.748 1.622 5.215 4.87 7.438 3.418 2.048 7.264 3.851 11.538 5.391a143.914 143.914 0 0 0 12.818 3.325c4.103.858 6.922 1.365 8.461 1.54v6.669c-3.931.175-8.802.262-14.615.262a100.35 100.35 0 0 1-17.433-2.065c-5.811-1.19-11.109-3.15-15.896-5.898-4.613-2.906-7.69-7.089-9.228-12.549-4.444 2.905-8.718 6.318-12.819 10.256a160.25 160.25 0 0 1-12.82 11.026 76.986 76.986 0 0 1-13.587 8.716c-4.787 2.381-9.999 3.588-15.64 3.588-3.418 0-6.323-1.452-8.716-4.358-2.223-2.905-3.334-5.811-3.334-8.716z"/><path d="M854.813 106.659c-3.931.525-8.46 2.993-13.588 7.438-5.129 4.271-10.085 9.574-14.87 15.892-4.616 6.161-8.546 12.917-11.793 20.267-3.248 7.176-4.873 13.844-4.873 19.988 0 4.953 1.283 8.453 3.847 10.518 2.564 1.873 6.238 2.818 11.025 2.818 5.126 0 10.083-.595 14.87-1.802 4.956-1.366 9.827-2.731 14.612-4.096a263.722 263.722 0 0 1 14.614-4.095 56.018 56.018 0 0 1 15.125-2.066c0 2.398-.341 4.446-1.025 6.161-.683 1.54-1.708 3.238-3.075 5.128a357.997 357.997 0 0 1-27.433 11.796c-9.4 3.413-19.228 5.129-29.484 5.129-3.077 0-6.323-.525-9.742-1.541-3.418-1.207-6.58-2.817-9.486-4.883a30.59 30.59 0 0 1-7.434-7.421c-1.88-2.905-2.822-6.16-2.822-9.748 0-7.684 1.112-15.122 3.334-22.298a90.514 90.514 0 0 1 9.229-20.775 94.245 94.245 0 0 1 14.102-17.939 112.21 112.21 0 0 1 18.202-14.369v-.245c2.564-1.544 5.469-2.997 8.717-4.364 3.419-1.538 6.579-2.392 9.487-2.564 2.905-.341 5.297.342 7.177 2.052 2.051 1.538 3.077 4.526 3.077 8.971 0 2.048-.172 4.796-.513 8.209-.341 3.237-1.281 5.548-2.819 6.913-1.369.857-3.163 1.627-5.384 2.31-1.026.35-2.051.595-3.077.77zm28.966 76.133c1.539-9.748 4.444-18.709 8.718-26.918 4.272-8.208 9.145-15.296 14.613-21.282 5.64-6.161 11.708-11.202 18.203-15.122 6.495-3.938 12.819-6.423 18.973-7.438 6.152-1.19 11.792-.945 16.921.77 5.297 1.697 9.57 5.128 12.818 10.256 0 3.92-.94 7.683-2.82 11.271a113.744 113.744 0 0 1-5.898 10.781 233.982 233.982 0 0 0-5.896 11.009c-1.708 3.763-2.564 7.789-2.564 12.059 0 4.446.941 8.034 2.821 10.764 2.051 2.573 5.555 3.85 10.512 3.85 4.101 0 8.033-.595 11.793-1.802 3.931-1.191 7.862-1.786 11.793-1.786.684 0 1.795.088 3.334.245h3.33c-2.049 2.906-4.699 5.391-7.946 7.439a73.725 73.725 0 0 1-10.256 5.391 61.042 61.042 0 0 1-11.28 3.08c-3.759.682-7.263 1.015-10.512 1.015-3.076 0-5.81-.683-8.203-2.048-2.392-1.365-4.444-3.168-6.153-5.39a28.586 28.586 0 0 1-4.103-7.421c-.854-2.906-1.281-5.741-1.281-8.471a369.786 369.786 0 0 1-8.461 9.241 76.153 76.153 0 0 1-9.486 8.453 48.307 48.307 0 0 1-10.767 6.406 28.112 28.112 0 0 1-11.795 2.573c-4.443 0-8.289-1.628-11.535-4.883-3.249-3.413-4.873-7.421-4.873-12.042zm16.921-7.946v4.603c.172 1.716 1.283 2.836 3.334 3.343 4.273-1.032 9.143-3.255 14.613-6.668a105.042 105.042 0 0 0 15.382-12.304c4.787-4.795 8.804-9.836 12.051-15.122 3.248-5.478 4.87-10.693 4.87-15.646 0-.333-.085-.858-.255-1.541v-1.785c-5.811 0-11.709 1.19-17.691 3.588a54.15 54.15 0 0 0-16.151 9.994 52.979 52.979 0 0 0-11.793 14.351c-2.907 5.479-4.36 11.202-4.36 17.187z"/><path d="M1049.4 179.642c0-5.128 1.03-9.818 3.08-14.106 2.22-4.446 4.61-8.629 7.18-12.549 2.56-3.938 4.87-7.876 6.92-11.797 2.22-3.938 3.33-8.121 3.33-12.566 0-1.033-.08-2.223-.25-3.588 0-1.54-.17-2.993-.52-4.358-.17-1.365-.68-2.485-1.53-3.343-.69-1.015-1.63-1.523-2.83-1.523-.17 0-.51.07-1.02.245-.34 0-.51.088-.51.263-2.4 3.238-5.3 6.913-8.72 11.026a225.209 225.209 0 0 1-10.51 11.797c-3.76 3.92-7.44 7.683-11.03 11.271-3.58 3.588-6.83 6.581-9.74 8.978-2.05 1.873-4.87 4.446-8.46 7.684a592.485 592.485 0 0 1-10.51 9.748 931.461 931.461 0 0 1-9.229 8.209c-2.564 2.38-4.017 3.588-4.36 3.588l-11.793-10.011c1.539 0 3.077-.333 4.616-1.015a48.796 48.796 0 0 0 4.102-2.311c10.255-6.843 19.484-14.701 27.684-23.593 8.38-8.873 16.58-18.447 24.62-28.703.34-.525 1.19-1.977 2.56-4.358 1.54-2.573 3.16-5.39 4.87-8.471 1.71-3.238 3.42-6.406 5.13-9.486 1.71-3.241 2.99-5.805 3.84-7.685 1.03-2.223 1.63-4.017 1.8-5.384.34-1.367.6-2.392.77-3.076.34-.855.85-1.453 1.54-1.794.68-.343 2.13-.513 4.35-.513.35 0 1.12.084 2.31.255 1.37.172 2.22.342 2.57.513 2.22 4.615 4.18 8.718 5.89 12.306 1.71 3.59 3.16 7.006 4.36 10.261a45.701 45.701 0 0 1 2.57 9.486c.68 3.238 1.02 6.826 1.02 10.764a360.509 360.509 0 0 1-7.43 17.432c-2.74 5.811-5.05 11.359-6.93 16.662s-3.07 10.081-3.59 14.352c-.34 4.288.6 7.7 2.82 10.256 2.4 2.398 6.33 3.675 11.8 3.85 5.64.175 13.59-1.277 23.84-4.358 2.74 1.365 2.99 3.081.77 5.128-2.22 1.873-5.64 3.676-10.25 5.391-4.45 1.698-9.41 3.15-14.88 4.358-5.29 1.015-9.74 1.278-13.33.77-3.24 0-5.98-.525-8.2-1.54-2.05-1.208-3.76-2.73-5.13-4.621-1.19-1.872-2.14-4.008-2.82-6.405a35.585 35.585 0 0 1-.77-7.439z"/><path d="M1093.75 186.118c-2.9-6.493-4.19-12.812-3.84-18.972.34-6.318 1.7-12.217 4.1-17.677 2.56-5.654 5.81-10.694 9.74-15.14 4.1-4.603 8.46-8.541 13.08-11.796 4.61-3.413 9.22-5.968 13.84-7.683 4.78-1.716 8.97-2.398 12.56-2.048 3.59.175 6.41 1.453 8.46 3.85 2.05 2.381 2.74 6.056 2.05 11.009 0 6.668-2.13 12.479-6.41 17.45a84.633 84.633 0 0 1-13.84 13.319 755.774 755.774 0 0 1-13.85 10.763c-4.1 3.081-6.15 5.986-6.15 8.734 0 1.523.86 2.73 2.57 3.588 1.87.84 4.01 1.522 6.4 2.047 2.4.333 4.79.596 7.18.771 2.4.175 4.11.332 5.13.507 16.07-3.413 28.12-5.46 36.15-6.16 8.03-.841 13.08-.753 15.13.262 2.05.858 1.62 2.31-1.29 4.358-2.73 1.89-7 3.938-12.81 6.161-5.81 2.048-12.57 3.92-20.26 5.635-7.69 1.716-15.3 2.731-22.82 3.081-7.52.175-14.52-.595-21.02-2.311-6.32-1.715-11.02-4.953-14.1-9.748zm44.87-58.457c-3.42 0-6.67.945-9.75 2.835-3.07 1.873-5.89 4.271-8.46 7.176-2.39 2.731-4.44 5.811-6.15 9.224-1.71 3.255-2.99 6.318-3.84 9.223.34.175.59.263.76.263h.77c2.4 0 5.13-1.033 8.21-3.08 3.07-2.048 5.98-4.533 8.71-7.439 2.74-3.063 5.05-6.231 6.93-9.486 1.88-3.238 2.82-6.143 2.82-8.716z"/></g></svg>