<svg width="908" height="1061" fill="none" version="1.1" viewBox="0 0 908 1061" xmlns="http://www.w3.org/2000/svg">
 <path d="m675.02 356.89c-32.033-10.919-40.706-52.46-15.681-75.107 17.588-15.916 45.627-15.112 61.588 1.765 15.209 16.082 16.935 39.987 4.135 57.301-4.159 5.626-10.437 11.109-15.898 13.887-9.767 4.968-23.369 5.826-34.144 2.153v1e-3z" fill="#F76B62"/>
 <path d="m414.14 799.81c-27.401-4.258-42.338-10.721-64.195-27.779-1.588-1.239-1.592-2.425-0.076-18.822 2.42-26.181 2.407-98.295-0.023-122-2.83-27.604-7.751-57.747-10.685-65.45-0.618-1.623-2.443-10.623-4.054-20-1.612-9.378-4.995-25.6-7.517-36.05s-5.28-22.15-6.129-26c-2.899-13.149-12.384-40.108-21.699-61.678-2.9-6.716-26.367-50.487-36.746-68.538-10.44-18.158-12.799-21.827-12.785-25.486 5e-3 -1.411 0.363-2.82 0.747-5.058 1.37-7.993 2.834-11.148 7.015-15.122 6.369-6.055 17.504-6.485 28.147-1.087 5.928 3.006 9.195 6.604 13.025 14.345 1.736 3.507 8.349 15.207 14.696 26 38.793 65.968 58.076 95.603 71.119 109.31 10.92 11.474 22.796 19.476 34.695 23.376 7.723 2.531 10.421 2.927 19.466 2.861 6.502-0.047 12.974-0.731 17-1.796 9.423-2.492 25.21-10.61 35-17.999 10.692-8.07 76.577-74.449 87.473-88.127 14.744-18.513 20.228-24.22 25.037-26.057 10.397-3.97 23.139 2.699 28.547 14.941 3.922 8.879 2.399 12.662-14.54 36.116-22.496 31.147-71.052 106.36-78.433 121.5-1.475 3.025-4.347 8.096-6.382 11.27-2.034 3.173-3.702 6.323-3.706 7s-0.909 2.58-2.013 4.23c-1.934 2.891-6.744 12.325-8.923 17.5-0.579 1.375-1.433 3.175-1.899 4-2.322 4.112-3.158 6.113-3.158 7.558 0 0.872-1.074 3.466-2.386 5.764-4.599 8.052-11.142 31.756-14.127 51.179-0.903 5.875-1.938 23.404-2.509 42.5-0.535 17.875-1.423 41.726-1.974 53.001-0.55 11.275-1.002 22.019-1.003 23.875-1e-3 3.204-0.15 3.345-2.952 2.784-1.624-0.324-12.086-4.837-23.251-10.028-23.776-11.055-29.771-13.018-37.946-12.427-9.648 0.698-14.95 6.011-15.649 15.684-1.081 14.945 9.627 30.737 26.298 38.781 3.85 1.858 11.388 4.737 16.75 6.397 5.363 1.661 9.75 3.412 9.75 3.893 0 0.913-5.659 3.194-12.5 5.037-6.421 1.731-28.008 2.079-37.5 0.604h-5e-3z" fill="url(#paint0_linear_19_473)"/>
 <path d="m428.48 461.82c-8.899-2.91-16.709-9.809-20.515-18.121-1.811-3.953-2.292-6.778-2.299-13.5-8e-3 -7.436 0.358-9.226 2.933-14.307 8.31-16.402 28.298-22.987 44.572-14.685 15.043 7.674 21.611 27 14.526 42.739-3.246 7.21-9.398 13.414-16.366 16.504-5.838 2.588-17.066 3.261-22.851 1.369v1e-3z" fill="url(#paint0_linear_19_473)"/>
 <path d="m431.16 334.64c-19.528-4.21-35.288-18.277-42.795-38.2-2.211-5.869-2.546-8.359-2.585-19.241-0.043-11.836 0.129-12.938 3.23-20.726 9.843-24.716 33.145-39.746 58.719-37.879 24.801 1.812 45.842 18.754 52.834 42.539 2.052 6.98 2.109 23.681 0.107 31.365-7.852 30.146-38.623 48.801-69.51 42.142zm2.751-1.102c0.687-0.278 1.812-0.278 2.5 0 0.687 0.277 0.125 0.504-1.25 0.504s-1.938-0.227-1.25-0.504zm17 0c0.687-0.278 1.812-0.278 2.5 0 0.687 0.277 0.125 0.504-1.25 0.504-1.376 0-1.938-0.227-1.25-0.504zm-20.938-1.021c0.722-0.289 1.585-0.253 1.917 0.079s-0.258 0.569-1.313 0.525c-1.165-0.048-1.401-0.285-0.604-0.604zm27 0c0.722-0.289 1.585-0.253 1.917 0.079s-0.258 0.569-1.312 0.525c-1.165-0.048-1.402-0.285-0.605-0.604zm9.688-3.286c0.55 0 0.325 0.436-0.5 0.969s-1.95 0.969-2.5 0.969-0.325-0.436 0.5-0.969 1.95-0.969 2.5-0.969zm9.5-4.694c0 0.275-1.516 1.437-3.368 2.581-2.736 1.691-6.147 3.007-4.549 1.756 1.699-1.331 7.917-4.737 7.917-4.337zm-62.999 0.282c2.2 1.456 4 2.812 4 3.014s-0.12 0.367-0.268 0.367c-0.612 0-7.732-5.111-7.732-5.55 0-0.263 1.8 0.713 4 2.169zm68.81-5.619c0.275 0-0.315 0.9-1.31 2-0.996 1.1-2.035 2-2.31 2s0.314-0.9 1.31-2c0.995-1.1 2.035-2 2.31-2zm-79.059-2.538c2.887 2.73 5.25 5.092 5.25 5.25 0 0.746-0.927-0.084-5.538-4.962l-4.962-5.25 5.25 4.962zm82.001 0.41c1.586-1.244 1.621-1.208 0.378 0.378-1.307 1.665-2.128 2.195-2.128 1.372 0-0.207 0.788-0.995 1.75-1.75zm12.227-18.512c0.013 0.473-1.369 3.471-3.07 6.663s-4.289 6.854-5.75 8.14l-2.657 2.337 2.272-2.588c1.25-1.424 3.827-5.474 5.728-9 1.9-3.527 3.466-6.025 3.477-5.552zm-102.09 8.073c0.604 0.373 1.567 1.553 2.139 2.623 1.52 2.839 0.483 2.376-1.518-0.679-0.946-1.443-1.225-2.318-0.621-1.944zm-4.267-6.972c-0.965-2.514-0.68-3.163 0.498-1.136 0.586 1.004 0.851 2.036 0.594 2.293-0.258 0.258-0.749-0.263-1.092-1.157zm107.46-6.044c0.048-1.165 0.285-1.402 0.604-0.605 0.289 0.722 0.253 1.585-0.079 1.917s-0.569-0.258-0.525-1.312zm-110-2c0.047-1.165 0.284-1.402 0.604-0.605 0.288 0.722 0.253 1.585-0.079 1.917s-0.569-0.258-0.525-1.312zm111-2c0.048-1.165 0.285-1.402 0.605-0.605 0.288 0.722 0.253 1.585-0.079 1.917-0.333 0.332-0.569-0.258-0.526-1.312zm-111.92-2.417c0-1.375 0.227-1.938 0.504-1.25 0.278 0.687 0.278 1.812 0 2.5-0.277 0.687-0.504 0.125-0.504-1.25zm113.04-3.5c0.02-1.65 0.244-2.204 0.498-1.231 0.253 0.973 0.237 2.323-0.037 3s-0.48-0.119-0.461-1.769zm-113.91-7c7e-3 -2.75 0.202-3.757 0.431-2.236h2e-3c0.228 1.52 0.222 3.77-0.015 5-0.238 1.23-0.426-0.014-0.418-2.764zm113.95-6.5c0-1.925 0.205-2.713 0.457-1.75 0.252 0.962 0.252 2.537 0 3.5-0.252 0.962-0.457 0.175-0.457-1.75zm-113.07-3c0-1.375 0.227-1.938 0.504-1.25 0.278 0.687 0.278 1.812 0 2.5-0.277 0.687-0.504 0.125-0.504-1.25zm110.26-8.668c-0.547-1.742-0.518-1.744 0.571-0.044 0.632 0.983 0.925 2.333 0.655 3-0.355 0.875-0.514 0.887-0.571 0.044-0.044-0.643-0.338-1.993-0.655-3zm-1.801-3.871c-0.965-2.514-0.68-3.163 0.499-1.136 0.586 1.004 0.851 2.036 0.593 2.293-0.257 0.258-0.749-0.263-1.092-1.157zm-3.193-7.461c0.275 0 0.981 0.9 1.57 2s0.845 2 0.57 2-0.981-0.9-1.57-2-0.846-2-0.57-2zm-93.795-5c0.275 0-0.462 1.35-1.637 3s-2.361 3-2.636 3 0.461-1.35 1.636-3 2.361-3 2.637-3zm89.112-1.595c1.238 1.048 2.25 2.061 2.25 2.25 0 0.801-0.804 0.21-2.595-1.905l-1.905-2.25 2.25 1.905zm-80.842-7.405c0.275 0-1.258 1.8-3.406 4s-4.131 4-4.406 4 1.258-1.8 3.406-4 4.131-4 4.406-4zm72.843-0.563c1.787 1.616 3.25 3.078 3.25 3.25 0 0.773-0.825 0.093-3.563-2.937l-2.937-3.25 3.25 2.937zm-67.939-3.437c0.275 0-0.315 0.9-1.31 2-0.996 1.1-2.035 2-2.31 2s0.314-0.9 1.31-2c0.995-1.1 2.035-2 2.31-2zm61.939-1.02c1.238 0.6 2.25 1.3 2.25 1.556 0 0.765-0.518 0.544-2.559-1.091-1.864-1.493-1.852-1.512 0.309-0.465zm-60.75 0.528c0-0.678 8.122-4.718 8.575-4.266 0.209 0.21-1.634 1.36-4.097 2.557-2.463 1.196-4.478 1.965-4.478 1.709zm12.812-6.191c0.722-0.289 1.585-0.253 1.917 0.079s-0.258 0.569-1.312 0.526c-1.165-0.048-1.402-0.285-0.605-0.605zm4-1c0.722-0.289 1.585-0.253 1.917 0.079 0.332 0.333-0.258 0.569-1.313 0.525-1.165-0.047-1.402-0.284-0.604-0.604zm27 0c0.722-0.289 1.585-0.253 1.917 0.079 0.332 0.333-0.258 0.569-1.312 0.525-1.165-0.047-1.402-0.284-0.605-0.604zm-23.062-0.979c0.687-0.277 1.812-0.277 2.5 0 0.687 0.278 0.125 0.505-1.25 0.505s-1.938-0.227-1.25-0.505zm17 0c0.687-0.277 1.812-0.277 2.5 0 0.687 0.278 0.125 0.505-1.25 0.505s-1.938-0.227-1.25-0.505z" clip-rule="evenodd" fill="url(#paint2_linear_19_473)" fill-rule="evenodd"/>
 <path d="m280.14 864.38c0-0.451-6.638-2.227-14.75-3.947-8.113-1.719-28.799-6.296-45.971-10.169-38.335-8.648-46.318-10.065-56.662-10.058-18.579 0.011-27.091 6.983-18.133 14.848 7.08 6.216 16.952 7.394 75.514 9.011 42.12 1.163 60 1.257 60 0.315h2e-3z" fill="url(#paint3_linear_19_473)"/>
 <path d="m269.14 852.79c0-0.229-7.988-4.559-17.75-9.624-76.577-39.727-79.975-41.231-93.468-41.371-7.665-0.079-8.978 0.171-10.881 2.069-2.631 2.625-2.105 5.758 1.731 10.317 5.433 6.458 11.528 8.637 78.369 28.022 33.869 9.823 41.998 11.872 41.998 10.587h1e-3z" fill="url(#paint3_linear_19_473)"/>
 <path d="m719.15 538.61c-14.89-5.299-19.209-23.739-8.214-35.069 8.161-8.409 21.317-8.426 30.042-0.039 4.265 4.1 6.172 8.689 6.172 14.854 0 14.843-14.247 25.148-28 20.254z" fill="url(#paint5_linear_19_473)"/>
 <path d="m645.67 619.74c6.307-3.086 13.842-10.876 16.751-17.317 3.352-7.424 3.075-18.869-0.654-26.952-8.311-18.012-29.426-24.985-46.919-15.495-14.953 8.111-21.383 27.29-14.329 42.739 4.377 9.584 12.184 16.528 21.583 19.194 6.714 1.905 17.221 0.938 23.569-2.168l-1e-3 -1e-3z" fill="url(#paint6_linear_19_473)"/>
 <path d="m223.32 628.46c6.284-2.786 13.435-9.56 16.585-15.711 3.693-7.211 4.261-18.847 1.303-26.688-2.947-7.813-8.78-14.095-16.711-18-5.693-2.802-7.568-3.221-14.428-3.221-7.011 0-8.629 0.381-14.603 3.434-26.635 13.614-23.496 52.233 5.003 61.554 5.785 1.892 17.014 1.219 22.852-1.369l-1e-3 1e-3z" fill="url(#paint7_linear_19_473)"/>
 <path d="m498.13 912.74c23.636-2.523 47.939-6.559 64.501-10.71 25.593-6.415 58.205-17.789 85.535-29.831 13.651-6.016 21.513-9.935 32.484-16.191 1.64-0.935 4.783-2.683 6.983-3.883 7.758-4.231 33.583-21.894 43.166-29.523 25.751-20.501 46.798-41.189 77.986-76.66 18.254-20.76 21.763-25.634 32.684-45.4 49.864-90.244 71.891-190.57 62.094-282.84-2.562-24.131-7.332-50.959-12.001-67.499-0.854-3.025-2.171-7.975-2.927-10.999-6.062-24.264-25.892-71.316-41.681-98.896-32.175-56.209-75.617-105.78-126.82-144.74-25.104-19.095-44.871-31.335-75.5-46.753-21.008-10.576-29.585-14.214-52.501-22.272-29.654-10.427-50.011-15.343-87.001-21.009-16.603-2.543-19.473-2.6843-56.001-2.7572-40.302-0.08037-48.892 0.57879-79 6.0612-48.805 8.8868-101.45 29.289-145.5 56.379-10.555 6.4928-33.067 21.959-39.998 27.48-51.757 41.22-89.67 84.911-120.39 138.72-5.427 9.507-11.978 21.785-14.558 27.285-2.5801 5.5-5.1561 10.855-5.7245 11.9-4.8639 8.942-16.49 39.961-22.246 59.354-20.674 69.649-24.708 138.97-12.177 209.25 2.8342 15.895 3.7436 20.262 4.7656 22.882 0.5614 1.44 1.6718 5.076 2.4676 8.08 3.8944 14.706 22.387 55.064 30.694 66.989 6.7098 9.631 14.424 18.851 22.004 26.3 11.119 10.927 11.735 10.465 3.6663-2.75-25.115-41.136-42.576-86.706-49.425-129-6.7562-41.726-5.7399-97.153 2.5392-138.5 1.3078-6.531 5.4856-26.434 7.0322-33.5 6.2547-28.577 17.933-57.426 34.208-84.499 4.7044-7.826 17.108-25.833 18.598-27 0.3511-0.275 1.7138-2.075 3.0281-4 11.304-16.556 54.505-59.508 80.516-80.054 21.176-16.726 40.127-28.639 65.998-41.484 61.001-30.289 123.06-44.47 194.5-44.444 59.887 0.0216 119.7 12.884 176.5 37.958 52.101 22.998 100.21 59.664 133.88 102.02 15.971 20.097 17.442 22.223 32.02 46.269 16.353 26.974 35.693 75.711 44.931 113.23 6.619 26.88 8.574 40.165 9.359 63.575 0.701 20.921-0.434 33.41-5.15 56.648-10.067 49.614-21.91 85.546-41.125 124.78-6.996 14.283-16.72 30.969-24.893 42.716-6.119 8.794-18.305 23.515-27.02 32.642-30.353 31.785-71.368 53.098-121.5 63.129-20.854 4.174-31.107 5.116-61.999 5.698-47.974 0.904-48.571 0.759-102.86-24.907-2.43-1.149-7.296-2.269-11-2.532-5.782-0.41-6.883-0.205-8.493 1.581-4.157 4.611-0.938 16.484 6.753 24.915 6.396 7.01 12.261 10.115 30.097 15.934 25.472 8.309 41.499 20.954 41.499 32.74 0 7.334-2.08 10.749-10.302 16.915-11.762 8.82-40.018 16.62-73.077 20.172-22.18 2.384-57.498 1.741-69.619-1.268-12.462-3.093-27.418-10.032-49.002-22.733-28.131-16.557-88.221-47.346-97.878-50.154-7.437-2.162-17.14-1.4-24.38 1.914-6.236 2.855-9.044 6.257-8.563 10.375 0.467 4.006 4.41 5.865 19.883 9.374 7.392 1.677 17.714 4.626 22.939 6.553 12.051 4.446 35.531 16.003 44.001 21.657 11.19 7.47 20.261 13.927 27.001 19.221 3.575 2.808 7.443 5.77 8.595 6.582 1.153 0.812 7.228 5.341 13.5 10.064 23.332 17.57 40.743 27.666 62.763 36.391 15.902 6.302 37.559 11.489 56.141 13.448 5.775 0.608 12.075 1.284 14 1.502 7.289 0.825 47.093-0.414 61.002-1.898v1e-3z" fill="url(#paint3_linear_19_473)"/>
 <path d="m516.98 912.94-6.678 0.708c-20.565 2.181-26.412 2.604-44.262 3.202-39.292 1.317-72.896-4.123-104.42-16.903-21.085-8.549-37.671-18.845-72-44.697-26.431-19.904-36.385-26.744-49.001-33.676-17.774-9.765-33.579-15.731-54.002-20.382-11.148-2.539-18.868-5.941-20.531-9.048-2.826-5.281 2.575-12.132 12.486-15.84 6.409-2.398 14.715-2.721 22.685-0.881 8.725 2.014 59.55 27.667 92.36 46.617 32.834 18.964 44.447 24.27 59.751 27.3 9.128 1.808 12.933 1.977 34.751 1.55 40.788-0.798 72.933-6.515 93.502-16.629 30.32-14.91 20.404-35.518-24.58-51.08-18.628-6.444-21.899-8.215-28.878-15.631-6.532-6.941-9.043-12.77-9.043-20.989 0-5.754 2.393-9.268 6.439-9.458 9.311-0.438 14.084 0.943 30.561 8.838 39.5 18.927 43.703 19.833 87.999 18.945 28.739-0.576 40.739-1.686 61.5-5.688 33.459-6.45 63.115-18.248 88.551-35.23 15.135-10.105 25.594-19.222 38.438-33.506 41.59-46.257 71.399-113.23 88.017-197.76 5.206-26.477 5.744-53.655 1.607-81.102-5.699-37.802-22.803-90.156-41.699-127.64-25.65-50.876-63.977-95.939-108.3-127.32-20.878-14.784-30.611-20.692-50.616-30.723-27.094-13.585-67.4-28.493-88.501-32.731-2.475-0.4972-9.45-2.0489-15.5-3.4482-70.409-16.285-158.61-11.221-229.5 13.177-43.517 14.978-81.293 35.061-113.99 60.604-25.185 19.676-57.865 51.092-76.385 73.437-5.9803 7.214-11.605 14.195-12.5 15.514-31.311 46.152-42.52 71.936-53.019 121.97-8.6895 41.405-11.788 71.954-10.776 106.26 2.0285 68.81 16.917 117.11 56.867 184.47 10.097 17.026 9.3853 17.941-4.4062 5.662-15.141-13.481-25.782-27.041-35.806-45.63-23.038-42.728-32.686-78.263-37.058-136.5-1.4165-18.87-0.67766-53.083 1.6088-74.498 13.853-129.77 80.035-246.57 184.96-326.44 4.95-3.7679 15.975-11.441 24.5-17.052 59.58-39.213 127.39-63.043 198-69.577 18.482-1.7104 63.636-1.4267 80.001 0.50275 22.144 2.6106 27.983 3.4568 39.001 5.6519 79.313 15.802 150.61 50.211 212 102.32 29.593 25.117 53.144 50.242 76.373 81.487 44.024 59.206 74.468 131.4 85.021 201.61 4.165 27.715 4.996 39.028 5.03 68.501 0.034 28.459-0.278 33.373-3.972 62.626-5.148 40.766-20.867 95.294-39.024 135.38-12.515 27.628-31.281 62.011-38.426 70.406-36.482 42.863-66.565 73.122-94.998 95.557-43.745 34.513-104.26 62.895-167.5 78.558-14.912 3.693-42.998 9.22-46.649 9.22zm45.644-10.916c-16.562 4.151-40.865 8.187-64.501 10.71v-1e-3c-13.909 1.484-53.713 2.723-61.002 1.898-1.925-0.218-8.225-0.894-14-1.502-18.582-1.959-40.239-7.146-56.141-13.448-22.02-8.725-39.431-18.821-62.763-36.391-6.272-4.723-12.347-9.252-13.5-10.064-1.152-0.812-5.02-3.774-8.595-6.582-6.74-5.294-15.811-11.751-27.001-19.221-8.47-5.654-31.95-17.211-44.001-21.657-5.225-1.927-15.547-4.876-22.939-6.553-15.473-3.509-19.416-5.368-19.883-9.374-0.481-4.118 2.327-7.52 8.563-10.375 7.24-3.314 16.943-4.076 24.38-1.914 9.657 2.808 69.747 33.597 97.878 50.154 21.584 12.701 36.54 19.64 49.002 22.733 12.121 3.009 47.439 3.652 69.619 1.268 33.059-3.552 61.315-11.352 73.077-20.172 8.222-6.166 10.302-9.581 10.302-16.915 0-11.786-16.027-24.431-41.499-32.74-17.836-5.819-23.701-8.924-30.097-15.934-7.691-8.431-10.91-20.304-6.753-24.915 1.61-1.786 2.711-1.991 8.493-1.581 3.704 0.263 8.57 1.383 11 2.532 54.285 25.666 54.882 25.811 102.86 24.907 30.892-0.582 41.145-1.524 61.999-5.698 50.132-10.031 91.147-31.344 121.5-63.129 8.715-9.127 20.901-23.848 27.02-32.642 8.173-11.747 17.897-28.433 24.893-42.716 19.215-39.231 31.058-75.163 41.125-124.78 4.716-23.238 5.851-35.727 5.15-56.648-0.785-23.41-2.74-36.695-9.359-63.575-9.238-37.52-28.578-86.257-44.931-113.23-14.578-24.046-16.049-26.172-32.02-46.269-33.668-42.361-81.778-79.027-133.88-102.02-56.802-25.073-116.61-37.936-176.5-37.958-71.437-0.0264-133.5 14.154-194.5 44.444-25.871 12.845-44.822 24.758-65.998 41.484-26.011 20.546-69.212 63.498-80.516 80.054-1.3143 1.925-2.677 3.725-3.0281 4-1.4902 1.167-13.894 19.174-18.598 27-16.274 27.073-27.953 55.922-34.208 84.499-1.5466 7.066-5.7244 26.969-7.0322 33.5-8.2791 41.348-9.2954 96.775-2.5392 138.5 6.8486 42.293 24.31 87.863 49.425 129 8.0687 13.215 7.453 13.677-3.6663 2.75-7.5803-7.449-15.295-16.669-22.004-26.3-8.307-11.925-26.8-52.283-30.694-66.989-0.7958-3.004-1.9062-6.64-2.4676-8.08-1.022-2.62-1.9314-6.987-4.7656-22.882-12.531-70.277-8.4968-139.6 12.177-209.25 5.7566-19.393 17.382-50.412 22.246-59.354 0.5684-1.045 3.1444-6.4 5.7245-11.9 2.5803-5.5 9.1313-17.778 14.558-27.285 30.72-53.805 68.633-97.496 120.39-138.72 6.931-5.5211 29.443-20.987 39.998-27.48 44.047-27.09 96.696-47.492 145.5-56.379 30.108-5.4824 38.698-6.1416 79-6.0612 36.528 0.07287 39.398 0.21418 56.001 2.7572 36.99 5.6655 57.347 10.582 87.001 21.009 22.916 8.0576 31.493 11.696 52.501 22.272 30.629 15.418 50.396 27.658 75.5 46.753 51.205 38.952 94.647 88.528 126.82 144.74 15.789 27.58 35.619 74.632 41.681 98.896 0.756 3.024 2.073 7.974 2.927 10.999 4.669 16.54 9.439 43.368 12.001 67.499 9.797 92.27-12.23 192.59-62.094 282.84-10.921 19.766-14.43 24.64-32.684 45.4-31.188 35.471-52.235 56.159-77.986 76.66-9.583 7.629-35.408 25.292-43.166 29.523-2.2 1.2-5.343 2.948-6.983 3.883-10.971 6.256-18.833 10.175-32.484 16.191-27.33 12.042-59.942 23.416-85.535 29.831z" clip-rule="evenodd" fill="url(#paint3_linear_19_473)" fill-rule="evenodd"/>
 <path d="m318.25 500.03c-9.177 15.787-16.586 32.125-24.683 54.436-18.749 51.663-38.222 83.256-57.248 92.886-6.542 3.311-6.768 3.349-19.154 3.178-16.205-0.223-31.105-3.913-47.754-11.826-16.978-8.07-25.483-13.495-57.691-36.803-16-11.578-30.621-21.956-32.491-23.062-7.8686-4.654-21.365-1.556-26.566 6.099-3.3267 4.895-3.1676 8.394 0.7396 16.261 2.9786 5.999 4.34 7.366 17.726 17.799 10.014 7.804 22.506 19.254 40.373 37.003 23.598 23.441 27.259 27.553 41.616 46.742 18.086 24.172 19.593 26.375 32.765 47.856l9.748 15.898 6.998 1.9c12.058 3.273 58.673 26.855 99.496 50.336 22.177 12.754 29.276 16.469 31.467 16.469 0.087 0 0.171 1e-3 0.25 2e-3 0.418 5e-3 0.727 9e-3 0.912-0.141 0.528-0.424 0.06-2.086-1.737-8.469l-0.029-0.102-0.35-1.245c-8.548-30.403-16.228-121.13-13.616-160.85 1.745-26.549 6.465-53.757 13.96-80.467 2.997-10.682 4.352-14.995 5.398-14.796l-17.397-73.393c-0.875 1.312-1.868 2.802-2.734 4.292z" fill="url(#paint7_linear_19_473)"/>
 <path d="m512.09 580.78c1.65 1.692 8.902 42.35 12.205 68.429 0.777 6.138 1.314 20.053 1.293 33.499-0.041 24.918-1.066 33.139-7.525 60.325-1.642 6.913-2.761 13.156-2.486 13.872 0.392 1.023 5.741 1.302 24.782 1.294 32.795-0.011 54.436-2.484 80.281-9.167 11.224-2.902 28.382-8.62 32.529-10.838 1.935-1.036 5.975-6.622 23.495-32.485 5.962-8.8 13.084-18.925 15.827-22.5 12.231-15.937 40.97-49.107 58.485-67.499 6.285-6.599 12.266-13.35 13.291-15 3.46-5.566 1.667-16.454-3.634-22.075-2.739-2.904-3.908-3.425-7.684-3.425-8.252 0-12.852 2.478-27.97 15.07-7.887 6.568-17.66 14.302-21.717 17.186-4.056 2.884-13.282 9.616-20.5 14.958-14.643 10.839-29.904 19.315-38.456 21.361-12.777 3.055-30.132 0.885-43.113-5.39-6.59-3.185-18.949-15.059-24.445-23.484-10.122-15.519-18.433-34.792-28.658-66.46-3.329-10.308-6.48-19.776-7.002-21.039s-0.95-3.252-0.95-4.418l-28.048 57.786z" fill="url(#paint6_linear_19_473)"/>
 <path d="m161.6 360.23c9.32-4.731 17.277-13.507 20.565-22.682 3.667-10.231 3.327-21.493-0.918-30.478-7.817-16.545-22.29-25.688-38.971-24.619-22.969 1.471-39.125 18.294-39.125 40.739 0 17.548 9.877 32.131 26.081 38.506 5.565 2.19 7.697 2.487 16.03 2.238 8.658-0.259 10.278-0.626 16.341-3.703l-3e-3 -1e-3z" fill="url(#paint12_linear_19_473)"/>
 <path d="m157.6 862.2c3.284 0.678 23.268 1.788 44.5 2.472h2e-3c49.496 1.596 83.036 1.823 83.036 0.563 0-1.353-2.813-2.653-7.5-3.464-5.032-0.871-28.417-6.002-39.001-8.558-4.4-1.063-17.45-3.989-29-6.503s-23.025-5.062-25.5-5.662c-7.046-1.708-28.008-2.285-33.671-0.927-17.316 4.155-12.858 17.952 7.134 22.079zm107.79-1.767c8.112 1.72 14.75 3.496 14.75 3.947h-2e-3c0 0.942-17.88 0.848-60-0.315-58.562-1.617-68.434-2.795-75.514-9.011-8.958-7.865-0.446-14.837 18.133-14.848 10.344-7e-3 18.327 1.41 56.662 10.058 17.172 3.873 37.858 8.45 45.971 10.169zm-33.75-15.689c12.65 3.681 26.6 7.738 31 9.015h3e-3c4.4 1.276 8.675 2.23 9.5 2.117 4.229-0.574 0.045-3.706-15.499-11.6-9.349-4.748-28.924-14.767-43.499-22.265-36.478-18.764-42.038-20.985-54.002-21.568-8.646-0.421-9.747-0.266-12.25 1.72-3.429 2.722-3.588 6.495-0.467 11.139 4.57 6.801 13.936 10.87 46.715 20.294 8.524 2.451 25.849 7.468 38.499 11.148zm19.75-1.583c9.762 5.065 17.75 9.395 17.75 9.624h-1e-3c0 1.285-8.129-0.764-41.998-10.587-66.841-19.385-72.936-21.564-78.369-28.022-3.836-4.559-4.362-7.692-1.731-10.317 1.903-1.898 3.216-2.148 10.881-2.069 13.493 0.14 16.891 1.644 93.468 41.371zm53.251-21.61c6.6 3.889 15.825 8.987 20.5 11.329l-7e-3 5e-3c8.086 4.051 12.019 5.222 11.985 3.57-9e-3 -0.412-1.118-4.3-2.466-8.639-4.868-15.67-8.544-41.821-13.017-92.61-1.448-16.437-2.231-54.836-1.418-69.502 1.271-22.938 6.62-56.173 11.901-73.95 0.988-3.328 2.588-9.089 3.554-12.802 0.623-2.393 1.893-7.186 2.716-9.823 0.622 0.118 1.135 1.829 1.818 4.745 1.218 5.195 2.495 12.275 3.728 20.424 2.051 17.615 4.113 40.686 5.282 58.903 1.453 22.666 0.669 74.245-1.505 99.001-0.845 9.625-1.546 18.046-1.558 18.713-0.011 0.667 2.792 3.107 6.229 5.422 3.438 2.316 8.901 6.232 12.14 8.704 7.219 5.508 15.437 8.929 31.11 12.952 22.018 5.65 45.123 6.698 58.5 2.652 18.335-5.545 17.908-7.039-4-13.984-15.96-5.058-27.597-13.808-32.983-24.799-3.867-7.892-4.902-16.605-2.621-22.066 0.897-2.145 1.405-4.125 1.13-4.4s-1.234 1.256-2.13 3.401c-4.165 9.968 0.941 24.815 12.136 35.287 7.978 7.463 9.559 8.311 26.468 14.191 8.25 2.869 13.5 5.214 13.5 6.03 0 1.706-7.925 4.67-17.338 6.484-18.134 3.494-45.877-0.097-69.532-9.002-4.15-1.562-10.944-5.554-17.155-10.08-5.655-4.122-10.966-7.756-11.801-8.077-0.835-0.32-1.763-1.221-2.062-2.001-0.3-0.78 0.145-9.408 0.988-19.172 2.162-25.055 2.936-76.6 1.491-99.255-1.227-19.223-3.657-41.502-6.289-58.904-1.807-15.518-3.604-26.802-4.773-26.802 0-0.62-0.319 0.179-0.773 1.633-1.046-0.199-2.401 4.114-5.398 14.796-7.495 26.71-12.215 53.918-13.96 80.467-2.612 39.726 5.068 130.45 13.616 160.85l0.35 1.245 0.029 0.102c1.797 6.383 2.265 8.045 1.737 8.469-0.185 0.15-0.494 0.146-0.912 0.141-0.079-1e-3 -0.163-2e-3 -0.25-2e-3 -2.191 0-9.29-3.715-31.467-16.469-40.823-23.481-87.438-47.063-99.496-50.336l-6.998-1.9-9.748-15.898c-13.172-21.481-14.679-23.684-32.765-47.856-14.357-19.189-18.018-23.301-41.616-46.742-17.867-17.749-30.36-29.199-40.373-37.003-13.386-10.433-14.748-11.8-17.726-17.799-3.9072-7.867-4.0663-11.366-0.7396-16.261 5.201-7.655 18.697-10.753 26.566-6.099 1.8701 1.106 16.491 11.484 32.491 23.062 32.208 23.308 40.713 28.733 57.691 36.803 16.649 7.913 31.549 11.603 47.754 11.826 12.386 0.171 12.612 0.133 19.154-3.178 19.026-9.63 38.499-41.223 57.248-92.886 8.097-22.311 15.506-38.649 24.683-54.436 0.866-1.49 1.859-2.98 2.734-4.292 1.281-1.921 2.308-3.46 2.308-4.06 0-4.085-8.601-28.731-14.883-45.323-9.048-23.906-30.188-65.303-53.17-104.12-5.347-9.032-5.604-9.781-5.534-16.129 0.199-18.058 13.7-28.24 30.427-22.946 10.366 3.28 15.216 7.527 20.414 17.877 4.307 8.58 21.473 38.145 39.859 68.656 12.784 21.21 34.583 53.831 41.11 61.515 8.266 9.731 19.042 18.447 29.118 23.55 27.511 13.935 57.341 7.118 89.238-20.392 2.881-2.484 5.01-4.744 4.732-5.022s-2.185 1.099-4.237 3.061c-11.982 11.451-29.925 22.064-43.801 25.906-9.373 2.596-23.163 3.029-31.432 0.988-20.876-5.155-37.548-19.363-57.622-49.111-17.704-26.234-57.024-91.379-66.343-109.91-5.546-11.031-12.146-16.293-23.912-19.063-8.374-1.972-15.135-0.092-21.053 5.851-4.928 4.948-6.842 9.548-7.788 18.707-0.045 0.441-0.095 0.832-0.141 1.191-0.081 0.642-0.15 1.182-0.159 1.724-0.048 2.9 1.619 5.828 12.212 24.434l0.026 0.045c1.102 1.936 2.301 4.042 3.604 6.334 12.804 22.526 31.091 57.08 35.039 66.21 9.549 22.084 22.138 59.313 22.138 65.469 0 0.983-1.6 4.429-3.554 7.658-8.33 13.762-18.374 36.127-26.61 59.252-6.714 18.852-21.388 49.926-29.546 62.566-10.034 15.548-20.646 24.857-32.148 28.2-4.675 1.359-7.135 1.425-17.273 0.463-15.979-1.517-26.728-4.449-42.259-11.527-15.587-7.101-25.874-13.931-79.612-52.853-6.3163-4.574-12.303-8.087-15.025-8.814-9.7259-2.599-19.78 1.637-24.508 10.324l-2.6488 4.867 6.4052 15.89 16.139 12.647c11.097 8.698 23.427 19.864 39.477 35.753 25.538 25.278 27.486 27.525 47.335 54.602 13.197 18.004 16.048 22.285 30.436 45.721l0.326 0.531c3.732 6.08 5.422 8.833 7.843 10.564 2.004 1.432 4.508 2.163 9.086 3.499l2e-3 1e-3 0.482 0.14c10.858 3.171 67.511 32.252 99.152 50.895zm209.69-64.602c0.213 1.111 1.612 1.978 3.824 2.37l-1e-3 -2e-3c10.261 1.82 50.401 0.293 70.987-2.699 22.666-3.295 57.987-12.904 65.48-17.814 1.238-0.81 8.692-11.066 16.565-22.789 7.874-11.724 17.019-24.916 20.323-29.316 11.441-15.243 38.399-46.548 60.782-70.594 7.582-8.145 14.084-15.996 14.448-17.447 1.832-7.297-2.079-19.763-7.266-23.161-3.528-2.312-11.567-2.084-17.333 0.49-4.43 1.978-16.752 11.416-28.999 22.211-3.432 3.025-9.898 8.016-14.37 11.091-4.472 3.076-13.339 9.401-19.704 14.057-27.787 20.328-44.701 24.637-67.907 17.3-10.332-3.266-16.736-7.275-24.19-15.145-9.737-10.28-19.676-27.867-28.144-49.802-3.481-9.018-17.687-52.084-17.687-53.62 0-0.693 14.251-24.443 21.513-35.855 25.91-40.709 46.177-71.13 59.312-89.023 13.667-18.617 16.24-25.857 12.285-34.565-5.65-12.441-19.735-20.023-30.557-16.452-5.394 1.78-9.222 5.535-22.334 21.905-7.669 9.579-22.816 25.85-43.959 47.225-17.742 17.936-32.258 32.949-32.258 33.361 0 1.221 38.896-37.682 54.962-54.973 8.176-8.801 18.795-20.902 23.598-26.894 4.802-5.991 10.511-12.62 12.686-14.73 5.889-5.716 12.78-7.189 20.643-4.415 8.867 3.128 16.542 12.119 17.728 20.765 0.869 6.345-1.904 11.907-14.997 30.079-26.476 36.741-79.62 119.83-79.62 124.48 0 1.166 0.428 3.155 0.95 4.418s3.673 10.731 7.002 21.039c10.225 31.668 18.536 50.941 28.658 66.46 5.496 8.425 17.855 20.299 24.445 23.484 12.981 6.275 30.336 8.445 43.113 5.39 8.552-2.046 23.813-10.522 38.456-21.361 7.218-5.342 16.444-12.074 20.5-14.958 4.057-2.884 13.83-10.618 21.717-17.186 15.118-12.592 19.718-15.07 27.97-15.07 3.776 0 4.945 0.521 7.684 3.425 5.301 5.621 7.094 16.509 3.634 22.075-1.025 1.65-7.006 8.401-13.291 15-17.515 18.392-46.254 51.562-58.485 67.499-2.743 3.575-9.865 13.7-15.827 22.5-17.52 25.863-21.56 31.449-23.495 32.485-4.147 2.218-21.305 7.936-32.529 10.838-25.845 6.683-47.486 9.156-80.281 9.167-19.041 8e-3 -24.39-0.271-24.782-1.294-0.275-0.716 0.844-6.959 2.486-13.872 6.459-27.186 7.484-35.407 7.525-60.325 0.021-13.446-0.516-27.361-1.293-33.499-3.303-26.079-10.555-66.737-12.205-68.429-2.568-2.634-12.191 31.81-14.928 53.428-0.948 7.491-1.718 27.295-3.421 87.998l-0.463 16.5 0.867-14c0.477-7.699 1.342-29.3 1.922-48 0.945-30.446 1.758-42.253 3.681-53.499 1.945-11.375 10.123-39.999 11.428-39.999 0.79 0 3.28 11.558 6.357 29.512 4.554 26.575 6.326 42.319 7.231 64.275 0.737 17.854-1.714 39.22-7.212 62.891-1.957 8.426-3.408 16.108-3.224 17.071zm-50.091-13.203c8.812 4.144 18.132 8.392 20.712 9.44l0.184 0.075c3.753 1.525 4.952 2.012 5.768 1.645 0.383-0.172 0.682-0.532 1.12-1.061l0.045-0.054c0.728-0.877 1.038-3.995 0.819-8.25l-0.352-6.84-0.392 14.762-3.349-0.544c-1.841-0.299-8.254-2.782-14.25-5.519-28.561-13.037-33.264-15.028-38.233-16.19-6.574-1.538-13.829-0.933-17.478 1.458-3.901 2.557-2.779 2.872 1.839 0.518 8.058-4.108 16.968-1.948 43.567 10.56zm-285.8-132.48c3.74 8.732 12.48 16.813 21.104 19.512h1e-3c5.669 1.775 15.231 1.719 21.438-0.125 10.888-3.233 20.961-14.826 23.015-26.487 5.507-31.267-29.331-52.493-54.769-33.371-12.066 9.07-16.737 26.588-10.789 40.471zm61.468 1.471c-3.15 6.151-10.301 12.925-16.585 15.711l1e-3 -1e-3c-5.838 2.588-17.067 3.261-22.852 1.369-28.499-9.321-31.638-47.94-5.003-61.554 5.974-3.053 7.592-3.434 14.603-3.434 6.86 0 8.735 0.419 14.428 3.221 7.931 3.905 13.764 10.187 16.711 18 2.958 7.841 2.39 19.477-1.303 26.688zm359.36-9.54c4.421 9.466 12.222 16.666 21.285 19.647 6.577 2.162 19.461 1.147 25.994-2.05 6.389-3.125 13.914-10.85 16.93-17.38 3.07-6.644 3.012-21.553-0.11-28.476-3.182-7.053-10.194-14.004-17.476-17.324-5.251-2.393-7.574-2.849-14.734-2.879-7.16-0.032-9.367 0.376-14 2.587-8.158 3.894-13.452 9.015-17.208 16.646-2.951 5.994-3.29 7.57-3.271 15.208 0.018 7.026 0.472 9.486 2.59 14.021zm63.16-0.783c-2.909 6.441-10.444 14.231-16.751 17.317l1e-3 1e-3c-6.348 3.106-16.855 4.073-23.569 2.168-9.399-2.666-17.206-9.61-21.583-19.194-7.054-15.449-0.624-34.628 14.329-42.739 17.493-9.49 38.608-2.517 46.919 15.495 3.729 8.083 4.006 19.528 0.654 26.952zm56.558-106.86c-20.516 5.964-22.837 34.347-3.607 44.111v1e-3c4.564 2.317 6.181 2.621 11.953 2.242 8.37-0.548 14.413-3.867 18.628-10.231 12.387-18.7-5.324-42.417-26.974-36.123zm29.384 23.018c0.083 9.263-6.753 18.514-15.627 21.15-6.388 1.897-8.966 1.796-15.177-0.593-7.667-2.95-14.236-12.165-14.365-20.153-0.074-4.538 2.967-12.091 6.302-15.657 4.288-4.584 10.059-7.079 16.436-7.106 12.802-0.053 22.315 9.429 22.431 22.359zm-661.98-36.081c-8.5606 8.197-5.0751 23.004 6.2695 26.635 3.7961 1.216 11.117 0.363 14.193-1.653 8.299-5.437 9.385-17.731 2.215-25.065-6.161-6.301-16.047-6.265-22.677 0.083zm23.499 3.598c4.41 6.601 2.044 16.609-4.791 20.275-3.244 1.74-9.7132 2.3-12.939 1.121-2.332-0.852-6.0462-4.517-7.595-7.494-4.6447-8.926 2.8297-20.796 13.095-20.796 4.3328 0 9.6128 2.976 12.23 6.894zm302.3-32.478c4.841 5.251 9.349 8.258 15.292 10.199v2e-3c2.537 0.828 7.315 1.246 12.175 1.065 6.824-0.256 8.922-0.791 14.269-3.641 7.387-3.938 12.576-9.341 15.772-16.423 9.908-21.958-5.011-47.248-29.041-49.232-3.299-0.273-7.229-0.134-8.731 0.307-1.917 0.564-0.278 0.812 5.5 0.831 6.748 0.023 9.254 0.503 13.906 2.661 12.965 6.013 20.272 17.161 20.194 30.811-0.077 13.648-6.691 24.487-18.783 30.78-4.435 2.308-6.302 2.649-14.586 2.684-11.296 0.043-16.705-2.077-24.031-9.421-7.15-7.167-9.405-12.787-9.439-23.543-0.025-7.645 0.361-9.828 2.565-14.5 3.201-6.786 9.412-13.098 16.234-16.499 2.844-1.418 4.047-2.279 2.672-1.913-7.647 2.036-14.985 8.602-19.208 17.189-2.99 6.08-3.293 7.521-3.277 15.709 0.017 10.64 1.929 15.786 8.517 22.934zm-311.07-123.73c2.795 16.048 13.215 28.747 27.82 33.902l-1e-3 -1e-3c7.926 2.798 20 3.219 27.451 0.958 29.949-9.086 40.365-47.022 19.307-70.318-20.118-22.258-56.406-17.678-69.815 8.809-4.882 9.644-6.3211 17.696-4.762 26.65zm81.058 7.659c-3.288 9.175-11.245 17.951-20.565 22.682l3e-3 1e-3c-6.063 3.077-7.683 3.444-16.341 3.703-8.333 0.249-10.465-0.048-16.03-2.238-16.204-6.375-26.081-20.958-26.081-38.506 0-22.445 16.156-39.268 39.125-40.739 16.681-1.069 31.154 8.074 38.971 24.619 4.245 8.985 4.585 20.247 0.918 30.478zm481.37 16.824c6.099 3.943 10.727 5.65 18.62 6.87v-1e-3c6.741 1.042 7.936 1.037 15-0.072 15.833-2.485 30.531-14.36 36.164-29.218 2.59-6.832 3.505-20.762 1.83-27.866-4.101-17.389-16.902-30.46-34.308-35.03-11.618-3.05-20.41-2.083-32.3 3.551-32.711 15.5-35.558 62.019-5.006 81.766zm70.884-33.113c-2.819 18.21-16.087 33.087-33.764 37.856v3e-3c-7.166 1.933-19.249 1.313-26.881-1.38-12.895-4.551-24.523-16.622-28.285-29.367-2.209-7.48-2.185-20.062 0.051-27.399 3.46-11.348 12.613-21.798 24.115-27.533 6.253-3.118 14.485-4.547 23.261-4.039 25.689 1.486 45.473 26.207 41.503 51.859z" clip-rule="evenodd" fill="#000" fill-rule="evenodd"/>
 <path d="m91.008 504.51c-4.0913-2.539-5.9686-7.374-4.9598-12.774 1.0293-5.51 1.9794-6.72 7.0798-9.02 3.815-1.72 4.1847-1.722 8.5906-0.039 4.873 1.861 8.424 6.181 8.43 10.258 8e-3 3.989-2.988 9.834-5.929 11.571-3.623 2.14-9.7665 2.142-13.212 4e-3z" fill="#FF6363"/>
 <mask id="path-2-outside-1_19_473" x="114.521" y="940.035" width="686" height="121" fill="black" maskUnits="userSpaceOnUse">
  <rect x="114.52" y="940.04" width="686" height="121" fill="#fff"/>
  <path d="m150.78 1057.2c-1.757-0.39-3.711-0.59-5.859-0.59-2.148-0.1-4.346-0.24-6.592-0.44-2.246-0.19-4.443-0.49-6.592-0.88-2.05-0.49-3.857-1.22-5.42-2.2-1.464-1.07-2.587-2.49-3.369-4.24-0.781-1.76-0.976-4.06-0.586-6.89-0.097-0.29-0.341-1.02-0.732-2.2-0.391-1.17-0.83-2.39-1.318-3.66-0.391-1.27-0.782-2.44-1.172-3.51-0.391-1.08-0.586-1.76-0.586-2.05-0.098-0.69 0.049-1.37 0.439-2.05 0.391-0.69 0.879-1.27 1.465-1.76s1.221-0.88 1.904-1.17c0.684-0.39 1.319-0.64 1.905-0.74 0.097 0.3 0.244 0.98 0.439 2.05 0.293 0.98 0.635 2.06 1.026 3.23 0.488 1.07 1.025 2.1 1.611 3.07 0.586 0.88 1.172 1.32 1.758 1.32 0.39 0 0.781-0.19 1.172-0.58 0.39-0.4 0.927-1.27 1.611-2.64 0.781-1.37 1.807-3.32 3.076-5.86 1.27-2.54 2.979-5.91 5.127-10.11s4.834-9.42 8.057-15.672c3.32-6.25 7.373-13.721 12.158-22.412 0.879-1.465 2.441-3.32 4.687-5.566 2.344-2.344 5.03-4.737 8.057-7.178 3.125-2.539 6.445-5.078 9.961-7.617 3.613-2.539 7.129-4.834 10.547-6.885 3.515-2.051 6.787-3.711 9.814-4.981 3.028-1.269 5.518-1.904 7.471-1.904 0.781 0 1.66 0.049 2.637 0.147 1.074 0 1.757 0.586 2.05 1.757v1.319 2.051c0.098 0.683 0.147 1.367 0.147 2.05v1.172c0 3.614-0.586 6.885-1.758 9.815-1.172 2.832-2.734 5.468-4.687 7.91-1.954 2.344-4.248 4.639-6.885 6.885-2.539 2.148-5.176 4.394-7.91 6.738 0 0.098-0.049 0.244-0.147 0.439v0.586c0 0.098 0.586 0.879 1.758 2.344 1.27 1.367 2.588 3.174 3.955 5.42 1.465 2.148 2.783 4.639 3.955 7.471 1.27 2.731 1.904 5.571 1.904 8.491 0 6.16-1.806 12.21-5.419 18.17-3.516 5.86-8.008 11.13-13.477 15.82-5.371 4.69-11.279 8.45-17.725 11.28-6.445 2.83-12.597 4.25-18.457 4.25zm-13.476-13.48c0 1.37 0.537 2.39 1.611 3.08 1.074 0.58 2.295 0.97 3.662 1.17 1.367 0.1 2.735 0.1 4.102 0 1.465-0.1 2.49-0.15 3.076-0.15 6.152 0 11.719-0.88 16.699-2.64 4.981-1.85 9.375-4.44 13.184-7.76 3.808-3.42 7.08-7.47 9.814-12.16 2.832-4.68 5.176-9.91 7.031-15.67v-1.32c0.098-0.78 0.147-1.27 0.147-1.46 0-3.81-0.586-6.74-1.758-8.793-1.074-2.149-2.637-3.711-4.687-4.688-1.953-1.074-4.346-1.758-7.178-2.05-2.832-0.293-5.957-0.538-9.375-0.733-0.488-0.098-1.221-0.586-2.197-1.465-0.879-0.976-1.368-1.709-1.465-2.197-0.196-0.488-0.049-1.221 0.439-2.197 0.489-0.977 0.928-1.563 1.319-1.758 3.906-0.098 7.91-0.928 12.011-2.49 4.102-1.66 7.813-3.858 11.133-6.592 3.418-2.735 6.201-5.957 8.35-9.668 2.148-3.711 3.222-7.715 3.222-12.012-3.613 0-7.47 1.27-11.572 3.809-4.004 2.441-7.91 5.469-11.719 9.082-3.711 3.515-7.08 7.275-10.107 11.279s-5.371 7.52-7.031 10.547c-0.684 1.367-1.807 3.467-3.369 6.299-1.465 2.832-3.174 6.055-5.127 9.667-1.856 3.61-3.809 7.42-5.86 11.43-2.051 4-4.004 7.81-5.859 11.42-1.856 3.62-3.516 6.89-4.981 9.82-1.464 2.93-2.539 5.07-3.222 6.44-0.098 0.2-0.196 0.49-0.293 0.88v0.88z"/>
  <path d="m221.09 1043.7c0-0.68 0.049-1.71 0.146-3.08 0.196-1.46 0.391-2.88 0.586-4.24 0.196-1.37 0.391-2.59 0.586-3.67 0.196-1.17 0.391-1.9 0.586-2.19l26.66-53.324c0.391-0.781 1.123-1.855 2.198-3.223 1.171-1.464 2.392-2.929 3.662-4.394 1.367-1.563 2.685-2.979 3.955-4.248 1.367-1.367 2.49-2.442 3.369-3.223 0.683 0.195 1.172 0.537 1.465 1.026 0.293 0.488 0.488 1.074 0.586 1.757 0.097 0.586 0.097 1.172 0 1.758v1.465 2.051c0 0.879-0.049 1.318-0.147 1.318-0.976 2.637-2.49 5.762-4.541 9.375s-4.346 7.471-6.885 11.572c-2.539 4.102-5.175 8.4-7.91 12.89-2.636 4.4-5.078 8.79-7.324 13.18-2.148 4.3-3.955 8.45-5.42 12.46-1.367 4-2.051 7.66-2.051 10.98 0 1.76 0.489 3.18 1.465 4.25 1.074 0.98 2.197 1.86 3.369 2.64s2.246 1.56 3.223 2.34c1.074 0.78 1.611 1.86 1.611 3.22 0 0.88-0.39 1.57-1.172 2.05-0.781 0.39-1.709 0.59-2.783 0.59-4.101 0-7.666-1.12-10.693-3.37-3.027-2.34-4.541-5.66-4.541-9.96z"/>
  <path d="m260.2 1044.7v-2.35c0.098-1.27 0.147-2.1 0.147-2.49 3.125-7.13 7.129-13.72 12.011-19.77 4.883-6.06 10.401-11.43 16.553-16.12 0.195 0 0.488-0.05 0.879-0.14 0.488-0.2 0.83-0.3 1.025-0.3 2.637 0 4.786 0.59 6.446 1.76 1.758 1.08 3.125 2.54 4.101 4.4 1.075 1.75 1.807 3.76 2.198 6 0.39 2.15 0.585 4.25 0.585 6.3 0 3.81-0.878 7.81-2.636 12.01-1.758 4.1-4.151 7.91-7.178 11.43-2.93 3.42-6.299 6.25-10.107 8.49-3.809 2.15-7.764 3.23-11.866 3.23-4.101 0-7.177-1.08-9.228-3.23-1.953-2.24-2.93-5.32-2.93-9.22zm11.426-1.76c0 1.07 0.439 1.8 1.318 2.19 0.879 0.4 1.758 0.59 2.637 0.59 2.441 0 4.785-0.63 7.031-1.9 2.344-1.37 4.395-3.03 6.153-4.98 1.855-2.05 3.32-4.3 4.394-6.74s1.611-4.79 1.611-7.03c0-1.08-0.097-2.25-0.292-3.52-0.098-1.37-0.391-2.54-0.879-3.51-0.489-1.08-1.27-1.91-2.344-2.5-0.977-0.58-2.393-0.68-4.248-0.29-1.367 0.29-2.93 1.56-4.688 3.81s-3.466 4.88-5.127 7.91c-1.562 2.93-2.881 5.91-3.955 8.94-1.074 2.93-1.611 5.27-1.611 7.03z"/>
  <path d="m344.87 1004c-2.246 0.3-4.834 1.71-7.764 4.25-2.929 2.44-5.761 5.47-8.496 9.08-2.636 3.52-4.882 7.38-6.738 11.58-1.855 4.1-2.783 7.91-2.783 11.42 0 2.83 0.732 4.83 2.197 6.01 1.465 1.07 3.565 1.61 6.299 1.61 2.93 0 5.762-0.34 8.496-1.03 2.832-0.78 5.615-1.56 8.35-2.34 2.832-0.88 5.615-1.66 8.349-2.34 2.832-0.79 5.713-1.18 8.643-1.18 0 1.37-0.195 2.54-0.586 3.52-0.391 0.88-0.977 1.85-1.758 2.93-5.078 2.44-10.303 4.69-15.674 6.74-5.371 1.95-10.986 2.93-16.845 2.93-1.758 0-3.614-0.3-5.567-0.88-1.953-0.69-3.76-1.61-5.42-2.79-1.66-1.17-3.076-2.58-4.248-4.24-1.074-1.66-1.611-3.52-1.611-5.57 0-4.39 0.635-8.64 1.904-12.74 1.27-4.2 3.028-8.16 5.274-11.87s4.931-7.13 8.056-10.25c3.223-3.13 6.69-5.86 10.401-8.21v-0.14c1.464-0.882 3.125-1.712 4.98-2.493 1.953-0.879 3.76-1.367 5.42-1.465 1.66-0.195 3.027 0.195 4.102 1.172 1.171 0.879 1.757 2.586 1.757 5.126 0 1.17-0.097 2.74-0.293 4.69-0.195 1.85-0.732 3.17-1.611 3.95-0.781 0.49-1.807 0.93-3.076 1.32-0.586 0.2-1.172 0.34-1.758 0.44v-9.23z"/>
  <path d="m360.54 1037.8c0.293-4.69 1.709-9.08 4.248-13.18 2.539-4.2 5.518-8.11 8.936-11.72 3.515-3.62 7.177-6.94 10.986-9.96 3.906-3.128 7.324-6.009 10.254-8.645 0-0.586-0.293-1.367-0.879-2.344-0.488-0.977-0.879-2.686-1.172-5.127 0-4.297 0.977-8.203 2.93-11.719 1.953-3.613 4.492-6.64 7.617-9.082 3.223-2.539 6.787-4.492 10.693-5.859 4.004-1.367 8.057-2.051 12.158-2.051 1.758 0 3.223 0.684 4.395 2.051 1.172 1.269 2.1 2.832 2.783 4.687 0.684 1.856 1.123 3.76 1.319 5.713 0.293 1.953 0.439 3.565 0.439 4.834h-5.127c0-1.074-0.146-2.197-0.439-3.369-0.196-1.172-0.586-2.197-1.172-3.076-0.489-0.977-1.172-1.758-2.051-2.344-0.781-0.683-1.807-1.025-3.076-1.025-2.246 0-4.688 0.635-7.324 1.904-2.637 1.172-5.127 2.734-7.471 4.688-2.246 1.855-4.151 4.003-5.713 6.445-1.563 2.441-2.344 4.883-2.344 7.324 0 1.27 0.391 2.197 1.172 2.783 0.879 0.489 1.953 0.83 3.223 1.026 1.367 0.195 2.783 0.293 4.248 0.293s2.832 0.097 4.101 0.293c1.368 0.097 2.442 0.439 3.223 1.025 0.879 0.586 1.318 1.514 1.318 2.783 0 0.781-0.097 1.563-0.293 2.344-0.195 0.684-0.781 1.269-1.757 1.758-5.664 1.465-10.791 3.22-15.381 5.27-4.492 1.96-8.594 4.35-12.305 7.18-3.711 2.74-7.178 6.01-10.4 9.82-3.125 3.8-6.202 8.35-9.229 13.62 0 0.19-0.049 0.68-0.146 1.46v1.47c0 3.51 0.976 6.2 2.929 8.05 2.051 1.76 4.737 2.64 8.057 2.64 3.711 0 7.861-0.58 12.451-1.76 4.688-1.17 9.229-2.44 13.623-3.8 4.395-1.37 8.399-2.64 12.012-3.81 3.711-1.18 6.445-1.76 8.203-1.76-0.098 2.15-1.025 4.2-2.783 6.15s-4.053 3.76-6.885 5.42c-2.832 1.56-6.055 2.98-9.668 4.25-3.516 1.27-7.129 2.29-10.84 3.08-3.613 0.78-7.177 1.31-10.693 1.61-3.418 0.29-6.445 0.29-9.082 0-2.539 0-4.785-0.59-6.738-1.76-1.856-1.17-3.418-2.69-4.688-4.54-1.172-1.86-2.1-3.91-2.783-6.15-0.586-2.35-0.879-4.64-0.879-6.89z"/>
  <path d="m424.26 1042.5c0-4.88 1.367-9.67 4.101-14.36 2.832-4.68 6.397-8.84 10.694-12.45 4.296-3.61 9.033-6.49 14.209-8.64 5.175-2.25 10.107-3.37 14.794-3.37 1.856 0 3.614 0.34 5.274 1.03 1.66 0.68 3.418 1.02 5.273 1.02h0.879c0.489-1.07 1.416-2.98 2.783-5.71 1.465-2.737 2.979-5.618 4.541-8.645 1.661-3.027 3.223-5.859 4.688-8.496 1.465-2.734 2.539-4.639 3.223-5.713 1.074-1.855 2.539-4.15 4.394-6.885 1.856-2.832 3.662-5.566 5.42-8.203 1.856-2.637 3.467-4.883 4.834-6.738 1.367-1.856 2.149-2.783 2.344-2.783l5.713 5.713c0 0.195-0.391 1.074-1.172 2.636-0.684 1.563-1.611 3.614-2.783 6.153-1.172 2.441-2.539 5.175-4.102 8.203-1.465 3.027-2.978 6.054-4.541 9.082-1.562 3.027-3.076 5.957-4.541 8.789-1.367 2.734-2.588 5.029-3.662 6.887-3.027 4.59-6.104 9.27-9.229 14.06-3.027 4.69-5.468 9.08-7.324 13.18-1.758 4.01-2.636 7.52-2.636 10.55 0.097 3.03 1.757 5.13 4.98 6.3 5.859-1.07 10.254-1.51 13.184-1.32 2.929 0.2 4.736 0.73 5.419 1.61 0.782 0.78 0.684 1.76-0.292 2.93-0.977 1.08-2.54 2.05-4.688 2.93-2.051 0.88-4.443 1.47-7.178 1.76-2.734 0.29-5.468 0-8.203-0.88-2.734-0.88-5.224-2.49-7.471-4.83-2.246-2.35-3.955-5.72-5.127-10.11l-22.705 18.9s-0.39 0.09-1.171 0.29c-0.684 0.19-1.563 0.39-2.637 0.58-0.977 0.2-2.002 0.4-3.076 0.59-1.075 0.2-1.953 0.34-2.637 0.44h-0.879c-2.246 0-4.102-0.39-5.566-1.17-1.368-0.88-2.442-1.95-3.223-3.22-0.781-1.37-1.318-2.93-1.611-4.69-0.196-1.76-0.293-3.57-0.293-5.42zm9.521-1.61c0 0.58-0.049 1.27-0.146 2.05 0 0.78 0.049 1.51 0.146 2.19 0.195 0.59 0.488 1.13 0.879 1.62 0.488 0.48 1.172 0.73 2.051 0.73 1.269 0 2.783-0.44 4.541-1.32 1.855-0.98 3.662-2.1 5.42-3.37s3.369-2.54 4.834-3.81c1.562-1.27 2.685-2.19 3.369-2.78 0.683-0.68 1.953-1.91 3.809-3.66 1.855-1.86 3.759-3.81 5.712-5.86 2.051-2.05 3.955-3.96 5.713-5.72 1.758-1.75 2.979-3.02 3.662-3.8v-0.44-0.3c0.098-0.09 0.147-0.19 0.147-0.29 0-0.88-0.293-1.51-0.879-1.9-0.488-0.49-1.123-0.78-1.904-0.88-0.684-0.2-1.416-0.25-2.198-0.15h-1.904c-3.516 0-7.226 0.73-11.133 2.2-3.906 1.46-7.519 3.47-10.84 6-3.222 2.45-5.908 5.38-8.056 8.79-2.149 3.32-3.223 6.89-3.223 10.7z"/>
  <path d="m501.31 1049.7c0-1.47 0.44-3.52 1.319-6.16 0.879-2.73 2.002-5.66 3.369-8.79 1.465-3.12 3.076-6.29 4.834-9.52 1.855-3.22 3.711-6.15 5.566-8.79 1.856-2.63 3.614-4.78 5.274-6.44s3.125-2.49 4.394-2.49c2.735 0 4.102 1.32 4.102 3.95 0 1.18-0.244 2.15-0.733 2.93-0.39 0.78-0.878 1.52-1.464 2.2s-1.221 1.37-1.905 2.05c-0.683 0.59-1.269 1.32-1.758 2.2-0.878 1.46-1.953 3.47-3.222 6-1.27 2.54-2.539 5.03-3.809 7.47-1.172 2.35-2.197 4.45-3.076 6.3-0.879 1.86-1.318 2.88-1.318 3.08v1.9c3.808-0.68 7.47-2.29 10.986-4.83 3.516-2.64 6.836-5.71 9.961-9.23 3.223-3.51 6.25-7.18 9.082-10.98 2.93-3.91 5.664-7.48 8.203-10.7 2.539-3.32 4.932-6.05 7.178-8.2s4.346-3.224 6.299-3.224c0 3.614-0.733 6.884-2.198 9.814-1.464 2.93-3.076 5.81-4.834 8.64-1.66 2.84-3.222 5.76-4.687 8.79-1.465 2.93-2.197 6.25-2.197 9.96 0 1.57 0.927 2.98 2.783 4.25 1.953 1.17 4.15 2.2 6.592 3.08 2.539 0.78 4.98 1.41 7.324 1.9s3.955 0.78 4.834 0.88v3.81c-2.246 0.1-5.029 0.15-8.35 0.15-3.32-0.1-6.64-0.49-9.961-1.18-3.32-0.68-6.347-1.8-9.082-3.37-2.636-1.66-4.394-4.05-5.273-7.17-2.539 1.66-4.981 3.61-7.324 5.86-2.344 2.24-4.785 4.34-7.325 6.3-2.441 1.95-5.029 3.61-7.763 4.98-2.735 1.36-5.713 2.05-8.936 2.05-1.953 0-3.613-0.83-4.98-2.49-1.27-1.66-1.905-3.32-1.905-4.98z"/>
  <path d="m606.93 1004c-2.246 0.3-4.834 1.71-7.764 4.25-2.93 2.44-5.762 5.47-8.496 9.08-2.637 3.52-4.883 7.38-6.738 11.58-1.856 4.1-2.784 7.91-2.784 11.42 0 2.83 0.733 4.83 2.198 6.01 1.465 1.07 3.564 1.61 6.299 1.61 2.929 0 5.761-0.34 8.496-1.03 2.832-0.78 5.615-1.56 8.349-2.34 2.832-0.88 5.615-1.66 8.35-2.34 2.832-0.79 5.713-1.18 8.642-1.18 0 1.37-0.195 2.54-0.586 3.52-0.39 0.88-0.976 1.85-1.757 2.93-5.078 2.44-10.303 4.69-15.674 6.74-5.371 1.95-10.986 2.93-16.846 2.93-1.758 0-3.613-0.3-5.566-0.88-1.953-0.69-3.76-1.61-5.42-2.79-1.66-1.17-3.076-2.58-4.248-4.24-1.074-1.66-1.612-3.52-1.612-5.57 0-4.39 0.635-8.64 1.905-12.74 1.269-4.2 3.027-8.16 5.273-11.87s4.932-7.13 8.057-10.25c3.222-3.13 6.689-5.86 10.4-8.21v-0.14c1.465-0.882 3.125-1.712 4.981-2.493 1.953-0.879 3.759-1.367 5.42-1.465 1.66-0.195 3.027 0.195 4.101 1.172 1.172 0.879 1.758 2.586 1.758 5.126 0 1.17-0.098 2.74-0.293 4.69-0.195 1.85-0.732 3.17-1.611 3.95-0.782 0.49-1.807 0.93-3.076 1.32-0.586 0.2-1.172 0.34-1.758 0.44v-9.23z"/>
  <path d="m623.48 1047.5c0.879-5.57 2.539-10.69 4.981-15.38 2.441-4.69 5.225-8.74 8.349-12.16 3.223-3.52 6.69-6.4 10.401-8.64 3.711-2.25 7.324-3.67 10.84-4.25 3.515-0.68 6.738-0.54 9.668 0.44 3.027 0.97 5.468 2.93 7.324 5.86 0 2.24-0.537 4.39-1.611 6.44-0.977 2.05-2.1 4.1-3.37 6.16-1.171 2.05-2.294 4.15-3.369 6.29-0.976 2.15-1.465 4.45-1.465 6.89 0 2.54 0.538 4.59 1.612 6.15 1.172 1.47 3.174 2.2 6.006 2.2 2.343 0 4.59-0.34 6.738-1.03 2.246-0.68 4.492-1.02 6.738-1.02 0.391 0 1.026 0.05 1.905 0.14h1.904c-1.172 1.66-2.686 3.08-4.541 4.25-1.856 1.17-3.809 2.2-5.86 3.08-2.05 0.78-4.199 1.37-6.445 1.76-2.148 0.39-4.15 0.58-6.006 0.58-1.758 0-3.32-0.39-4.687-1.17s-2.539-1.81-3.516-3.08c-0.976-1.27-1.758-2.68-2.344-4.24-0.488-1.66-0.732-3.28-0.732-4.84-1.465 1.66-3.076 3.42-4.834 5.28-1.66 1.75-3.467 3.36-5.42 4.83-1.855 1.46-3.906 2.69-6.152 3.66-2.149 0.98-4.395 1.47-6.739 1.47-2.539 0-4.736-0.93-6.591-2.79-1.856-1.95-2.784-4.24-2.784-6.88zm9.668-4.54v2.63c0.098 0.98 0.733 1.62 1.905 1.91 2.441-0.59 5.224-1.86 8.349-3.81 3.125-2.05 6.055-4.39 8.789-7.03 2.735-2.74 5.03-5.62 6.885-8.64 1.856-3.13 2.783-6.11 2.783-8.94 0-0.19-0.049-0.49-0.146-0.88v-1.02c-3.32 0-6.69 0.68-10.108 2.05-3.418 1.36-6.494 3.27-9.228 5.71-2.734 2.34-4.981 5.08-6.738 8.2-1.661 3.13-2.491 6.4-2.491 9.82z"/>
  <path d="m718.11 1045.7c0-2.93 0.586-5.61 1.758-8.06 1.27-2.54 2.637-4.93 4.102-7.17 1.465-2.25 2.783-4.5 3.955-6.74 1.269-2.25 1.904-4.64 1.904-7.18 0-0.59-0.049-1.27-0.146-2.05 0-0.88-0.098-1.71-0.293-2.49-0.098-0.78-0.391-1.42-0.879-1.91-0.391-0.58-0.928-0.87-1.612-0.87-0.097 0-0.293 0.04-0.586 0.14-0.195 0-0.293 0.05-0.293 0.15-1.367 1.85-3.027 3.95-4.98 6.3-1.855 2.24-3.857 4.49-6.006 6.74-2.148 2.24-4.248 4.39-6.299 6.44-2.05 2.05-3.906 3.76-5.566 5.13-1.172 1.07-2.783 2.54-4.834 4.39-1.953 1.86-3.955 3.71-6.006 5.57-1.953 1.76-3.711 3.32-5.273 4.69-1.465 1.36-2.295 2.05-2.491 2.05l-6.738-5.72c0.879 0 1.758-0.19 2.637-0.58 0.781-0.39 1.562-0.83 2.344-1.32 5.859-3.91 11.132-8.4 15.82-13.48 4.785-5.07 9.473-10.54 14.062-16.4 0.196-0.3 0.684-1.13 1.465-2.49 0.879-1.47 1.807-3.08 2.783-4.84 0.977-1.85 1.954-3.66 2.93-5.42 0.977-1.852 1.709-3.317 2.197-4.391 0.586-1.27 0.928-2.295 1.026-3.076 0.195-0.781 0.342-1.367 0.439-1.758 0.196-0.488 0.489-0.83 0.879-1.025 0.391-0.196 1.221-0.293 2.49-0.293 0.196 0 0.635 0.048 1.319 0.146 0.781 0.098 1.269 0.195 1.465 0.293 1.269 2.637 2.392 4.981 3.369 7.031 0.976 2.051 1.806 4.003 2.49 5.863 0.684 1.75 1.172 3.56 1.465 5.42 0.39 1.85 0.586 3.9 0.586 6.15-1.27 3.22-2.686 6.54-4.248 9.96-1.563 3.32-2.881 6.49-3.955 9.52-1.075 3.03-1.758 5.76-2.051 8.2-0.195 2.45 0.342 4.4 1.611 5.86 1.367 1.37 3.613 2.1 6.738 2.2 3.223 0.1 7.764-0.73 13.623-2.49 1.563 0.78 1.709 1.76 0.44 2.93-1.27 1.07-3.223 2.1-5.859 3.08-2.539 0.97-5.372 1.8-8.497 2.49-3.027 0.58-5.566 0.73-7.617 0.44-1.855 0-3.418-0.3-4.687-0.88-1.172-0.69-2.149-1.56-2.93-2.64-0.683-1.07-1.221-2.29-1.611-3.66-0.293-1.37-0.44-2.78-0.44-4.25z"/>
  <path d="m743.45 1049.4c-1.66-3.71-2.392-7.32-2.197-10.84 0.195-3.61 0.976-6.98 2.344-10.1 1.464-3.23 3.32-6.11 5.566-8.65 2.344-2.63 4.834-4.88 7.471-6.74 2.636-1.95 5.273-3.41 7.91-4.39 2.734-0.98 5.127-1.37 7.178-1.17 2.05 0.1 3.662 0.83 4.834 2.2 1.171 1.36 1.562 3.46 1.171 6.29 0 3.81-1.22 7.13-3.662 9.97-2.343 2.83-4.98 5.37-7.91 7.61-2.832 2.25-5.469 4.3-7.91 6.15-2.344 1.76-3.516 3.42-3.516 4.99 0 0.87 0.489 1.56 1.465 2.05 1.074 0.48 2.295 0.87 3.662 1.17 1.368 0.19 2.735 0.34 4.102 0.44s2.344 0.19 2.93 0.29c9.179-1.95 16.064-3.12 20.654-3.52 4.59-0.48 7.471-0.43 8.643 0.15 1.171 0.49 0.927 1.32-0.733 2.49-1.562 1.08-4.004 2.25-7.324 3.52-3.32 1.17-7.178 2.24-11.572 3.22-4.395 0.98-8.741 1.56-13.038 1.76-4.296 0.1-8.3-0.34-12.011-1.32-3.614-0.98-6.299-2.83-8.057-5.57zm25.635-33.4c-1.953 0-3.809 0.54-5.567 1.62-1.757 1.07-3.369 2.44-4.833 4.1-1.368 1.56-2.54 3.32-3.516 5.27-0.977 1.86-1.709 3.61-2.197 5.27 0.195 0.1 0.341 0.15 0.439 0.15h0.44c1.367 0 2.929-0.59 4.687-1.76s3.418-2.59 4.98-4.25c1.563-1.75 2.881-3.56 3.956-5.42 1.074-1.85 1.611-3.51 1.611-4.98z"/>
 </mask>
 <g fill="#FDC88A">
  <path d="m150.78 1057.2c-1.757-0.39-3.711-0.59-5.859-0.59-2.148-0.1-4.346-0.24-6.592-0.44-2.246-0.19-4.443-0.49-6.592-0.88-2.05-0.49-3.857-1.22-5.42-2.2-1.464-1.07-2.587-2.49-3.369-4.24-0.781-1.76-0.976-4.06-0.586-6.89-0.097-0.29-0.341-1.02-0.732-2.2-0.391-1.17-0.83-2.39-1.318-3.66-0.391-1.27-0.782-2.44-1.172-3.51-0.391-1.08-0.586-1.76-0.586-2.05-0.098-0.69 0.049-1.37 0.439-2.05 0.391-0.69 0.879-1.27 1.465-1.76s1.221-0.88 1.904-1.17c0.684-0.39 1.319-0.64 1.905-0.74 0.097 0.3 0.244 0.98 0.439 2.05 0.293 0.98 0.635 2.06 1.026 3.23 0.488 1.07 1.025 2.1 1.611 3.07 0.586 0.88 1.172 1.32 1.758 1.32 0.39 0 0.781-0.19 1.172-0.58 0.39-0.4 0.927-1.27 1.611-2.64 0.781-1.37 1.807-3.32 3.076-5.86 1.27-2.54 2.979-5.91 5.127-10.11s4.834-9.42 8.057-15.672c3.32-6.25 7.373-13.721 12.158-22.412 0.879-1.465 2.441-3.32 4.687-5.566 2.344-2.344 5.03-4.737 8.057-7.178 3.125-2.539 6.445-5.078 9.961-7.617 3.613-2.539 7.129-4.834 10.547-6.885 3.515-2.051 6.787-3.711 9.814-4.981 3.028-1.269 5.518-1.904 7.471-1.904 0.781 0 1.66 0.049 2.637 0.147 1.074 0 1.757 0.586 2.05 1.757v1.319 2.051c0.098 0.683 0.147 1.367 0.147 2.05v1.172c0 3.614-0.586 6.885-1.758 9.815-1.172 2.832-2.734 5.468-4.687 7.91-1.954 2.344-4.248 4.639-6.885 6.885-2.539 2.148-5.176 4.394-7.91 6.738 0 0.098-0.049 0.244-0.147 0.439v0.586c0 0.098 0.586 0.879 1.758 2.344 1.27 1.367 2.588 3.174 3.955 5.42 1.465 2.148 2.783 4.639 3.955 7.471 1.27 2.731 1.904 5.571 1.904 8.491 0 6.16-1.806 12.21-5.419 18.17-3.516 5.86-8.008 11.13-13.477 15.82-5.371 4.69-11.279 8.45-17.725 11.28-6.445 2.83-12.597 4.25-18.457 4.25zm-13.476-13.48c0 1.37 0.537 2.39 1.611 3.08 1.074 0.58 2.295 0.97 3.662 1.17 1.367 0.1 2.735 0.1 4.102 0 1.465-0.1 2.49-0.15 3.076-0.15 6.152 0 11.719-0.88 16.699-2.64 4.981-1.85 9.375-4.44 13.184-7.76 3.808-3.42 7.08-7.47 9.814-12.16 2.832-4.68 5.176-9.91 7.031-15.67v-1.32c0.098-0.78 0.147-1.27 0.147-1.46 0-3.81-0.586-6.74-1.758-8.793-1.074-2.149-2.637-3.711-4.687-4.688-1.953-1.074-4.346-1.758-7.178-2.05-2.832-0.293-5.957-0.538-9.375-0.733-0.488-0.098-1.221-0.586-2.197-1.465-0.879-0.976-1.368-1.709-1.465-2.197-0.196-0.488-0.049-1.221 0.439-2.197 0.489-0.977 0.928-1.563 1.319-1.758 3.906-0.098 7.91-0.928 12.011-2.49 4.102-1.66 7.813-3.858 11.133-6.592 3.418-2.735 6.201-5.957 8.35-9.668 2.148-3.711 3.222-7.715 3.222-12.012-3.613 0-7.47 1.27-11.572 3.809-4.004 2.441-7.91 5.469-11.719 9.082-3.711 3.515-7.08 7.275-10.107 11.279s-5.371 7.52-7.031 10.547c-0.684 1.367-1.807 3.467-3.369 6.299-1.465 2.832-3.174 6.055-5.127 9.667-1.856 3.61-3.809 7.42-5.86 11.43-2.051 4-4.004 7.81-5.859 11.42-1.856 3.62-3.516 6.89-4.981 9.82-1.464 2.93-2.539 5.07-3.222 6.44-0.098 0.2-0.196 0.49-0.293 0.88v0.88z"/>
  <path d="m221.09 1043.7c0-0.68 0.049-1.71 0.146-3.08 0.196-1.46 0.391-2.88 0.586-4.24 0.196-1.37 0.391-2.59 0.586-3.67 0.196-1.17 0.391-1.9 0.586-2.19l26.66-53.324c0.391-0.781 1.123-1.855 2.198-3.223 1.171-1.464 2.392-2.929 3.662-4.394 1.367-1.563 2.685-2.979 3.955-4.248 1.367-1.367 2.49-2.442 3.369-3.223 0.683 0.195 1.172 0.537 1.465 1.026 0.293 0.488 0.488 1.074 0.586 1.757 0.097 0.586 0.097 1.172 0 1.758v1.465 2.051c0 0.879-0.049 1.318-0.147 1.318-0.976 2.637-2.49 5.762-4.541 9.375s-4.346 7.471-6.885 11.572c-2.539 4.102-5.175 8.4-7.91 12.89-2.636 4.4-5.078 8.79-7.324 13.18-2.148 4.3-3.955 8.45-5.42 12.46-1.367 4-2.051 7.66-2.051 10.98 0 1.76 0.489 3.18 1.465 4.25 1.074 0.98 2.197 1.86 3.369 2.64s2.246 1.56 3.223 2.34c1.074 0.78 1.611 1.86 1.611 3.22 0 0.88-0.39 1.57-1.172 2.05-0.781 0.39-1.709 0.59-2.783 0.59-4.101 0-7.666-1.12-10.693-3.37-3.027-2.34-4.541-5.66-4.541-9.96z"/>
  <path d="m260.2 1044.7v-2.35c0.098-1.27 0.147-2.1 0.147-2.49 3.125-7.13 7.129-13.72 12.011-19.77 4.883-6.06 10.401-11.43 16.553-16.12 0.195 0 0.488-0.05 0.879-0.14 0.488-0.2 0.83-0.3 1.025-0.3 2.637 0 4.786 0.59 6.446 1.76 1.758 1.08 3.125 2.54 4.101 4.4 1.075 1.75 1.807 3.76 2.198 6 0.39 2.15 0.585 4.25 0.585 6.3 0 3.81-0.878 7.81-2.636 12.01-1.758 4.1-4.151 7.91-7.178 11.43-2.93 3.42-6.299 6.25-10.107 8.49-3.809 2.15-7.764 3.23-11.866 3.23-4.101 0-7.177-1.08-9.228-3.23-1.953-2.24-2.93-5.32-2.93-9.22zm11.426-1.76c0 1.07 0.439 1.8 1.318 2.19 0.879 0.4 1.758 0.59 2.637 0.59 2.441 0 4.785-0.63 7.031-1.9 2.344-1.37 4.395-3.03 6.153-4.98 1.855-2.05 3.32-4.3 4.394-6.74s1.611-4.79 1.611-7.03c0-1.08-0.097-2.25-0.292-3.52-0.098-1.37-0.391-2.54-0.879-3.51-0.489-1.08-1.27-1.91-2.344-2.5-0.977-0.58-2.393-0.68-4.248-0.29-1.367 0.29-2.93 1.56-4.688 3.81s-3.466 4.88-5.127 7.91c-1.562 2.93-2.881 5.91-3.955 8.94-1.074 2.93-1.611 5.27-1.611 7.03z"/>
  <path d="m344.87 1004c-2.246 0.3-4.834 1.71-7.764 4.25-2.929 2.44-5.761 5.47-8.496 9.08-2.636 3.52-4.882 7.38-6.738 11.58-1.855 4.1-2.783 7.91-2.783 11.42 0 2.83 0.732 4.83 2.197 6.01 1.465 1.07 3.565 1.61 6.299 1.61 2.93 0 5.762-0.34 8.496-1.03 2.832-0.78 5.615-1.56 8.35-2.34 2.832-0.88 5.615-1.66 8.349-2.34 2.832-0.79 5.713-1.18 8.643-1.18 0 1.37-0.195 2.54-0.586 3.52-0.391 0.88-0.977 1.85-1.758 2.93-5.078 2.44-10.303 4.69-15.674 6.74-5.371 1.95-10.986 2.93-16.845 2.93-1.758 0-3.614-0.3-5.567-0.88-1.953-0.69-3.76-1.61-5.42-2.79-1.66-1.17-3.076-2.58-4.248-4.24-1.074-1.66-1.611-3.52-1.611-5.57 0-4.39 0.635-8.64 1.904-12.74 1.27-4.2 3.028-8.16 5.274-11.87s4.931-7.13 8.056-10.25c3.223-3.13 6.69-5.86 10.401-8.21v-0.14c1.464-0.882 3.125-1.712 4.98-2.493 1.953-0.879 3.76-1.367 5.42-1.465 1.66-0.195 3.027 0.195 4.102 1.172 1.171 0.879 1.757 2.586 1.757 5.126 0 1.17-0.097 2.74-0.293 4.69-0.195 1.85-0.732 3.17-1.611 3.95-0.781 0.49-1.807 0.93-3.076 1.32-0.586 0.2-1.172 0.34-1.758 0.44v-9.23z"/>
  <path d="m360.54 1037.8c0.293-4.69 1.709-9.08 4.248-13.18 2.539-4.2 5.518-8.11 8.936-11.72 3.515-3.62 7.177-6.94 10.986-9.96 3.906-3.128 7.324-6.009 10.254-8.645 0-0.586-0.293-1.367-0.879-2.344-0.488-0.977-0.879-2.686-1.172-5.127 0-4.297 0.977-8.203 2.93-11.719 1.953-3.613 4.492-6.64 7.617-9.082 3.223-2.539 6.787-4.492 10.693-5.859 4.004-1.367 8.057-2.051 12.158-2.051 1.758 0 3.223 0.684 4.395 2.051 1.172 1.269 2.1 2.832 2.783 4.687 0.684 1.856 1.123 3.76 1.319 5.713 0.293 1.953 0.439 3.565 0.439 4.834h-5.127c0-1.074-0.146-2.197-0.439-3.369-0.196-1.172-0.586-2.197-1.172-3.076-0.489-0.977-1.172-1.758-2.051-2.344-0.781-0.683-1.807-1.025-3.076-1.025-2.246 0-4.688 0.635-7.324 1.904-2.637 1.172-5.127 2.734-7.471 4.688-2.246 1.855-4.151 4.003-5.713 6.445-1.563 2.441-2.344 4.883-2.344 7.324 0 1.27 0.391 2.197 1.172 2.783 0.879 0.489 1.953 0.83 3.223 1.026 1.367 0.195 2.783 0.293 4.248 0.293s2.832 0.097 4.101 0.293c1.368 0.097 2.442 0.439 3.223 1.025 0.879 0.586 1.318 1.514 1.318 2.783 0 0.781-0.097 1.563-0.293 2.344-0.195 0.684-0.781 1.269-1.757 1.758-5.664 1.465-10.791 3.22-15.381 5.27-4.492 1.96-8.594 4.35-12.305 7.18-3.711 2.74-7.178 6.01-10.4 9.82-3.125 3.8-6.202 8.35-9.229 13.62 0 0.19-0.049 0.68-0.146 1.46v1.47c0 3.51 0.976 6.2 2.929 8.05 2.051 1.76 4.737 2.64 8.057 2.64 3.711 0 7.861-0.58 12.451-1.76 4.688-1.17 9.229-2.44 13.623-3.8 4.395-1.37 8.399-2.64 12.012-3.81 3.711-1.18 6.445-1.76 8.203-1.76-0.098 2.15-1.025 4.2-2.783 6.15s-4.053 3.76-6.885 5.42c-2.832 1.56-6.055 2.98-9.668 4.25-3.516 1.27-7.129 2.29-10.84 3.08-3.613 0.78-7.177 1.31-10.693 1.61-3.418 0.29-6.445 0.29-9.082 0-2.539 0-4.785-0.59-6.738-1.76-1.856-1.17-3.418-2.69-4.688-4.54-1.172-1.86-2.1-3.91-2.783-6.15-0.586-2.35-0.879-4.64-0.879-6.89z"/>
  <path d="m424.26 1042.5c0-4.88 1.367-9.67 4.101-14.36 2.832-4.68 6.397-8.84 10.694-12.45 4.296-3.61 9.033-6.49 14.209-8.64 5.175-2.25 10.107-3.37 14.794-3.37 1.856 0 3.614 0.34 5.274 1.03 1.66 0.68 3.418 1.02 5.273 1.02h0.879c0.489-1.07 1.416-2.98 2.783-5.71 1.465-2.737 2.979-5.618 4.541-8.645 1.661-3.027 3.223-5.859 4.688-8.496 1.465-2.734 2.539-4.639 3.223-5.713 1.074-1.855 2.539-4.15 4.394-6.885 1.856-2.832 3.662-5.566 5.42-8.203 1.856-2.637 3.467-4.883 4.834-6.738 1.367-1.856 2.149-2.783 2.344-2.783l5.713 5.713c0 0.195-0.391 1.074-1.172 2.636-0.684 1.563-1.611 3.614-2.783 6.153-1.172 2.441-2.539 5.175-4.102 8.203-1.465 3.027-2.978 6.054-4.541 9.082-1.562 3.027-3.076 5.957-4.541 8.789-1.367 2.734-2.588 5.029-3.662 6.887-3.027 4.59-6.104 9.27-9.229 14.06-3.027 4.69-5.468 9.08-7.324 13.18-1.758 4.01-2.636 7.52-2.636 10.55 0.097 3.03 1.757 5.13 4.98 6.3 5.859-1.07 10.254-1.51 13.184-1.32 2.929 0.2 4.736 0.73 5.419 1.61 0.782 0.78 0.684 1.76-0.292 2.93-0.977 1.08-2.54 2.05-4.688 2.93-2.051 0.88-4.443 1.47-7.178 1.76-2.734 0.29-5.468 0-8.203-0.88-2.734-0.88-5.224-2.49-7.471-4.83-2.246-2.35-3.955-5.72-5.127-10.11l-22.705 18.9s-0.39 0.09-1.171 0.29c-0.684 0.19-1.563 0.39-2.637 0.58-0.977 0.2-2.002 0.4-3.076 0.59-1.075 0.2-1.953 0.34-2.637 0.44h-0.879c-2.246 0-4.102-0.39-5.566-1.17-1.368-0.88-2.442-1.95-3.223-3.22-0.781-1.37-1.318-2.93-1.611-4.69-0.196-1.76-0.293-3.57-0.293-5.42zm9.521-1.61c0 0.58-0.049 1.27-0.146 2.05 0 0.78 0.049 1.51 0.146 2.19 0.195 0.59 0.488 1.13 0.879 1.62 0.488 0.48 1.172 0.73 2.051 0.73 1.269 0 2.783-0.44 4.541-1.32 1.855-0.98 3.662-2.1 5.42-3.37s3.369-2.54 4.834-3.81c1.562-1.27 2.685-2.19 3.369-2.78 0.683-0.68 1.953-1.91 3.809-3.66 1.855-1.86 3.759-3.81 5.712-5.86 2.051-2.05 3.955-3.96 5.713-5.72 1.758-1.75 2.979-3.02 3.662-3.8v-0.44-0.3c0.098-0.09 0.147-0.19 0.147-0.29 0-0.88-0.293-1.51-0.879-1.9-0.488-0.49-1.123-0.78-1.904-0.88-0.684-0.2-1.416-0.25-2.198-0.15h-1.904c-3.516 0-7.226 0.73-11.133 2.2-3.906 1.46-7.519 3.47-10.84 6-3.222 2.45-5.908 5.38-8.056 8.79-2.149 3.32-3.223 6.89-3.223 10.7z"/>
  <path d="m501.31 1049.7c0-1.47 0.44-3.52 1.319-6.16 0.879-2.73 2.002-5.66 3.369-8.79 1.465-3.12 3.076-6.29 4.834-9.52 1.855-3.22 3.711-6.15 5.566-8.79 1.856-2.63 3.614-4.78 5.274-6.44s3.125-2.49 4.394-2.49c2.735 0 4.102 1.32 4.102 3.95 0 1.18-0.244 2.15-0.733 2.93-0.39 0.78-0.878 1.52-1.464 2.2s-1.221 1.37-1.905 2.05c-0.683 0.59-1.269 1.32-1.758 2.2-0.878 1.46-1.953 3.47-3.222 6-1.27 2.54-2.539 5.03-3.809 7.47-1.172 2.35-2.197 4.45-3.076 6.3-0.879 1.86-1.318 2.88-1.318 3.08v1.9c3.808-0.68 7.47-2.29 10.986-4.83 3.516-2.64 6.836-5.71 9.961-9.23 3.223-3.51 6.25-7.18 9.082-10.98 2.93-3.91 5.664-7.48 8.203-10.7 2.539-3.32 4.932-6.05 7.178-8.2s4.346-3.224 6.299-3.224c0 3.614-0.733 6.884-2.198 9.814-1.464 2.93-3.076 5.81-4.834 8.64-1.66 2.84-3.222 5.76-4.687 8.79-1.465 2.93-2.197 6.25-2.197 9.96 0 1.57 0.927 2.98 2.783 4.25 1.953 1.17 4.15 2.2 6.592 3.08 2.539 0.78 4.98 1.41 7.324 1.9s3.955 0.78 4.834 0.88v3.81c-2.246 0.1-5.029 0.15-8.35 0.15-3.32-0.1-6.64-0.49-9.961-1.18-3.32-0.68-6.347-1.8-9.082-3.37-2.636-1.66-4.394-4.05-5.273-7.17-2.539 1.66-4.981 3.61-7.324 5.86-2.344 2.24-4.785 4.34-7.325 6.3-2.441 1.95-5.029 3.61-7.763 4.98-2.735 1.36-5.713 2.05-8.936 2.05-1.953 0-3.613-0.83-4.98-2.49-1.27-1.66-1.905-3.32-1.905-4.98z"/>
  <path d="m606.93 1004c-2.246 0.3-4.834 1.71-7.764 4.25-2.93 2.44-5.762 5.47-8.496 9.08-2.637 3.52-4.883 7.38-6.738 11.58-1.856 4.1-2.784 7.91-2.784 11.42 0 2.83 0.733 4.83 2.198 6.01 1.465 1.07 3.564 1.61 6.299 1.61 2.929 0 5.761-0.34 8.496-1.03 2.832-0.78 5.615-1.56 8.349-2.34 2.832-0.88 5.615-1.66 8.35-2.34 2.832-0.79 5.713-1.18 8.642-1.18 0 1.37-0.195 2.54-0.586 3.52-0.39 0.88-0.976 1.85-1.757 2.93-5.078 2.44-10.303 4.69-15.674 6.74-5.371 1.95-10.986 2.93-16.846 2.93-1.758 0-3.613-0.3-5.566-0.88-1.953-0.69-3.76-1.61-5.42-2.79-1.66-1.17-3.076-2.58-4.248-4.24-1.074-1.66-1.612-3.52-1.612-5.57 0-4.39 0.635-8.64 1.905-12.74 1.269-4.2 3.027-8.16 5.273-11.87s4.932-7.13 8.057-10.25c3.222-3.13 6.689-5.86 10.4-8.21v-0.14c1.465-0.882 3.125-1.712 4.981-2.493 1.953-0.879 3.759-1.367 5.42-1.465 1.66-0.195 3.027 0.195 4.101 1.172 1.172 0.879 1.758 2.586 1.758 5.126 0 1.17-0.098 2.74-0.293 4.69-0.195 1.85-0.732 3.17-1.611 3.95-0.782 0.49-1.807 0.93-3.076 1.32-0.586 0.2-1.172 0.34-1.758 0.44v-9.23z"/>
  <path d="m623.48 1047.5c0.879-5.57 2.539-10.69 4.981-15.38 2.441-4.69 5.225-8.74 8.349-12.16 3.223-3.52 6.69-6.4 10.401-8.64 3.711-2.25 7.324-3.67 10.84-4.25 3.515-0.68 6.738-0.54 9.668 0.44 3.027 0.97 5.468 2.93 7.324 5.86 0 2.24-0.537 4.39-1.611 6.44-0.977 2.05-2.1 4.1-3.37 6.16-1.171 2.05-2.294 4.15-3.369 6.29-0.976 2.15-1.465 4.45-1.465 6.89 0 2.54 0.538 4.59 1.612 6.15 1.172 1.47 3.174 2.2 6.006 2.2 2.343 0 4.59-0.34 6.738-1.03 2.246-0.68 4.492-1.02 6.738-1.02 0.391 0 1.026 0.05 1.905 0.14h1.904c-1.172 1.66-2.686 3.08-4.541 4.25-1.856 1.17-3.809 2.2-5.86 3.08-2.05 0.78-4.199 1.37-6.445 1.76-2.148 0.39-4.15 0.58-6.006 0.58-1.758 0-3.32-0.39-4.687-1.17s-2.539-1.81-3.516-3.08c-0.976-1.27-1.758-2.68-2.344-4.24-0.488-1.66-0.732-3.28-0.732-4.84-1.465 1.66-3.076 3.42-4.834 5.28-1.66 1.75-3.467 3.36-5.42 4.83-1.855 1.46-3.906 2.69-6.152 3.66-2.149 0.98-4.395 1.47-6.739 1.47-2.539 0-4.736-0.93-6.591-2.79-1.856-1.95-2.784-4.24-2.784-6.88zm9.668-4.54v2.63c0.098 0.98 0.733 1.62 1.905 1.91 2.441-0.59 5.224-1.86 8.349-3.81 3.125-2.05 6.055-4.39 8.789-7.03 2.735-2.74 5.03-5.62 6.885-8.64 1.856-3.13 2.783-6.11 2.783-8.94 0-0.19-0.049-0.49-0.146-0.88v-1.02c-3.32 0-6.69 0.68-10.108 2.05-3.418 1.36-6.494 3.27-9.228 5.71-2.734 2.34-4.981 5.08-6.738 8.2-1.661 3.13-2.491 6.4-2.491 9.82z"/>
  <path d="m718.11 1045.7c0-2.93 0.586-5.61 1.758-8.06 1.27-2.54 2.637-4.93 4.102-7.17 1.465-2.25 2.783-4.5 3.955-6.74 1.269-2.25 1.904-4.64 1.904-7.18 0-0.59-0.049-1.27-0.146-2.05 0-0.88-0.098-1.71-0.293-2.49-0.098-0.78-0.391-1.42-0.879-1.91-0.391-0.58-0.928-0.87-1.612-0.87-0.097 0-0.293 0.04-0.586 0.14-0.195 0-0.293 0.05-0.293 0.15-1.367 1.85-3.027 3.95-4.98 6.3-1.855 2.24-3.857 4.49-6.006 6.74-2.148 2.24-4.248 4.39-6.299 6.44-2.05 2.05-3.906 3.76-5.566 5.13-1.172 1.07-2.783 2.54-4.834 4.39-1.953 1.86-3.955 3.71-6.006 5.57-1.953 1.76-3.711 3.32-5.273 4.69-1.465 1.36-2.295 2.05-2.491 2.05l-6.738-5.72c0.879 0 1.758-0.19 2.637-0.58 0.781-0.39 1.562-0.83 2.344-1.32 5.859-3.91 11.132-8.4 15.82-13.48 4.785-5.07 9.473-10.54 14.062-16.4 0.196-0.3 0.684-1.13 1.465-2.49 0.879-1.47 1.807-3.08 2.783-4.84 0.977-1.85 1.954-3.66 2.93-5.42 0.977-1.852 1.709-3.317 2.197-4.391 0.586-1.27 0.928-2.295 1.026-3.076 0.195-0.781 0.342-1.367 0.439-1.758 0.196-0.488 0.489-0.83 0.879-1.025 0.391-0.196 1.221-0.293 2.49-0.293 0.196 0 0.635 0.048 1.319 0.146 0.781 0.098 1.269 0.195 1.465 0.293 1.269 2.637 2.392 4.981 3.369 7.031 0.976 2.051 1.806 4.003 2.49 5.863 0.684 1.75 1.172 3.56 1.465 5.42 0.39 1.85 0.586 3.9 0.586 6.15-1.27 3.22-2.686 6.54-4.248 9.96-1.563 3.32-2.881 6.49-3.955 9.52-1.075 3.03-1.758 5.76-2.051 8.2-0.195 2.45 0.342 4.4 1.611 5.86 1.367 1.37 3.613 2.1 6.738 2.2 3.223 0.1 7.764-0.73 13.623-2.49 1.563 0.78 1.709 1.76 0.44 2.93-1.27 1.07-3.223 2.1-5.859 3.08-2.539 0.97-5.372 1.8-8.497 2.49-3.027 0.58-5.566 0.73-7.617 0.44-1.855 0-3.418-0.3-4.687-0.88-1.172-0.69-2.149-1.56-2.93-2.64-0.683-1.07-1.221-2.29-1.611-3.66-0.293-1.37-0.44-2.78-0.44-4.25z"/>
  <path d="m743.45 1049.4c-1.66-3.71-2.392-7.32-2.197-10.84 0.195-3.61 0.976-6.98 2.344-10.1 1.464-3.23 3.32-6.11 5.566-8.65 2.344-2.63 4.834-4.88 7.471-6.74 2.636-1.95 5.273-3.41 7.91-4.39 2.734-0.98 5.127-1.37 7.178-1.17 2.05 0.1 3.662 0.83 4.834 2.2 1.171 1.36 1.562 3.46 1.171 6.29 0 3.81-1.22 7.13-3.662 9.97-2.343 2.83-4.98 5.37-7.91 7.61-2.832 2.25-5.469 4.3-7.91 6.15-2.344 1.76-3.516 3.42-3.516 4.99 0 0.87 0.489 1.56 1.465 2.05 1.074 0.48 2.295 0.87 3.662 1.17 1.368 0.19 2.735 0.34 4.102 0.44s2.344 0.19 2.93 0.29c9.179-1.95 16.064-3.12 20.654-3.52 4.59-0.48 7.471-0.43 8.643 0.15 1.171 0.49 0.927 1.32-0.733 2.49-1.562 1.08-4.004 2.25-7.324 3.52-3.32 1.17-7.178 2.24-11.572 3.22-4.395 0.98-8.741 1.56-13.038 1.76-4.296 0.1-8.3-0.34-12.011-1.32-3.614-0.98-6.299-2.83-8.057-5.57zm25.635-33.4c-1.953 0-3.809 0.54-5.567 1.62-1.757 1.07-3.369 2.44-4.833 4.1-1.368 1.56-2.54 3.32-3.516 5.27-0.977 1.86-1.709 3.61-2.197 5.27 0.195 0.1 0.341 0.15 0.439 0.15h0.44c1.367 0 2.929-0.59 4.687-1.76s3.418-2.59 4.98-4.25c1.563-1.75 2.881-3.56 3.956-5.42 1.074-1.85 1.611-3.51 1.611-4.98z"/>
 </g>
 <g stroke="#000" stroke-width="6">
  <path d="m150.78 1057.2c-1.757-0.39-3.711-0.59-5.859-0.59-2.148-0.1-4.346-0.24-6.592-0.44-2.246-0.19-4.443-0.49-6.592-0.88-2.05-0.49-3.857-1.22-5.42-2.2-1.464-1.07-2.587-2.49-3.369-4.24-0.781-1.76-0.976-4.06-0.586-6.89-0.097-0.29-0.341-1.02-0.732-2.2-0.391-1.17-0.83-2.39-1.318-3.66-0.391-1.27-0.782-2.44-1.172-3.51-0.391-1.08-0.586-1.76-0.586-2.05-0.098-0.69 0.049-1.37 0.439-2.05 0.391-0.69 0.879-1.27 1.465-1.76s1.221-0.88 1.904-1.17c0.684-0.39 1.319-0.64 1.905-0.74 0.097 0.3 0.244 0.98 0.439 2.05 0.293 0.98 0.635 2.06 1.026 3.23 0.488 1.07 1.025 2.1 1.611 3.07 0.586 0.88 1.172 1.32 1.758 1.32 0.39 0 0.781-0.19 1.172-0.58 0.39-0.4 0.927-1.27 1.611-2.64 0.781-1.37 1.807-3.32 3.076-5.86 1.27-2.54 2.979-5.91 5.127-10.11s4.834-9.42 8.057-15.672c3.32-6.25 7.373-13.721 12.158-22.412 0.879-1.465 2.441-3.32 4.687-5.566 2.344-2.344 5.03-4.737 8.057-7.178 3.125-2.539 6.445-5.078 9.961-7.617 3.613-2.539 7.129-4.834 10.547-6.885 3.515-2.051 6.787-3.711 9.814-4.981 3.028-1.269 5.518-1.904 7.471-1.904 0.781 0 1.66 0.049 2.637 0.147 1.074 0 1.757 0.586 2.05 1.757v1.319 2.051c0.098 0.683 0.147 1.367 0.147 2.05v1.172c0 3.614-0.586 6.885-1.758 9.815-1.172 2.832-2.734 5.468-4.687 7.91-1.954 2.344-4.248 4.639-6.885 6.885-2.539 2.148-5.176 4.394-7.91 6.738 0 0.098-0.049 0.244-0.147 0.439v0.586c0 0.098 0.586 0.879 1.758 2.344 1.27 1.367 2.588 3.174 3.955 5.42 1.465 2.148 2.783 4.639 3.955 7.471 1.27 2.731 1.904 5.571 1.904 8.491 0 6.16-1.806 12.21-5.419 18.17-3.516 5.86-8.008 11.13-13.477 15.82-5.371 4.69-11.279 8.45-17.725 11.28-6.445 2.83-12.597 4.25-18.457 4.25zm-13.476-13.48c0 1.37 0.537 2.39 1.611 3.08 1.074 0.58 2.295 0.97 3.662 1.17 1.367 0.1 2.735 0.1 4.102 0 1.465-0.1 2.49-0.15 3.076-0.15 6.152 0 11.719-0.88 16.699-2.64 4.981-1.85 9.375-4.44 13.184-7.76 3.808-3.42 7.08-7.47 9.814-12.16 2.832-4.68 5.176-9.91 7.031-15.67v-1.32c0.098-0.78 0.147-1.27 0.147-1.46 0-3.81-0.586-6.74-1.758-8.793-1.074-2.149-2.637-3.711-4.687-4.688-1.953-1.074-4.346-1.758-7.178-2.05-2.832-0.293-5.957-0.538-9.375-0.733-0.488-0.098-1.221-0.586-2.197-1.465-0.879-0.976-1.368-1.709-1.465-2.197-0.196-0.488-0.049-1.221 0.439-2.197 0.489-0.977 0.928-1.563 1.319-1.758 3.906-0.098 7.91-0.928 12.011-2.49 4.102-1.66 7.813-3.858 11.133-6.592 3.418-2.735 6.201-5.957 8.35-9.668 2.148-3.711 3.222-7.715 3.222-12.012-3.613 0-7.47 1.27-11.572 3.809-4.004 2.441-7.91 5.469-11.719 9.082-3.711 3.515-7.08 7.275-10.107 11.279s-5.371 7.52-7.031 10.547c-0.684 1.367-1.807 3.467-3.369 6.299-1.465 2.832-3.174 6.055-5.127 9.667-1.856 3.61-3.809 7.42-5.86 11.43-2.051 4-4.004 7.81-5.859 11.42-1.856 3.62-3.516 6.89-4.981 9.82-1.464 2.93-2.539 5.07-3.222 6.44-0.098 0.2-0.196 0.49-0.293 0.88v0.88z" mask="url(#path-2-outside-1_19_473)"/>
  <path d="m221.09 1043.7c0-0.68 0.049-1.71 0.146-3.08 0.196-1.46 0.391-2.88 0.586-4.24 0.196-1.37 0.391-2.59 0.586-3.67 0.196-1.17 0.391-1.9 0.586-2.19l26.66-53.324c0.391-0.781 1.123-1.855 2.198-3.223 1.171-1.464 2.392-2.929 3.662-4.394 1.367-1.563 2.685-2.979 3.955-4.248 1.367-1.367 2.49-2.442 3.369-3.223 0.683 0.195 1.172 0.537 1.465 1.026 0.293 0.488 0.488 1.074 0.586 1.757 0.097 0.586 0.097 1.172 0 1.758v1.465 2.051c0 0.879-0.049 1.318-0.147 1.318-0.976 2.637-2.49 5.762-4.541 9.375s-4.346 7.471-6.885 11.572c-2.539 4.102-5.175 8.4-7.91 12.89-2.636 4.4-5.078 8.79-7.324 13.18-2.148 4.3-3.955 8.45-5.42 12.46-1.367 4-2.051 7.66-2.051 10.98 0 1.76 0.489 3.18 1.465 4.25 1.074 0.98 2.197 1.86 3.369 2.64s2.246 1.56 3.223 2.34c1.074 0.78 1.611 1.86 1.611 3.22 0 0.88-0.39 1.57-1.172 2.05-0.781 0.39-1.709 0.59-2.783 0.59-4.101 0-7.666-1.12-10.693-3.37-3.027-2.34-4.541-5.66-4.541-9.96z" mask="url(#path-2-outside-1_19_473)"/>
  <path d="m260.2 1044.7v-2.35c0.098-1.27 0.147-2.1 0.147-2.49 3.125-7.13 7.129-13.72 12.011-19.77 4.883-6.06 10.401-11.43 16.553-16.12 0.195 0 0.488-0.05 0.879-0.14 0.488-0.2 0.83-0.3 1.025-0.3 2.637 0 4.786 0.59 6.446 1.76 1.758 1.08 3.125 2.54 4.101 4.4 1.075 1.75 1.807 3.76 2.198 6 0.39 2.15 0.585 4.25 0.585 6.3 0 3.81-0.878 7.81-2.636 12.01-1.758 4.1-4.151 7.91-7.178 11.43-2.93 3.42-6.299 6.25-10.107 8.49-3.809 2.15-7.764 3.23-11.866 3.23-4.101 0-7.177-1.08-9.228-3.23-1.953-2.24-2.93-5.32-2.93-9.22zm11.426-1.76c0 1.07 0.439 1.8 1.318 2.19 0.879 0.4 1.758 0.59 2.637 0.59 2.441 0 4.785-0.63 7.031-1.9 2.344-1.37 4.395-3.03 6.153-4.98 1.855-2.05 3.32-4.3 4.394-6.74s1.611-4.79 1.611-7.03c0-1.08-0.097-2.25-0.292-3.52-0.098-1.37-0.391-2.54-0.879-3.51-0.489-1.08-1.27-1.91-2.344-2.5-0.977-0.58-2.393-0.68-4.248-0.29-1.367 0.29-2.93 1.56-4.688 3.81s-3.466 4.88-5.127 7.91c-1.562 2.93-2.881 5.91-3.955 8.94-1.074 2.93-1.611 5.27-1.611 7.03z" mask="url(#path-2-outside-1_19_473)"/>
  <path d="m344.87 1004c-2.246 0.3-4.834 1.71-7.764 4.25-2.929 2.44-5.761 5.47-8.496 9.08-2.636 3.52-4.882 7.38-6.738 11.58-1.855 4.1-2.783 7.91-2.783 11.42 0 2.83 0.732 4.83 2.197 6.01 1.465 1.07 3.565 1.61 6.299 1.61 2.93 0 5.762-0.34 8.496-1.03 2.832-0.78 5.615-1.56 8.35-2.34 2.832-0.88 5.615-1.66 8.349-2.34 2.832-0.79 5.713-1.18 8.643-1.18 0 1.37-0.195 2.54-0.586 3.52-0.391 0.88-0.977 1.85-1.758 2.93-5.078 2.44-10.303 4.69-15.674 6.74-5.371 1.95-10.986 2.93-16.845 2.93-1.758 0-3.614-0.3-5.567-0.88-1.953-0.69-3.76-1.61-5.42-2.79-1.66-1.17-3.076-2.58-4.248-4.24-1.074-1.66-1.611-3.52-1.611-5.57 0-4.39 0.635-8.64 1.904-12.74 1.27-4.2 3.028-8.16 5.274-11.87s4.931-7.13 8.056-10.25c3.223-3.13 6.69-5.86 10.401-8.21v-0.14c1.464-0.882 3.125-1.712 4.98-2.493 1.953-0.879 3.76-1.367 5.42-1.465 1.66-0.195 3.027 0.195 4.102 1.172 1.171 0.879 1.757 2.586 1.757 5.126 0 1.17-0.097 2.74-0.293 4.69-0.195 1.85-0.732 3.17-1.611 3.95-0.781 0.49-1.807 0.93-3.076 1.32-0.586 0.2-1.172 0.34-1.758 0.44v-9.23z" mask="url(#path-2-outside-1_19_473)"/>
  <path d="m360.54 1037.8c0.293-4.69 1.709-9.08 4.248-13.18 2.539-4.2 5.518-8.11 8.936-11.72 3.515-3.62 7.177-6.94 10.986-9.96 3.906-3.128 7.324-6.009 10.254-8.645 0-0.586-0.293-1.367-0.879-2.344-0.488-0.977-0.879-2.686-1.172-5.127 0-4.297 0.977-8.203 2.93-11.719 1.953-3.613 4.492-6.64 7.617-9.082 3.223-2.539 6.787-4.492 10.693-5.859 4.004-1.367 8.057-2.051 12.158-2.051 1.758 0 3.223 0.684 4.395 2.051 1.172 1.269 2.1 2.832 2.783 4.687 0.684 1.856 1.123 3.76 1.319 5.713 0.293 1.953 0.439 3.565 0.439 4.834h-5.127c0-1.074-0.146-2.197-0.439-3.369-0.196-1.172-0.586-2.197-1.172-3.076-0.489-0.977-1.172-1.758-2.051-2.344-0.781-0.683-1.807-1.025-3.076-1.025-2.246 0-4.688 0.635-7.324 1.904-2.637 1.172-5.127 2.734-7.471 4.688-2.246 1.855-4.151 4.003-5.713 6.445-1.563 2.441-2.344 4.883-2.344 7.324 0 1.27 0.391 2.197 1.172 2.783 0.879 0.489 1.953 0.83 3.223 1.026 1.367 0.195 2.783 0.293 4.248 0.293s2.832 0.097 4.101 0.293c1.368 0.097 2.442 0.439 3.223 1.025 0.879 0.586 1.318 1.514 1.318 2.783 0 0.781-0.097 1.563-0.293 2.344-0.195 0.684-0.781 1.269-1.757 1.758-5.664 1.465-10.791 3.22-15.381 5.27-4.492 1.96-8.594 4.35-12.305 7.18-3.711 2.74-7.178 6.01-10.4 9.82-3.125 3.8-6.202 8.35-9.229 13.62 0 0.19-0.049 0.68-0.146 1.46v1.47c0 3.51 0.976 6.2 2.929 8.05 2.051 1.76 4.737 2.64 8.057 2.64 3.711 0 7.861-0.58 12.451-1.76 4.688-1.17 9.229-2.44 13.623-3.8 4.395-1.37 8.399-2.64 12.012-3.81 3.711-1.18 6.445-1.76 8.203-1.76-0.098 2.15-1.025 4.2-2.783 6.15s-4.053 3.76-6.885 5.42c-2.832 1.56-6.055 2.98-9.668 4.25-3.516 1.27-7.129 2.29-10.84 3.08-3.613 0.78-7.177 1.31-10.693 1.61-3.418 0.29-6.445 0.29-9.082 0-2.539 0-4.785-0.59-6.738-1.76-1.856-1.17-3.418-2.69-4.688-4.54-1.172-1.86-2.1-3.91-2.783-6.15-0.586-2.35-0.879-4.64-0.879-6.89z" mask="url(#path-2-outside-1_19_473)"/>
  <path d="m424.26 1042.5c0-4.88 1.367-9.67 4.101-14.36 2.832-4.68 6.397-8.84 10.694-12.45 4.296-3.61 9.033-6.49 14.209-8.64 5.175-2.25 10.107-3.37 14.794-3.37 1.856 0 3.614 0.34 5.274 1.03 1.66 0.68 3.418 1.02 5.273 1.02h0.879c0.489-1.07 1.416-2.98 2.783-5.71 1.465-2.737 2.979-5.618 4.541-8.645 1.661-3.027 3.223-5.859 4.688-8.496 1.465-2.734 2.539-4.639 3.223-5.713 1.074-1.855 2.539-4.15 4.394-6.885 1.856-2.832 3.662-5.566 5.42-8.203 1.856-2.637 3.467-4.883 4.834-6.738 1.367-1.856 2.149-2.783 2.344-2.783l5.713 5.713c0 0.195-0.391 1.074-1.172 2.636-0.684 1.563-1.611 3.614-2.783 6.153-1.172 2.441-2.539 5.175-4.102 8.203-1.465 3.027-2.978 6.054-4.541 9.082-1.562 3.027-3.076 5.957-4.541 8.789-1.367 2.734-2.588 5.029-3.662 6.887-3.027 4.59-6.104 9.27-9.229 14.06-3.027 4.69-5.468 9.08-7.324 13.18-1.758 4.01-2.636 7.52-2.636 10.55 0.097 3.03 1.757 5.13 4.98 6.3 5.859-1.07 10.254-1.51 13.184-1.32 2.929 0.2 4.736 0.73 5.419 1.61 0.782 0.78 0.684 1.76-0.292 2.93-0.977 1.08-2.54 2.05-4.688 2.93-2.051 0.88-4.443 1.47-7.178 1.76-2.734 0.29-5.468 0-8.203-0.88-2.734-0.88-5.224-2.49-7.471-4.83-2.246-2.35-3.955-5.72-5.127-10.11l-22.705 18.9s-0.39 0.09-1.171 0.29c-0.684 0.19-1.563 0.39-2.637 0.58-0.977 0.2-2.002 0.4-3.076 0.59-1.075 0.2-1.953 0.34-2.637 0.44h-0.879c-2.246 0-4.102-0.39-5.566-1.17-1.368-0.88-2.442-1.95-3.223-3.22-0.781-1.37-1.318-2.93-1.611-4.69-0.196-1.76-0.293-3.57-0.293-5.42zm9.521-1.61c0 0.58-0.049 1.27-0.146 2.05 0 0.78 0.049 1.51 0.146 2.19 0.195 0.59 0.488 1.13 0.879 1.62 0.488 0.48 1.172 0.73 2.051 0.73 1.269 0 2.783-0.44 4.541-1.32 1.855-0.98 3.662-2.1 5.42-3.37s3.369-2.54 4.834-3.81c1.562-1.27 2.685-2.19 3.369-2.78 0.683-0.68 1.953-1.91 3.809-3.66 1.855-1.86 3.759-3.81 5.712-5.86 2.051-2.05 3.955-3.96 5.713-5.72 1.758-1.75 2.979-3.02 3.662-3.8v-0.44-0.3c0.098-0.09 0.147-0.19 0.147-0.29 0-0.88-0.293-1.51-0.879-1.9-0.488-0.49-1.123-0.78-1.904-0.88-0.684-0.2-1.416-0.25-2.198-0.15h-1.904c-3.516 0-7.226 0.73-11.133 2.2-3.906 1.46-7.519 3.47-10.84 6-3.222 2.45-5.908 5.38-8.056 8.79-2.149 3.32-3.223 6.89-3.223 10.7z" mask="url(#path-2-outside-1_19_473)"/>
  <path d="m501.31 1049.7c0-1.47 0.44-3.52 1.319-6.16 0.879-2.73 2.002-5.66 3.369-8.79 1.465-3.12 3.076-6.29 4.834-9.52 1.855-3.22 3.711-6.15 5.566-8.79 1.856-2.63 3.614-4.78 5.274-6.44s3.125-2.49 4.394-2.49c2.735 0 4.102 1.32 4.102 3.95 0 1.18-0.244 2.15-0.733 2.93-0.39 0.78-0.878 1.52-1.464 2.2s-1.221 1.37-1.905 2.05c-0.683 0.59-1.269 1.32-1.758 2.2-0.878 1.46-1.953 3.47-3.222 6-1.27 2.54-2.539 5.03-3.809 7.47-1.172 2.35-2.197 4.45-3.076 6.3-0.879 1.86-1.318 2.88-1.318 3.08v1.9c3.808-0.68 7.47-2.29 10.986-4.83 3.516-2.64 6.836-5.71 9.961-9.23 3.223-3.51 6.25-7.18 9.082-10.98 2.93-3.91 5.664-7.48 8.203-10.7 2.539-3.32 4.932-6.05 7.178-8.2s4.346-3.224 6.299-3.224c0 3.614-0.733 6.884-2.198 9.814-1.464 2.93-3.076 5.81-4.834 8.64-1.66 2.84-3.222 5.76-4.687 8.79-1.465 2.93-2.197 6.25-2.197 9.96 0 1.57 0.927 2.98 2.783 4.25 1.953 1.17 4.15 2.2 6.592 3.08 2.539 0.78 4.98 1.41 7.324 1.9s3.955 0.78 4.834 0.88v3.81c-2.246 0.1-5.029 0.15-8.35 0.15-3.32-0.1-6.64-0.49-9.961-1.18-3.32-0.68-6.347-1.8-9.082-3.37-2.636-1.66-4.394-4.05-5.273-7.17-2.539 1.66-4.981 3.61-7.324 5.86-2.344 2.24-4.785 4.34-7.325 6.3-2.441 1.95-5.029 3.61-7.763 4.98-2.735 1.36-5.713 2.05-8.936 2.05-1.953 0-3.613-0.83-4.98-2.49-1.27-1.66-1.905-3.32-1.905-4.98z" mask="url(#path-2-outside-1_19_473)"/>
  <path d="m606.93 1004c-2.246 0.3-4.834 1.71-7.764 4.25-2.93 2.44-5.762 5.47-8.496 9.08-2.637 3.52-4.883 7.38-6.738 11.58-1.856 4.1-2.784 7.91-2.784 11.42 0 2.83 0.733 4.83 2.198 6.01 1.465 1.07 3.564 1.61 6.299 1.61 2.929 0 5.761-0.34 8.496-1.03 2.832-0.78 5.615-1.56 8.349-2.34 2.832-0.88 5.615-1.66 8.35-2.34 2.832-0.79 5.713-1.18 8.642-1.18 0 1.37-0.195 2.54-0.586 3.52-0.39 0.88-0.976 1.85-1.757 2.93-5.078 2.44-10.303 4.69-15.674 6.74-5.371 1.95-10.986 2.93-16.846 2.93-1.758 0-3.613-0.3-5.566-0.88-1.953-0.69-3.76-1.61-5.42-2.79-1.66-1.17-3.076-2.58-4.248-4.24-1.074-1.66-1.612-3.52-1.612-5.57 0-4.39 0.635-8.64 1.905-12.74 1.269-4.2 3.027-8.16 5.273-11.87s4.932-7.13 8.057-10.25c3.222-3.13 6.689-5.86 10.4-8.21v-0.14c1.465-0.882 3.125-1.712 4.981-2.493 1.953-0.879 3.759-1.367 5.42-1.465 1.66-0.195 3.027 0.195 4.101 1.172 1.172 0.879 1.758 2.586 1.758 5.126 0 1.17-0.098 2.74-0.293 4.69-0.195 1.85-0.732 3.17-1.611 3.95-0.782 0.49-1.807 0.93-3.076 1.32-0.586 0.2-1.172 0.34-1.758 0.44v-9.23z" mask="url(#path-2-outside-1_19_473)"/>
  <path d="m623.48 1047.5c0.879-5.57 2.539-10.69 4.981-15.38 2.441-4.69 5.225-8.74 8.349-12.16 3.223-3.52 6.69-6.4 10.401-8.64 3.711-2.25 7.324-3.67 10.84-4.25 3.515-0.68 6.738-0.54 9.668 0.44 3.027 0.97 5.468 2.93 7.324 5.86 0 2.24-0.537 4.39-1.611 6.44-0.977 2.05-2.1 4.1-3.37 6.16-1.171 2.05-2.294 4.15-3.369 6.29-0.976 2.15-1.465 4.45-1.465 6.89 0 2.54 0.538 4.59 1.612 6.15 1.172 1.47 3.174 2.2 6.006 2.2 2.343 0 4.59-0.34 6.738-1.03 2.246-0.68 4.492-1.02 6.738-1.02 0.391 0 1.026 0.05 1.905 0.14h1.904c-1.172 1.66-2.686 3.08-4.541 4.25-1.856 1.17-3.809 2.2-5.86 3.08-2.05 0.78-4.199 1.37-6.445 1.76-2.148 0.39-4.15 0.58-6.006 0.58-1.758 0-3.32-0.39-4.687-1.17s-2.539-1.81-3.516-3.08c-0.976-1.27-1.758-2.68-2.344-4.24-0.488-1.66-0.732-3.28-0.732-4.84-1.465 1.66-3.076 3.42-4.834 5.28-1.66 1.75-3.467 3.36-5.42 4.83-1.855 1.46-3.906 2.69-6.152 3.66-2.149 0.98-4.395 1.47-6.739 1.47-2.539 0-4.736-0.93-6.591-2.79-1.856-1.95-2.784-4.24-2.784-6.88zm9.668-4.54v2.63c0.098 0.98 0.733 1.62 1.905 1.91 2.441-0.59 5.224-1.86 8.349-3.81 3.125-2.05 6.055-4.39 8.789-7.03 2.735-2.74 5.03-5.62 6.885-8.64 1.856-3.13 2.783-6.11 2.783-8.94 0-0.19-0.049-0.49-0.146-0.88v-1.02c-3.32 0-6.69 0.68-10.108 2.05-3.418 1.36-6.494 3.27-9.228 5.71-2.734 2.34-4.981 5.08-6.738 8.2-1.661 3.13-2.491 6.4-2.491 9.82z" mask="url(#path-2-outside-1_19_473)"/>
  <path d="m718.11 1045.7c0-2.93 0.586-5.61 1.758-8.06 1.27-2.54 2.637-4.93 4.102-7.17 1.465-2.25 2.783-4.5 3.955-6.74 1.269-2.25 1.904-4.64 1.904-7.18 0-0.59-0.049-1.27-0.146-2.05 0-0.88-0.098-1.71-0.293-2.49-0.098-0.78-0.391-1.42-0.879-1.91-0.391-0.58-0.928-0.87-1.612-0.87-0.097 0-0.293 0.04-0.586 0.14-0.195 0-0.293 0.05-0.293 0.15-1.367 1.85-3.027 3.95-4.98 6.3-1.855 2.24-3.857 4.49-6.006 6.74-2.148 2.24-4.248 4.39-6.299 6.44-2.05 2.05-3.906 3.76-5.566 5.13-1.172 1.07-2.783 2.54-4.834 4.39-1.953 1.86-3.955 3.71-6.006 5.57-1.953 1.76-3.711 3.32-5.273 4.69-1.465 1.36-2.295 2.05-2.491 2.05l-6.738-5.72c0.879 0 1.758-0.19 2.637-0.58 0.781-0.39 1.562-0.83 2.344-1.32 5.859-3.91 11.132-8.4 15.82-13.48 4.785-5.07 9.473-10.54 14.062-16.4 0.196-0.3 0.684-1.13 1.465-2.49 0.879-1.47 1.807-3.08 2.783-4.84 0.977-1.85 1.954-3.66 2.93-5.42 0.977-1.852 1.709-3.317 2.197-4.391 0.586-1.27 0.928-2.295 1.026-3.076 0.195-0.781 0.342-1.367 0.439-1.758 0.196-0.488 0.489-0.83 0.879-1.025 0.391-0.196 1.221-0.293 2.49-0.293 0.196 0 0.635 0.048 1.319 0.146 0.781 0.098 1.269 0.195 1.465 0.293 1.269 2.637 2.392 4.981 3.369 7.031 0.976 2.051 1.806 4.003 2.49 5.863 0.684 1.75 1.172 3.56 1.465 5.42 0.39 1.85 0.586 3.9 0.586 6.15-1.27 3.22-2.686 6.54-4.248 9.96-1.563 3.32-2.881 6.49-3.955 9.52-1.075 3.03-1.758 5.76-2.051 8.2-0.195 2.45 0.342 4.4 1.611 5.86 1.367 1.37 3.613 2.1 6.738 2.2 3.223 0.1 7.764-0.73 13.623-2.49 1.563 0.78 1.709 1.76 0.44 2.93-1.27 1.07-3.223 2.1-5.859 3.08-2.539 0.97-5.372 1.8-8.497 2.49-3.027 0.58-5.566 0.73-7.617 0.44-1.855 0-3.418-0.3-4.687-0.88-1.172-0.69-2.149-1.56-2.93-2.64-0.683-1.07-1.221-2.29-1.611-3.66-0.293-1.37-0.44-2.78-0.44-4.25z" mask="url(#path-2-outside-1_19_473)"/>
  <path d="m743.45 1049.4c-1.66-3.71-2.392-7.32-2.197-10.84 0.195-3.61 0.976-6.98 2.344-10.1 1.464-3.23 3.32-6.11 5.566-8.65 2.344-2.63 4.834-4.88 7.471-6.74 2.636-1.95 5.273-3.41 7.91-4.39 2.734-0.98 5.127-1.37 7.178-1.17 2.05 0.1 3.662 0.83 4.834 2.2 1.171 1.36 1.562 3.46 1.171 6.29 0 3.81-1.22 7.13-3.662 9.97-2.343 2.83-4.98 5.37-7.91 7.61-2.832 2.25-5.469 4.3-7.91 6.15-2.344 1.76-3.516 3.42-3.516 4.99 0 0.87 0.489 1.56 1.465 2.05 1.074 0.48 2.295 0.87 3.662 1.17 1.368 0.19 2.735 0.34 4.102 0.44s2.344 0.19 2.93 0.29c9.179-1.95 16.064-3.12 20.654-3.52 4.59-0.48 7.471-0.43 8.643 0.15 1.171 0.49 0.927 1.32-0.733 2.49-1.562 1.08-4.004 2.25-7.324 3.52-3.32 1.17-7.178 2.24-11.572 3.22-4.395 0.98-8.741 1.56-13.038 1.76-4.296 0.1-8.3-0.34-12.011-1.32-3.614-0.98-6.299-2.83-8.057-5.57zm25.635-33.4c-1.953 0-3.809 0.54-5.567 1.62-1.757 1.07-3.369 2.44-4.833 4.1-1.368 1.56-2.54 3.32-3.516 5.27-0.977 1.86-1.709 3.61-2.197 5.27 0.195 0.1 0.341 0.15 0.439 0.15h0.44c1.367 0 2.929-0.59 4.687-1.76s3.418-2.59 4.98-4.25c1.563-1.75 2.881-3.56 3.956-5.42 1.074-1.85 1.611-3.51 1.611-4.98z" mask="url(#path-2-outside-1_19_473)"/>
 </g>
 <defs>
  <linearGradient id="paint0_linear_19_473" x1="453.95" x2="453.95" y2="917.05" gradientUnits="userSpaceOnUse">
   <stop stop-color="#FD3E83" offset="0"/>
   <stop stop-color="#3E5DFD" offset="1"/>
  </linearGradient>
  <linearGradient id="paint2_linear_19_473" x1="453.95" x2="453.95" y2="917.05" gradientUnits="userSpaceOnUse">
   <stop stop-color="#FFE34F" offset="0"/>
   <stop stop-color="#D14FFF" offset="1"/>
  </linearGradient>
  <linearGradient id="paint3_linear_19_473" x1="453.95" x2="453.95" y2="917.05" gradientUnits="userSpaceOnUse">
   <stop stop-color="#E8D957" offset="0"/>
   <stop stop-color="#EA8952" offset="1"/>
  </linearGradient>
  <linearGradient id="paint5_linear_19_473" x1="453.95" x2="453.95" y2="917.05" gradientUnits="userSpaceOnUse">
   <stop stop-color="#FFE143" offset="0"/>
   <stop stop-color="#FF4365" offset="1"/>
  </linearGradient>
  <linearGradient id="paint6_linear_19_473" x1="453.95" x2="453.95" y2="917.05" gradientUnits="userSpaceOnUse">
   <stop stop-color="#94E678" offset="0"/>
   <stop stop-color="#36B7BF" offset="1"/>
  </linearGradient>
  <linearGradient id="paint7_linear_19_473" x1="453.95" x2="453.95" y2="917.05" gradientUnits="userSpaceOnUse">
   <stop stop-color="#F6AFE2" offset="0"/>
   <stop stop-color="#EC5772" offset="1"/>
  </linearGradient>
  <linearGradient id="paint12_linear_19_473" x1="453.95" x2="453.95" y2="917.05" gradientUnits="userSpaceOnUse">
   <stop stop-color="#AD00FF" offset="0"/>
   <stop stop-color="#5D5673" offset="1"/>
  </linearGradient>
 </defs>
</svg>
