<svg fill="none" viewBox="0 0 880 201" xmlns="http://www.w3.org/2000/svg"><linearGradient id="a" gradientUnits="userSpaceOnUse" x2="330.12" y1="100.26" y2="100.26"><stop offset="0" stop-color="#e2f2ff"/><stop offset=".01" stop-color="#d7f0fa"/><stop offset=".09" stop-color="#9fe6e3"/><stop offset=".16" stop-color="#6eddce"/><stop offset=".23" stop-color="#47d6bd"/><stop offset=".3" stop-color="#28d0b0"/><stop offset=".37" stop-color="#12cca7"/><stop offset=".44" stop-color="#04caa1"/><stop offset=".5" stop-color="#00c99f"/><stop offset=".55" stop-color="#09cba3"/><stop offset=".62" stop-color="#22cfae"/><stop offset=".72" stop-color="#4bd7bf"/><stop offset=".84" stop-color="#84e1d7"/><stop offset=".96" stop-color="#cceef6"/><stop offset="1" stop-color="#e2f2ff"/></linearGradient><path d="M356.36 141.81h12.3v1.36h-5.35v15.53h-1.6v-15.53h-5.35zm13.28 16.89l6.65-16.89h1.8l6.48 16.89h-1.64l-1.93-5.3h-7.7l-2 5.3zm4.18-6.66h6.62l-3.31-8.87zm15.37 6.66v-16.89h6.18c4.38 0 5.51 2.18 5.51 4.71 0 3.78-3.36 4.72-6.48 4.72h-3.61v7.46zm5.26-8.82c3 0 4.84-.61 4.84-3.47 0-2.12-1.37-3.24-4.37-3.24h-4.13v6.71zm21.08 8.82v-16.89h1.59v16.89zm9.97-14.7h-.05v14.7h-1.59v-16.89h1.8l9.77 14.76v-14.76h1.6v16.89h-1.85zm16.24-2.19H454v1.36h-5.35v15.53h-1.6v-15.53h-5.35zm24.13-.45c5.28 0 7.95 4 7.95 8.92s-2.67 8.87-7.88 8.87-7.87-4-7.87-8.87 2.75-8.92 7.8-8.92zm6.36 8.92c0-4.69-2.42-7.56-6.32-7.56-4.34 0-6.24 3.64-6.24 7.56s1.88 7.51 6.29 7.51 6.27-3.57 6.27-7.51zm14.57 8.42l6.64-16.89h1.81l6.48 16.89h-1.65l-1.94-5.3h-7.7l-2 5.3zm4.2-6.7h6.62l-3.31-8.87zm31.54-.67V150h7.23v8.73h-1.36v-2.88c-1.17 2-3 3.33-6.31 3.33-4.27 0-7.4-3-7.4-9 0-4.95 2.49-8.8 7.82-8.8 3.54 0 6.34 1.74 7.06 5.35h-1.64a5.193 5.193 0 0 0-1.926-2.959 5.194 5.194 0 0 0-3.374-1.041c-4.46 0-6.34 3.29-6.34 8.07 0 3.74 2.25 7 6.13 7a5.551 5.551 0 0 0 5.09-3 7.928 7.928 0 0 0 .73-3.5zM536 158.7v-16.89h1.59v15.53h9.06v1.36zm22.64-17.34c5.28 0 8 4 8 8.92s-2.67 8.87-7.88 8.87-7.86-4-7.86-8.87 2.69-8.92 7.74-8.92zm6.36 8.92c0-4.69-2.42-7.56-6.31-7.56-4.35 0-6.25 3.64-6.25 7.56s1.88 7.51 6.29 7.51 6.27-3.57 6.27-7.51zm7.18 8.42v-16.89h6.1c4 0 5.54 1.71 5.54 4.24 0 2.35-1.34 3.41-2.7 3.64v.05a3.872 3.872 0 0 1 3.48 4.2c0 3.52-2.3 4.76-5.52 4.76zm1.6-9.43h4c3.33 0 4.42-1.17 4.42-3.22s-1.27-2.88-4.77-2.88h-3.68zm0 8.07h4.06c3.52 0 5.16-.47 5.16-3.4s-2-3.31-5-3.31h-4.24zm14.92 1.36l6.64-16.89h1.81l6.48 16.89H602l-2-5.3h-7.7l-2 5.3zm4.18-6.66h6.62l-3.31-8.87zm15.44 6.66v-16.89h1.6v15.53H619v1.36zm22.88-16.89h12.3v1.36h-5.35v15.53h-1.59v-15.53h-5.36zm13.29 16.89l6.64-16.89h1.81l6.47 16.89h-1.64l-1.95-5.3h-7.69l-2 5.3zm4.18-6.66h6.61l-3.28-8.87zm15.44 6.66v-16.89h1.59v15.53h9.06v1.36zm15.46 0v-16.89h11.24v1.36h-9.64v6.1h8.71v1.36h-8.71v6.71h9.88v1.36zm18.36-14.7v14.7h-1.6v-16.89h1.81l9.76 14.76v-14.76h1.6v16.89h-1.86zm16.24-2.19h12.29v1.36h-5.35v15.53h-1.59v-15.53h-5.35zM740 158.7v-16.89h6.17c4.39 0 5.52 2.18 5.52 4.71 0 3.78-3.36 4.72-6.48 4.72h-3.61v7.46zm5.26-8.82c3 0 4.83-.61 4.83-3.47 0-2.12-1.36-3.24-4.36-3.24h-4.13v6.71zm18.74-8.52c5.28 0 8 4 8 8.92s-2.68 8.87-7.89 8.87-7.86-4-7.86-8.87 2.69-8.92 7.75-8.92zm6.36 8.92c0-4.69-2.42-7.56-6.31-7.56-4.34 0-6.24 3.64-6.24 7.56s1.87 7.51 6.28 7.51 6.26-3.57 6.26-7.51zm14.31-8.92c5.28 0 8 4 8 8.92s-2.67 8.87-7.88 8.87-7.86-4-7.86-8.87 2.69-8.92 7.74-8.92zm6.36 8.92c0-4.69-2.42-7.56-6.32-7.56-4.34 0-6.24 3.64-6.24 7.56s1.88 7.51 6.29 7.51 6.24-3.57 6.24-7.51zm7.18 8.42v-16.89h1.6v15.53h9.05v1.36z" fill="#5a69e6"/><path d="M420.79 124.14h-63V44.69h63v15.89h-42.57V75.9h33.49v15.89h-33.49v16.46h42.57zm31.07-60.27h14.19v15.32h-14.19v26.11a3.87 3.87 0 0 0 1.128 2.872 3.873 3.873 0 0 0 2.872 1.128h14.76v14.81a49.725 49.725 0 0 1-6.93.46 42.404 42.404 0 0 1-6.92.51H449c-5.146 0-9.27-1.547-12.37-4.64-3.1-3.094-4.643-7.217-4.63-12.37V79.19h-6.81V63.87H432l2.27-13.57h17.6zm58.76 14.53h-4.82a18.72 18.72 0 0 0-4.37.46c-1.52.46-3 .84-4.43 1.15v44.13h-19.87V44.69H497v20.48c2.19-.46 4.43-.85 6.7-1.16 1.96-.313 4.06-.583 6.3-.81a58.926 58.926 0 0 1 6.3-.35h5.1c5.153 0 9.28 1.55 12.38 4.65s4.65 7.224 4.65 12.37v44.27h-19.86V82.35a3.794 3.794 0 0 0-1.14-2.82 3.875 3.875 0 0 0-2.84-1.13zm35.07 2.51c0-5.64 1.61-10.064 4.83-13.27 3.22-3.207 7.667-4.804 13.34-4.79h22.7c5.674 0 10.12 1.606 13.34 4.82 3.22 3.213 4.827 7.656 4.82 13.33v21h-39.16v4.3c-.011.501.084.999.278 1.461.195.462.486.877.852 1.219a4.007 4.007 0 0 0 2.84 1.08h21.34l11.58-1.29V123a98.151 98.151 0 0 1-13.51.91 74.387 74.387 0 0 1-12.82 1h-13.4c-5.146 0-9.27-1.544-12.37-4.63-3.1-3.087-4.653-7.18-4.66-12.28zM570.1 77c-3.026 0-4.54 1.513-4.54 4.54v6.24h19.3v-6.2c0-3.034-1.516-4.547-4.55-4.54zm59.82-13l1.13 7.38a42.6 42.6 0 0 1 5.79-4.2 41.2 41.2 0 0 1 6.42-3 23.54 23.54 0 0 1 8.23-1.36h5.1v17.62H647a26.765 26.765 0 0 0-5.62.57c-1.78.38-3.35.76-4.71 1.13a49.31 49.31 0 0 0-4.43 1.71v40.29h-19.92V64zm50.82 0l1.13 5.68a42.75 42.75 0 0 1 6.36-3.41 63.944 63.944 0 0 1 6.58-2.32 26.139 26.139 0 0 1 7.49-1.08h5.11c5.153 0 9.276 1.55 12.37 4.65 3.093 3.1 4.646 7.224 4.66 12.37v44.27h-19.87V83.28a3.873 3.873 0 0 0-1.128-2.872 3.87 3.87 0 0 0-2.872-1.128h-4c-1.52.004-3.037.118-4.54.34-1.59.22-3.07.49-4.43.79a43.777 43.777 0 0 0-4.6 1.17v42.56h-19.86V64zm78.11 2.25v57.89H739V81.58h-8.51V66.25zM739 43.55h19.86v15.89H739zm53 20.32h14.2v15.32H792v26.11a3.87 3.87 0 0 0 1.128 2.872A3.873 3.873 0 0 0 796 109.3h14.76v14.81a49.583 49.583 0 0 1-6.92.46c-2.292.358-4.61.529-6.93.51h-7.72c-5.14 0-9.263-1.547-12.37-4.64-3.106-3.094-4.656-7.207-4.65-12.34V79.19h-6.81V63.87h6.81l2.27-13.57H792zm42 76.07c-.84 1.67-2.72 2.48-5.57 2.48h-10.1v15.28c1.72.28 3.44.52 5.17.69 1.581.215 3.175.318 4.77.31h4.63c5.93 0 10.6-1.59 14-4.73s6.26-7.81 8.41-14l24.19-75.9h-18.91L849 104.3l-.23-.62-8-23.06L835 64.1h-20.79l4.67 11.61 2 4.91 16.39 40.82s2.6 6.71-3.27 18.5z" fill="#fff"/><path d="M66.84 69.24A37.622 37.622 0 0 1 64 81.43a32.902 32.902 0 0 1-6.32 10.17 39 39 0 0 1-8.38 6.33A90.1 90.1 0 0 0 29 90.18a144.807 144.807 0 0 0-14.77-3 31.504 31.504 0 0 0 3.24-.35 26.172 26.172 0 0 0 8.32-2.39A18 18 0 0 0 33.67 76a39.563 39.563 0 0 0 3-10.18c.573-5.216.813-10.463.72-15.71v-3.62c0-5.19.13-9.54.35-13.07a65.98 65.98 0 0 1 1.19-9.13 35.154 35.154 0 0 1 2.27-7A25.35 25.35 0 0 1 52.29 6.05 46.4 46.4 0 0 1 66 1.26C70.62.41 77.43 0 86.44 0H113c.88.06 1.73.13 2.58.25a33.928 33.928 0 0 1 29.58 33.68v2.48C139 30.18 131.07 24.7 121.62 24.7l-31.47.3a99.871 99.871 0 0 0-11.87.56c-.73.13-1.39.23-2 .38-3 .76-5.1 2.14-6.2 4.16s-1.64 5-1.67 9.32z" fill="#5a69e6"/><path d="M330.09 88.64v-.44L319 88a41.913 41.913 0 0 1-13.48-2.49c-3.53-1.67-6.46-4.63-8.86-8.94a32.738 32.738 0 0 1-3-9.83c-.22-1.67-.38-3.75-.5-6.27-.07-1.29-.1-2.71-.13-4.22v-8.9c0-2.3-.03-4.44-.09-6.42 0-.69 0-1.39-.07-2.05-.09-3-.28-5.7-.53-7.87 0-.38-.1-.76-.13-1.08s-.09-.66-.13-1a37.762 37.762 0 0 0-3.15-10.9 25.26 25.26 0 0 0-10.79-11.32 43.253 43.253 0 0 0-13.6-4.88C259.84 1 252.88.57 243.65.57h-6.08c-29.26-.19-70.18 10.42-87.73 101-6.39 33.1-17.82 55.18-33.92 65.67-12.22 7.94-26 8.41-38.43 6.68-3.21-.82-5.48-2.14-6.8-4-1.48-2.11-2.24-5.36-2.27-9.8-.07 0-.22-4.28-.47-12.88-.51-9.42-.92-15.66-1.33-18.65A50.071 50.071 0 0 0 64 118.44c-3.11-7.84-9.06-14.08-18-18.59a92.446 92.446 0 0 0-17-6.3A156.794 156.794 0 0 0 11.12 90C6.84 89.36 3 89 0 88.73v23.38l11.12.19c4.6.085 9.154.926 13.48 2.49 3.53 1.66 6.46 4.66 8.85 8.94a32.656 32.656 0 0 1 3 9.83c.555 5.368.785 10.764.69 16.16v3.65c-.103 6.013.201 12.027.91 18a38.234 38.234 0 0 0 3.15 10.9 25.07 25.07 0 0 0 10.74 11.33 43.568 43.568 0 0 0 13.61 4.88c5.369.812 10.79 1.223 16.22 1.23 2.27.16 4.57.25 6.9.25 13.14 0 27.44-2.74 41-11.59 22-14.33 37.17-41.93 44.95-82 13.89-71.69 39.54-80.67 63-80.54 4.16 0 8.26.35 12.19.66l2.43.19c3.433.787 5.837 2.163 7.21 4.13a13.062 13.062 0 0 1 2 6c.035.168.055.338.06.51.122.938.175 1.884.16 2.83.016.136.016.274 0 .41.046.28.066.565.06.85 0 .41.07.95.07 1.61v.35c.016.283.016.567 0 .85.06.69.06 1.51.09 2.42.015.253.015.507 0 .76 0 .91.07 1.92.1 3v1c0 .63 0 1.29.06 2 .38 7 .7 12.34 1 15.78.06.44.1.82.13 1.2s.09.91.15 1.29c-.02.122-.02.247 0 .37a50.005 50.005 0 0 0 2.61 10.15c3.09 7.71 9.23 14.11 18 18.58.12.1-.13-.06 0 0a89.127 89.127 0 0 0 16.94 6.3 153.782 153.782 0 0 0 18.12 3.68c4.28.6 8.09 1 11.09 1.23z" fill="url(#a)"/><path d="M314.08 113.3c-4.12-.69-8.53-1.57-13-2.74a90.627 90.627 0 0 1-20.28-7.78 2.32 2.32 0 0 1-.35-.19 40.502 40.502 0 0 0-8 6.12 32.707 32.707 0 0 0-6.33 10.2 37.291 37.291 0 0 0-2.84 12.16l-1.57 29.86c0 4.29-.57 7.37-1.67 9.33s-3.18 3.4-6.21 4.15-7.93 1.17-14.77 1.17l-30.56.42c-9.45 0-17.36-5.48-23.5-11.69v2.46a33.903 33.903 0 0 0 29.58 33.67c.85.13 1.7.19 2.58.26h26.52c9 0 15.82-.41 20.48-1.26a46.412 46.412 0 0 0 13.67-4.79 25.42 25.42 0 0 0 11.09-11.22 34.434 34.434 0 0 0 2.26-7 64.51 64.51 0 0 0 1.2-9.13c.22-3.53.35-7.88.35-13.08v-3.62c-.093-5.25.148-10.501.72-15.72a39.372 39.372 0 0 1 3-10.17 18.003 18.003 0 0 1 7.88-8.41 26.083 26.083 0 0 1 8.32-2.4l3.21-.34c-.76-.1 0 0 0 0a3.443 3.443 0 0 1-.44-.07" fill="#5a69e6"/></svg>