<svg viewBox="0 0 880 201" fill="none" xmlns="http://www.w3.org/2000/svg">
<path d="M356.36 141.81H368.66V143.17H363.31V158.7H361.71V143.17H356.36V141.81Z" fill="#5A69E6"/>
<path d="M369.64 158.7L376.29 141.81H378.09L384.57 158.7H382.93L381 153.4H373.3L371.3 158.7H369.64ZM373.82 152.04H380.44L377.13 143.17L373.82 152.04Z" fill="#5A69E6"/>
<path d="M389.19 158.7V141.81H395.37C399.75 141.81 400.88 143.99 400.88 146.52C400.88 150.3 397.52 151.24 394.4 151.24H390.79V158.7H389.19ZM394.45 149.88C397.45 149.88 399.29 149.27 399.29 146.41C399.29 144.29 397.92 143.17 394.92 143.17H390.79V149.88H394.45Z" fill="#5A69E6"/>
<path d="M415.53 158.7V141.81H417.12V158.7H415.53Z" fill="#5A69E6"/>
<path d="M425.5 144H425.45V158.7H423.86V141.81H425.66L435.43 156.57V141.81H437.03V158.7H435.18L425.5 144Z" fill="#5A69E6"/>
<path d="M441.74 141.81H454V143.17H448.65V158.7H447.05V143.17H441.7L441.74 141.81Z" fill="#5A69E6"/>
<path d="M465.87 141.36C471.15 141.36 473.82 145.36 473.82 150.28C473.82 155.2 471.15 159.15 465.94 159.15C460.73 159.15 458.07 155.15 458.07 150.28C458.07 145.41 460.82 141.36 465.87 141.36ZM472.23 150.28C472.23 145.59 469.81 142.72 465.91 142.72C461.57 142.72 459.67 146.36 459.67 150.28C459.67 154.2 461.55 157.79 465.96 157.79C470.37 157.79 472.23 154.22 472.23 150.28Z" fill="#5A69E6"/>
<path d="M486.8 158.7L493.44 141.81H495.25L501.73 158.7H500.08L498.14 153.4H490.44L488.44 158.7H486.8ZM491 152H497.62L494.31 143.13L491 152Z" fill="#5A69E6"/>
<path d="M522.54 151.33V150H529.77V158.73H528.41V155.85C527.24 157.85 525.41 159.18 522.1 159.18C517.83 159.18 514.7 156.18 514.7 150.18C514.7 145.23 517.19 141.38 522.52 141.38C526.06 141.38 528.86 143.12 529.58 146.73H527.94C527.663 145.549 526.982 144.502 526.014 143.771C525.045 143.041 523.852 142.672 522.64 142.73C518.18 142.73 516.3 146.02 516.3 150.8C516.3 154.54 518.55 157.8 522.43 157.8C523.475 157.83 524.507 157.564 525.408 157.033C526.308 156.503 527.04 155.729 527.52 154.8C528.027 153.704 528.276 152.507 528.25 151.3L522.54 151.33Z" fill="#5A69E6"/>
<path d="M536 158.7V141.81H537.59V157.34H546.65V158.7H536Z" fill="#5A69E6"/>
<path d="M558.64 141.36C563.92 141.36 566.64 145.36 566.64 150.28C566.64 155.2 563.97 159.15 558.76 159.15C553.55 159.15 550.9 155.15 550.9 150.28C550.9 145.41 553.59 141.36 558.64 141.36ZM565 150.28C565 145.59 562.58 142.72 558.69 142.72C554.34 142.72 552.44 146.36 552.44 150.28C552.44 154.2 554.32 157.79 558.73 157.79C563.14 157.79 565 154.22 565 150.28Z" fill="#5A69E6"/>
<path d="M572.18 158.7V141.81H578.28C582.28 141.81 583.82 143.52 583.82 146.05C583.82 148.4 582.48 149.46 581.12 149.69V149.74C582.137 149.838 583.073 150.335 583.725 151.122C584.377 151.909 584.692 152.922 584.6 153.94C584.6 157.46 582.3 158.7 579.08 158.7H572.18ZM573.78 149.27H577.78C581.11 149.27 582.2 148.1 582.2 146.05C582.2 144 580.93 143.17 577.43 143.17H573.75L573.78 149.27ZM573.78 157.34H577.84C581.36 157.34 583 156.87 583 153.94C583 151.01 581 150.63 578 150.63H573.76L573.78 157.34Z" fill="#5A69E6"/>
<path d="M588.7 158.7L595.34 141.81H597.15L603.63 158.7H602L600 153.4H592.3L590.3 158.7H588.7ZM592.88 152.04H599.5L596.19 143.17L592.88 152.04Z" fill="#5A69E6"/>
<path d="M608.32 158.7V141.81H609.92V157.34H619V158.7H608.32Z" fill="#5A69E6"/>
<path d="M631.2 141.81H643.5V143.17H638.15V158.7H636.56V143.17H631.2V141.81Z" fill="#5A69E6"/>
<path d="M644.49 158.7L651.13 141.81H652.94L659.41 158.7H657.77L655.82 153.4H648.13L646.13 158.7H644.49ZM648.67 152.04H655.28L652 143.17L648.67 152.04Z" fill="#5A69E6"/>
<path d="M664.11 158.7V141.81H665.7V157.34H674.76V158.7H664.11Z" fill="#5A69E6"/>
<path d="M679.57 158.7V141.81H690.81V143.17H681.17V149.27H689.88V150.63H681.17V157.34H691.05V158.7H679.57Z" fill="#5A69E6"/>
<path d="M697.93 144V158.7H696.33V141.81H698.14L707.9 156.57V141.81H709.5V158.7H707.64L697.93 144Z" fill="#5A69E6"/>
<path d="M714.17 141.81H726.46V143.17H721.11V158.7H719.52V143.17H714.17V141.81Z" fill="#5A69E6"/>
<path d="M740 158.7V141.81H746.17C750.56 141.81 751.69 143.99 751.69 146.52C751.69 150.3 748.33 151.24 745.21 151.24H741.6V158.7H740ZM745.26 149.88C748.26 149.88 750.09 149.27 750.09 146.41C750.09 144.29 748.73 143.17 745.73 143.17H741.6V149.88H745.26Z" fill="#5A69E6"/>
<path d="M764 141.36C769.28 141.36 772 145.36 772 150.28C772 155.2 769.32 159.15 764.11 159.15C758.9 159.15 756.25 155.15 756.25 150.28C756.25 145.41 758.94 141.36 764 141.36ZM770.36 150.28C770.36 145.59 767.94 142.72 764.05 142.72C759.71 142.72 757.81 146.36 757.81 150.28C757.81 154.2 759.68 157.79 764.09 157.79C768.5 157.79 770.35 154.22 770.35 150.28H770.36Z" fill="#5A69E6"/>
<path d="M784.67 141.36C789.95 141.36 792.67 145.36 792.67 150.28C792.67 155.2 790 159.15 784.79 159.15C779.58 159.15 776.93 155.15 776.93 150.28C776.93 145.41 779.62 141.36 784.67 141.36ZM791.03 150.28C791.03 145.59 788.61 142.72 784.71 142.72C780.37 142.72 778.47 146.36 778.47 150.28C778.47 154.2 780.35 157.79 784.76 157.79C789.17 157.79 791 154.22 791 150.28H791.03Z" fill="#5A69E6"/>
<path d="M798.21 158.7V141.81H799.81V157.34H808.86V158.7H798.21Z" fill="#5A69E6"/>
<path d="M420.79 124.14H357.79V44.6904H420.79V60.5804H378.22V75.9004H411.71V91.7904H378.22V108.25H420.79V124.14Z" fill="white"/>
<path d="M451.86 63.8698H466.05V79.1898H451.86V105.3C451.841 105.83 451.931 106.359 452.125 106.853C452.319 107.348 452.613 107.796 452.988 108.172C453.364 108.547 453.813 108.841 454.307 109.035C454.801 109.229 455.33 109.319 455.86 109.3H470.62V124.11C468.324 124.425 466.008 124.578 463.69 124.57C461.402 124.929 459.087 125.099 456.77 125.08H449C443.854 125.08 439.73 123.533 436.63 120.44C433.53 117.346 431.987 113.223 432 108.07V79.1898H425.19V63.8698H432L434.27 50.2998H451.87L451.86 63.8698Z" fill="white"/>
<path d="M510.62 78.4004H505.8C504.33 78.3812 502.863 78.5356 501.43 78.8604C499.91 79.3204 498.43 79.7004 497 80.0104V124.14H477.13V44.6904H497V65.1704C499.19 64.7104 501.43 64.3204 503.7 64.0104C505.66 63.6971 507.76 63.4271 510 63.2004C512.092 62.9713 514.195 62.8545 516.3 62.8504H521.4C526.553 62.8504 530.68 64.4004 533.78 67.5004C536.88 70.6004 538.43 74.7238 538.43 79.8704V124.14H518.57V82.3504C518.584 81.8272 518.491 81.3067 518.294 80.8214C518.098 80.3361 517.804 79.8966 517.43 79.5304C517.058 79.1591 516.614 78.8675 516.126 78.6732C515.638 78.4789 515.115 78.3861 514.59 78.4004H510.62Z" fill="white"/>
<path d="M545.69 80.9097C545.69 75.2697 547.3 70.8464 550.52 67.6397C553.74 64.433 558.187 62.8364 563.86 62.8497H586.56C592.234 62.8497 596.68 64.4564 599.9 67.6697C603.12 70.883 604.727 75.3264 604.72 80.9997V102H565.56V106.3C565.549 106.801 565.644 107.299 565.838 107.761C566.033 108.223 566.324 108.638 566.69 108.98C567.458 109.699 568.479 110.087 569.53 110.06H590.87L602.45 108.77V123C597.973 123.614 593.459 123.918 588.94 123.91C584.704 124.613 580.415 124.947 576.12 124.91H562.72C557.574 124.91 553.45 123.366 550.35 120.28C547.25 117.193 545.697 113.1 545.69 108V80.9097ZM570.1 76.9997C567.074 76.9997 565.56 78.513 565.56 81.5397V87.7797H584.86V81.5797C584.86 78.5464 583.344 77.033 580.31 77.0397L570.1 76.9997Z" fill="white"/>
<path d="M629.92 63.9999L631.05 71.3799C632.859 69.8199 634.796 68.4149 636.84 67.1799C638.89 65.9973 641.038 64.9936 643.26 64.1799C645.901 63.2398 648.688 62.7792 651.49 62.8199H656.59V80.4399H647C645.112 80.4311 643.228 80.6222 641.38 81.0099C639.6 81.3899 638.03 81.7699 636.67 82.1399C635.077 82.6732 633.6 83.2432 632.24 83.8499V124.14H612.32V63.9999H629.92Z" fill="white"/>
<path d="M680.74 64.0002L681.87 69.6802C683.89 68.3665 686.017 67.2258 688.23 66.2702C690.379 65.3778 692.576 64.6033 694.81 63.9502C697.241 63.2288 699.764 62.865 702.3 62.8702H707.41C712.563 62.8702 716.686 64.4202 719.78 67.5202C722.873 70.6202 724.426 74.7435 724.44 79.8902V124.16H704.57V83.2802C704.589 82.7496 704.499 82.2207 704.305 81.7265C704.111 81.2324 703.817 80.7835 703.442 80.4081C703.066 80.0327 702.617 79.7388 702.123 79.5447C701.629 79.3506 701.1 79.2606 700.57 79.2802H696.57C695.05 79.2845 693.533 79.3981 692.03 79.6202C690.44 79.8402 688.96 80.1102 687.6 80.4102C686.046 80.7168 684.511 81.1074 683 81.5802V124.14H663.14V64.0002H680.74Z" fill="white"/>
<path d="M758.85 66.2498V124.14H739V81.5798H730.49V66.2498H758.85ZM739 43.5498H758.86V59.4398H739V43.5498Z" fill="white"/>
<path d="M792 63.8698H806.2V79.1898H792V105.3C791.981 105.83 792.071 106.359 792.265 106.853C792.459 107.348 792.753 107.796 793.128 108.172C793.504 108.547 793.953 108.841 794.447 109.035C794.941 109.229 795.47 109.319 796 109.3H810.76V124.11C808.467 124.425 806.155 124.578 803.84 124.57C801.548 124.928 799.23 125.099 796.91 125.08H789.19C784.05 125.08 779.927 123.533 776.82 120.44C773.714 117.346 772.164 113.233 772.17 108.1V79.1898H765.36V63.8698H772.17L774.44 50.2998H792V63.8698Z" fill="white"/>
<path d="M834 139.94C833.16 141.61 831.28 142.42 828.43 142.42H818.33V157.7C820.05 157.98 821.77 158.22 823.5 158.39C825.081 158.605 826.675 158.708 828.27 158.7H832.9C838.83 158.7 843.5 157.11 846.9 153.97C850.3 150.83 853.16 146.16 855.31 139.97L879.5 64.0703H860.59L849 104.3L848.77 103.68L840.77 80.6203L835 64.1003H814.21L818.88 75.7103L820.88 80.6203L837.27 121.44C837.27 121.44 839.87 128.15 834 139.94Z" fill="white"/>
<path d="M66.8405 69.24C66.5811 73.4334 65.6212 77.5538 64.0005 81.43C62.5336 85.178 60.3915 88.6251 57.6805 91.6C55.1853 94.0782 52.3664 96.2075 49.3005 97.93C42.8712 94.5372 36.055 91.9349 29.0005 90.18C24.1325 88.9243 19.2025 87.9229 14.2305 87.18C15.3158 87.1193 16.3972 87.0025 17.4705 86.83C20.3572 86.5007 23.169 85.693 25.7905 84.44C29.2727 82.5684 32.0419 79.6023 33.6705 76C35.1232 72.7568 36.1322 69.3327 36.6705 65.82C37.243 60.6039 37.4835 55.3566 37.3905 50.11V46.49C37.3905 41.3 37.5205 36.95 37.7405 33.42C37.9241 30.3527 38.3217 27.3019 38.9305 24.29C39.4402 21.8837 40.201 19.5375 41.2005 17.29C43.6062 12.4582 47.4915 8.52047 52.2905 6.05C56.5807 3.74362 61.2074 2.12716 66.0005 1.26C70.6205 0.41 77.4305 0 86.4405 0H113C113.88 0.06 114.73 0.13 115.58 0.25C123.763 1.30776 131.28 5.3107 136.724 11.5098C142.169 17.7089 145.168 25.6795 145.16 33.93V36.41C139 30.18 131.07 24.7 121.62 24.7L90.1505 25C86.1862 24.9509 82.2225 25.1379 78.2805 25.56V25.56C77.5505 25.69 76.8905 25.79 76.2805 25.94C73.2805 26.7 71.1805 28.08 70.0805 30.1C68.9805 32.12 68.4405 35.1 68.4105 39.42L66.8405 69.24Z" fill="#5A69E6"/>
<path d="M330.09 88.6398V88.1998L319 87.9998C314.4 87.9151 309.846 87.0739 305.52 85.5098C301.99 83.8398 299.06 80.8798 296.66 76.5698C295.149 73.4716 294.136 70.1541 293.66 66.7398C293.44 65.0698 293.28 62.9898 293.16 60.4698C293.09 59.1798 293.06 57.7598 293.03 56.2498C293.03 55.3298 293.03 54.3598 293.03 53.3498V47.3498C293.03 45.0498 293 42.9098 292.94 40.9298C292.94 40.2398 292.94 39.5398 292.87 38.8798C292.78 35.8798 292.59 33.1798 292.34 31.0098C292.34 30.6298 292.24 30.2498 292.21 29.9298C292.18 29.6098 292.12 29.2698 292.08 28.9298C291.585 25.1587 290.523 21.4839 288.93 18.0298C286.621 13.2101 282.844 9.24679 278.14 6.70984C273.912 4.33208 269.315 2.68239 264.54 1.82984C259.84 0.999845 252.88 0.569845 243.65 0.569845H237.57C208.31 0.379845 167.39 10.9898 149.84 101.57C143.45 134.67 132.02 156.75 115.92 167.24C103.7 175.18 89.92 175.65 77.49 173.92C74.28 173.1 72.01 171.78 70.69 169.92C69.21 167.81 68.45 164.56 68.42 160.12C68.35 160.12 68.2 155.84 67.95 147.24C67.44 137.82 67.03 131.58 66.62 128.59C66.1041 125.124 65.226 121.722 64 118.44C60.89 110.6 54.94 104.36 46 99.8498C40.5534 97.1979 34.8594 95.0878 29 93.5499C23.1139 92.0208 17.1438 90.8354 11.12 89.9998C6.84 89.3598 3 88.9999 0 88.7299V112.11L11.12 112.3C15.7195 112.385 20.2737 113.226 24.6 114.79C28.13 116.45 31.06 119.45 33.45 123.73C34.9625 126.828 35.9751 130.145 36.45 133.56C37.0048 138.928 37.2352 144.324 37.14 149.72V153.37C37.0372 159.383 37.3412 165.397 38.05 171.37C38.552 175.14 39.6137 178.813 41.2 182.27C43.4829 187.093 47.2454 191.063 51.94 193.6C56.1731 195.973 60.7732 197.623 65.55 198.48C70.9187 199.292 76.3403 199.703 81.77 199.71C84.04 199.87 86.34 199.96 88.67 199.96C101.81 199.96 116.11 197.22 129.67 188.37C151.67 174.04 166.84 146.44 174.62 106.37C188.51 34.6798 214.16 25.6998 237.62 25.8298C241.78 25.8298 245.88 26.1798 249.81 26.4898L252.24 26.6798C255.673 27.4665 258.077 28.8432 259.45 30.8098C260.598 32.6158 261.285 34.6762 261.45 36.8098C261.485 36.9778 261.505 37.1484 261.51 37.3198C261.632 38.2581 261.685 39.2039 261.67 40.1498C261.686 40.2861 261.686 40.4236 261.67 40.5598C261.716 40.8408 261.736 41.1253 261.73 41.4098C261.73 41.8198 261.8 42.3598 261.8 43.0198V43.3698C261.816 43.6529 261.816 43.9367 261.8 44.2198C261.86 44.9098 261.86 45.7298 261.89 46.6398C261.905 46.893 261.905 47.1467 261.89 47.3998C261.89 48.3098 261.96 49.3198 261.99 50.3998C261.99 50.7498 261.99 51.0998 261.99 51.3998C261.99 52.0298 261.99 52.6898 262.05 53.3998C262.43 60.3998 262.75 65.7398 263.05 69.1798C263.11 69.6198 263.15 69.9998 263.18 70.3798C263.21 70.7598 263.27 71.2898 263.33 71.6698C263.31 71.7924 263.31 71.9173 263.33 72.0398C263.842 75.5053 264.717 78.9073 265.94 82.1898C269.03 89.8998 275.17 96.2998 283.94 100.77C284.06 100.87 283.81 100.71 283.94 100.77C289.359 103.439 295.034 105.549 300.88 107.07C306.841 108.659 312.892 109.888 319 110.75V110.75C323.28 111.35 327.09 111.75 330.09 111.98V88.6398Z" fill="url(#paint0_linear_20_464)"/>
<path d="M314.08 113.3C309.96 112.61 305.55 111.73 301.08 110.56C294.032 108.789 287.224 106.177 280.8 102.78C280.678 102.727 280.561 102.663 280.45 102.59C277.539 104.289 274.852 106.345 272.45 108.71C269.729 111.69 267.583 115.148 266.12 118.91C264.497 122.775 263.536 126.886 263.28 131.07L261.71 160.93C261.71 165.22 261.14 168.3 260.04 170.26C258.94 172.22 256.86 173.66 253.83 174.41C250.8 175.16 245.9 175.58 239.06 175.58L208.5 176C199.05 176 191.14 170.52 185 164.31V166.77C184.989 175.02 187.987 182.992 193.432 189.19C198.878 195.389 206.397 199.388 214.58 200.44C215.43 200.57 216.28 200.63 217.16 200.7H243.68C252.68 200.7 259.5 200.29 264.16 199.44C268.939 198.569 273.552 196.952 277.83 194.65C282.623 192.181 286.507 188.251 288.92 183.43C289.921 181.184 290.679 178.837 291.18 176.43C291.797 173.419 292.198 170.368 292.38 167.3C292.6 163.77 292.73 159.42 292.73 154.22V150.6C292.637 145.35 292.878 140.099 293.45 134.88C293.987 131.37 294.996 127.949 296.45 124.71C298.084 121.119 300.853 118.164 304.33 116.3C306.95 115.042 309.762 114.231 312.65 113.9L315.86 113.56C315.1 113.46 315.86 113.56 315.86 113.56C315.712 113.546 315.565 113.523 315.42 113.49" fill="#5A69E6"/>
<defs>
<linearGradient id="paint0_linear_20_464" x1="0" y1="100.26" x2="330.12" y2="100.26" gradientUnits="userSpaceOnUse">
<stop stop-color="#E2F2FF"/>
<stop offset="0.01" stop-color="#D7F0FA"/>
<stop offset="0.09" stop-color="#9FE6E3"/>
<stop offset="0.16" stop-color="#6EDDCE"/>
<stop offset="0.23" stop-color="#47D6BD"/>
<stop offset="0.3" stop-color="#28D0B0"/>
<stop offset="0.37" stop-color="#12CCA7"/>
<stop offset="0.44" stop-color="#04CAA1"/>
<stop offset="0.5" stop-color="#00C99F"/>
<stop offset="0.55" stop-color="#09CBA3"/>
<stop offset="0.62" stop-color="#22CFAE"/>
<stop offset="0.72" stop-color="#4BD7BF"/>
<stop offset="0.84" stop-color="#84E1D7"/>
<stop offset="0.96" stop-color="#CCEEF6"/>
<stop offset="1" stop-color="#E2F2FF"/>
</linearGradient>
</defs>
</svg>