<svg fill="none" viewBox="0 0 596 154" xmlns="http://www.w3.org/2000/svg"><linearGradient id="a" gradientUnits="userSpaceOnUse" x1="76.79" x2="76.79" y1="153.58" y2="53.07"><stop offset="0" stop-color="#50bcec"/><stop offset="1" stop-color="#544797"/></linearGradient><path d="M134.61 33.09h21.19l20.78 54.15 20.78-54.15h21.18L184 115.52h-14.82zm99.33 55.55c0 10.09 2.7 14 10.09 14s10.09-3.9 10.09-14V64.26h17.69v28.68c0 17.18-8.59 24.08-27.78 24.08s-27.77-6.9-27.77-24.08V64.26h17.68zm48.87-59.05h17.68v85.93h-17.68zm63.85 59.15l26.77 26.78h-22.78L330.17 95v20.48h-17.69V29.59h17.69v52.56l17.89-17.89h23z" fill="#fff"/><path d="M396.32 62.77c6.9 0 12.59 2.29 16.79 6.39v-4.9h17.68v51.26h-17.48v-5.8h-.2a22.706 22.706 0 0 1-16.79 7.3c-15 0-25.48-12.09-25.48-27.08s10.5-27.17 25.48-27.17zm5.3 39.16c6.89 0 11.89-5 11.89-12a11.94 11.94 0 0 0-23.88 0c0 7.01 4.8 12 11.99 12zm41.17-37.67h17.69v5.4h.2c4-4 9.09-6.89 14.69-6.89 9.39 0 22.48 4.69 22.48 19v33.77h-17.69v-29c0-5.09-3.49-10-9.19-10-5.3 0-10.49 4.9-10.49 10v29h-17.69zm85.64-21.18a10.487 10.487 0 0 1-12.536 10.288 10.488 10.488 0 0 1-7.645-14.302 10.489 10.489 0 0 1 20.181 4.014zm-19.58 72.44h17.68V64.26h-17.68zm51.95-52.75c6.9 0 12.59 2.29 16.79 6.39v-4.9h17.69v51.26h-17.49v-5.8h-.2A22.693 22.693 0 0 1 560.8 117c-15 0-25.48-12.09-25.48-27.08s10.5-27.15 25.48-27.15zm5.3 39.16c6.89 0 11.89-5 11.89-12a11.94 11.94 0 0 0-23.88 0c0 7.01 4.8 12 11.99 12z" fill="#fff"/><path d="M100.44 73.9l33.9 67.79H19.24L53.13 73.9 68 90.24l8.79 9.67 8.8-9.67zm2.88-20.83L76.78 82.24 50.25 53.07 0 153.58h153.57z" fill="url(#a)"/><path d="M76.79 26.59l8.45 16.9-8.46 9.3-8.45-9.29zm0-26.59L54.05 45.47l22.73 25 22.74-25L76.79 0z" fill="#e74350"/></svg>