<svg width="3373" height="1708" viewBox="0 0 3373 1708" fill="none" xmlns="http://www.w3.org/2000/svg">
<path d="M1921.51 1010.55V1421.55M1921.51 1010.55L1553.51 797.554M1921.51 1010.55L2287.01 797.554M1921.51 1421.55L2287.01 1213.05V797.554M1921.51 1421.55L1553.51 1213.05V1205.05V797.554M2287.01 797.554L1921.51 582.054L1737.51 689.804M1553.51 797.554L1737.51 689.804M1775.01 334.556L1908.51 411.556M1775.01 334.556L1908.51 257.055L2041.01 334.556M1775.01 334.556V487.055L1908.51 564.054M1908.51 411.556V564.054M1908.51 411.556L2041.01 334.556M1908.51 564.054L1974.76 525.554M2041.01 334.556V487.055L1974.76 525.554M1888.01 377.874L1908.51 389.556L1926.01 379.413M1888.01 377.874L1819.01 338.556C1816.92 335.583 1817.17 334.084 1819.01 331.556L1878.51 297.056C1883.23 295.987 1885.47 296.222 1887.51 300.556L1888.01 377.874ZM1926.01 379.413L1996.51 338.556C1998.36 336.027 1998.61 334.53 1996.51 331.556L1936.51 297.556C1931.3 296.393 1929.03 297.111 1926.01 300.556V379.413ZM1869.01 410.859L1800.51 372.055C1796.32 371.016 1794.75 372.178 1793.01 376.556V444.055M1869.01 410.859L1887.01 421.056C1888.98 423.554 1889.3 424.671 1889.51 426.556V522.054C1887.69 526.914 1885.59 527.549 1881.01 527.054L1796.51 478.055C1793.9 476.55 1793.1 475.257 1793.01 472.055V444.055M1869.01 410.859L1851.66 421.056M1793.01 444.055C1796.67 448.302 1798.95 449.846 1804.01 449.055L1851.66 421.056M1945.92 410.859L1927.51 421.056V524.054C1929.74 527.674 1932.13 527.529 1936.51 527.054L2019.01 478.055L2021.01 476.055V445.055M1945.92 410.859L2016.01 372.055C2019.21 372.37 2020.1 373.589 2021.01 376.556V445.055M1945.92 410.859L2013.51 449.055C2018.39 449.773 2019.11 447.82 2021.01 445.055M2597.51 599.554L2731.01 676.554M2597.51 599.554L2731.01 522.054L2863.51 599.554M2597.51 599.554V752.054L2731.01 829.054M2731.01 676.554V829.054M2731.01 676.554L2863.51 599.554M2731.01 829.054L2863.51 752.054V599.554M2710.51 642.872L2731.01 654.554L2748.51 644.412M2710.51 642.872L2641.51 603.554C2639.41 600.581 2639.66 599.083 2641.51 596.554L2701.01 562.054C2705.73 560.985 2707.96 561.22 2710.01 565.554L2710.51 642.872ZM2748.51 644.412L2819.01 603.554C2820.86 601.026 2821.11 599.528 2819.01 596.554L2759.01 562.554C2753.8 561.392 2751.53 562.11 2748.51 565.554V644.412ZM2691.51 675.857L2623.01 637.054C2618.81 636.014 2617.25 637.176 2615.51 641.554V709.054M2691.51 675.857L2709.51 686.054C2711.48 688.552 2711.79 689.67 2712.01 691.554V787.054C2710.19 791.914 2708.08 792.549 2703.51 792.054L2619.01 743.054C2616.4 741.548 2615.59 740.255 2615.51 737.054V709.054M2691.51 675.857L2674.16 686.054M2615.51 709.054C2619.17 713.3 2621.45 714.845 2626.51 714.054L2674.16 686.054M2768.42 675.857L2750.01 686.054V789.054C2752.23 792.674 2754.63 792.529 2759.01 792.054L2841.51 743.054L2843.51 741.054V710.054M2768.42 675.857L2838.51 637.054C2841.71 637.368 2842.6 638.588 2843.51 641.554V710.054M2768.42 675.857L2836.01 714.054C2840.89 714.771 2841.61 712.818 2843.51 710.054M2918.01 1071.05L3051.51 1148.05M2918.01 1071.05L3051.51 993.554L3184.01 1071.05M2918.01 1071.05V1223.55L3051.51 1300.55M3051.51 1148.05V1300.55M3051.51 1148.05L3184.01 1071.05M3051.51 1300.55L3184.01 1223.55V1071.05M3031.01 1114.37L3051.51 1126.05L3069.01 1115.91M3031.01 1114.37L2962.01 1075.05C2959.91 1072.08 2960.16 1070.58 2962.01 1068.05L3021.51 1033.55C3026.23 1032.48 3028.46 1032.72 3030.51 1037.05L3031.01 1114.37ZM3069.01 1115.91L3139.51 1075.05C3141.36 1072.52 3141.61 1071.03 3139.51 1068.05L3079.51 1034.05C3074.3 1032.89 3072.03 1033.61 3069.01 1037.05V1115.91ZM3012.01 1147.36L2943.51 1108.55C2939.31 1107.51 2937.75 1108.67 2936.01 1113.05V1180.55M3012.01 1147.36L3030.01 1157.55C3031.98 1160.05 3032.29 1161.17 3032.51 1163.05V1258.55C3030.69 1263.41 3028.58 1264.05 3024.01 1263.55L2939.51 1214.55C2936.9 1213.05 2936.09 1211.75 2936.01 1208.55V1180.55M3012.01 1147.36L2947.01 1185.55C2941.95 1186.34 2939.67 1184.8 2936.01 1180.55M3088.92 1147.36L3070.51 1157.55V1260.55C3072.73 1264.17 3075.13 1264.03 3079.51 1263.55L3162.01 1214.55L3164.01 1212.55V1181.55M3088.92 1147.36L3159.01 1108.55C3162.21 1108.87 3163.1 1110.09 3164.01 1113.05V1181.55M3088.92 1147.36L3156.51 1185.55C3161.39 1186.27 3162.11 1184.32 3164.01 1181.55M943.51 579.554L1077.01 656.554M943.51 579.554L1077.01 502.055L1209.51 579.554M943.51 579.554V732.054L1077.01 809.054M1077.01 656.554V809.054M1077.01 656.554L1209.51 579.554M1077.01 809.054L1209.51 732.054V579.554M1056.51 622.872L1077.01 634.554L1094.51 624.412M1056.51 622.872L987.51 583.554C985.416 580.581 985.664 579.083 987.51 576.554L1047.01 542.054C1051.73 540.985 1053.96 541.22 1056.01 545.554L1056.51 622.872ZM1094.51 624.412L1165.01 583.554C1166.86 581.026 1167.11 579.528 1165.01 576.554L1105.01 542.554C1099.8 541.392 1097.53 542.11 1094.51 545.554V624.412ZM1037.51 655.857L969.01 617.054C964.815 616.015 963.252 617.177 961.51 621.554V689.054M1037.51 655.857L1055.51 666.054C1057.48 668.552 1057.79 669.67 1058.01 671.554V767.054C1056.19 771.914 1054.09 772.549 1049.51 772.054L965.01 723.054C962.399 721.548 961.594 720.255 961.51 717.054V689.054M1037.51 655.857L972.51 694.054C967.453 694.845 965.172 693.3 961.51 689.054M1114.42 655.857L1096.01 666.054V769.054C1098.23 772.674 1100.63 772.529 1105.01 772.054L1187.51 723.054L1189.51 721.054V690.054M1114.42 655.857L1184.51 617.054C1187.71 617.368 1188.6 618.588 1189.51 621.554V690.054M1114.42 655.857L1182.01 694.054C1186.89 694.771 1187.61 692.818 1189.51 690.054M649.01 1063.55L782.51 1140.55M649.01 1063.55L782.51 986.054L915.01 1063.55M649.01 1063.55V1216.05L782.51 1293.05M782.51 1140.55V1293.05M782.51 1140.55L915.01 1063.55M782.51 1293.05L915.01 1216.05V1213.05V1063.55M762.01 1106.87L782.51 1118.55L800.011 1108.41M762.01 1106.87L693.01 1067.55C690.916 1064.58 691.164 1063.08 693.01 1060.55L752.51 1026.05C757.231 1024.98 759.464 1025.22 761.51 1029.55L762.01 1106.87ZM800.011 1108.41L870.51 1067.55C872.359 1065.02 872.614 1063.53 870.51 1060.55L810.511 1026.55C805.3 1025.39 803.031 1026.11 800.011 1029.55V1108.41ZM743.01 1139.86L674.51 1101.05C670.315 1100.01 668.753 1101.17 667.01 1105.55V1173.05M743.01 1139.86L761.01 1150.05C762.981 1152.55 763.294 1153.67 763.51 1155.55V1251.05C761.69 1255.91 759.587 1256.55 755.01 1256.05L670.51 1207.05C667.9 1205.55 667.094 1204.25 667.01 1201.05V1173.05M743.01 1139.86L678.01 1178.05C672.954 1178.84 670.672 1177.3 667.01 1173.05M819.927 1139.86L801.511 1150.05V1253.05C803.736 1256.67 806.129 1256.53 810.511 1256.05L893.01 1207.05L895.01 1205.05V1174.05M819.927 1139.86L890.01 1101.05C893.213 1101.37 894.105 1102.59 895.01 1105.55V1174.05M819.927 1139.86L887.51 1178.05C892.393 1178.77 893.109 1176.82 895.01 1174.05M928.01 1216.05L1229.01 1214.55L1530.01 1213.05M1530.01 1213.05V993.554L1165.01 777.054M1530.01 1213.05V1233.05M1530.01 1213.05L782.511 752.554L481.511 754.054M2641.51 789.054L2311.51 993.554V1213.05L2319.01 1219.05M2909.01 1223.55L2319.01 1219.05M1974.76 525.554L2025.01 554.593M1737.51 689.804L1393.51 484.055L1680.01 313.056L1775.01 372.055M1851.66 421.056L1793.01 383.056M2674.16 686.054L2615.51 654.054M2597.51 644.054L2392.51 525.554L2185.01 647.054L2025.01 554.593M2408.16 1472.55L2541.66 1549.55M2408.16 1472.55L2541.66 1395.05L2674.16 1472.55M2408.16 1472.55V1625.05L2541.66 1702.05M2541.66 1549.55V1702.05M2541.66 1549.55L2674.16 1472.55M2541.66 1702.05L2674.16 1625.05V1472.55M2521.16 1515.87L2541.66 1527.55L2559.16 1517.41M2521.16 1515.87L2452.16 1476.55C2450.06 1473.58 2450.31 1472.08 2452.16 1469.55L2511.66 1435.05C2516.38 1433.98 2518.61 1434.22 2520.66 1438.55L2521.16 1515.87ZM2559.16 1517.41L2629.66 1476.55C2631.5 1474.02 2631.76 1472.53 2629.66 1469.55L2569.66 1435.55C2564.45 1434.39 2562.18 1435.11 2559.16 1438.55V1517.41ZM2502.16 1548.86L2433.66 1510.05C2429.46 1509.01 2427.9 1510.17 2426.16 1514.55V1582.05M2502.16 1548.86L2520.16 1559.05C2522.13 1561.55 2522.44 1562.67 2522.66 1564.55V1660.05C2520.84 1664.91 2518.73 1665.55 2514.16 1665.05L2429.66 1616.05C2427.05 1614.55 2426.24 1613.25 2426.16 1610.05V1582.05M2502.16 1548.86L2437.16 1587.05C2432.1 1587.84 2429.82 1586.3 2426.16 1582.05M2579.07 1548.86L2560.66 1559.05V1662.05C2562.88 1665.67 2565.27 1665.53 2569.66 1665.05L2652.16 1616.05L2654.16 1614.05V1583.05M2579.07 1548.86L2649.16 1510.05C2652.36 1510.37 2653.25 1511.59 2654.16 1514.55V1583.05M2579.07 1548.86L2646.66 1587.05C2651.54 1587.77 2652.26 1585.82 2654.16 1583.05M2142.51 1324.05L2469.66 1567.95M2142.51 1324.05L2319.01 1219.05M2142.51 1324.05L1921.51 1453.05L1725.76 1343.05M1530.01 1233.05L1725.76 1343.05M1530.01 1233.05L1401.16 1324.05H870.51L649.01 1496.55L284 1505.55M1229.01 1472.55L1362.51 1549.55M1229.01 1472.55L1362.51 1395.05L1495.01 1472.55M1229.01 1472.55V1625.05L1362.51 1702.05M1362.51 1549.55V1702.05M1362.51 1549.55L1495.01 1472.55M1362.51 1702.05L1495.01 1625.05V1622.05V1472.55M1342.01 1515.87L1362.51 1527.55L1380.01 1517.41M1342.01 1515.87L1273.01 1476.55C1270.92 1473.58 1271.16 1472.08 1273.01 1469.55L1332.51 1435.05C1337.23 1433.98 1339.46 1434.22 1341.51 1438.55L1342.01 1515.87ZM1380.01 1517.41L1450.51 1476.55C1452.36 1474.02 1452.62 1472.53 1450.51 1469.55L1390.51 1435.55C1385.3 1434.39 1383.03 1435.11 1380.01 1438.55V1517.41ZM1323.01 1548.86L1254.51 1510.05C1250.32 1509.01 1248.75 1510.17 1247.01 1514.55V1582.05M1323.01 1548.86L1341.01 1559.05C1342.98 1561.55 1343.29 1562.67 1343.51 1564.55V1660.05C1341.69 1664.91 1339.59 1665.55 1335.01 1665.05L1250.51 1616.05C1247.9 1614.55 1247.09 1613.25 1247.01 1610.05V1582.05M1323.01 1548.86L1258.01 1587.05C1252.95 1587.84 1250.67 1586.3 1247.01 1582.05M1399.93 1548.86L1381.51 1559.05V1662.05C1383.74 1665.67 1386.13 1665.53 1390.51 1665.05L1473.01 1616.05L1475.01 1614.05V1583.05M1399.93 1548.86L1470.01 1510.05C1473.21 1510.37 1474.11 1511.59 1475.01 1514.55V1583.05M1399.93 1548.86L1401.16 1549.55M1475.01 1583.05C1473.11 1585.82 1472.39 1587.77 1467.51 1587.05L1401.16 1549.55M1725.76 1343.05L1401.16 1549.55M202.511 601.554L336.011 678.554M202.511 601.554L336.011 524.054L468.511 601.554M202.511 601.554V754.054L336.011 831.055M336.011 678.554V831.055M336.011 678.554L468.511 601.554M336.011 831.055L468.511 754.054V751.054V601.554M315.511 644.873L336.011 656.554L353.511 646.412M315.511 644.873L246.511 605.554C244.417 602.581 244.665 601.083 246.511 598.554L306.011 564.054C310.732 562.985 312.965 563.22 315.011 567.554L315.511 644.873ZM353.511 646.412L424.011 605.554C425.86 603.026 426.115 601.528 424.011 598.554L364.011 564.554C358.801 563.392 356.531 564.11 353.511 567.554V646.412ZM296.511 677.858L228.011 639.054C223.817 638.015 222.254 639.177 220.511 643.554V711.054M296.511 677.858L314.511 688.054C316.482 690.552 316.795 691.67 317.011 693.554V789.054C315.191 793.915 313.088 794.55 308.511 794.054L224.011 745.054C221.401 743.549 220.595 742.256 220.511 739.054V711.054M296.511 677.858L231.511 716.054C226.455 716.845 224.173 715.301 220.511 711.054M373.427 677.858L355.011 688.054V791.054C357.237 794.674 359.629 794.53 364.011 794.054L446.511 745.054L448.511 743.054V712.054M373.427 677.858L443.511 639.054C446.714 639.368 447.606 640.588 448.511 643.554V712.054M373.427 677.858L441.011 716.054C445.894 716.772 446.611 714.818 448.511 712.054M5 1353.05L138.5 1430.05M5 1353.05L138.5 1275.55L271 1353.05M5 1353.05V1505.55L138.5 1582.55M138.5 1430.05V1582.55M138.5 1430.05L271 1353.05M138.5 1582.55L271 1505.55V1502.55V1353.05M118 1396.37L138.5 1408.05L156 1397.91M118 1396.37L49 1357.05C46.9059 1354.08 47.1541 1352.58 49 1350.05L108.5 1315.55C113.221 1314.48 115.454 1314.72 117.5 1319.05L118 1396.37ZM156 1397.91L226.5 1357.05C228.349 1354.52 228.604 1353.03 226.5 1350.05L166.5 1316.05C161.29 1314.89 159.02 1315.61 156 1319.05V1397.91ZM99 1429.36L30.5 1390.55C26.3051 1389.51 24.7423 1390.67 23 1395.05V1462.55M99 1429.36L117 1439.55C118.971 1442.05 119.284 1443.17 119.5 1445.05V1540.55C117.68 1545.41 115.577 1546.05 111 1545.55L26.5 1496.55C23.8893 1495.05 23.0839 1493.75 23 1490.55V1462.55M99 1429.36L34 1467.55C28.9432 1468.34 26.6618 1466.8 23 1462.55M175.916 1429.36L157.5 1439.55V1542.55C159.725 1546.17 162.118 1546.03 166.5 1545.55L249 1496.55L251 1494.55V1463.55M175.916 1429.36L246 1390.55C249.203 1390.87 250.095 1392.09 251 1395.05V1463.55M175.916 1429.36L243.5 1467.55C248.383 1468.27 249.099 1466.32 251 1463.55M3101.16 83.5L3234.66 160.5M3101.16 83.5L3234.66 6L3367.16 83.5M3101.16 83.5V236L3234.66 313M3234.66 160.5V313M3234.66 160.5L3367.16 83.5M3234.66 313L3367.16 236V83.5M3214.16 126.819L3234.66 138.5L3252.16 128.358M3214.16 126.819L3145.16 87.5C3143.06 84.527 3143.31 83.0287 3145.16 80.5L3204.66 46C3209.38 44.9312 3211.61 45.166 3213.66 49.5L3214.16 126.819ZM3252.16 128.358L3322.66 87.5C3324.5 84.9716 3324.76 83.4743 3322.66 80.5L3262.66 46.5C3257.45 45.3378 3255.18 46.0559 3252.16 49.5V128.358ZM3195.16 159.804L3126.66 121C3122.46 119.961 3120.9 121.123 3119.16 125.5V193M3195.16 159.804L3213.16 170C3215.13 172.498 3215.44 173.616 3215.66 175.5V271C3213.84 275.861 3211.73 276.496 3207.16 276L3122.66 227C3120.04 225.494 3119.24 224.202 3119.16 221V193M3195.16 159.804L3130.16 198C3125.1 198.791 3122.82 197.247 3119.16 193M3272.07 159.804L3253.66 170V273C3255.88 276.62 3258.27 276.476 3262.66 276L3345.16 227L3347.16 225V194M3272.07 159.804L3342.16 121C3345.36 121.314 3346.25 122.534 3347.16 125.5V194M3272.07 159.804L3339.66 198C3344.54 198.718 3345.25 196.764 3347.16 194M3092.16 236L2502.16 231.5L2025.01 554.593M1628.51 896.054L1866.01 1033.05C1868.98 1037.18 1869.21 1039.99 1869.51 1045.05V1313.05C1864.39 1326.1 1858.89 1325.43 1849.01 1324.05L1614.51 1189.05C1607.98 1184.09 1606.78 1180.38 1606.51 1173.05V1091.55V909.054C1610.68 899.513 1613.92 895.078 1628.51 896.054ZM1680.01 806.054C1674.65 797.785 1673.49 792.772 1680.01 782.054L1911.51 647.054C1919.71 642.637 1924.01 642.403 1931.01 647.054L2158.51 782.054C2166.5 792.787 2166.9 798.817 2158.51 809.554L1971.01 917.933L1931.01 941.054C1922.99 944.752 1918.78 944.234 1911.51 941.054L1868.01 915.054L1680.01 806.054ZM1977.51 1033.05C1973.35 1036.04 1972.14 1040.38 1971.01 1050.55L1974.01 1313.05C1980.56 1326.37 1986.94 1325.73 1999.51 1321.05L2227.01 1189.05C2230.04 1185.04 2232.63 1185.71 2233.01 1173.05V1096.05V909.054C2229.19 897.386 2225.04 894.353 2213.51 896.054L2025.01 1005.48L1977.51 1033.05Z" stroke="white" stroke-opacity="0.5" stroke-width="10"/>
</svg>
