<svg width="1290" height="804" viewBox="0 0 1290 804" fill="none" xmlns="http://www.w3.org/2000/svg">
<circle cx="646" cy="162" r="150" stroke="white" stroke-width="23" stroke-dasharray="1.5 1.5"/>
<line x1="227" y1="161" x2="477" y2="161" stroke="white" stroke-width="12" stroke-dasharray="1.5 1.5"/>
<line x1="813" y1="161" x2="1063" y2="161" stroke="white" stroke-width="12" stroke-dasharray="1.5 1.5"/>
<line x1="347.757" y1="454.534" x2="524.534" y2="277.758" stroke="white" stroke-width="12" stroke-dasharray="1.5 1.5"/>
<line x1="765.243" y1="277.757" x2="942.019" y2="454.534" stroke="white" stroke-width="12" stroke-dasharray="1.5 1.5"/>
<line x1="646" y1="578" x2="646" y2="328" stroke="white" stroke-width="12" stroke-dasharray="1.5 1.5"/>
<path d="M139.355 162.937L109.688 181.063L80 162.937L109.688 112L139.355 162.937ZM109.688 186.883L80 168.758L109.688 212L139.375 168.758L109.688 186.883V186.883Z" fill="white"/>
<path d="M1160.58 154.021L1180 134.602L1199.43 154.031L1210.73 142.731L1180 112L1149.28 142.721L1160.58 154.021ZM1130 161.998L1141.3 150.698L1152.6 161.998L1141.3 173.298L1130 161.998ZM1160.58 169.979L1180 189.398L1199.43 169.97L1210.73 181.264L1210.73 181.27L1180 212L1149.28 181.28L1149.26 181.264L1160.58 169.979ZM1207.4 162.005L1218.7 150.704L1230 162.004L1218.7 173.304L1207.4 162.005Z" fill="white"/>
<path d="M1191.46 161.994H1191.47L1180 150.528L1171.52 159.002H1171.52L1170.55 159.976L1168.54 161.984L1168.53 162L1168.54 162.016L1180 173.473L1191.47 162.006L1191.47 162L1191.46 161.994" fill="white"/>
<path d="M675.053 674.564C672.976 673.377 670.306 673.377 667.932 674.564L651.315 684.356L640.039 690.588L623.718 700.38C621.641 701.567 618.97 701.567 616.596 700.38L603.837 692.665C601.76 691.478 600.276 689.104 600.276 686.433V671.596C600.276 669.223 601.463 666.849 603.837 665.365L616.596 657.947C618.674 656.76 621.344 656.76 623.718 657.947L636.478 665.662C638.555 666.849 640.039 669.223 640.039 671.893V681.685L651.315 675.157V665.068C651.315 662.694 650.128 660.32 647.754 658.837L624.015 644.89C621.938 643.703 619.267 643.703 616.893 644.89L592.561 659.134C590.187 660.32 589 662.694 589 665.068V692.961C589 695.335 590.187 697.709 592.561 699.193L616.596 713.139C618.674 714.326 621.344 714.326 623.718 713.139L640.039 703.644L651.315 697.116L667.635 687.62C669.712 686.433 672.383 686.433 674.757 687.62L687.516 695.039C689.593 696.226 691.077 698.599 691.077 701.27V716.107C691.077 718.481 689.89 720.855 687.516 722.338L675.053 729.757C672.976 730.944 670.306 730.944 667.932 729.757L655.172 722.338C653.095 721.151 651.611 718.777 651.611 716.107V706.611L640.335 713.139V722.932C640.335 725.306 641.522 727.68 643.896 729.163L667.932 743.11C670.009 744.297 672.68 744.297 675.053 743.11L699.089 729.163C701.166 727.976 702.65 725.602 702.65 722.932V694.742C702.65 692.368 701.463 689.994 699.089 688.51L675.053 674.564Z" fill="white"/>
<path d="M1039.88 525.013C1036.16 521.368 1031.15 519.328 1025.94 519.328C1020.73 519.328 1015.72 521.368 1012 525.013C1010.17 526.837 1008.72 529.005 1007.74 531.39C1006.75 533.776 1006.25 536.333 1006.26 538.915C1006.26 541.496 1006.78 544.05 1007.78 546.431C1008.78 548.811 1010.24 550.971 1012.07 552.785C1015.79 556.474 1020.81 558.551 1026.04 558.568C1031.28 558.584 1036.31 556.538 1040.05 552.873C1040.18 552.735 1040.72 552.144 1041.68 551.088L1032.38 541.847C1031.42 542.953 1030.92 543.532 1030.86 543.582C1029.59 544.838 1027.88 545.543 1026.1 545.543C1024.32 545.543 1022.61 544.838 1021.35 543.582C1020.1 542.351 1019.38 540.673 1019.37 538.917C1019.35 537.161 1020.03 535.47 1021.26 534.216C1022.53 532.993 1024.23 532.315 1025.99 532.33C1027.76 532.344 1029.44 533.048 1030.69 534.291L1055.56 558.971C1052.12 563.884 1047.56 567.9 1042.25 570.679C1036.93 573.458 1031.03 574.918 1025.03 574.937C1018.74 574.939 1012.54 573.329 1007.04 570.26C1001.54 567.191 996.92 562.766 993.614 557.405C990.308 552.044 988.43 545.926 988.158 539.633C987.885 533.341 989.228 527.084 992.058 521.457C994.888 515.83 999.111 511.022 1004.33 507.489C1009.54 503.956 1015.57 501.817 1021.85 501.275C1028.12 500.733 1034.43 501.806 1040.17 504.392C1045.92 506.978 1050.9 510.991 1054.65 516.049C1053.57 517.323 1050.76 520.495 1046.24 525.566L1055.46 534.631L1070.65 517.595C1066.98 509.381 1061.16 502.31 1053.8 497.128C1046.45 491.945 1037.83 488.843 1028.86 488.149C1019.89 487.455 1010.9 489.194 1002.83 493.183C994.768 497.172 987.929 503.263 983.037 510.814C978.145 518.365 975.381 527.096 975.037 536.087C974.692 545.077 976.78 553.994 981.08 561.897C985.381 569.8 991.734 576.397 999.469 580.991C1007.21 585.585 1016.04 588.006 1025.03 588C1037.61 588 1048 584.09 1058.18 575.428C1064.02 570.276 1068.67 563.908 1071.8 556.77L1039.88 525.013Z" fill="white"/>
<circle cx="110" cy="162" r="100" stroke="white" stroke-width="20" stroke-dasharray="1.5 1.5"/>
<circle cx="1180" cy="162" r="100" stroke="white" stroke-width="20" stroke-dasharray="1.5 1.5"/>
<circle cx="646" cy="694" r="100" stroke="white" stroke-width="20" stroke-dasharray="1.5 1.5"/>
<circle cx="1023" cy="538" r="100" stroke="white" stroke-width="20" stroke-dasharray="1.5 1.5"/>
<circle cx="264" cy="538" r="100" stroke="white" stroke-width="20" stroke-dasharray="1.5 1.5"/>
<g filter="url(#filter0_b_2_116)">
<circle cx="646" cy="162" r="125" fill="#EEEEEE"/>
</g>
<path d="M646 246.248C680.517 246.248 708.5 216.915 708.5 180.73C708.5 160.491 693.836 133.075 664.508 98.4819C660.757 94.0565 654.587 87.153 646 77.7715C636.952 87.6689 630.468 94.9452 626.547 99.6001C597.849 133.666 583.5 160.709 583.5 180.73C583.5 216.915 611.483 246.248 646 246.248Z" fill="url(#paint0_linear_2_116)"/>
<path d="M646 245.918C671.887 245.918 692.875 223.918 692.875 196.78C692.875 181.601 681.877 161.039 659.881 135.094C657.068 131.775 652.44 126.597 646 119.561C639.214 126.984 634.351 132.441 631.41 135.932C609.887 161.482 599.125 181.764 599.125 196.78C599.125 223.918 620.113 245.918 646 245.918Z" fill="#244A93" fill-opacity="0.5"/>
<path d="M646 245.791C663.258 245.791 677.25 231.125 677.25 213.033C677.25 202.913 669.918 189.205 655.254 171.908C653.378 169.696 650.294 166.244 646 161.553C641.476 166.502 638.234 170.14 636.273 172.468C621.924 189.5 614.75 203.022 614.75 213.033C614.75 231.125 628.742 245.791 646 245.791Z" fill="url(#paint1_linear_2_116)" fill-opacity="0.75"/>
<path d="M263.605 488C242.956 488.005 226.219 504.743 226.214 525.391C226.216 527.753 226.438 530.11 226.875 532.431L231.714 529.123C240.205 523.298 253.979 523.298 262.469 529.123L267.535 532.599L270.289 534.485C277.941 539.727 290.343 539.727 297.985 534.485L300.236 532.944C304.386 512.704 291.342 492.931 271.101 488.781C268.641 488.277 266.136 488.021 263.625 488.019L263.605 488Z" fill="white"/>
<path d="M284.626 547.854C279.286 547.956 274.036 546.464 269.548 543.569L261.738 538.217C253.07 532.898 242.149 532.898 233.48 538.217L228.434 541.673C227.434 542.357 226.068 542.101 225.383 541.1C224.699 540.1 224.955 538.734 225.956 538.049L231.001 534.594C241.172 528.274 254.046 528.274 264.216 534.594L272.026 539.945C279.754 544.684 289.487 544.684 297.214 539.945L300.176 537.921C301.176 537.237 302.542 537.493 303.227 538.494C303.911 539.494 303.655 540.86 302.654 541.545L299.692 543.569C295.204 546.457 289.96 547.948 284.625 547.854" fill="white"/>
<path d="M247.451 563.563V542.433C247.433 541.988 247.45 541.542 247.501 541.1C247.641 539.897 248.659 538.989 249.87 538.987C251.043 539.023 252.002 539.931 252.102 541.1C252.192 541.834 252.218 542.574 252.181 543.312V585.443C252.23 586.805 251.166 587.949 249.803 587.999C249.789 587.999 249.776 588 249.762 588C248.422 587.925 247.397 586.779 247.472 585.44C247.474 585.401 247.477 585.363 247.481 585.324V571.275L247.451 563.563Z" fill="white"/>
<path d="M243.008 552.93V563.425C243.008 565.222 242.021 566.387 240.688 566.387C239.355 566.387 238.299 565.133 238.289 563.425V542.414C238.289 540.578 239.365 539.334 240.757 539.452C242.149 539.571 242.979 540.627 242.989 542.474C243.008 545.929 243.008 549.424 243.008 552.93" fill="white"/>
<path d="M256.644 552.909V545.543C256.644 543.835 257.552 542.729 258.905 542.729C260.305 542.795 261.386 543.983 261.321 545.383C261.319 545.417 261.317 545.45 261.314 545.484C261.36 550.5 261.36 555.519 261.314 560.541C261.314 562.249 260.327 563.286 258.915 563.266C257.503 563.246 256.644 562.199 256.634 560.452V552.918L256.644 552.909Z" fill="white"/>
<path d="M229.136 554.43V547.054C229.136 545.336 230.044 544.23 231.397 544.23C232.797 544.296 233.878 545.484 233.813 546.884C233.811 546.918 233.809 546.951 233.806 546.985C233.852 552.008 233.852 557.03 233.806 562.053C233.806 563.761 232.819 564.788 231.417 564.778C230.014 564.768 229.136 563.712 229.126 561.954V554.43L229.136 554.43Z" fill="white"/>
<path d="M268.107 548.17C269.389 548.17 270.428 549.209 270.428 550.491V554.499C270.428 555.781 269.389 556.82 268.107 556.82C266.826 556.82 265.787 555.781 265.787 554.499V550.491C265.787 549.209 266.826 548.17 268.107 548.17" fill="white"/>
<path d="M277.29 551.685C278.571 551.685 279.61 552.724 279.61 554.005V576.507C279.61 577.788 278.571 578.827 277.29 578.827C276.008 578.827 274.97 577.788 274.97 576.507V554.005C274.97 552.724 276.008 551.685 277.29 551.685" fill="white"/>
<path d="M286.412 552.554C287.693 552.554 288.732 553.593 288.732 554.874V573.999C288.732 575.281 287.693 576.32 286.412 576.32C285.13 576.32 284.091 575.281 284.091 573.999V554.874C284.091 553.593 285.13 552.554 286.412 552.554" fill="white"/>
<path d="M295.664 550.371C296.945 550.371 297.984 551.41 297.984 552.691V560.936C297.984 562.217 296.945 563.256 295.664 563.256C294.382 563.256 293.343 562.217 293.343 560.936V552.691C293.343 551.41 294.382 550.371 295.664 550.371" fill="white"/>
<defs>
<filter id="filter0_b_2_116" x="421" y="-63" width="450" height="450" filterUnits="userSpaceOnUse" color-interpolation-filters="sRGB">
<feFlood flood-opacity="0" result="BackgroundImageFix"/>
<feGaussianBlur in="BackgroundImageFix" stdDeviation="50"/>
<feComposite in2="SourceAlpha" operator="in" result="effect1_backgroundBlur_2_116"/>
<feBlend mode="normal" in="SourceGraphic" in2="effect1_backgroundBlur_2_116" result="shape"/>
</filter>
<linearGradient id="paint0_linear_2_116" x1="646" y1="77.7715" x2="646" y2="246.248" gradientUnits="userSpaceOnUse">
<stop stop-color="#614CB5"/>
<stop offset="1" stop-color="#3F70EE"/>
</linearGradient>
<linearGradient id="paint1_linear_2_116" x1="646" y1="161.553" x2="646" y2="245.782" gradientUnits="userSpaceOnUse">
<stop stop-color="#8FAFFF"/>
<stop offset="1" stop-color="#3D7DDD"/>
</linearGradient>
</defs>
</svg>
