<svg fill="none" height="256" viewBox="0 0 256 256" width="256" xmlns="http://www.w3.org/2000/svg"><path clip-rule="evenodd" d="m128 0c70.697 0 128 57.3026 128 128 0 70.697-57.303 128-128 128-70.6974 0-128-57.303-128-128 0-70.6974 57.3026-128 128-128z" fill="#f0b90b" fill-rule="evenodd"/><g fill="#fff"><path d="m70.3483 128 .0923 33.846 28.759 16.923v19.816l-45.5897-26.739v-53.744zm0-33.8462v19.7232l-16.7487-9.908v-19.7229l16.7487-9.9077 16.8308 9.9077zm40.8617-9.9077 16.749-9.9077 16.83 9.9077-16.83 9.9077z"/><path d="m82.4512 154.831v-19.816l16.7487 9.908v19.723zm28.7588 31.036 16.749 9.907 16.831-9.907v19.723l-16.831 9.907-16.749-9.907zm57.6-101.6209 16.749-9.9077 16.831 9.9077v19.7229l-16.831 9.908v-19.7232zm16.749 77.5999.092-33.846 16.749-9.908v53.744l-45.59 26.738v-19.815z"/><path d="m173.549 154.831-16.748 9.815v-19.723l16.748-9.908z"/><path d="m173.549 101.169.092 19.815-28.841 16.924v33.928l-16.749 9.815-16.749-9.815v-33.928l-28.8406-16.924v-19.815l16.8205-9.9076 28.6671 17.0056 28.841-17.0056 16.83 9.9076zm-91.0978-33.8358 45.5078-26.8308 45.59 26.8308-16.749 9.9077-28.841-17.0051-28.7591 17.0051z"/></g></svg>