<svg width="249" height="257" viewBox="0 0 249 257" fill="none" xmlns="http://www.w3.org/2000/svg">
<path d="M166.329 94.8841C156.778 85.5414 143.948 80.31 130.587 80.31C117.226 80.31 104.396 85.5414 94.844 94.8841C90.1626 99.5607 86.4524 105.117 83.9269 111.233C81.4014 117.35 80.1105 123.905 80.1285 130.522C80.1465 137.139 81.473 143.687 84.0317 149.79C86.5903 155.892 90.3307 161.428 95.0374 166.079C104.561 175.535 117.426 180.861 130.847 180.903C144.267 180.945 157.165 175.701 166.748 166.305C167.103 165.95 168.489 164.436 170.938 161.728L147.088 138.04C144.639 140.876 143.35 142.358 143.188 142.487C139.951 145.707 135.571 147.515 131.006 147.515C126.44 147.515 122.06 145.707 118.823 142.487C115.61 139.332 113.782 135.031 113.74 130.528C113.697 126.026 115.445 121.691 118.597 118.476C121.851 115.34 126.204 113.605 130.723 113.641C135.242 113.677 139.566 115.482 142.769 118.67L206.52 181.936C197.713 194.533 186.007 204.828 172.388 211.951C158.769 219.075 143.636 222.819 128.266 222.868C112.12 222.873 96.2417 218.746 82.1423 210.878C68.0429 203.011 56.192 191.665 47.7177 177.922C39.2435 164.179 34.4281 148.495 33.7299 132.364C33.0318 116.233 36.4742 100.192 43.7293 85.7683C50.9844 71.3443 61.8108 59.0173 75.1778 49.9611C88.5447 40.9049 104.007 35.4208 120.093 34.0311C136.179 32.6413 152.353 35.3921 167.075 42.0215C181.797 48.6509 194.578 58.9384 204.199 71.9043C201.406 75.1703 194.219 83.3029 182.638 96.3022L206.262 119.54L245.195 75.8686C235.783 54.8119 220.863 36.6852 202.009 23.3997C183.155 10.1142 161.065 2.16227 138.069 0.382303C115.073 -1.39766 92.023 3.06032 71.3491 13.2862C50.6751 23.5121 33.1435 39.1269 20.6027 58.4843C8.06185 77.8417 0.976569 100.224 0.0939112 123.272C-0.788746 146.32 4.56392 169.179 15.5875 189.439C26.6111 209.699 42.8972 226.608 62.7285 238.386C82.5598 250.163 105.201 256.371 128.266 256.355C160.496 256.355 187.15 246.331 213.223 224.125C228.216 210.919 240.14 194.595 248.16 176.296L166.329 94.8841Z" fill="url(#paint0_linear_47_611)"/>
<defs>
<linearGradient id="paint0_linear_47_611" x1="244.399" y1="135.608" x2="-3.61237" y2="135.608" gradientUnits="userSpaceOnUse">
<stop stop-color="#22E6B8"/>
<stop offset="1" stop-color="#00C1CE"/>
</linearGradient>
</defs>
</svg>
