<svg fill="none" height="257" width="249" xmlns="http://www.w3.org/2000/svg"><linearGradient id="a" gradientUnits="userSpaceOnUse" x1="244.399" x2="-3.612" y1="135.608" y2="135.608"><stop offset="0" stop-color="#22e6b8"/><stop offset="1" stop-color="#00c1ce"/></linearGradient><path d="M166.329 94.884a51.113 51.113 0 0 0-71.485 0 50.182 50.182 0 0 0 .193 71.195 51.052 51.052 0 0 0 71.711.226c.355-.355 1.741-1.869 4.19-4.577l-23.85-23.688c-2.449 2.836-3.738 4.318-3.9 4.447a17.274 17.274 0 0 1-24.365 0 16.985 16.985 0 0 1-.226-24.011 17.275 17.275 0 0 1 24.172.194l63.751 63.266a95.85 95.85 0 0 1-78.254 40.932 94.59 94.59 0 0 1-80.548-44.946A94.594 94.594 0 0 1 204.199 71.904c-2.793 3.266-9.98 11.399-21.561 24.398l23.624 23.238 38.933-43.671A128.171 128.171 0 0 0 138.069.382a128.177 128.177 0 1 0-9.803 255.973c32.23 0 58.884-10.024 84.957-32.23a137.047 137.047 0 0 0 34.937-47.829z" fill="url(#a)"/></svg>