<svg fill="none" height="691" width="512" xmlns="http://www.w3.org/2000/svg" xmlns:xlink="http://www.w3.org/1999/xlink"><linearGradient id="a" gradientUnits="userSpaceOnUse" x1="256" x2="256" y2="690.08"><stop offset="0" stop-color="#614cb5"/><stop offset="1" stop-color="#3f70ee"/></linearGradient><linearGradient id="b" gradientUnits="userSpaceOnUse" x1="256" x2="256" y1="343.17" y2="688.17"><stop offset="0" stop-color="#8fafff"/><stop offset="1" stop-color="#3d7ddd"/></linearGradient><path d="m256 690.08c141.38 0 256-120.15 256-268.36 0-82.9-60.063-195.197-180.19-336.89-15.367-18.127-40.637-46.403-75.81-84.83-37.06 40.54-63.62 70.343-79.68 89.41-117.547 139.533-176.32 250.303-176.32 332.31 0 148.21 114.62 268.36 256 268.36z" fill="url(#a)"/><path d="m256 688.73c106.035 0 192-90.113 192-201.27 0-62.175-45.048-146.398-135.143-252.668-11.524-13.595-30.477-34.802-56.857-63.622-27.795 30.405-47.715 52.757-59.76 67.057-88.16 104.65-132.24 187.728-132.24 249.233 0 111.157 85.965 201.27 192 201.27z" fill="#244a93" fill-opacity=".5"/><path d="m256 688.21c70.69 0 128-60.075 128-134.18 0-41.45-30.032-97.598-90.095-168.445-7.683-9.063-20.318-23.202-37.905-42.415-18.53 20.27-31.81 35.172-39.84 44.705-58.773 69.767-88.16 125.152-88.16 166.155 0 74.105 57.31 134.18 128 134.18z" fill="url(#b)" fill-opacity=".75"/></svg>