<svg fill="none" height="248" width="195" xmlns="http://www.w3.org/2000/svg"><path d="M95.383 0C44.365.013 3.013 41.369 3 92.383a94.419 94.419 0 0 0 1.635 17.394l11.953-8.173c20.98-14.393 55.012-14.393 75.99 0l12.514 8.587 6.806 4.66c18.906 12.953 49.547 12.953 68.429 0l5.562-3.806c10.253-50.008-21.976-98.861-71.985-109.115A92.436 92.436 0 0 0 95.431.047z" fill="#f2b705"/><g fill="#53cbc8"><path d="M147.318 147.882a66.383 66.383 0 0 1-37.252-10.587l-19.297-13.222a66.743 66.743 0 0 0-69.818 0l-12.465 8.538a5.424 5.424 0 0 1-6.124-8.953l12.466-8.538c25.127-15.613 56.936-15.613 82.065 0l19.296 13.222a59.524 59.524 0 0 0 62.231 0l7.318-5.001a5.423 5.423 0 1 1 6.123 8.953l-7.318 5.001a66.618 66.618 0 0 1-37.225 10.587"/><path d="M55.47 186.694v-52.205c-.044-1.1-.003-2.201.123-3.294a5.904 5.904 0 0 1 5.854-5.22 5.708 5.708 0 0 1 5.514 5.22c.222 1.813.287 3.641.195 5.465v104.094a6.099 6.099 0 0 1-5.977 6.318 6 6 0 0 1-5.635-6.611v-34.713l-.073-19.054zm-10.977-26.271v25.931c0 4.44-2.44 7.319-5.733 7.319s-5.903-3.098-5.928-7.319v-51.912c0-4.537 2.66-7.611 6.1-7.319 3.439.293 5.488 2.904 5.512 7.466.05 8.538.05 17.173.05 25.834m33.688-.052v-18.198c0-4.221 2.245-6.953 5.587-6.953a6.27 6.27 0 0 1 5.952 6.807 2023.31 2023.31 0 0 1 0 37.201c0 4.22-2.44 6.781-5.928 6.733-3.488-.049-5.61-2.635-5.635-6.953v-18.614zm-67.964 3.758v-18.223c0-4.244 2.244-6.977 5.586-6.977a6.27 6.27 0 0 1 5.953 6.806c.113 12.41.113 24.818 0 37.229 0 4.22-2.44 6.757-5.904 6.732-3.464-.024-5.635-2.634-5.66-6.976v-18.59zm96.288-15.465a5.733 5.733 0 0 1 5.733 5.733v9.904a5.733 5.733 0 0 1-11.466 0v-9.904a5.733 5.733 0 0 1 5.733-5.733m22.688 8.683a5.733 5.733 0 0 1 5.733 5.733v55.595a5.733 5.733 0 0 1-11.466 0V163.08a5.733 5.733 0 0 1 5.733-5.733m22.537 2.147a5.733 5.733 0 0 1 5.733 5.733v47.253a5.733 5.733 0 1 1-11.466 0v-47.253a5.733 5.733 0 0 1 5.733-5.733m22.859-5.393a5.733 5.733 0 0 1 5.733 5.733v20.37a5.733 5.733 0 0 1-11.466 0v-20.37a5.734 5.734 0 0 1 5.733-5.733"/></g></svg>