<svg fill="none" height="258" width="293" xmlns="http://www.w3.org/2000/svg"><path d="M221.612 78.71c-5.349-3.056-12.227-3.056-18.34 0l-42.794 25.218-29.039 16.048-42.03 25.218c-5.35 3.057-12.227 3.057-18.34 0l-32.86-19.869c-5.35-3.056-9.17-9.17-9.17-16.047v-38.21c0-6.113 3.056-12.226 9.17-16.047l32.86-19.105c5.349-3.056 12.227-3.056 18.34 0l32.86 19.87c5.349 3.056 9.17 9.17 9.17 16.047V97.05l29.039-16.812V54.257c0-6.114-3.057-12.227-9.171-16.048L90.173 2.293c-5.35-3.057-12.227-3.057-18.34 0L9.17 38.973C3.057 42.03 0 48.143 0 54.257v71.833c0 6.113 3.057 12.226 9.17 16.047l61.899 35.917c5.349 3.056 12.227 3.056 18.34 0l42.03-24.454 29.039-16.812 42.029-24.454c5.35-3.056 12.227-3.056 18.341 0l32.859 19.105c5.35 3.057 9.171 9.17 9.171 16.048v38.209c0 6.113-3.057 12.226-9.171 16.047l-32.095 19.105c-5.349 3.056-12.227 3.056-18.34 0l-32.86-19.105c-5.349-3.056-9.17-9.17-9.17-16.047v-24.454l-29.039 16.812v25.218c0 6.113 3.057 12.227 9.17 16.047l61.899 35.917c5.349 3.057 12.227 3.057 18.34 0l61.898-35.917c5.35-3.056 9.171-9.17 9.171-16.047v-72.597c0-6.114-3.057-12.227-9.171-16.048z" fill="#8247e5"/></svg>