<svg fill="none" viewBox="0 0 600 166" xmlns="http://www.w3.org/2000/svg"><g clip-rule="evenodd" fill-rule="evenodd"><path d="M82.316 0c45.683 0 82.531 36.849 82.531 82.748 0 45.252-37.279 82.531-83.178 82.315C37.28 164.632 0 128 0 82.533 0 36.848 36.633-.216 82.316 0zM19.609 125.63c0 .862.431 1.293.862 1.94 3.232 4.525 6.896 8.835 11.205 12.498 1.94 1.724 3.88 3.448 6.034 4.956 6.034 3.879 12.283 7.542 19.178 9.912 5.603 1.94 11.421 3.448 17.24 4.095 4.524.431 9.265.646 13.79 0 2.586-.431 5.387-.431 7.973-1.509.431.216.647-.215.862-.215 5.387-.862 10.559-2.586 15.731-4.741 16.808-7.327 29.521-19.178 37.71-35.555 7.326-14.438 9.697-29.737 7.326-45.683-2.155-15.3-8.619-28.66-18.963-39.865-13.791-15.73-31.46-23.919-52.363-25.212-9.266-.646-18.531.646-27.366 3.663-14.438 4.741-26.29 12.93-35.986 24.781-10.99 13.576-16.377 29.09-17.024 46.33-.215 4.31.216 8.404.862 12.713 1.293 9.697 4.525 18.963 9.481 27.367 1.293 1.293 2.155 3.017 3.448 4.525z" fill="#aaadc0"/><path d="M95.89 157.306c-2.585 1.293-5.387 1.293-7.973 1.508-4.525.647-9.266.431-13.79 0-5.819-.646-11.637-2.155-17.24-4.094-6.895-2.37-13.144-6.034-19.178-9.912-2.155-1.509-4.094-3.233-6.033-4.957-4.31-3.663-7.973-7.973-11.206-12.498-.43-.646-.862-1.293-.862-1.939 5.172-11.636 7.111-23.919 8.189-36.417.43-5.819.646-11.637 1.724-17.455 1.077-6.68 3.663-12.713 8.404-17.885 4.31-4.525 9.697-7.542 15.515-9.697 4.74-1.94 9.697-3.663 15.084-3.879 4.956-.215 9.697.431 14.437 1.509 7.111 1.724 14.222 3.878 20.902 7.11 5.388 2.156 10.99 4.31 16.593 6.034 5.818 1.724 11.636 3.664 16.592 7.327 6.249 4.74 7.973 10.774 5.172 18.1-1.724 4.526-4.956 7.974-8.189 11.421-5.818 6.034-12.067 11.637-17.669 17.886-6.465 7.542-12.283 15.299-16.377 24.35-3.448 7.542-5.388 15.299-4.095 23.488zm41.589-70.895c-.215 0-.431 0-.646.215a.463.463 0 0 0-.431.431v.216a.464.464 0 0 0 .431-.431l.646-.431c.431 0 .216 0 0 0 0 0 .216-.216 0 0zM71.54 48.916c-8.188 0-14.868 6.68-14.868 14.653 0 8.189 6.68 14.653 14.653 14.869 8.188 0 14.653-6.68 14.868-14.869 0-8.188-6.464-14.653-14.653-14.653zm12.068 45.252c1.293 1.94 3.663 3.664 6.464 4.525 5.603 1.94 11.206 1.94 16.808.862 9.913-1.939 19.178-5.387 27.582-10.99.431-.43 1.293-.43 1.509-1.292-.431-.216-.647 0-.862.215-2.801 1.724-5.818 3.017-8.835 4.31-7.758 3.232-15.946 5.387-24.565 5.818-6.25.431-12.499 0-18.101-3.448zm40.727-12.713c1.723 0 3.232-1.509 3.232-3.448 0-1.724-1.509-3.232-3.448-3.017-1.724 0-3.017 1.509-3.017 3.232 0 1.94 1.293 3.233 3.233 3.233z" fill="#a9acbf"/><path d="M82.746 41.59c-4.74-.862-9.481-1.724-14.437-1.508-5.387.215-10.128 1.94-15.084 3.879-5.818 2.154-11.206 5.171-15.515 9.696-4.741 4.957-7.327 10.99-8.404 17.886-.862 5.818-1.078 11.636-1.724 17.454-1.078 12.498-3.017 24.996-8.189 36.417-1.508-1.293-2.37-3.232-3.232-4.74-4.956-8.404-8.188-17.67-9.481-27.367-.647-4.31-1.078-8.404-.862-12.714.646-17.239 6.033-32.754 17.023-46.33 9.481-11.851 21.549-20.04 35.986-24.78C67.662 6.68 76.928 5.389 86.194 5.82c20.687 1.292 38.357 9.696 52.363 24.996 10.343 11.42 16.593 24.78 18.963 39.865 2.37 15.946 0 31.245-7.327 45.683-8.188 16.377-20.902 28.228-37.71 35.555-4.956 2.155-10.128 3.879-15.73 4.741-.431 0-.647.646-.862.215-1.293-8.188.646-15.946 3.879-23.488 4.094-9.05 9.912-16.808 16.377-24.35 5.387-6.249 11.636-12.067 17.669-17.885 3.448-3.448 6.465-6.896 8.189-11.42 3.017-7.327 1.293-13.36-5.172-18.102-4.956-3.663-10.774-5.602-16.592-7.326-5.603-1.724-11.205-3.879-16.593-6.034-1.077-3.663-3.663-6.033-7.11-7.326-4.526-1.078-9.051-.647-13.792.646zm70.464 45.9h.431c.862-3.017.862-6.25.862-9.482 0-3.663-.431-7.326-1.077-10.99-2.371-11.851-7.758-22.194-16.162-31.03-5.171-5.387-10.99-9.912-16.808-14.653-5.171-4.31-10.774-7.541-17.239-9.265-6.249-1.509-12.282-2.37-18.747-1.293-.43 0-.862 0-.862.43 0 .432.431.432.862.432 9.481 1.723 18.532 4.74 27.367 8.188 8.619 3.448 15.946 8.404 21.333 16.161 3.663 5.388 7.111 10.99 9.912 17.024 3.664 8.188 6.465 16.592 8.189 25.212.862 3.448 1.508 6.249 1.939 9.266z" fill="#dadeef"/><path d="M71.541 48.916c8.189 0 14.653 6.68 14.653 14.653 0 8.188-6.68 14.653-14.868 14.869-8.189 0-14.653-6.68-14.653-14.869 0-8.188 6.68-14.653 14.868-14.653zm10.344 14.869c0-5.819-4.526-10.344-10.344-10.344s-10.343 4.525-10.343 10.343c0 5.603 4.525 10.344 10.128 10.344h.215c5.603 0 10.128-4.525 10.344-10.343z" fill="#fcfdfb"/><path d="M83.609 94.168c5.603 3.447 11.852 3.878 18.101 3.663 8.619-.431 16.808-2.37 24.565-5.818 3.017-1.293 6.034-2.586 8.835-4.31.216-.215.431-.43.862-.215-.215.646-.862.862-1.508 1.293-8.404 5.602-17.67 9.05-27.583 10.99-5.602 1.077-11.42 1.077-16.807-.863-2.802-1.077-5.388-2.8-6.465-4.74zm-.862-52.579c4.525-1.293 9.266-1.724 13.791 0 3.448 1.293 6.034 3.663 7.111 7.327-6.464-3.448-13.575-5.603-20.902-7.327z" fill="#7e8295"/><path d="M124.336 81.456c-1.724 0-3.232-1.509-3.232-3.233 0-1.723 1.292-3.232 3.016-3.232s3.233 1.293 3.448 3.017c-.215 1.94-1.508 3.448-3.232 3.448z" fill="#fcfdfb"/><path d="M136.833 86.842a.463.463 0 0 1-.431.431c0-.43.216-.646.431-.43zm.647-.43l-.647.43-.215-.215c.431-.216.646-.216.862-.216z" fill="#a9acbf"/><path d="M153.212 87.488c-.647-3.016-1.293-5.818-1.724-8.835-1.724-8.834-4.741-17.238-8.189-25.211-2.586-6.034-6.033-11.637-9.912-17.024-5.387-7.757-12.498-12.713-21.333-16.161-9.051-3.448-17.886-6.68-27.367-8.189-.43 0-.862 0-.862-.43 0-.432.431-.432.862-.432 6.25-1.077 12.498-.43 18.747 1.293 6.465 1.724 12.068 5.172 17.239 9.266 5.818 4.74 11.637 9.266 16.808 14.653 8.404 8.835 13.791 19.178 16.162 31.03.646 3.664 1.077 7.327 1.077 10.99 0 3.017 0 6.25-.862 9.481l-.646-.43z" fill="#fffefc"/><path d="M81.886 63.784c0 5.603-4.525 10.344-10.128 10.344h-.215c-5.603 0-10.344-4.525-10.344-10.344v-.215c0-5.818 4.74-10.343 10.344-10.343 5.602 0 10.343 4.74 10.343 10.558z" fill="#7e8295"/><path d="M408.776 105.374c-.215.215-.431.215-.646.431-6.68 7.542-15.084 8.835-24.135 6.465-11.205-2.802-17.238-10.775-19.609-21.764-1.508-7.112-1.077-14.223 1.724-20.903 4.956-11.851 16.162-18.316 28.875-16.592 5.818.862 11.206 2.801 15.3 7.11 3.017 3.233 4.74 7.112 5.387 11.422.215.862-.216 1.077-.862 1.077h-7.973c-.647 0-.862-.215-1.077-.862-1.293-5.818-5.172-9.05-10.775-10.128-6.464-1.293-12.067 0-16.377 5.172-3.878 4.74-4.956 10.559-4.956 16.592 0 4.526.862 8.835 2.801 12.714 4.526 8.62 15.731 11.636 24.135 6.68 4.741-2.801 6.249-7.326 6.68-12.498 0-1.078-.647-.862-1.293-.862h-12.714c-1.293 0-1.508-.43-1.508-1.508v-4.957c0-1.077.431-1.292 1.293-1.292h22.195c.862 0 1.293.215 1.293 1.077v28.229c0 .862-.216 1.077-1.078 1.077-1.723 0-3.878.431-5.171-.215-1.293-.862-.862-3.017-1.293-4.741 0-.647-.216-1.293-.216-1.724zM238.111 72.62h-4.094c-.862 0-1.077-.215-1.293-1.077-1.724-6.034-5.602-9.697-11.851-10.344-6.896-.646-12.714 1.509-16.162 7.758-5.172 9.481-4.956 19.178.216 28.444 3.447 6.249 10.989 9.05 17.885 7.111 6.034-1.724 8.835-6.249 10.128-12.067.431-2.37.431-2.37 2.801-2.37h6.465c.862 0 1.077.215.862 1.077-1.078 11.421-8.404 20.256-19.61 21.979-16.161 2.586-29.521-7.326-32.107-23.487-1.077-7.112-.431-14.007 2.37-20.687 4.957-11.205 15.946-17.239 28.229-15.73 5.818.861 11.205 2.8 15.515 7.11 3.017 3.233 4.741 7.111 5.387 11.421.216.862 0 1.078-.862 1.078-1.077-.431-2.586-.216-3.879-.216zm317.196 39.219h-10.344c-.861 0-1.292-.431-1.508-1.078-3.663-6.033-7.542-11.852-11.205-17.885-.647-1.078-.862-1.078-1.94-.216-3.663 2.586-5.171 6.034-4.525 10.559.431 2.37 0 4.956 0 7.542 0 1.078-.431 1.293-1.293 1.293h-6.464c-1.078 0-1.293-.431-1.293-1.508V55.812c0-1.508.431-1.94 1.939-1.724a26.26 26.26 0 0 0 5.818 0c1.293 0 1.509.431 1.509 1.509V86.41l.431.216c.646-.862 1.508-1.724 2.155-2.586 4.309-4.525 8.619-8.835 13.144-13.36.431-.431.862-.862 1.509-.862h10.343c0 .646-.647.862-.862 1.293-4.525 4.31-8.835 8.62-13.576 12.929-1.077.862-1.077 1.508-.215 2.801l15.515 23.273c0 .646.431 1.077.862 1.724zm-106.45-18.532H434.85c-1.077 0-1.293.215-1.293 1.293.431 8.404 8.189 13.575 15.946 10.343 2.155-.862 3.879-2.586 4.741-4.956.431-1.078 1.077-1.293 1.939-1.293h6.034c1.077 0 1.293.215.862 1.293-2.371 7.542-7.542 11.636-15.3 12.714-6.895 1.077-13.36-.431-18.316-5.603-3.448-3.663-4.956-8.404-5.387-13.36-.431-6.034.431-11.852 4.31-17.024 4.956-6.464 11.636-8.835 19.393-7.542 8.189 1.509 13.145 6.68 15.515 14.438.862 2.801 1.078 5.603.862 8.62 0 1.077-.431 1.292-1.293 1.292-4.525-.215-9.266-.215-14.006-.215zm-4.525-6.034h9.481c1.077 0 1.293-.215 1.077-1.293-.862-5.602-4.956-9.697-10.343-9.912-5.603-.216-10.128 3.663-10.99 9.481-.215 1.078 0 1.509 1.293 1.509 3.232.215 6.249.215 9.482.215zm-195.015 3.663c0-2.585.431-5.387 1.077-7.973 2.801-9.05 10.774-14.653 20.687-14.006 7.542.43 13.791 3.017 17.454 9.697 4.31 8.188 4.31 16.808-.215 24.781-4.095 7.542-11.206 9.912-19.394 9.481-12.283-.646-19.609-9.05-19.609-21.98zm9.266 0c0 3.664.646 6.896 2.801 9.913 3.448 4.956 10.128 6.464 15.084 3.017 1.077-.862 2.155-1.724 3.017-2.802 3.663-5.387 3.879-14.437 0-20.04-4.525-6.465-14.007-6.465-18.317.216-1.939 2.8-2.585 6.249-2.585 9.696zm299.094.216c0-6.034 1.293-11.42 5.387-15.946 4.094-4.74 9.697-6.465 15.731-6.465 6.033 0 11.636 1.724 15.946 6.465 4.525 5.172 5.602 11.42 5.171 18.1-.215 2.371-.646 4.742-1.508 6.896-3.232 8.404-10.99 13.145-20.902 12.499-11.636-.647-18.963-8.189-19.609-19.825 0-.431-.216-1.293-.216-1.724zm32.969.43c0-4.309-1.077-7.972-2.585-10.558-3.233-5.172-10.128-6.465-15.084-3.232a11.544 11.544 0 0 0-3.233 3.232c-3.663 5.387-3.447 14.438 0 19.609 3.448 4.956 10.128 6.465 15.084 3.017 1.293-.862 2.155-1.724 3.017-3.017 2.155-2.801 2.801-6.249 2.801-9.05zm-263.323-15.73c2.585-3.232 5.602-5.602 9.697-6.68 3.663-.862 7.326-.646 10.774.862 5.171 2.155 7.326 6.68 7.542 12.067.215 9.482 0 18.963 0 28.445 0 1.077-.216 1.293-1.293 1.293h-6.465c-1.077 0-1.508-.216-1.508-1.509V86.196c0-1.724-.216-3.448-.647-4.956-1.292-4.31-5.387-6.034-10.343-4.741-4.31 1.293-7.111 5.172-7.111 10.128v23.488c0 1.293-.215 1.939-1.724 1.724a28.165 28.165 0 0 0-6.033 0c-1.078 0-1.509-.216-1.509-1.509V71.758c0-1.508.431-1.94 1.94-1.724 1.939.216 3.663 0 5.602 0 1.078 0 1.509.216 1.293 1.293-.215 1.509-.215 3.017-.215 4.525zm176.698 8.189h-.646c-2.371.215-3.879 0-4.957-2.801-2.585-6.465-12.929-6.68-17.238-.647-1.509 1.94-2.155 4.31-2.586 6.896-.431 4.094-.431 8.188 1.293 12.067 2.155 4.741 6.033 6.895 10.989 6.249 4.095-.646 6.896-3.232 7.973-7.758.216-1.292.862-1.723 2.155-1.508h6.249c1.078 0 1.293.431 1.078 1.293-2.155 10.343-9.482 16.161-20.256 15.515s-17.885-7.758-18.747-18.747c-.431-4.741 0-9.482 1.939-14.007 3.233-7.542 10.559-11.852 19.179-11.42 5.171.215 9.912 1.508 13.791 5.171 2.37 2.37 3.663 5.387 4.309 8.62.216 1.077-.215 1.508-1.293 1.292-.862-.215-1.939-.215-3.232-.215zm-195.446 7.11V109.9c0 1.724-.431 2.155-1.939 1.94a24.304 24.304 0 0 0-5.603 0c-1.293 0-1.724-.216-1.724-1.724V71.327c0-1.077.216-1.293 1.293-1.293h6.465c1.293 0 1.724.216 1.724 1.724-.216 6.465-.216 12.93-.216 19.394zm-4.309-37.063c1.293.216 3.232-.646 4.094.216s.215 2.801.215 4.31c0 1.293.647 3.016-.215 3.878s-2.586.216-3.879.216c-1.724 0-3.879.646-4.956-.216-.862-1.077-.216-3.232-.216-4.74 0-3.664 0-3.664 3.664-3.664z" fill="#fff"/></g></svg>