<svg viewBox="0 0 600 166" fill="none" xmlns="http://www.w3.org/2000/svg">
<path fill-rule="evenodd" clip-rule="evenodd" d="M82.3156 0.000934881C127.999 0.000934881 164.847 36.849 164.847 82.7475C164.847 128 127.568 165.279 81.6692 165.063C37.2791 164.632 0 128 0 82.5321C0 36.849 36.6326 -0.214551 82.3156 0.000934881ZM19.6092 125.629C19.6092 126.491 20.0402 126.922 20.4712 127.569C23.7034 132.094 27.3667 136.404 31.6764 140.067C33.6158 141.791 35.5552 143.515 37.71 145.023C43.7436 148.902 49.9927 152.565 56.8883 154.935C62.4909 156.875 68.309 158.383 74.1272 159.03C78.6524 159.461 83.3931 159.676 87.9183 159.03C90.5041 158.599 93.3054 158.599 95.8912 157.521C96.3222 157.737 96.5377 157.306 96.7532 157.306C102.14 156.444 107.312 154.72 112.484 152.565C129.292 145.238 142.005 133.387 150.194 117.01C157.52 102.572 159.891 87.2727 157.52 71.3268C155.365 56.0273 148.901 42.6672 138.557 31.4619C124.766 15.7314 107.097 7.54295 86.1944 6.25003C76.9285 5.60357 67.6626 6.89648 58.8277 9.91329C44.3901 14.654 32.5384 22.8424 22.8415 34.6942C11.8517 48.2698 6.46458 63.7848 5.81812 81.0237C5.60263 85.3334 6.03361 89.4276 6.68006 93.7373C7.97298 103.434 11.2053 112.7 16.1614 121.104C17.4544 122.397 18.3163 124.121 19.6092 125.629Z" fill="#AAADC0"/>
<path fill-rule="evenodd" clip-rule="evenodd" d="M95.8904 157.306C93.3046 158.599 90.5033 158.599 87.9174 158.814C83.3922 159.461 78.6515 159.245 74.1263 158.814C68.3082 158.168 62.4901 156.659 56.8875 154.72C49.9919 152.35 43.7428 148.686 37.7092 144.808C35.5544 143.299 33.615 141.575 31.6756 139.851C27.3659 136.188 23.7026 131.878 20.4703 127.353C20.0394 126.707 19.6084 126.06 19.6084 125.414C24.7801 113.778 26.7194 101.495 27.7969 88.9966C28.2278 83.1785 28.4433 77.3604 29.5207 71.5423C30.5982 64.8622 33.184 58.8286 37.9247 53.6569C42.2344 49.1317 47.6216 46.1149 53.4397 43.9601C58.1804 42.0207 63.1366 40.2968 68.5237 40.0813C73.4799 39.8658 78.2206 40.5123 82.9613 41.5897C90.0723 43.3136 97.1833 45.4685 103.863 48.7008C109.251 50.8556 114.853 53.0105 120.456 54.7344C126.274 56.4583 132.092 58.3976 137.048 62.0609C143.297 66.8016 145.021 72.8352 142.22 80.1617C140.496 84.6869 137.264 88.1347 134.031 91.5825C128.213 97.6161 121.964 103.219 116.362 109.468C109.897 117.01 104.079 124.767 99.9846 133.818C96.5369 141.36 94.5975 149.117 95.8904 157.306ZM137.479 86.4108C137.264 86.4108 137.048 86.4108 136.833 86.6263C136.617 86.6263 136.402 86.8418 136.402 87.0573C136.402 87.0573 136.402 87.0573 136.402 87.2728C136.617 87.2728 136.833 87.0573 136.833 86.8418L137.479 86.4108C137.91 86.4108 137.695 86.4108 137.479 86.4108C137.479 86.4108 137.695 86.1953 137.479 86.4108ZM71.5405 48.9163C63.352 48.9163 56.672 55.5963 56.672 63.5693C56.672 71.7578 63.352 78.2223 71.325 78.4378C79.5135 78.4378 85.9781 71.7578 86.1935 63.5693C86.1935 55.3808 79.729 48.9163 71.5405 48.9163ZM83.6077 94.1683C84.9006 96.1077 87.271 97.8316 90.0723 98.6935C95.6749 100.633 101.278 100.633 106.88 99.5555C116.793 97.6161 126.058 94.1683 134.462 88.5657C134.893 88.1347 135.755 88.1347 135.971 87.2728C135.54 87.0573 135.324 87.2727 135.109 87.4882C132.308 89.2121 129.291 90.505 126.274 91.798C118.516 95.0302 110.328 97.1851 101.709 97.6161C95.4595 98.0471 89.2104 97.6161 83.6077 94.1683ZM124.335 81.4546C126.058 81.4546 127.567 79.9462 127.567 78.0069C127.567 76.283 126.058 74.7746 124.119 74.9901C122.395 74.9901 121.102 76.4985 121.102 78.2223C121.102 80.1617 122.395 81.4546 124.335 81.4546Z" fill="#A9ACBF"/>
<path fill-rule="evenodd" clip-rule="evenodd" d="M82.7463 41.5902C78.0056 40.7282 73.2649 39.8663 68.3087 40.0818C62.9215 40.2973 58.1809 42.0211 53.2247 43.9605C47.4066 46.1154 42.0194 49.1322 37.7097 53.6574C32.969 58.6136 30.3832 64.6472 29.3057 71.5427C28.4438 77.3608 28.2283 83.179 27.5819 88.9971C26.5044 101.495 24.565 113.993 19.3934 125.414C17.885 124.121 17.023 122.182 16.1611 120.674C11.2049 112.27 7.97264 103.004 6.67972 93.3068C6.03326 88.9971 5.60229 84.9029 5.81777 80.5931C6.46423 63.3543 11.8514 47.8393 22.8412 34.2637C32.3225 22.4119 44.3898 14.2235 58.8273 9.48277C67.6622 6.68145 76.9281 5.38854 86.194 5.81951C106.881 7.11243 124.551 15.5164 138.557 30.8159C148.9 42.2366 155.15 55.5968 157.52 70.6808C159.89 86.6267 157.52 101.926 150.193 116.364C142.005 132.741 129.291 144.592 112.483 151.919C107.527 154.074 102.355 155.798 96.7528 156.66C96.3219 156.66 96.1064 157.306 95.8909 156.875C94.598 148.687 96.5374 140.929 99.7697 133.387C103.864 124.337 109.682 116.579 116.147 109.037C121.534 102.788 127.783 96.9701 133.816 91.1519C137.264 87.7042 140.281 84.2564 142.005 79.7312C145.022 72.4047 143.298 66.3711 136.833 61.6304C131.877 57.9671 126.059 56.0277 120.241 54.3039C114.638 52.58 109.036 50.4251 103.648 48.2702C102.571 44.607 99.9851 42.2366 96.5374 40.9437C92.0122 39.8663 87.487 40.2973 82.7463 41.5902ZM153.21 87.4887H153.641C154.503 84.4719 154.503 81.2396 154.503 78.0073C154.503 74.344 154.072 70.6808 153.426 67.0175C151.055 55.1658 145.668 44.8225 137.264 35.9875C132.093 30.6004 126.274 26.0752 120.456 21.3345C115.285 17.0248 109.682 13.7925 103.217 12.0686C96.9683 10.5602 90.9347 9.69825 84.4702 10.7757C84.0392 10.7757 83.6082 10.7757 83.6082 11.2067C83.6082 11.6376 84.0392 11.6376 84.4702 11.6376C93.9515 13.3615 103.002 16.3783 111.837 19.8261C120.456 23.2739 127.783 28.2301 133.17 35.9875C136.833 41.3747 140.281 46.9773 143.082 53.0109C146.746 61.1994 149.547 69.6034 151.271 78.2228C152.133 81.6706 152.779 84.4719 153.21 87.4887Z" fill="#DADEEF"/>
<path fill-rule="evenodd" clip-rule="evenodd" d="M71.5414 48.916C79.7298 48.916 86.1944 55.5961 86.1944 63.569C86.1944 71.7575 79.5144 78.2221 71.3259 78.4376C63.1374 78.4376 56.6729 71.7575 56.6729 63.569C56.6729 55.3806 63.3529 48.916 71.5414 48.916ZM81.8847 63.7845C81.8847 57.9664 77.3595 53.4412 71.5414 53.4412C65.7233 53.4412 61.1981 57.9664 61.1981 63.7845C61.1981 69.3872 65.7233 74.1279 71.3259 74.1279H71.5414C77.144 74.1279 81.6692 69.6027 81.8847 63.7845Z" fill="#FCFDFB"/>
<path fill-rule="evenodd" clip-rule="evenodd" d="M83.609 94.1677C89.2117 97.6155 95.4607 98.0465 101.71 97.831C110.329 97.4 118.518 95.4607 126.275 92.0129C129.292 90.72 132.309 89.4271 135.11 87.7032C135.326 87.4877 135.541 87.2722 135.972 87.4877C135.757 88.1341 135.11 88.3496 134.464 88.7806C126.06 94.3832 116.794 97.831 106.881 99.7704C101.279 100.848 95.4607 100.848 90.0736 98.9084C87.2723 97.831 84.6864 96.1071 83.609 94.1677ZM82.7471 41.5892C87.2723 40.2962 92.013 39.8653 96.5382 41.5892C99.9859 42.8821 102.572 45.2524 103.649 48.9157C97.1846 45.4679 90.0736 43.3131 82.7471 41.5892Z" fill="#7E8295"/>
<path fill-rule="evenodd" clip-rule="evenodd" d="M124.336 81.4558C122.612 81.4558 121.104 79.9474 121.104 78.2235C121.104 76.4996 122.396 74.9912 124.12 74.9912C125.844 74.9912 127.353 76.2841 127.568 78.008C127.353 79.9474 126.06 81.4558 124.336 81.4558Z" fill="#FCFDFB"/>
<path fill-rule="evenodd" clip-rule="evenodd" d="M136.833 86.8421C136.833 87.0576 136.618 87.2731 136.402 87.2731C136.402 86.8421 136.618 86.6266 136.833 86.8421ZM137.48 86.4111L136.833 86.8421L136.618 86.6266C137.049 86.4111 137.264 86.4111 137.48 86.4111Z" fill="#A9ACBF"/>
<path fill-rule="evenodd" clip-rule="evenodd" d="M153.212 87.4884C152.565 84.4716 151.919 81.6703 151.488 78.6535C149.764 69.8186 146.747 61.4146 143.299 53.4417C140.713 47.4081 137.266 41.8054 133.387 36.4183C128 28.6608 120.889 23.7046 112.054 20.2568C103.003 16.8091 94.1685 13.5768 84.6871 12.0684C84.2562 12.0684 83.8252 12.0684 83.8252 11.6374C83.8252 11.2064 84.2562 11.2064 84.6871 11.2064C90.9362 10.129 97.1853 10.7755 103.434 12.4993C109.899 14.2232 115.502 17.671 120.673 21.7652C126.491 26.5059 132.31 31.0311 137.481 36.4183C145.885 45.2532 151.272 55.5965 153.643 67.4483C154.289 71.1115 154.72 74.7748 154.72 78.438C154.72 81.4548 154.72 84.6871 153.858 87.9194L153.212 87.4884Z" fill="#FFFEFC"/>
<path fill-rule="evenodd" clip-rule="evenodd" d="M81.8859 63.7844C81.8859 69.387 77.3607 74.1277 71.758 74.1277H71.5426C65.9399 74.1277 61.1992 69.6025 61.1992 63.7844V63.5689C61.1992 57.7508 65.9399 53.2256 71.5426 53.2256C77.1452 53.2256 81.8859 57.9663 81.8859 63.7844Z" fill="#7E8295"/>
<path fill-rule="evenodd" clip-rule="evenodd" d="M408.776 105.374C408.561 105.589 408.345 105.589 408.13 105.805C401.45 113.347 393.046 114.64 383.995 112.27C372.79 109.468 366.757 101.495 364.386 90.5055C362.878 83.3944 363.309 76.2834 366.11 69.6033C371.066 57.7516 382.272 51.287 394.985 53.0109C400.803 53.8728 406.191 55.8122 410.285 60.1219C413.302 63.3542 415.025 67.233 415.672 71.5427C415.887 72.4047 415.456 72.6201 414.81 72.6201C412.224 72.6201 409.423 72.6201 406.837 72.6201C406.19 72.6201 405.975 72.4046 405.76 71.7582C404.467 65.9401 400.588 62.7078 394.985 61.6303C388.521 60.3374 382.918 61.6303 378.608 66.802C374.73 71.5427 373.652 77.3608 373.652 83.3944C373.652 87.9196 374.514 92.2293 376.453 96.1081C380.979 104.728 392.184 107.744 400.588 102.788C405.329 99.9869 406.837 95.4616 407.268 90.29C407.268 89.2125 406.621 89.428 405.975 89.428C401.665 89.428 397.571 89.428 393.261 89.428C391.968 89.428 391.753 88.9971 391.753 87.9196C391.753 86.1957 391.753 84.6873 391.753 82.9635C391.753 81.886 392.184 81.6705 393.046 81.6705C400.372 81.6705 407.914 81.6705 415.241 81.6705C416.103 81.6705 416.534 81.886 416.534 82.748C416.534 92.2294 416.534 101.495 416.534 110.977C416.534 111.839 416.318 112.054 415.456 112.054C413.733 112.054 411.578 112.485 410.285 111.839C408.992 110.977 409.423 108.822 408.992 107.098C408.992 106.451 408.776 105.805 408.776 105.374ZM238.111 72.6201C236.819 72.6201 235.526 72.6201 234.017 72.6201C233.155 72.6201 232.94 72.4047 232.724 71.5427C231 65.5091 227.122 61.8458 220.873 61.1994C213.977 60.5529 208.159 62.7078 204.711 68.9569C199.539 78.4382 199.755 88.1351 204.927 97.401C208.374 103.65 215.916 106.451 222.812 104.512C228.846 102.788 231.647 98.263 232.94 92.4448C233.371 90.0745 233.371 90.0745 235.741 90.0745C237.896 90.0745 240.051 90.0745 242.206 90.0745C243.068 90.0745 243.283 90.29 243.068 91.1519C241.99 102.573 234.664 111.408 223.458 113.131C207.297 115.717 193.937 105.805 191.351 89.6435C190.274 82.5325 190.92 75.6369 193.721 68.9569C198.678 57.7516 209.667 51.718 221.95 53.2264C227.768 54.0883 233.155 56.0277 237.465 60.3374C240.482 63.5697 242.206 67.4485 242.852 71.7582C243.068 72.6201 242.852 72.8356 241.99 72.8356C240.913 72.4046 239.404 72.6201 238.111 72.6201ZM555.307 111.839C551.643 111.839 548.411 111.839 544.963 111.839C544.102 111.839 543.671 111.408 543.455 110.761C539.792 104.728 535.913 98.9094 532.25 92.8758C531.603 91.7984 531.388 91.7984 530.31 92.6603C526.647 95.2462 525.139 98.6939 525.785 103.219C526.216 105.589 525.785 108.175 525.785 110.761C525.785 111.839 525.354 112.054 524.492 112.054C522.337 112.054 520.183 112.054 518.028 112.054C516.95 112.054 516.735 111.623 516.735 110.546C516.735 101.711 516.735 92.8758 516.735 83.8254C516.735 74.5595 516.735 65.2936 516.735 55.8122C516.735 54.3038 517.166 53.8728 518.674 54.0883C520.614 54.3038 522.553 54.3038 524.492 54.0883C525.785 54.0883 526.001 54.5193 526.001 55.5967C526.001 65.2936 526.001 74.9905 526.001 84.6873V86.4112L526.432 86.6267C527.078 85.7648 527.94 84.9028 528.587 84.0409C532.896 79.5157 537.206 75.206 541.731 70.6808C542.162 70.2498 542.593 69.8188 543.24 69.8188C546.687 69.8188 550.135 69.8188 553.583 69.8188C553.583 70.4653 552.936 70.6808 552.721 71.1117C548.196 75.4214 543.886 79.7312 539.145 84.0409C538.068 84.9028 538.068 85.5493 538.93 86.8422C544.102 94.5997 549.273 102.357 554.445 110.115C554.445 110.761 554.876 111.192 555.307 111.839ZM448.857 93.3068C444.116 93.3068 439.591 93.3068 434.85 93.3068C433.773 93.3068 433.557 93.5223 433.557 94.5997C433.988 103.004 441.746 108.175 449.503 104.943C451.658 104.081 453.382 102.357 454.244 99.9868C454.675 98.9094 455.321 98.6939 456.183 98.6939C458.123 98.6939 460.277 98.6939 462.217 98.6939C463.294 98.6939 463.51 98.9094 463.079 99.9868C460.708 107.529 455.537 111.623 447.779 112.701C440.884 113.778 434.419 112.27 429.463 107.098C426.015 103.435 424.507 98.6939 424.076 93.7378C423.645 87.7041 424.507 81.886 428.386 76.7144C433.342 70.2498 440.022 67.8794 447.779 69.1723C455.968 70.6808 460.924 75.8524 463.294 83.6099C464.156 86.4112 464.372 89.2126 464.156 92.2294C464.156 93.3068 463.725 93.5223 462.863 93.5223C458.338 93.3068 453.597 93.3068 448.857 93.3068ZM444.332 87.2732C447.564 87.2732 450.796 87.2732 453.813 87.2732C454.89 87.2732 455.106 87.0577 454.89 85.9803C454.028 80.3776 449.934 76.2834 444.547 76.0679C438.944 75.8524 434.419 79.7312 433.557 85.5493C433.342 86.6267 433.557 87.0577 434.85 87.0577C438.082 87.2732 441.099 87.2732 444.332 87.2732ZM249.317 90.9364C249.317 88.3506 249.748 85.5493 250.394 82.9635C253.195 73.913 261.168 68.3104 271.081 68.9569C278.623 69.3878 284.872 71.9737 288.535 78.6537C292.845 86.8422 292.845 95.4616 288.32 103.435C284.225 110.977 277.114 113.347 268.926 112.916C256.643 112.27 249.317 103.866 249.317 90.9364ZM258.583 90.9364C258.583 94.5997 259.229 97.832 261.384 100.849C264.832 105.805 271.512 107.313 276.468 103.866C277.545 103.004 278.623 102.142 279.485 101.064C283.148 95.6771 283.364 86.6267 279.485 81.0241C274.96 74.5595 265.478 74.5595 261.168 81.2396C259.229 84.0409 258.583 87.4887 258.583 90.9364ZM557.677 91.1519C557.677 85.1183 558.97 79.7312 563.064 75.206C567.158 70.4653 572.761 68.7414 578.795 68.7414C584.828 68.7414 590.431 70.4653 594.741 75.206C599.266 80.3776 600.343 86.6267 599.912 93.3068C599.697 95.6771 599.266 98.0475 598.404 100.202C595.172 108.606 587.414 113.347 577.502 112.701C565.866 112.054 558.539 104.512 557.893 92.8758C557.893 92.4448 557.677 91.5829 557.677 91.1519ZM590.646 91.5829C590.646 87.2732 589.569 83.6099 588.061 81.0241C584.828 75.8524 577.933 74.5595 572.977 77.7918C571.684 78.6537 570.606 79.7312 569.744 81.0241C566.081 86.4112 566.297 95.4616 569.744 100.633C573.192 105.589 579.872 107.098 584.828 103.65C586.121 102.788 586.983 101.926 587.845 100.633C590 97.832 590.646 94.3842 590.646 91.5829ZM327.323 75.8524C329.908 72.6201 332.925 70.2498 337.02 69.1723C340.683 68.3104 344.346 68.5259 347.794 70.0343C352.965 72.1892 355.12 76.7144 355.336 82.1015C355.551 91.5829 355.336 101.064 355.336 110.546C355.336 111.623 355.12 111.839 354.043 111.839C351.888 111.839 349.733 111.839 347.578 111.839C346.501 111.839 346.07 111.623 346.07 110.33C346.07 102.357 346.07 94.1687 346.07 86.1957C346.07 84.4719 345.854 82.748 345.423 81.2396C344.131 76.9299 340.036 75.206 335.08 76.4989C330.77 77.7918 327.969 81.6705 327.969 86.6267C327.969 94.3842 327.969 102.357 327.969 110.115C327.969 111.408 327.754 112.054 326.245 111.839C324.306 111.623 322.151 111.623 320.212 111.839C319.134 111.839 318.703 111.623 318.703 110.33C318.703 104.297 318.703 98.4784 318.703 92.4448C318.703 85.5493 318.703 78.6537 318.703 71.7582C318.703 70.2498 319.134 69.8188 320.643 70.0343C322.582 70.2498 324.306 70.0343 326.245 70.0343C327.323 70.0343 327.754 70.2498 327.538 71.3272C327.323 72.8356 327.323 74.344 327.323 75.8524ZM504.021 84.0409C503.806 84.0409 503.59 84.0409 503.375 84.0409C501.004 84.2564 499.496 84.0409 498.418 81.2396C495.833 74.775 485.489 74.5595 481.18 80.5931C479.671 82.5325 479.025 84.9028 478.594 87.4887C478.163 91.5829 478.163 95.6771 479.887 99.5559C482.042 104.297 485.92 106.451 490.876 105.805C494.971 105.159 497.772 102.573 498.849 98.0475C499.065 96.7546 499.711 96.3236 501.004 96.5391C503.159 96.5391 505.099 96.5391 507.253 96.5391C508.331 96.5391 508.546 96.97 508.331 97.832C506.176 108.175 498.849 113.993 488.075 113.347C477.301 112.701 470.19 105.589 469.328 94.5997C468.897 89.859 469.328 85.1183 471.267 80.5931C474.5 73.0511 481.826 68.7414 490.446 69.1723C495.617 69.3878 500.358 70.6808 504.237 74.344C506.607 76.7144 507.9 79.7312 508.546 82.9635C508.762 84.0409 508.331 84.4719 507.253 84.2564C506.391 84.0409 505.314 84.0409 504.021 84.0409ZM308.575 91.1519C308.575 97.401 308.575 103.65 308.575 109.899C308.575 111.623 308.144 112.054 306.636 111.839C304.697 111.623 302.973 111.623 301.033 111.839C299.74 111.839 299.309 111.623 299.309 110.115C299.309 98.9094 299.309 87.7041 299.309 76.4989C299.309 74.775 299.309 73.0511 299.309 71.3272C299.309 70.2498 299.525 70.0343 300.602 70.0343C302.757 70.0343 304.912 70.0343 307.067 70.0343C308.36 70.0343 308.791 70.2498 308.791 71.7582C308.575 78.2228 308.575 84.6873 308.575 91.1519ZM304.266 54.0883C305.559 54.3038 307.498 53.4419 308.36 54.3038C309.222 55.1658 308.575 57.1051 308.575 58.6136C308.575 59.9065 309.222 61.6303 308.36 62.4923C307.498 63.3542 305.774 62.7078 304.481 62.7078C302.757 62.7078 300.602 63.3542 299.525 62.4923C298.663 61.4149 299.309 59.26 299.309 57.7516C299.309 54.0883 299.309 54.0883 302.973 54.0883C302.973 54.0883 304.266 54.0883 304.266 54.0883Z" fill="white"/>
</svg>