<svg fill="none" viewBox="0 0 600 141" xmlns="http://www.w3.org/2000/svg"><path d="M87.1 102.201l-25 10.9v-1.1c-4.8 1.2-10.2 1.9-15.2 2.2-23.6-.2-42.2-12.6-42.5-27.2v-5.4c7.7 11.2 23.5 18.8 42.5 18.5 6.4.3 13-.7 18.5-2.2l2.2-5.4c-6.5 2-13.7 3.3-20.7 3.3-23.6 0-42.2-12.3-42.5-27.2v-4.4c7.7 10.4 23.5 17.9 42.5 17.4 8.6.5 16.9-1.3 24-4.4l1.1-5.4c-6.9 3.6-15.8 5.7-25 5.4-23.6.3-42.2-12-42.5-27.2v-4.4C12.2 56.2 28 63.8 47 64.1c10.8-.3 21-3.2 29.4-7.6l1.1-6.5c-7.6 5.6-18.7 9.3-30.5 9.8-23.6-.5-42.2-12.9-42.5-28.3.2-14.7 18.9-27 42.5-27.2 14 .2 27.1 5.1 34.8 13.1l.8 1.3h5.5l-.8-1.3C79.6 6.9 64.1 0 47 0 20.8-.1 0 14.2 0 31.4V88c.9 16.8 21.2 30.5 46.8 30.5 16.9.1 32.2-6.6 40.3-16.3z" fill="#fff"/><path d="M76.9 140.5l8.8-37.4-25.3 11 15.4-64.8H46.2l7.7-31.9h94.5l-7.7 31.9h-30.8l-6.6 17.6 34.1-14.3zm15.4-45l-4.4 22 36.3-54.9-29.7 13.2L107.7 45h29.7l5.5-23.1H57.1L51.6 45h29.7L67 106.5z" fill="#fabf2c"/><path d="M211.1 38.8v.1c.1 3.5-1 6.2-3.2 8.2s-5.2 3-9.1 3-7.1-1.3-9.5-3.8-3.6-5.8-3.6-9.8V30c0-4 1.2-7.3 3.5-9.8 2.4-2.5 5.5-3.8 9.3-3.8 4 0 7.1 1 9.4 2.9 2.3 2 3.4 4.7 3.3 8.2v.1h-6.4c0-2.1-.5-3.7-1.5-4.7s-2.6-1.5-4.7-1.5c-2 0-3.5.8-4.6 2.4s-1.7 3.6-1.7 6.1v6.6c0 2.5.6 4.6 1.7 6.2 1.2 1.6 2.8 2.4 4.9 2.4 2 0 3.4-.5 4.4-1.5s1.5-2.6 1.5-4.7h6.3zm36.2-2.6c0 4-1.3 7.4-3.8 10s-5.8 3.9-9.9 3.9-7.3-1.3-9.9-3.9c-2.5-2.6-3.8-6-3.8-10v-5.9c0-4 1.3-7.3 3.8-10 2.5-2.6 5.8-4 9.8-4 4.1 0 7.4 1.3 9.9 4 2.6 2.6 3.8 6 3.8 10v5.9zm-6.6-6c0-2.6-.6-4.6-1.9-6.3-1.3-1.6-3-2.5-5.3-2.5-2.2 0-4 .8-5.2 2.5-1.2 1.6-1.9 3.7-1.9 6.3v5.9c0 2.6.6 4.7 1.9 6.4 1.2 1.6 3 2.5 5.2 2.5 2.3 0 4-.8 5.3-2.5 1.3-1.6 1.9-3.8 1.9-6.4zm23.6 19.4h-6.6V16.8h6.6zm37.9 0h-6.6l-13.2-22.1h-.1v22.1h-6.6V16.8h6.6l13.2 22.1h.1V16.8h6.6zm33.1-27.7h-9.4v27.7h-6.6V21.9h-9.2v-5.1h25.2zm27.2 13.3h-12.2v9.4h14.5v5h-21V16.8h21v5.1h-14.4v8.2h12.2v5.1zm18.3 9.4h14.7v5h-21.3V16.8h6.6zm42.7-9.4h-12.2v9.4h14.5v5h-21V16.8h21v5.1h-14.4v8.2h12.2v5.1zm36.9 10c-1 1.3-2.5 2.5-4.6 3.5-2 1-4.6 1.5-7.8 1.5-4 0-7.2-1.2-9.7-3.7s-3.8-5.7-3.8-9.7v-6.9c0-4 1.2-7.2 3.7-9.7 2.4-2.5 5.6-3.8 9.4-3.8 4 0 7.1 1 9.2 2.9s3.2 4.4 3.1 7.6v.1h-6.2c0-1.7-.5-3.1-1.5-4.1s-2.5-1.5-4.4-1.5c-2 0-3.6.8-4.9 2.3-1.2 1.6-1.8 3.6-1.8 6v6.9c0 2.5.6 4.5 1.9 6.1s3 2.3 5.1 2.3c1.6 0 2.8-.2 3.7-.5s1.6-.7 2.1-1.2v-6.4h-6.3v-4.6h12.9v12.9zm17-8.7v13.1h-6.6V16.8h11.4c3.7 0 6.7.9 8.8 2.6s3.2 4.1 3.2 7.1c0 1.7-.4 3.1-1.3 4.4-.9 1.2-2.2 2.2-3.9 3 1.9.6 3.3 1.5 4.2 2.9.8 1.3 1.3 3 1.3 5v2.4c0 .9.1 1.9.4 2.9.2 1 .7 1.7 1.3 2.2v.5h-6.8c-.6-.5-1-1.3-1.2-2.4s-.3-2.2-.3-3.2v-2.3c0-1.6-.4-2.9-1.3-3.8s-2.2-1.4-3.8-1.4h-5.4zm0-5h4.7c1.8 0 3.2-.4 4.1-1.2s1.4-1.9 1.4-3.5c0-1.5-.5-2.7-1.4-3.6s-2.2-1.3-4-1.3h-4.8zm44.7 11.1h-10.6l-2.2 7.1h-6.9l11.1-32.8h6.7l11 32.8h-6.9zm-9-5.2h7.4l-3.6-11.6h-.1zm32.7.3v11.9h-6.6V16.8h12.6c3.8 0 6.7 1 8.9 2.9s3.2 4.5 3.2 7.6-1.1 5.7-3.2 7.6c-2.2 1.9-5.1 2.9-8.9 2.9h-6zm0-5h6c1.8 0 3.2-.5 4.2-1.5.9-1 1.4-2.3 1.4-3.8 0-1.6-.5-2.9-1.4-3.9s-2.3-1.5-4.2-1.5h-6zM600 49.6h-6.6V36H580v13.6h-6.6V16.8h6.6v14.1h13.4V16.8h6.6zm-402.3 53.601h-4.1v-21.6h-7.4v-3.5h18.9v3.5h-7.4zm27.5 0h-4.1v-11.7c0-1.5-.3-2.6-.9-3.3s-1.5-1.1-2.8-1.1c-1.7 0-2.9.5-3.7 1.5s-1.2 2.7-1.2 5.1v9.4h-4v-26.7h4v6.8c0 1.1-.1 2.2-.2 3.5h.3c.5-.9 1.3-1.6 2.3-2.1s2.1-.8 3.4-.8c4.6 0 6.9 2.3 6.9 7zm13.9.3c-3 0-5.3-.9-6.9-2.6-1.7-1.7-2.5-4.1-2.5-7.1 0-3.1.8-5.5 2.3-7.3s3.7-2.7 6.4-2.7c2.5 0 4.5.8 5.9 2.3 1.5 1.5 2.2 3.6 2.2 6.3v2.2h-12.7c.1 1.8.6 3.3 1.5 4.2.9 1 2.3 1.5 4 1.5 1.1 0 2.2-.1 3.1-.3 1-.2 2-.6 3.1-1.1v3.3c-1 .5-2 .8-3 1-.9.2-2.1.3-3.4.3zm-.7-16.6c-1.3 0-2.3.4-3.1 1.2s-1.2 2-1.4 3.6h8.6c0-1.6-.4-2.8-1.1-3.6s-1.7-1.2-3-1.2zm31.3.3h-4.6v16H261v-16h-3.1v-1.9l3.1-1.2v-1.2c0-2.2.5-3.9 1.6-5s2.7-1.6 4.8-1.6c1.4 0 2.8.2 4.2.7l-1.1 3.1c-1-.3-1.9-.5-2.9-.5-.9 0-1.6.3-2 .8-.4.6-.6 1.4-.6 2.5v1.2h4.6v3.1zm16.7 16l-.6-2.5h-.2c-.6.9-1.4 1.6-2.4 2.1s-2.2.8-3.5.8c-2.3 0-4-.6-5.2-1.7s-1.7-2.9-1.7-5.2V84.2h4.1v11.7c0 1.5.3 2.5.9 3.3.6.7 1.5 1.1 2.8 1.1 1.7 0 2.9-.5 3.7-1.5s1.2-2.7 1.2-5.1v-9.5h4.1v19h-3.2zm16-3c1 0 2-.2 3-.5v3c-.4.2-1 .4-1.7.5s-1.4.2-2.2.2c-3.8 0-5.7-2-5.7-6V87.2h-2.6v-1.8l2.8-1.5 1.4-4h2.5v4.2h5.4v3.1h-5.4v10.2c0 1 .2 1.7.7 2.2.3.4 1 .6 1.8.6zm20.1 3l-.6-2.5h-.2c-.6.9-1.4 1.6-2.4 2.1s-2.2.8-3.5.8c-2.3 0-4-.6-5.2-1.7-1.1-1.1-1.7-2.9-1.7-5.2V84.2h4.1v11.7c0 1.5.3 2.5.9 3.3.6.7 1.5 1.1 2.8 1.1 1.7 0 2.9-.5 3.7-1.5s1.2-2.7 1.2-5.1v-9.5h4.1v19h-3.2zm18.6-19.4c.8 0 1.5.1 2 .2l-.4 3.8c-.6-.1-1.2-.2-1.8-.2-1.6 0-2.9.5-3.9 1.6s-1.5 2.4-1.5 4.1v9.9h-4v-19h3.2l.5 3.3h.2c.6-1.1 1.5-2 2.5-2.7.9-.6 2-1 3.2-1zm13.1 19.7c-3 0-5.3-.9-6.9-2.6-1.7-1.7-2.5-4.1-2.5-7.1 0-3.1.8-5.5 2.3-7.3s3.7-2.7 6.4-2.7c2.5 0 4.5.8 5.9 2.3 1.5 1.5 2.2 3.6 2.2 6.3v2.2h-12.7c.1 1.8.6 3.3 1.5 4.2.9 1 2.3 1.5 4 1.5 1.1 0 2.2-.1 3.1-.3 1-.2 2-.6 3.1-1.1v3.3c-1 .5-2 .8-3 1s-2.1.3-3.4.3zm-.7-16.6c-1.3 0-2.3.4-3.1 1.2s-1.2 2-1.4 3.6h8.6c0-1.6-.4-2.8-1.1-3.6-.8-.8-1.8-1.2-3-1.2zm38.6 6.7c0 3.1-.8 5.5-2.4 7.3-1.6 1.7-3.8 2.6-6.6 2.6-1.8 0-3.3-.4-4.7-1.2s-2.4-2-3.1-3.5-1.1-3.2-1.1-5.2c0-3.1.8-5.5 2.4-7.2s3.8-2.6 6.7-2.6c2.7 0 4.9.9 6.5 2.7s2.3 4.1 2.3 7.1zm-13.8 0c0 4.4 1.6 6.6 4.9 6.6 3.2 0 4.8-2.2 4.8-6.6 0-4.3-1.6-6.5-4.8-6.5-1.7 0-2.9.6-3.7 1.7s-1.2 2.7-1.2 4.8zm28-6.4h-4.6v16h-4.1v-16h-3.1v-1.9l3.1-1.2v-1.2c0-2.2.5-3.9 1.6-5s2.7-1.6 4.8-1.6c1.4 0 2.8.2 4.2.7l-1.1 3.1c-1-.3-1.9-.5-2.9-.5-.9 0-1.6.3-2 .8s-.6 1.4-.6 2.5v1.2h4.6v3.1zm28.4 16h-4.1v-11.7c0-1.5-.3-2.5-.8-3.3-.5-.7-1.4-1.1-2.6-1.1-1.6 0-2.7.5-3.4 1.5s-1.1 2.7-1.1 5.1v9.5h-4v-19h3.2l.6 2.5h.2c.5-.9 1.3-1.6 2.3-2.1s2.1-.7 3.3-.7c2.9 0 4.9 1 5.8 3h.3c.6-.9 1.4-1.7 2.4-2.2s2.2-.8 3.5-.8c2.3 0 3.9.6 5 1.7 1 1.1 1.6 2.9 1.6 5.2v12.4h-4v-11.7c0-1.5-.3-2.5-.8-3.3-.6-.7-1.4-1.1-2.6-1.1-1.6 0-2.7.5-3.4 1.5s-1.1 2.5-1.1 4.5v10.1zm34.4-9.6c0 3.1-.8 5.5-2.4 7.3-1.6 1.7-3.8 2.6-6.6 2.6-1.8 0-3.3-.4-4.7-1.2s-2.4-2-3.1-3.5-1.1-3.2-1.1-5.2c0-3.1.8-5.5 2.4-7.2s3.8-2.6 6.7-2.6c2.7 0 4.9.9 6.5 2.7 1.5 1.8 2.3 4.1 2.3 7.1zm-13.8 0c0 4.4 1.6 6.6 4.9 6.6 3.2 0 4.8-2.2 4.8-6.6 0-4.3-1.6-6.5-4.8-6.5-1.7 0-2.9.6-3.7 1.7s-1.2 2.7-1.2 4.8zm35.2 9.6h-4.1v-11.7c0-1.5-.3-2.6-.9-3.3s-1.5-1.1-2.8-1.1c-1.7 0-3 .5-3.7 1.5s-1.2 2.7-1.2 5.1v9.5h-4v-19h3.2l.6 2.5h.2c.6-.9 1.4-1.6 2.4-2.1s2.2-.7 3.5-.7c4.6 0 6.8 2.3 6.8 7zm13.9.3c-3 0-5.3-.9-6.9-2.6-1.7-1.7-2.5-4.1-2.5-7.1 0-3.1.8-5.5 2.3-7.3s3.7-2.7 6.4-2.7c2.5 0 4.5.8 5.9 2.3 1.5 1.5 2.2 3.6 2.2 6.3v2.2h-12.7c.1 1.8.6 3.3 1.5 4.2.9 1 2.3 1.5 4 1.5 1.1 0 2.2-.1 3.1-.3s2-.6 3.1-1.1v3.3c-1 .5-2 .8-3 1s-2.1.3-3.4.3zm-.8-16.6c-1.3 0-2.3.4-3.1 1.2s-1.2 2-1.4 3.6h8.6c0-1.6-.4-2.8-1.1-3.6s-1.7-1.2-3-1.2zm9.2-2.7h4.4l3.9 10.8c.6 1.5 1 3 1.2 4.3h.1c.1-.6.3-1.4.6-2.3s1.7-5.2 4.4-12.8h4.4l-8.1 21.5c-1.5 3.9-3.9 5.9-7.4 5.9-.9 0-1.8-.1-2.6-.3v-3.2c.6.1 1.3.2 2.1.2 1.9 0 3.3-1.1 4.1-3.4l.7-1.8z" fill="#fff"/></svg>